<?xml version="1.0" encoding='UTF-8' standalone='no' ?>
<!DOCTYPE score-partwise PUBLIC "-//Recordare//DTD MusicXML 3.0 Partwise//EN" "http://www.musicxml.org/dtds/partwise.dtd">
<score-partwise version="3.0">
 <work>
  <work-title>I Concentrate on You</work-title>
 </work>
 <identification>
  <creator type="composer">1940 - Cole Porter</creator>
  <rights>www.realbook.site</rights>
  <encoding>
   <encoding-date>2023-03-19</encoding-date>
   <encoder>mosco</encoder>
   <software>Sibelius 22.9.0</software>
   <software>Direct export, not from Dolet</software>
   <encoding-description>Sibelius / MusicXML 3.0</encoding-description>
   <supports element="print" type="yes" value="yes" attribute="new-system" />
   <supports element="print" type="yes" value="yes" attribute="new-page" />
   <supports element="accidental" type="yes" />
   <supports element="beam" type="yes" />
   <supports element="stem" type="yes" />
  </encoding>
 </identification>
 <defaults>
  <scaling>
   <millimeters>210</millimeters>
   <tenths>2100</tenths>
  </scaling>
  <page-layout>
   <page-height>2970</page-height>
   <page-width>2100</page-width>
   <page-margins type="both">
    <left-margin>150</left-margin>
    <right-margin>150</right-margin>
    <top-margin>150</top-margin>
    <bottom-margin>150</bottom-margin>
   </page-margins>
  </page-layout>
  <system-layout>
   <system-margins>
    <left-margin>22</left-margin>
    <right-margin>0</right-margin>
   </system-margins>
   <system-distance>120</system-distance>
  </system-layout>
  <appearance>
   <line-width type="stem">1.25</line-width>
   <line-width type="beam">5</line-width>
   <line-width type="staff">0.9375</line-width>
   <line-width type="light barline">1.5625</line-width>
   <line-width type="heavy barline">5</line-width>
   <line-width type="leger">1.5625</line-width>
   <line-width type="ending">1.5625</line-width>
   <line-width type="wedge">1.25</line-width>
   <line-width type="enclosure">1.5625</line-width>
   <line-width type="tuplet bracket">1.25</line-width>
   <line-width type="bracket">5</line-width>
   <line-width type="dashes">1.5625</line-width>
   <line-width type="extend">0.9375</line-width>
   <line-width type="octave shift">1.5625</line-width>
   <line-width type="pedal">1.5625</line-width>
   <line-width type="slur middle">1.5625</line-width>
   <line-width type="slur tip">0.625</line-width>
   <line-width type="tie middle">1.5625</line-width>
   <line-width type="tie tip">0.625</line-width>
   <note-size type="cue">75</note-size>
   <note-size type="grace">60</note-size>
  </appearance>
  <music-font font-family="Opus Std" font-size="11.3386" />
  <word-font font-family="Quicksand" font-size="6.8209" />
  <lyric-font font-family="Quicksand" font-size="6.5551" />
  <lyric-language xml:lang="en" />
 </defaults>
 <credit page="1">
  <credit-words default-x="1050" default-y="155" font-family="Quicksand" font-style="normal" font-size="11.9587" font-weight="normal" justify="center" valign="middle">I Concentrate on You</credit-words>
 </credit>
 <credit page="1">
  <credit-words default-x="1950" default-y="84" font-family="Quicksand" font-style="normal" font-size="6.2894" font-weight="normal" justify="right" valign="middle">1940 - Cole Porter</credit-words>
 </credit>
 <credit page="1">
  <credit-words default-x="1050" default-y="150" font-family="Quicksand" font-style="normal" font-size="5.7579" font-weight="normal" justify="center" valign="middle">www.realbook.site</credit-words>
 </credit>
 <part-list>
  <score-part id="P1">
   <identification>
    <miscellaneous>
     <miscellaneous-field name="show-rhythms">false</miscellaneous-field>
    </miscellaneous>
   </identification>
   <part-name> </part-name>
   <part-name-display>
    <display-text> </display-text>
   </part-name-display>
   <part-abbreviation> </part-abbreviation>
   <part-abbreviation-display>
    <display-text> </display-text>
   </part-abbreviation-display>
   <score-instrument id="P1-I1">
    <instrument-name> </instrument-name>
    <virtual-instrument>
     <virtual-library>General MIDI</virtual-library>
     <virtual-name>Bright Piano</virtual-name>
    </virtual-instrument>
   </score-instrument>
  </score-part>
 </part-list>
 <part id="P1">
  <!--============== Part: P1, Measure: 1 ==============-->
  <measure number="1" width="588">
   <print new-page="yes">
    <system-layout>
     <system-margins>
      <left-margin>4</left-margin>
      <right-margin>0</right-margin>
     </system-margins>
     <top-system-distance>181</top-system-distance>
    </system-layout>
    <measure-layout>
     <measure-distance>4</measure-distance>
    </measure-layout>
   </print>
   <attributes>
    <divisions>256</divisions>
    <key color="#000000">
     <fifths>-3</fifths>
     <mode>major</mode>
    </key>
    <time symbol="cut" color="#000000">
     <beats>2</beats>
     <beat-type>2</beat-type>
    </time>
    <staves>1</staves>
    <clef number="1" color="#000000">
     <sign>G</sign>
     <line>2</line>
    </clef>
    <staff-details number="1" print-object="yes" />
   </attributes>
   <harmony color="#000000" default-y="38">
    <root>
     <root-step>E</root-step>
     <root-alter>-1</root-alter>
    </root>
    <kind>major-seventh</kind>
    <staff>1</staff>
   </harmony>
   <note default-x="113">
    <rest />
    <duration>256</duration>
    <instrument id="P1-I1" />
    <voice>1</voice>
    <type>quarter</type>
    <staff>1</staff>
   </note>
   <note color="#000000" default-x="232" default-y="-20">
    <pitch>
     <step>B</step>
     <alter>-1</alter>
     <octave>3</octave>
    </pitch>
    <duration>256</duration>
    <instrument id="P1-I1" />
    <voice>1</voice>
    <type>quarter</type>
    <stem>up</stem>
    <staff>1</staff>
   </note>
   <note color="#000000" default-x="350" default-y="-15">
    <pitch>
     <step>C</step>
     <octave>4</octave>
    </pitch>
    <duration>256</duration>
    <instrument id="P1-I1" />
    <voice>1</voice>
    <type>quarter</type>
    <stem>up</stem>
    <staff>1</staff>
   </note>
   <note color="#000000" default-x="469" default-y="-5">
    <pitch>
     <step>E</step>
     <alter>-1</alter>
     <octave>4</octave>
    </pitch>
    <duration>256</duration>
    <instrument id="P1-I1" />
    <voice>1</voice>
    <type>quarter</type>
    <stem>up</stem>
    <staff>1</staff>
   </note>
  </measure>
  <!--============== Part: P1, Measure: 2 ==============-->
  <measure number="2" width="372">
   <note color="#000000" default-x="15" default-y="-10">
    <pitch>
     <step>D</step>
     <octave>4</octave>
    </pitch>
    <duration>768</duration>
    <instrument id="P1-I1" />
    <voice>1</voice>
    <type>half</type>
    <dot />
    <stem>up</stem>
    <staff>1</staff>
   </note>
   <note color="#000000" default-x="254" default-y="-15">
    <pitch>
     <step>C</step>
     <octave>4</octave>
    </pitch>
    <duration>256</duration>
    <instrument id="P1-I1" />
    <voice>1</voice>
    <type>quarter</type>
    <stem>up</stem>
    <staff>1</staff>
   </note>
  </measure>
  <!--============== Part: P1, Measure: 3 ==============-->
  <measure number="3" width="461">
   <harmony color="#000000" default-y="10">
    <root>
     <root-step>E</root-step>
     <root-alter>-1</root-alter>
    </root>
    <kind>major-minor</kind>
    <staff>1</staff>
   </harmony>
   <note color="#000000" default-x="15" default-y="-10">
    <pitch>
     <step>D</step>
     <octave>4</octave>
    </pitch>
    <duration>384</duration>
    <instrument id="P1-I1" />
    <voice>1</voice>
    <type>quarter</type>
    <dot />
    <stem>up</stem>
    <staff>1</staff>
   </note>
   <note color="#000000" default-x="175" default-y="-10">
    <pitch>
     <step>D</step>
     <octave>4</octave>
    </pitch>
    <duration>128</duration>
    <instrument id="P1-I1" />
    <voice>1</voice>
    <type>eighth</type>
    <stem>up</stem>
    <staff>1</staff>
   </note>
   <note color="#000000" default-x="260" default-y="-10">
    <pitch>
     <step>D</step>
     <octave>4</octave>
    </pitch>
    <duration>512</duration>
    <tie type="start" />
    <instrument id="P1-I1" />
    <voice>1</voice>
    <type>half</type>
    <stem>up</stem>
    <staff>1</staff>
    <notations>
     <tied type="start" orientation="under" />
    </notations>
   </note>
  </measure>
  <!--============== Part: P1, Measure: 4 ==============-->
  <measure number="4" width="372">
   <note color="#000000" default-x="15" default-y="-10">
    <pitch>
     <step>D</step>
     <octave>4</octave>
    </pitch>
    <duration>768</duration>
    <tie type="stop" />
    <instrument id="P1-I1" />
    <voice>1</voice>
    <type>half</type>
    <dot />
    <stem>up</stem>
    <staff>1</staff>
    <notations>
     <tied type="stop" orientation="under" />
    </notations>
   </note>
   <note default-x="254">
    <rest />
    <duration>256</duration>
    <instrument id="P1-I1" />
    <voice>1</voice>
    <type>quarter</type>
    <staff>1</staff>
   </note>
  </measure>
  <!--============== Part: P1, Measure: 5 ==============-->
  <measure number="5" width="668">
   <print new-system="yes">
    <system-layout>
     <system-margins>
      <left-margin>0</left-margin>
      <right-margin>0</right-margin>
     </system-margins>
     <system-distance>116</system-distance>
    </system-layout>
   </print>
   <attributes>
    <staff-details number="1" print-object="yes" />
   </attributes>
   <harmony color="#000000" default-y="10">
    <root>
     <root-step>E</root-step>
     <root-alter>-1</root-alter>
    </root>
    <kind>minor</kind>
    <staff>1</staff>
   </harmony>
   <note default-x="96">
    <rest />
    <duration>256</duration>
    <instrument id="P1-I1" />
    <voice>1</voice>
    <type>quarter</type>
    <staff>1</staff>
   </note>
   <note color="#000000" default-x="225" default-y="-5">
    <pitch>
     <step>E</step>
     <alter>-1</alter>
     <octave>4</octave>
    </pitch>
    <duration>256</duration>
    <instrument id="P1-I1" />
    <voice>1</voice>
    <type>quarter</type>
    <stem>up</stem>
    <staff>1</staff>
   </note>
   <note color="#000000" default-x="355" default-y="5">
    <pitch>
     <step>G</step>
     <alter>-1</alter>
     <octave>4</octave>
    </pitch>
    <duration>170</duration>
    <instrument id="P1-I1" />
    <voice>1</voice>
    <type>quarter</type>
    <accidental>flat</accidental>
    <time-modification>
     <actual-notes>3</actual-notes>
     <normal-notes>2</normal-notes>
     <normal-type>quarter</normal-type>
    </time-modification>
    <stem>up</stem>
    <staff>1</staff>
    <notations>
     <tuplet type="start" bracket="yes" number="1" default-y="17" placement="above" />
    </notations>
   </note>
   <note color="#000000" default-x="460" default-y="10">
    <pitch>
     <step>A</step>
     <alter>-1</alter>
     <octave>4</octave>
    </pitch>
    <duration>171</duration>
    <instrument id="P1-I1" />
    <voice>1</voice>
    <type>quarter</type>
    <time-modification>
     <actual-notes>3</actual-notes>
     <normal-notes>2</normal-notes>
     <normal-type>quarter</normal-type>
    </time-modification>
    <stem>up</stem>
    <staff>1</staff>
   </note>
   <note color="#000000" default-x="564" default-y="-55">
    <pitch>
     <step>B</step>
     <alter>-1</alter>
     <octave>4</octave>
    </pitch>
    <duration>171</duration>
    <instrument id="P1-I1" />
    <voice>1</voice>
    <type>quarter</type>
    <time-modification>
     <actual-notes>3</actual-notes>
     <normal-notes>2</normal-notes>
     <normal-type>quarter</normal-type>
    </time-modification>
    <stem>down</stem>
    <staff>1</staff>
    <notations>
     <tuplet type="stop" bracket="yes" number="1" default-y="17" placement="above" />
    </notations>
   </note>
  </measure>
  <!--============== Part: P1, Measure: 6 ==============-->
  <measure number="6" width="406">
   <note color="#000000" default-x="15" default-y="10">
    <pitch>
     <step>A</step>
     <alter>-1</alter>
     <octave>4</octave>
    </pitch>
    <duration>768</duration>
    <instrument id="P1-I1" />
    <voice>1</voice>
    <type>half</type>
    <dot />
    <stem>up</stem>
    <staff>1</staff>
   </note>
   <note color="#000000" default-x="276" default-y="5">
    <pitch>
     <step>G</step>
     <alter>-1</alter>
     <octave>4</octave>
    </pitch>
    <duration>256</duration>
    <instrument id="P1-I1" />
    <voice>1</voice>
    <type>quarter</type>
    <accidental>flat</accidental>
    <stem>up</stem>
    <staff>1</staff>
   </note>
  </measure>
  <!--============== Part: P1, Measure: 7 ==============-->
  <measure number="7" width="318">
   <harmony color="#000000" default-y="10">
    <root>
     <root-step>A</root-step>
     <root-alter>-1</root-alter>
    </root>
    <kind>minor-sixth</kind>
    <bass>
     <bass-step>C</bass-step>
     <bass-alter>-1</bass-alter>
    </bass>
    <staff>1</staff>
   </harmony>
   <note color="#000000" default-x="15">
    <pitch>
     <step>A</step>
     <alter>-1</alter>
     <octave>4</octave>
    </pitch>
    <duration>1024</duration>
    <tie type="start" />
    <instrument id="P1-I1" />
    <voice>1</voice>
    <type>whole</type>
    <staff>1</staff>
    <notations>
     <tied type="start" orientation="under" />
    </notations>
   </note>
  </measure>
  <!--============== Part: P1, Measure: 8 ==============-->
  <measure number="8" width="406">
   <note color="#000000" default-x="15" default-y="10">
    <pitch>
     <step>A</step>
     <alter>-1</alter>
     <octave>4</octave>
    </pitch>
    <duration>768</duration>
    <tie type="stop" />
    <instrument id="P1-I1" />
    <voice>1</voice>
    <type>half</type>
    <dot />
    <stem>up</stem>
    <staff>1</staff>
    <notations>
     <tied type="stop" orientation="under" />
    </notations>
   </note>
   <note default-x="276">
    <rest />
    <duration>256</duration>
    <instrument id="P1-I1" />
    <voice>1</voice>
    <type>quarter</type>
    <staff>1</staff>
   </note>
  </measure>
  <!--============== Part: P1, Measure: 9 ==============-->
  <measure number="9" width="602">
   <print new-system="yes">
    <system-layout>
     <system-margins>
      <left-margin>0</left-margin>
      <right-margin>0</right-margin>
     </system-margins>
     <system-distance>116</system-distance>
    </system-layout>
   </print>
   <attributes>
    <staff-details number="1" print-object="yes" />
   </attributes>
   <harmony color="#000000" default-y="16">
    <root>
     <root-step>B</root-step>
     <root-alter>-1</root-alter>
    </root>
    <kind>dominant</kind>
    <staff>1</staff>
   </harmony>
   <note default-x="96">
    <rest />
    <duration>256</duration>
    <instrument id="P1-I1" />
    <voice>1</voice>
    <type>quarter</type>
    <staff>1</staff>
   </note>
   <note color="#000000" default-x="210" default-y="10">
    <pitch>
     <step>A</step>
     <alter>-1</alter>
     <octave>4</octave>
    </pitch>
    <duration>256</duration>
    <instrument id="P1-I1" />
    <voice>1</voice>
    <type>quarter</type>
    <stem>up</stem>
    <staff>1</staff>
   </note>
   <note color="#000000" default-x="325" default-y="10">
    <pitch>
     <step>A</step>
     <alter>-1</alter>
     <octave>4</octave>
    </pitch>
    <duration>170</duration>
    <instrument id="P1-I1" />
    <voice>1</voice>
    <type>quarter</type>
    <time-modification>
     <actual-notes>3</actual-notes>
     <normal-notes>2</normal-notes>
     <normal-type>quarter</normal-type>
    </time-modification>
    <stem>up</stem>
    <staff>1</staff>
    <notations>
     <tuplet type="start" bracket="yes" number="1" default-y="22" placement="above" />
    </notations>
   </note>
   <note color="#000000" default-x="418" default-y="-55">
    <pitch>
     <step>B</step>
     <alter>-1</alter>
     <octave>4</octave>
    </pitch>
    <duration>171</duration>
    <instrument id="P1-I1" />
    <voice>1</voice>
    <type>quarter</type>
    <time-modification>
     <actual-notes>3</actual-notes>
     <normal-notes>2</normal-notes>
     <normal-type>quarter</normal-type>
    </time-modification>
    <stem>down</stem>
    <staff>1</staff>
   </note>
   <note color="#000000" default-x="510" default-y="-55">
    <pitch>
     <step>B</step>
     <octave>4</octave>
    </pitch>
    <duration>171</duration>
    <instrument id="P1-I1" />
    <voice>1</voice>
    <type>quarter</type>
    <accidental>natural</accidental>
    <time-modification>
     <actual-notes>3</actual-notes>
     <normal-notes>2</normal-notes>
     <normal-type>quarter</normal-type>
    </time-modification>
    <stem>down</stem>
    <staff>1</staff>
    <notations>
     <tuplet type="stop" bracket="yes" number="1" default-y="22" placement="above" />
    </notations>
   </note>
  </measure>
  <!--============== Part: P1, Measure: 10 ==============-->
  <measure number="10" width="439">
   <harmony color="#000000" default-y="16">
    <root>
     <root-step>C</root-step>
    </root>
    <kind>half-diminished</kind>
    <staff>1</staff>
   </harmony>
   <note color="#000000" default-x="15" default-y="-55">
    <pitch>
     <step>B</step>
     <alter>-1</alter>
     <octave>4</octave>
    </pitch>
    <duration>256</duration>
    <instrument id="P1-I1" />
    <voice>1</voice>
    <type>quarter</type>
    <accidental>flat</accidental>
    <stem>down</stem>
    <staff>1</staff>
   </note>
   <note color="#000000" default-x="129" default-y="10">
    <pitch>
     <step>A</step>
     <octave>4</octave>
    </pitch>
    <duration>256</duration>
    <instrument id="P1-I1" />
    <voice>1</voice>
    <type>quarter</type>
    <accidental>natural</accidental>
    <stem>up</stem>
    <staff>1</staff>
   </note>
   <harmony color="#000000" default-y="16">
    <root>
     <root-step>B</root-step>
     <root-alter>-1</root-alter>
    </root>
    <kind>dominant</kind>
    <bass>
     <bass-step>D</bass-step>
    </bass>
    <staff>1</staff>
   </harmony>
   <note color="#000000" default-x="244" default-y="10">
    <pitch>
     <step>A</step>
     <alter>-1</alter>
     <octave>4</octave>
    </pitch>
    <duration>512</duration>
    <instrument id="P1-I1" />
    <voice>1</voice>
    <type>half</type>
    <accidental>flat</accidental>
    <stem>up</stem>
    <staff>1</staff>
   </note>
  </measure>
  <!--============== Part: P1, Measure: 11 ==============-->
  <measure number="11" width="474">
   <harmony color="#000000" default-y="10">
    <root>
     <root-step>E</root-step>
     <root-alter>-1</root-alter>
    </root>
    <kind>minor</kind>
    <staff>1</staff>
   </harmony>
   <note default-x="15">
    <rest />
    <duration>256</duration>
    <instrument id="P1-I1" />
    <voice>1</voice>
    <type>quarter</type>
    <staff>1</staff>
   </note>
   <note color="#000000" default-x="129" default-y="10">
    <pitch>
     <step>A</step>
     <alter>-1</alter>
     <octave>4</octave>
    </pitch>
    <duration>256</duration>
    <instrument id="P1-I1" />
    <voice>1</voice>
    <type>quarter</type>
    <stem>up</stem>
    <staff>1</staff>
   </note>
   <note color="#000000" default-x="244" default-y="5">
    <pitch>
     <step>G</step>
     <alter>-1</alter>
     <octave>4</octave>
    </pitch>
    <duration>256</duration>
    <instrument id="P1-I1" />
    <voice>1</voice>
    <type>quarter</type>
    <accidental>flat</accidental>
    <stem>up</stem>
    <staff>1</staff>
   </note>
   <note color="#000000" default-x="359">
    <pitch>
     <step>F</step>
     <octave>4</octave>
    </pitch>
    <duration>256</duration>
    <instrument id="P1-I1" />
    <voice>1</voice>
    <type>quarter</type>
    <stem>up</stem>
    <staff>1</staff>
   </note>
  </measure>
  <!--============== Part: P1, Measure: 12 ==============-->
  <measure number="12" width="283">
   <harmony color="#000000" default-y="10">
    <root>
     <root-step>G</root-step>
     <root-alter>-1</root-alter>
    </root>
    <kind>dominant</kind>
    <bass>
     <bass-step>D</bass-step>
     <bass-alter>-1</bass-alter>
    </bass>
    <staff>1</staff>
   </harmony>
   <note color="#000000" default-x="15">
    <pitch>
     <step>G</step>
     <alter>-1</alter>
     <octave>4</octave>
    </pitch>
    <duration>1024</duration>
    <instrument id="P1-I1" />
    <voice>1</voice>
    <type>whole</type>
    <accidental>flat</accidental>
    <staff>1</staff>
   </note>
  </measure>
  <!--============== Part: P1, Measure: 13 ==============-->
  <measure number="13" width="586">
   <print new-system="yes">
    <system-layout>
     <system-margins>
      <left-margin>0</left-margin>
      <right-margin>0</right-margin>
     </system-margins>
     <system-distance>116</system-distance>
    </system-layout>
   </print>
   <attributes>
    <staff-details number="1" print-object="yes" />
   </attributes>
   <harmony color="#000000" default-y="13">
    <root>
     <root-step>F</root-step>
    </root>
    <kind>dominant</kind>
    <bass>
     <bass-step>C</bass-step>
    </bass>
    <staff>1</staff>
   </harmony>
   <note default-x="96">
    <rest />
    <duration>256</duration>
    <instrument id="P1-I1" />
    <voice>1</voice>
    <type>quarter</type>
    <staff>1</staff>
   </note>
   <note color="#000000" default-x="218">
    <pitch>
     <step>F</step>
     <octave>4</octave>
    </pitch>
    <duration>256</duration>
    <instrument id="P1-I1" />
    <voice>1</voice>
    <type>quarter</type>
    <stem>up</stem>
    <staff>1</staff>
   </note>
   <harmony color="#000000" default-y="13">
    <root>
     <root-step>C</root-step>
     <root-alter>-1</root-alter>
    </root>
    <kind>dominant-13th</kind>
    <staff>1</staff>
   </harmony>
   <note color="#000000" default-x="341" default-y="10">
    <pitch>
     <step>A</step>
     <alter>-1</alter>
     <octave>4</octave>
    </pitch>
    <duration>256</duration>
    <instrument id="P1-I1" />
    <voice>1</voice>
    <type>quarter</type>
    <stem>up</stem>
    <staff>1</staff>
   </note>
   <harmony color="#000000" default-y="13">
    <root>
     <root-step>C</root-step>
     <root-alter>-1</root-alter>
    </root>
    <kind>augmented</kind>
    <degree>
     <degree-value>7</degree-value>
     <degree-alter>0</degree-alter>
     <degree-type>add</degree-type>
    </degree>
    <staff>1</staff>
   </harmony>
   <note color="#000000" default-x="464" default-y="5">
    <pitch>
     <step>G</step>
     <octave>4</octave>
    </pitch>
    <duration>256</duration>
    <instrument id="P1-I1" />
    <voice>1</voice>
    <type>quarter</type>
    <stem>up</stem>
    <staff>1</staff>
   </note>
  </measure>
  <!--============== Part: P1, Measure: 14 ==============-->
  <measure number="14" width="468">
   <harmony color="#000000" default-y="13">
    <root>
     <root-step>B</root-step>
     <root-alter>-1</root-alter>
    </root>
    <kind>dominant</kind>
    <degree>
     <degree-value>5</degree-value>
     <degree-alter>1</degree-alter>
     <degree-type>alter</degree-type>
    </degree>
    <staff>1</staff>
   </harmony>
   <note color="#000000" default-x="15" default-y="5">
    <pitch>
     <step>G</step>
     <alter>-1</alter>
     <octave>4</octave>
    </pitch>
    <duration>256</duration>
    <instrument id="P1-I1" />
    <voice>1</voice>
    <type>quarter</type>
    <accidental>flat</accidental>
    <stem>up</stem>
    <staff>1</staff>
   </note>
   <note color="#000000" default-x="137">
    <pitch>
     <step>F</step>
     <octave>4</octave>
    </pitch>
    <duration>512</duration>
    <instrument id="P1-I1" />
    <voice>1</voice>
    <type>half</type>
    <stem>up</stem>
    <staff>1</staff>
   </note>
   <backup>
    <duration>256</duration>
   </backup>
   <harmony color="#000000" default-y="13">
    <root>
     <root-step>B</root-step>
     <root-alter>-1</root-alter>
    </root>
    <kind>dominant</kind>
    <staff>1</staff>
   </harmony>
   <forward>
    <duration>256</duration>
   </forward>
   <note color="#000000" default-x="345" default-y="-5">
    <pitch>
     <step>E</step>
     <alter>-1</alter>
     <octave>4</octave>
    </pitch>
    <duration>256</duration>
    <tie type="start" />
    <instrument id="P1-I1" />
    <voice>1</voice>
    <type>quarter</type>
    <stem>up</stem>
    <staff>1</staff>
    <notations>
     <tied type="start" orientation="under" />
    </notations>
   </note>
  </measure>
  <!--============== Part: P1, Measure: 15 ==============-->
  <measure number="15" width="301">
   <harmony color="#000000" default-y="13">
    <root>
     <root-step>E</root-step>
     <root-alter>-1</root-alter>
    </root>
    <kind>major</kind>
    <staff>1</staff>
   </harmony>
   <note color="#000000" default-x="15">
    <pitch>
     <step>E</step>
     <alter>-1</alter>
     <octave>4</octave>
    </pitch>
    <duration>1024</duration>
    <tie type="stop" />
    <tie type="start" />
    <instrument id="P1-I1" />
    <voice>1</voice>
    <type>whole</type>
    <staff>1</staff>
    <notations>
     <tied type="stop" orientation="under" />
     <tied type="start" orientation="under" />
    </notations>
   </note>
  </measure>
  <!--============== Part: P1, Measure: 16 ==============-->
  <measure number="16" width="443">
   <harmony color="#000000" default-y="13">
    <root>
     <root-step>F</root-step>
    </root>
    <kind>minor-11th</kind>
    <bass>
     <bass-step>E</bass-step>
     <bass-alter>-1</bass-alter>
    </bass>
    <staff>1</staff>
   </harmony>
   <note color="#000000" default-x="15" default-y="-5">
    <pitch>
     <step>E</step>
     <alter>-1</alter>
     <octave>4</octave>
    </pitch>
    <duration>512</duration>
    <tie type="stop" />
    <instrument id="P1-I1" />
    <voice>1</voice>
    <type>half</type>
    <stem>up</stem>
    <staff>1</staff>
    <notations>
     <tied type="stop" orientation="under" />
    </notations>
   </note>
   <note default-x="223">
    <rest />
    <duration>512</duration>
    <instrument id="P1-I1" />
    <voice>1</voice>
    <type>half</type>
    <staff>1</staff>
   </note>
   <barline>
    <bar-style>light-light</bar-style>
   </barline>
  </measure>
  <!--============== Part: P1, Measure: 17 ==============-->
  <measure number="17" width="576">
   <print new-system="yes">
    <system-layout>
     <system-margins>
      <left-margin>0</left-margin>
      <right-margin>0</right-margin>
     </system-margins>
     <system-distance>116</system-distance>
    </system-layout>
   </print>
   <attributes>
    <staff-details number="1" print-object="yes" />
   </attributes>
   <harmony color="#000000" default-y="7">
    <root>
     <root-step>E</root-step>
     <root-alter>-1</root-alter>
    </root>
    <kind>major-seventh</kind>
    <staff>1</staff>
   </harmony>
   <note default-x="96">
    <rest />
    <duration>256</duration>
    <instrument id="P1-I1" />
    <voice>1</voice>
    <type>quarter</type>
    <staff>1</staff>
   </note>
   <note color="#000000" default-x="216" default-y="-20">
    <pitch>
     <step>B</step>
     <alter>-1</alter>
     <octave>3</octave>
    </pitch>
    <duration>256</duration>
    <instrument id="P1-I1" />
    <voice>1</voice>
    <type>quarter</type>
    <stem>up</stem>
    <staff>1</staff>
   </note>
   <note color="#000000" default-x="336" default-y="-15">
    <pitch>
     <step>C</step>
     <octave>4</octave>
    </pitch>
    <duration>256</duration>
    <instrument id="P1-I1" />
    <voice>1</voice>
    <type>quarter</type>
    <stem>up</stem>
    <staff>1</staff>
   </note>
   <note color="#000000" default-x="456" default-y="-5">
    <pitch>
     <step>E</step>
     <alter>-1</alter>
     <octave>4</octave>
    </pitch>
    <duration>256</duration>
    <instrument id="P1-I1" />
    <voice>1</voice>
    <type>quarter</type>
    <stem>up</stem>
    <staff>1</staff>
   </note>
  </measure>
  <!--============== Part: P1, Measure: 18 ==============-->
  <measure number="18" width="377">
   <note color="#000000" default-x="15" default-y="-10">
    <pitch>
     <step>D</step>
     <octave>4</octave>
    </pitch>
    <duration>768</duration>
    <instrument id="P1-I1" />
    <voice>1</voice>
    <type>half</type>
    <dot />
    <stem>up</stem>
    <staff>1</staff>
   </note>
   <note color="#000000" default-x="257" default-y="-15">
    <pitch>
     <step>C</step>
     <octave>4</octave>
    </pitch>
    <duration>256</duration>
    <instrument id="P1-I1" />
    <voice>1</voice>
    <type>quarter</type>
    <stem>up</stem>
    <staff>1</staff>
   </note>
  </measure>
  <!--============== Part: P1, Measure: 19 ==============-->
  <measure number="19" width="467">
   <harmony color="#000000" default-y="9">
    <root>
     <root-step>E</root-step>
     <root-alter>-1</root-alter>
    </root>
    <kind>major-minor</kind>
    <staff>1</staff>
   </harmony>
   <note color="#000000" default-x="15" default-y="-10">
    <pitch>
     <step>D</step>
     <octave>4</octave>
    </pitch>
    <duration>384</duration>
    <instrument id="P1-I1" />
    <voice>1</voice>
    <type>quarter</type>
    <dot />
    <stem>up</stem>
    <staff>1</staff>
   </note>
   <note color="#000000" default-x="176" default-y="-10">
    <pitch>
     <step>D</step>
     <octave>4</octave>
    </pitch>
    <duration>128</duration>
    <instrument id="P1-I1" />
    <voice>1</voice>
    <type>eighth</type>
    <stem>up</stem>
    <staff>1</staff>
   </note>
   <note color="#000000" default-x="263" default-y="-10">
    <pitch>
     <step>D</step>
     <octave>4</octave>
    </pitch>
    <duration>512</duration>
    <tie type="start" />
    <instrument id="P1-I1" />
    <voice>1</voice>
    <type>half</type>
    <stem>up</stem>
    <staff>1</staff>
    <notations>
     <tied type="start" orientation="under" />
    </notations>
   </note>
  </measure>
  <!--============== Part: P1, Measure: 20 ==============-->
  <measure number="20" width="377">
   <note color="#000000" default-x="15" default-y="-10">
    <pitch>
     <step>D</step>
     <octave>4</octave>
    </pitch>
    <duration>768</duration>
    <tie type="stop" />
    <instrument id="P1-I1" />
    <voice>1</voice>
    <type>half</type>
    <dot />
    <stem>up</stem>
    <staff>1</staff>
    <notations>
     <tied type="stop" orientation="under" />
     <articulations>
      <staccato />
     </articulations>
    </notations>
   </note>
   <note default-x="257">
    <rest />
    <duration>256</duration>
    <instrument id="P1-I1" />
    <voice>1</voice>
    <type>quarter</type>
    <staff>1</staff>
   </note>
  </measure>
  <!--============== Part: P1, Measure: 21 ==============-->
  <measure number="21" width="668">
   <print new-system="yes">
    <system-layout>
     <system-margins>
      <left-margin>0</left-margin>
      <right-margin>0</right-margin>
     </system-margins>
     <system-distance>116</system-distance>
    </system-layout>
   </print>
   <attributes>
    <staff-details number="1" print-object="yes" />
   </attributes>
   <harmony color="#000000" default-y="25">
    <root>
     <root-step>E</root-step>
     <root-alter>-1</root-alter>
    </root>
    <kind>minor</kind>
    <staff>1</staff>
   </harmony>
   <note default-x="96">
    <rest />
    <duration>256</duration>
    <instrument id="P1-I1" />
    <voice>1</voice>
    <type>quarter</type>
    <staff>1</staff>
   </note>
   <note color="#000000" default-x="225" default-y="-5">
    <pitch>
     <step>E</step>
     <alter>-1</alter>
     <octave>4</octave>
    </pitch>
    <duration>256</duration>
    <instrument id="P1-I1" />
    <voice>1</voice>
    <type>quarter</type>
    <stem>up</stem>
    <staff>1</staff>
   </note>
   <note color="#000000" default-x="355" default-y="5">
    <pitch>
     <step>G</step>
     <alter>-1</alter>
     <octave>4</octave>
    </pitch>
    <duration>170</duration>
    <instrument id="P1-I1" />
    <voice>1</voice>
    <type>quarter</type>
    <accidental>flat</accidental>
    <time-modification>
     <actual-notes>3</actual-notes>
     <normal-notes>2</normal-notes>
     <normal-type>quarter</normal-type>
    </time-modification>
    <stem>up</stem>
    <staff>1</staff>
    <notations>
     <tuplet type="start" bracket="yes" number="1" default-y="17" placement="above" />
    </notations>
   </note>
   <note color="#000000" default-x="460" default-y="10">
    <pitch>
     <step>A</step>
     <alter>-1</alter>
     <octave>4</octave>
    </pitch>
    <duration>171</duration>
    <instrument id="P1-I1" />
    <voice>1</voice>
    <type>quarter</type>
    <time-modification>
     <actual-notes>3</actual-notes>
     <normal-notes>2</normal-notes>
     <normal-type>quarter</normal-type>
    </time-modification>
    <stem>up</stem>
    <staff>1</staff>
   </note>
   <note color="#000000" default-x="564" default-y="-55">
    <pitch>
     <step>B</step>
     <alter>-1</alter>
     <octave>4</octave>
    </pitch>
    <duration>171</duration>
    <instrument id="P1-I1" />
    <voice>1</voice>
    <type>quarter</type>
    <time-modification>
     <actual-notes>3</actual-notes>
     <normal-notes>2</normal-notes>
     <normal-type>quarter</normal-type>
    </time-modification>
    <stem>down</stem>
    <staff>1</staff>
    <notations>
     <tuplet type="stop" bracket="yes" number="1" default-y="17" placement="above" />
    </notations>
   </note>
  </measure>
  <!--============== Part: P1, Measure: 22 ==============-->
  <measure number="22" width="406">
   <harmony color="#000000" default-y="25">
    <root>
     <root-step>D</root-step>
     <root-alter>-1</root-alter>
    </root>
    <kind>minor-seventh</kind>
    <staff>1</staff>
   </harmony>
   <note color="#000000" default-x="15" default-y="10">
    <pitch>
     <step>A</step>
     <alter>-1</alter>
     <octave>4</octave>
    </pitch>
    <duration>768</duration>
    <instrument id="P1-I1" />
    <voice>1</voice>
    <type>half</type>
    <dot />
    <stem>up</stem>
    <staff>1</staff>
   </note>
   <harmony color="#000000" default-y="25">
    <root>
     <root-step>G</root-step>
     <root-alter>-1</root-alter>
    </root>
    <kind>dominant</kind>
    <staff>1</staff>
   </harmony>
   <note color="#000000" default-x="276" default-y="5">
    <pitch>
     <step>G</step>
     <alter>-1</alter>
     <octave>4</octave>
    </pitch>
    <duration>256</duration>
    <instrument id="P1-I1" />
    <voice>1</voice>
    <type>quarter</type>
    <accidental>flat</accidental>
    <stem>up</stem>
    <staff>1</staff>
   </note>
  </measure>
  <!--============== Part: P1, Measure: 23 ==============-->
  <measure number="23" width="318">
   <harmony color="#000000" default-y="25">
    <root>
     <root-step>C</root-step>
     <root-alter>-1</root-alter>
    </root>
    <kind>major-sixth</kind>
    <staff>1</staff>
   </harmony>
   <note color="#000000" default-x="15">
    <pitch>
     <step>A</step>
     <alter>-1</alter>
     <octave>4</octave>
    </pitch>
    <duration>1024</duration>
    <tie type="start" />
    <instrument id="P1-I1" />
    <voice>1</voice>
    <type>whole</type>
    <staff>1</staff>
    <notations>
     <tied type="start" orientation="under" />
    </notations>
   </note>
  </measure>
  <!--============== Part: P1, Measure: 24 ==============-->
  <measure number="24" width="406">
   <note color="#000000" default-x="15" default-y="10">
    <pitch>
     <step>A</step>
     <alter>-1</alter>
     <octave>4</octave>
    </pitch>
    <duration>768</duration>
    <tie type="stop" />
    <instrument id="P1-I1" />
    <voice>1</voice>
    <type>half</type>
    <dot />
    <stem>up</stem>
    <staff>1</staff>
    <notations>
     <tied type="stop" orientation="under" />
    </notations>
   </note>
   <note default-x="276">
    <rest />
    <duration>256</duration>
    <instrument id="P1-I1" />
    <voice>1</voice>
    <type>quarter</type>
    <staff>1</staff>
   </note>
  </measure>
  <!--============== Part: P1, Measure: 25 ==============-->
  <measure number="25" width="602">
   <print new-system="yes">
    <system-layout>
     <system-margins>
      <left-margin>0</left-margin>
      <right-margin>0</right-margin>
     </system-margins>
     <system-distance>116</system-distance>
    </system-layout>
   </print>
   <attributes>
    <staff-details number="1" print-object="yes" />
   </attributes>
   <harmony color="#000000" default-y="25">
    <root>
     <root-step>D</root-step>
     <root-alter>-1</root-alter>
    </root>
    <kind>dominant</kind>
    <staff>1</staff>
   </harmony>
   <note default-x="96">
    <rest />
    <duration>256</duration>
    <instrument id="P1-I1" />
    <voice>1</voice>
    <type>quarter</type>
    <staff>1</staff>
   </note>
   <note color="#000000" default-x="210" default-y="10">
    <pitch>
     <step>A</step>
     <alter>-1</alter>
     <octave>4</octave>
    </pitch>
    <duration>256</duration>
    <instrument id="P1-I1" />
    <voice>1</voice>
    <type>quarter</type>
    <stem>up</stem>
    <staff>1</staff>
   </note>
   <note color="#000000" default-x="325" default-y="-50">
    <pitch>
     <step>C</step>
     <alter>-1</alter>
     <octave>5</octave>
    </pitch>
    <duration>170</duration>
    <instrument id="P1-I1" />
    <voice>1</voice>
    <type>quarter</type>
    <accidental>flat</accidental>
    <time-modification>
     <actual-notes>3</actual-notes>
     <normal-notes>2</normal-notes>
     <normal-type>quarter</normal-type>
    </time-modification>
    <stem>down</stem>
    <staff>1</staff>
    <notations>
     <tuplet type="start" bracket="yes" number="1" default-y="-62" placement="below" />
    </notations>
   </note>
   <note color="#000000" default-x="418" default-y="-45">
    <pitch>
     <step>D</step>
     <alter>-1</alter>
     <octave>5</octave>
    </pitch>
    <duration>171</duration>
    <instrument id="P1-I1" />
    <voice>1</voice>
    <type>quarter</type>
    <accidental>flat</accidental>
    <time-modification>
     <actual-notes>3</actual-notes>
     <normal-notes>2</normal-notes>
     <normal-type>quarter</normal-type>
    </time-modification>
    <stem>down</stem>
    <staff>1</staff>
   </note>
   <note color="#000000" default-x="510" default-y="-40">
    <pitch>
     <step>E</step>
     <alter>-1</alter>
     <octave>5</octave>
    </pitch>
    <duration>171</duration>
    <instrument id="P1-I1" />
    <voice>1</voice>
    <type>quarter</type>
    <time-modification>
     <actual-notes>3</actual-notes>
     <normal-notes>2</normal-notes>
     <normal-type>quarter</normal-type>
    </time-modification>
    <stem>down</stem>
    <staff>1</staff>
    <notations>
     <tuplet type="stop" bracket="yes" number="1" default-y="-62" placement="below" />
    </notations>
   </note>
  </measure>
  <!--============== Part: P1, Measure: 26 ==============-->
  <measure number="26" width="439">
   <harmony color="#000000" default-y="25">
    <root>
     <root-step>A</root-step>
     <root-alter>-1</root-alter>
    </root>
    <kind>minor-seventh</kind>
    <staff>1</staff>
   </harmony>
   <note color="#000000" default-x="15" default-y="-45">
    <pitch>
     <step>D</step>
     <alter>-1</alter>
     <octave>5</octave>
    </pitch>
    <duration>256</duration>
    <instrument id="P1-I1" />
    <voice>1</voice>
    <type>quarter</type>
    <accidental>flat</accidental>
    <stem>down</stem>
    <staff>1</staff>
   </note>
   <note color="#000000" default-x="129" default-y="-50">
    <pitch>
     <step>C</step>
     <octave>5</octave>
    </pitch>
    <duration>256</duration>
    <instrument id="P1-I1" />
    <voice>1</voice>
    <type>quarter</type>
    <accidental>natural</accidental>
    <stem>down</stem>
    <staff>1</staff>
   </note>
   <harmony color="#000000" default-y="25">
    <root>
     <root-step>D</root-step>
     <root-alter>-1</root-alter>
    </root>
    <kind>dominant</kind>
    <staff>1</staff>
   </harmony>
   <note color="#000000" default-x="244" default-y="-50">
    <pitch>
     <step>C</step>
     <alter>-1</alter>
     <octave>5</octave>
    </pitch>
    <duration>512</duration>
    <instrument id="P1-I1" />
    <voice>1</voice>
    <type>half</type>
    <accidental>flat</accidental>
    <stem>down</stem>
    <staff>1</staff>
   </note>
  </measure>
  <!--============== Part: P1, Measure: 27 ==============-->
  <measure number="27" width="474">
   <harmony color="#000000" default-y="25">
    <root>
     <root-step>G</root-step>
     <root-alter>-1</root-alter>
    </root>
    <kind>major-seventh</kind>
    <staff>1</staff>
   </harmony>
   <note default-x="15">
    <rest />
    <duration>256</duration>
    <instrument id="P1-I1" />
    <voice>1</voice>
    <type>quarter</type>
    <staff>1</staff>
   </note>
   <note color="#000000" default-x="129" default-y="-50">
    <pitch>
     <step>C</step>
     <alter>-1</alter>
     <octave>5</octave>
    </pitch>
    <duration>256</duration>
    <instrument id="P1-I1" />
    <voice>1</voice>
    <type>quarter</type>
    <accidental>flat</accidental>
    <stem>down</stem>
    <staff>1</staff>
   </note>
   <note color="#000000" default-x="244" default-y="-55">
    <pitch>
     <step>B</step>
     <alter>-1</alter>
     <octave>4</octave>
    </pitch>
    <duration>256</duration>
    <instrument id="P1-I1" />
    <voice>1</voice>
    <type>quarter</type>
    <stem>down</stem>
    <staff>1</staff>
   </note>
   <note color="#000000" default-x="359" default-y="10">
    <pitch>
     <step>A</step>
     <octave>4</octave>
    </pitch>
    <duration>256</duration>
    <instrument id="P1-I1" />
    <voice>1</voice>
    <type>quarter</type>
    <accidental>natural</accidental>
    <stem>up</stem>
    <staff>1</staff>
   </note>
  </measure>
  <!--============== Part: P1, Measure: 28 ==============-->
  <measure number="28" width="283">
   <note color="#000000" default-x="15">
    <pitch>
     <step>B</step>
     <alter>-1</alter>
     <octave>4</octave>
    </pitch>
    <duration>1024</duration>
    <instrument id="P1-I1" />
    <voice>1</voice>
    <type>whole</type>
    <staff>1</staff>
   </note>
  </measure>
  <!--============== Part: P1, Measure: 29 ==============-->
  <measure number="29" width="565">
   <print new-system="yes">
    <system-layout>
     <system-margins>
      <left-margin>0</left-margin>
      <right-margin>0</right-margin>
     </system-margins>
     <system-distance>116</system-distance>
    </system-layout>
   </print>
   <attributes>
    <staff-details number="1" print-object="yes" />
   </attributes>
   <harmony color="#000000" default-y="22">
    <root>
     <root-step>F</root-step>
    </root>
    <kind>dominant</kind>
    <staff>1</staff>
   </harmony>
   <note default-x="96">
    <rest />
    <duration>256</duration>
    <instrument id="P1-I1" />
    <voice>1</voice>
    <type>quarter</type>
    <staff>1</staff>
   </note>
   <note color="#000000" default-x="213">
    <pitch>
     <step>F</step>
     <octave>4</octave>
    </pitch>
    <duration>256</duration>
    <instrument id="P1-I1" />
    <voice>1</voice>
    <type>quarter</type>
    <stem>up</stem>
    <staff>1</staff>
   </note>
   <harmony color="#000000" default-y="22">
    <root>
     <root-step>C</root-step>
     <root-alter>-1</root-alter>
    </root>
    <kind>dominant</kind>
    <degree>
     <degree-value>11</degree-value>
     <degree-alter>1</degree-alter>
     <degree-type>add</degree-type>
    </degree>
    <staff>1</staff>
   </harmony>
   <note color="#000000" default-x="330" default-y="10">
    <pitch>
     <step>A</step>
     <alter>-1</alter>
     <octave>4</octave>
    </pitch>
    <duration>256</duration>
    <instrument id="P1-I1" />
    <voice>1</voice>
    <type>quarter</type>
    <stem>up</stem>
    <staff>1</staff>
   </note>
   <note color="#000000" default-x="448" default-y="5">
    <pitch>
     <step>G</step>
     <octave>4</octave>
    </pitch>
    <duration>256</duration>
    <instrument id="P1-I1" />
    <voice>1</voice>
    <type>quarter</type>
    <stem>up</stem>
    <staff>1</staff>
   </note>
  </measure>
  <!--============== Part: P1, Measure: 30 ==============-->
  <measure number="30" width="448">
   <harmony color="#000000" default-y="22">
    <root>
     <root-step>B</root-step>
     <root-alter>-1</root-alter>
    </root>
    <kind>dominant</kind>
    <degree>
     <degree-value>5</degree-value>
     <degree-alter>1</degree-alter>
     <degree-type>alter</degree-type>
    </degree>
    <staff>1</staff>
   </harmony>
   <note color="#000000" default-x="15" default-y="5">
    <pitch>
     <step>G</step>
     <alter>-1</alter>
     <octave>4</octave>
    </pitch>
    <duration>256</duration>
    <instrument id="P1-I1" />
    <voice>1</voice>
    <type>quarter</type>
    <accidental>flat</accidental>
    <stem>up</stem>
    <staff>1</staff>
   </note>
   <note color="#000000" default-x="132">
    <pitch>
     <step>F</step>
     <octave>4</octave>
    </pitch>
    <duration>512</duration>
    <instrument id="P1-I1" />
    <voice>1</voice>
    <type>half</type>
    <stem>up</stem>
    <staff>1</staff>
   </note>
   <backup>
    <duration>256</duration>
   </backup>
   <harmony color="#000000" default-y="22">
    <root>
     <root-step>B</root-step>
     <root-alter>-1</root-alter>
    </root>
    <kind>dominant</kind>
    <staff>1</staff>
   </harmony>
   <forward>
    <duration>256</duration>
   </forward>
   <note color="#000000" default-x="331" default-y="-5">
    <pitch>
     <step>E</step>
     <alter>-1</alter>
     <octave>4</octave>
    </pitch>
    <duration>256</duration>
    <tie type="start" />
    <instrument id="P1-I1" />
    <voice>1</voice>
    <type>quarter</type>
    <stem>up</stem>
    <staff>1</staff>
    <notations>
     <tied type="start" orientation="under" />
    </notations>
   </note>
  </measure>
  <!--============== Part: P1, Measure: 31 ==============-->
  <measure number="31" width="289">
   <harmony color="#000000" default-y="22">
    <root>
     <root-step>E</root-step>
     <root-alter>-1</root-alter>
    </root>
    <kind>major-sixth</kind>
    <degree>
     <degree-value>9</degree-value>
     <degree-alter>0</degree-alter>
     <degree-type>add</degree-type>
    </degree>
    <staff>1</staff>
   </harmony>
   <note color="#000000" default-x="15">
    <pitch>
     <step>E</step>
     <alter>-1</alter>
     <octave>4</octave>
    </pitch>
    <duration>1024</duration>
    <tie type="stop" />
    <tie type="start" />
    <instrument id="P1-I1" />
    <voice>1</voice>
    <type>whole</type>
    <staff>1</staff>
    <notations>
     <tied type="stop" orientation="under" />
     <tied type="start" orientation="under" />
    </notations>
   </note>
  </measure>
  <!--============== Part: P1, Measure: 32 ==============-->
  <measure number="32" width="496">
   <note color="#000000" default-x="15" default-y="-5">
    <pitch>
     <step>E</step>
     <alter>-1</alter>
     <octave>4</octave>
    </pitch>
    <duration>256</duration>
    <tie type="stop" />
    <instrument id="P1-I1" />
    <voice>1</voice>
    <type>quarter</type>
    <stem>up</stem>
    <staff>1</staff>
    <notations>
     <tied type="stop" orientation="under" />
    </notations>
   </note>
   <note default-x="132">
    <rest />
    <duration>256</duration>
    <instrument id="P1-I1" />
    <voice>1</voice>
    <type>quarter</type>
    <staff>1</staff>
   </note>
   <note color="#000000" default-x="249" default-y="-5">
    <pitch>
     <step>E</step>
     <alter>-1</alter>
     <octave>4</octave>
    </pitch>
    <duration>256</duration>
    <instrument id="P1-I1" />
    <voice>1</voice>
    <type>quarter</type>
    <stem>up</stem>
    <staff>1</staff>
   </note>
   <note color="#000000" default-x="367" default-y="-5">
    <pitch>
     <step>E</step>
     <alter>-1</alter>
     <octave>4</octave>
    </pitch>
    <duration>256</duration>
    <instrument id="P1-I1" />
    <voice>1</voice>
    <type>quarter</type>
    <stem>up</stem>
    <staff>1</staff>
   </note>
   <barline>
    <bar-style>light-light</bar-style>
   </barline>
  </measure>
  <!--============== Part: P1, Measure: 33 ==============-->
  <measure number="33" width="475">
   <print new-system="yes">
    <system-layout>
     <system-margins>
      <left-margin>0</left-margin>
      <right-margin>0</right-margin>
     </system-margins>
     <system-distance>116</system-distance>
    </system-layout>
   </print>
   <attributes>
    <staff-details number="1" print-object="yes" />
   </attributes>
   <harmony color="#000000" default-y="16">
    <root>
     <root-step>F</root-step>
    </root>
    <kind>dominant</kind>
    <bass>
     <bass-step>A</bass-step>
    </bass>
    <staff>1</staff>
   </harmony>
   <note color="#000000" default-x="96" default-y="-50">
    <pitch>
     <step>C</step>
     <octave>5</octave>
    </pitch>
    <duration>768</duration>
    <instrument id="P1-I1" />
    <voice>1</voice>
    <type>half</type>
    <dot />
    <stem>down</stem>
    <staff>1</staff>
   </note>
   <note color="#000000" default-x="350" default-y="-50">
    <pitch>
     <step>C</step>
     <octave>5</octave>
    </pitch>
    <duration>256</duration>
    <instrument id="P1-I1" />
    <voice>1</voice>
    <type>quarter</type>
    <stem>down</stem>
    <staff>1</staff>
   </note>
  </measure>
  <!--============== Part: P1, Measure: 34 ==============-->
  <measure number="34" width="394">
   <harmony color="#000000" default-y="16">
    <root>
     <root-step>A</root-step>
     <root-alter>-1</root-alter>
    </root>
    <kind>minor-seventh</kind>
    <staff>1</staff>
   </harmony>
   <note color="#000000" default-x="15" default-y="-50">
    <pitch>
     <step>C</step>
     <alter>-1</alter>
     <octave>5</octave>
    </pitch>
    <duration>768</duration>
    <instrument id="P1-I1" />
    <voice>1</voice>
    <type>half</type>
    <dot />
    <accidental>flat</accidental>
    <stem>down</stem>
    <staff>1</staff>
   </note>
   <backup>
    <duration>256</duration>
   </backup>
   <harmony color="#000000" default-y="16">
    <root>
     <root-step>A</root-step>
     <root-alter>-1</root-alter>
    </root>
    <kind>minor-sixth</kind>
    <staff>1</staff>
   </harmony>
   <forward>
    <duration>256</duration>
   </forward>
   <note color="#000000" default-x="268" default-y="-50">
    <pitch>
     <step>C</step>
     <alter>-1</alter>
     <octave>5</octave>
    </pitch>
    <duration>256</duration>
    <instrument id="P1-I1" />
    <voice>1</voice>
    <type>quarter</type>
    <stem>down</stem>
    <staff>1</staff>
   </note>
  </measure>
  <!--============== Part: P1, Measure: 35 ==============-->
  <measure number="35" width="441">
   <harmony color="#000000" default-y="16">
    <root>
     <root-step>E</root-step>
     <root-alter>-1</root-alter>
    </root>
    <kind>augmented</kind>
    <bass>
     <bass-step>G</bass-step>
    </bass>
    <staff>1</staff>
   </harmony>
   <note color="#000000" default-x="15" default-y="-50">
    <pitch>
     <step>C</step>
     <alter>-1</alter>
     <octave>5</octave>
    </pitch>
    <duration>512</duration>
    <instrument id="P1-I1" />
    <voice>1</voice>
    <type>half</type>
    <accidental>flat</accidental>
    <stem>down</stem>
    <staff>1</staff>
   </note>
   <harmony color="#000000" default-y="16">
    <root>
     <root-step>E</root-step>
     <root-alter>-1</root-alter>
    </root>
    <kind>major</kind>
    <bass>
     <bass-step>G</bass-step>
    </bass>
    <staff>1</staff>
   </harmony>
   <note color="#000000" default-x="228" default-y="-55">
    <pitch>
     <step>B</step>
     <alter>-1</alter>
     <octave>4</octave>
    </pitch>
    <duration>512</duration>
    <tie type="start" />
    <instrument id="P1-I1" />
    <voice>1</voice>
    <type>half</type>
    <stem>down</stem>
    <staff>1</staff>
    <notations>
     <tied type="start" orientation="over" />
    </notations>
   </note>
  </measure>
  <!--============== Part: P1, Measure: 36 ==============-->
  <measure number="36" width="488">
   <note color="#000000" default-x="15" default-y="-55">
    <pitch>
     <step>B</step>
     <alter>-1</alter>
     <octave>4</octave>
    </pitch>
    <duration>512</duration>
    <tie type="stop" />
    <instrument id="P1-I1" />
    <voice>1</voice>
    <type>half</type>
    <stem>down</stem>
    <staff>1</staff>
    <notations>
     <tied type="stop" orientation="over" />
    </notations>
   </note>
   <note color="#000000" default-x="228" default-y="-20">
    <pitch>
     <step>B</step>
     <alter>-1</alter>
     <octave>3</octave>
    </pitch>
    <duration>384</duration>
    <instrument id="P1-I1" />
    <voice>1</voice>
    <type>quarter</type>
    <dot />
    <stem>up</stem>
    <staff>1</staff>
   </note>
   <note color="#000000" default-x="397" default-y="-20">
    <pitch>
     <step>B</step>
     <alter>-1</alter>
     <octave>3</octave>
    </pitch>
    <duration>128</duration>
    <instrument id="P1-I1" />
    <voice>1</voice>
    <type>eighth</type>
    <stem>up</stem>
    <staff>1</staff>
   </note>
  </measure>
  <!--============== Part: P1, Measure: 37 ==============-->
  <measure number="37" width="484">
   <print new-system="yes">
    <system-layout>
     <system-margins>
      <left-margin>0</left-margin>
      <right-margin>0</right-margin>
     </system-margins>
     <system-distance>116</system-distance>
    </system-layout>
   </print>
   <attributes>
    <staff-details number="1" print-object="yes" />
   </attributes>
   <harmony color="#000000" default-y="12">
    <root>
     <root-step>F</root-step>
    </root>
    <kind>minor-seventh</kind>
    <staff>1</staff>
   </harmony>
   <note color="#000000" default-x="96" default-y="10">
    <pitch>
     <step>A</step>
     <alter>-1</alter>
     <octave>4</octave>
    </pitch>
    <duration>768</duration>
    <instrument id="P1-I1" />
    <voice>1</voice>
    <type>half</type>
    <dot />
    <stem>up</stem>
    <staff>1</staff>
   </note>
   <note color="#000000" default-x="355" default-y="10">
    <pitch>
     <step>A</step>
     <alter>-1</alter>
     <octave>4</octave>
    </pitch>
    <duration>256</duration>
    <instrument id="P1-I1" />
    <voice>1</voice>
    <type>quarter</type>
    <stem>up</stem>
    <staff>1</staff>
   </note>
  </measure>
  <!--============== Part: P1, Measure: 38 ==============-->
  <measure number="38" width="500">
   <harmony color="#000000" default-y="12">
    <root>
     <root-step>B</root-step>
     <root-alter>-1</root-alter>
    </root>
    <kind>dominant</kind>
    <degree>
     <degree-value>9</degree-value>
     <degree-alter>-1</degree-alter>
     <degree-type>add</degree-type>
    </degree>
    <staff>1</staff>
   </harmony>
   <note color="#000000" default-x="15" default-y="10">
    <pitch>
     <step>A</step>
     <alter>-1</alter>
     <octave>4</octave>
    </pitch>
    <duration>512</duration>
    <instrument id="P1-I1" />
    <voice>1</voice>
    <type>half</type>
    <stem>up</stem>
    <staff>1</staff>
   </note>
   <note color="#000000" default-x="233" default-y="5">
    <pitch>
     <step>G</step>
     <octave>4</octave>
    </pitch>
    <duration>384</duration>
    <instrument id="P1-I1" />
    <voice>1</voice>
    <type>quarter</type>
    <dot />
    <stem>up</stem>
    <staff>1</staff>
   </note>
   <note color="#000000" default-x="406">
    <pitch>
     <step>F</step>
     <alter>1</alter>
     <octave>4</octave>
    </pitch>
    <duration>128</duration>
    <instrument id="P1-I1" />
    <voice>1</voice>
    <type>eighth</type>
    <accidental>sharp</accidental>
    <stem>up</stem>
    <staff>1</staff>
   </note>
  </measure>
  <!--============== Part: P1, Measure: 39 ==============-->
  <measure number="39" width="315">
   <harmony color="#000000" default-y="12">
    <root>
     <root-step>E</root-step>
     <root-alter>-1</root-alter>
    </root>
    <kind>major-seventh</kind>
    <staff>1</staff>
   </harmony>
   <note color="#000000" default-x="15">
    <pitch>
     <step>G</step>
     <octave>4</octave>
    </pitch>
    <duration>1024</duration>
    <tie type="start" />
    <instrument id="P1-I1" />
    <voice>1</voice>
    <type>whole</type>
    <staff>1</staff>
    <notations>
     <tied type="start" orientation="under" />
    </notations>
   </note>
  </measure>
  <!--============== Part: P1, Measure: 40 ==============-->
  <measure number="40" width="499">
   <harmony color="#000000" default-y="12">
    <root>
     <root-step>E</root-step>
     <root-alter>-1</root-alter>
    </root>
    <kind>dominant</kind>
    <staff>1</staff>
   </harmony>
   <note color="#000000" default-x="15" default-y="5">
    <pitch>
     <step>G</step>
     <octave>4</octave>
    </pitch>
    <duration>512</duration>
    <tie type="stop" />
    <instrument id="P1-I1" />
    <voice>1</voice>
    <type>half</type>
    <stem>up</stem>
    <staff>1</staff>
    <notations>
     <tied type="stop" orientation="under" />
    </notations>
   </note>
   <note color="#000000" default-x="233" default-y="-5">
    <pitch>
     <step>E</step>
     <alter>-1</alter>
     <octave>4</octave>
    </pitch>
    <duration>384</duration>
    <instrument id="P1-I1" />
    <voice>1</voice>
    <type>quarter</type>
    <dot />
    <stem>up</stem>
    <staff>1</staff>
   </note>
   <note color="#000000" default-x="406" default-y="-5">
    <pitch>
     <step>E</step>
     <alter>-1</alter>
     <octave>4</octave>
    </pitch>
    <duration>128</duration>
    <instrument id="P1-I1" />
    <voice>1</voice>
    <type>eighth</type>
    <stem>up</stem>
    <staff>1</staff>
   </note>
  </measure>
  <!--============== Part: P1, Measure: 41 ==============-->
  <measure number="41" width="499">
   <print new-system="yes">
    <system-layout>
     <system-margins>
      <left-margin>0</left-margin>
      <right-margin>0</right-margin>
     </system-margins>
     <system-distance>116</system-distance>
    </system-layout>
   </print>
   <attributes>
    <staff-details number="1" print-object="yes" />
   </attributes>
   <harmony color="#000000" default-y="12">
    <root>
     <root-step>A</root-step>
     <root-alter>-1</root-alter>
    </root>
    <kind>major-seventh</kind>
    <staff>1</staff>
   </harmony>
   <note color="#000000" default-x="96" default-y="-50">
    <pitch>
     <step>C</step>
     <octave>5</octave>
    </pitch>
    <duration>512</duration>
    <instrument id="P1-I1" />
    <voice>1</voice>
    <type>half</type>
    <stem>down</stem>
    <staff>1</staff>
   </note>
   <note color="#000000" default-x="281" default-y="-50">
    <pitch>
     <step>C</step>
     <octave>5</octave>
    </pitch>
    <duration>256</duration>
    <instrument id="P1-I1" />
    <voice>1</voice>
    <type>quarter</type>
    <stem>down</stem>
    <staff>1</staff>
   </note>
   <note color="#000000" default-x="390" default-y="-50">
    <pitch>
     <step>C</step>
     <octave>5</octave>
    </pitch>
    <duration>256</duration>
    <instrument id="P1-I1" />
    <voice>1</voice>
    <type>quarter</type>
    <stem>down</stem>
    <staff>1</staff>
   </note>
  </measure>
  <!--============== Part: P1, Measure: 42 ==============-->
  <measure number="42" width="463">
   <harmony color="#000000" default-y="12">
    <root>
     <root-step>D</root-step>
     <root-alter>-1</root-alter>
    </root>
    <kind>dominant</kind>
    <degree>
     <degree-value>4</degree-value>
     <degree-alter>0</degree-alter>
     <degree-type>add</degree-type>
    </degree>
    <degree>
     <degree-value>3</degree-value>
     <degree-alter>0</degree-alter>
     <degree-type>subtract</degree-type>
    </degree>
    <staff>1</staff>
   </harmony>
   <note color="#000000" default-x="15" default-y="-50">
    <pitch>
     <step>C</step>
     <alter>-1</alter>
     <octave>5</octave>
    </pitch>
    <duration>512</duration>
    <instrument id="P1-I1" />
    <voice>1</voice>
    <type>half</type>
    <accidental>flat</accidental>
    <stem>down</stem>
    <staff>1</staff>
   </note>
   <note color="#000000" default-x="200" default-y="-50">
    <pitch>
     <step>C</step>
     <alter>-1</alter>
     <octave>5</octave>
    </pitch>
    <duration>170</duration>
    <instrument id="P1-I1" />
    <voice>1</voice>
    <type>quarter</type>
    <time-modification>
     <actual-notes>3</actual-notes>
     <normal-notes>2</normal-notes>
     <normal-type>quarter</normal-type>
    </time-modification>
    <stem>down</stem>
    <staff>1</staff>
    <notations>
     <tuplet type="start" bracket="yes" number="1" default-y="-62" placement="below" />
    </notations>
   </note>
   <note color="#000000" default-x="287" default-y="-45">
    <pitch>
     <step>D</step>
     <alter>-1</alter>
     <octave>5</octave>
    </pitch>
    <duration>171</duration>
    <instrument id="P1-I1" />
    <voice>1</voice>
    <type>quarter</type>
    <accidental>flat</accidental>
    <time-modification>
     <actual-notes>3</actual-notes>
     <normal-notes>2</normal-notes>
     <normal-type>quarter</normal-type>
    </time-modification>
    <stem>down</stem>
    <staff>1</staff>
   </note>
   <note color="#000000" default-x="375" default-y="-50">
    <pitch>
     <step>C</step>
     <alter>-1</alter>
     <octave>5</octave>
    </pitch>
    <duration>171</duration>
    <instrument id="P1-I1" />
    <voice>1</voice>
    <type>quarter</type>
    <time-modification>
     <actual-notes>3</actual-notes>
     <normal-notes>2</normal-notes>
     <normal-type>quarter</normal-type>
    </time-modification>
    <stem>down</stem>
    <staff>1</staff>
    <notations>
     <tuplet type="stop" bracket="yes" number="1" default-y="-62" placement="below" />
    </notations>
   </note>
  </measure>
  <!--============== Part: P1, Measure: 43 ==============-->
  <measure number="43" width="385">
   <harmony color="#000000" default-y="12">
    <root>
     <root-step>C</root-step>
     <root-alter>-1</root-alter>
    </root>
    <kind>major</kind>
    <bass>
     <bass-step>G</bass-step>
     <bass-alter>-1</bass-alter>
    </bass>
    <staff>1</staff>
   </harmony>
   <note color="#000000" default-x="15" default-y="-50">
    <pitch>
     <step>C</step>
     <alter>-1</alter>
     <octave>5</octave>
    </pitch>
    <duration>512</duration>
    <instrument id="P1-I1" />
    <voice>1</voice>
    <type>half</type>
    <accidental>flat</accidental>
    <stem>down</stem>
    <staff>1</staff>
   </note>
   <harmony color="#000000" default-y="12">
    <root>
     <root-step>G</root-step>
     <root-alter>-1</root-alter>
    </root>
    <kind>major-seventh</kind>
    <staff>1</staff>
   </harmony>
   <note color="#000000" default-x="200" default-y="-55">
    <pitch>
     <step>B</step>
     <alter>-1</alter>
     <octave>4</octave>
    </pitch>
    <duration>512</duration>
    <tie type="start" />
    <instrument id="P1-I1" />
    <voice>1</voice>
    <type>half</type>
    <stem>down</stem>
    <staff>1</staff>
    <notations>
     <tied type="start" orientation="over" />
    </notations>
   </note>
  </measure>
  <!--============== Part: P1, Measure: 44 ==============-->
  <measure number="44" width="451">
   <note color="#000000" default-x="15" default-y="-55">
    <pitch>
     <step>B</step>
     <alter>-1</alter>
     <octave>4</octave>
    </pitch>
    <duration>256</duration>
    <tie type="stop" />
    <instrument id="P1-I1" />
    <voice>1</voice>
    <type>quarter</type>
    <stem>down</stem>
    <staff>1</staff>
    <notations>
     <tied type="stop" orientation="over" />
    </notations>
   </note>
   <note color="#000000" default-x="124" default-y="-55">
    <pitch>
     <step>B</step>
     <alter>-1</alter>
     <octave>4</octave>
    </pitch>
    <duration>256</duration>
    <instrument id="P1-I1" />
    <voice>1</voice>
    <type>quarter</type>
    <stem>down</stem>
    <staff>1</staff>
   </note>
   <note color="#000000" default-x="233" default-y="-55">
    <pitch>
     <step>B</step>
     <alter>-1</alter>
     <octave>4</octave>
    </pitch>
    <duration>256</duration>
    <instrument id="P1-I1" />
    <voice>1</voice>
    <type>quarter</type>
    <stem>down</stem>
    <staff>1</staff>
   </note>
   <note color="#000000" default-x="342" default-y="-55">
    <pitch>
     <step>B</step>
     <alter>-1</alter>
     <octave>4</octave>
    </pitch>
    <duration>256</duration>
    <instrument id="P1-I1" />
    <voice>1</voice>
    <type>quarter</type>
    <stem>down</stem>
    <staff>1</staff>
   </note>
  </measure>
  <!--============== Part: P1, Measure: 45 ==============-->
  <measure number="45" width="503">
   <print new-system="yes">
    <system-layout>
     <system-margins>
      <left-margin>0</left-margin>
      <right-margin>0</right-margin>
     </system-margins>
     <system-distance>116</system-distance>
    </system-layout>
   </print>
   <attributes>
    <staff-details number="1" print-object="yes" />
   </attributes>
   <harmony color="#000000" default-y="16">
    <root>
     <root-step>C</root-step>
    </root>
    <kind>half-diminished</kind>
    <staff>1</staff>
   </harmony>
   <note color="#000000" default-x="96" default-y="-55">
    <pitch>
     <step>B</step>
     <alter>-1</alter>
     <octave>4</octave>
    </pitch>
    <duration>768</duration>
    <instrument id="P1-I1" />
    <voice>1</voice>
    <type>half</type>
    <dot />
    <stem>down</stem>
    <staff>1</staff>
   </note>
   <note color="#000000" default-x="368" default-y="-55">
    <pitch>
     <step>B</step>
     <alter>-1</alter>
     <octave>4</octave>
    </pitch>
    <duration>256</duration>
    <instrument id="P1-I1" />
    <voice>1</voice>
    <type>quarter</type>
    <stem>down</stem>
    <staff>1</staff>
   </note>
  </measure>
  <!--============== Part: P1, Measure: 46 ==============-->
  <measure number="46" width="482">
   <harmony color="#000000" default-y="16">
    <root>
     <root-step>F</root-step>
    </root>
    <kind>dominant</kind>
    <degree>
     <degree-value>9</degree-value>
     <degree-alter>-1</degree-alter>
     <degree-type>add</degree-type>
    </degree>
    <staff>1</staff>
   </harmony>
   <note color="#000000" default-x="15" default-y="-50">
    <pitch>
     <step>C</step>
     <octave>5</octave>
    </pitch>
    <duration>768</duration>
    <instrument id="P1-I1" />
    <voice>1</voice>
    <type>half</type>
    <dot />
    <stem>down</stem>
    <staff>1</staff>
   </note>
   <note color="#000000" default-x="287" default-y="-52">
    <pitch>
     <step>B</step>
     <alter>-1</alter>
     <octave>4</octave>
    </pitch>
    <duration>128</duration>
    <instrument id="P1-I1" />
    <voice>1</voice>
    <type>eighth</type>
    <stem>down</stem>
    <staff>1</staff>
    <beam number="1">begin</beam>
   </note>
   <note color="#000000" default-x="384" default-y="-52">
    <pitch>
     <step>C</step>
     <octave>5</octave>
    </pitch>
    <duration>128</duration>
    <instrument id="P1-I1" />
    <voice>1</voice>
    <type>eighth</type>
    <stem>down</stem>
    <staff>1</staff>
    <beam number="1">end</beam>
   </note>
  </measure>
  <!--============== Part: P1, Measure: 47 ==============-->
  <measure number="47" width="330">
   <harmony color="#000000" default-y="16">
    <root>
     <root-step>B</root-step>
     <root-alter>-1</root-alter>
    </root>
    <kind>major-seventh</kind>
    <staff>1</staff>
   </harmony>
   <note color="#000000" default-x="15">
    <pitch>
     <step>D</step>
     <octave>5</octave>
    </pitch>
    <duration>1024</duration>
    <tie type="start" />
    <instrument id="P1-I1" />
    <voice>1</voice>
    <type>whole</type>
    <staff>1</staff>
    <notations>
     <tied type="start" orientation="over" />
    </notations>
   </note>
  </measure>
  <!--============== Part: P1, Measure: 48 ==============-->
  <measure number="48" width="484">
   <harmony color="#000000" default-y="16">
    <root>
     <root-step>B</root-step>
     <root-alter>-1</root-alter>
    </root>
    <kind>dominant</kind>
    <staff>1</staff>
   </harmony>
   <note color="#000000" default-x="15" default-y="-45">
    <pitch>
     <step>D</step>
     <octave>5</octave>
    </pitch>
    <duration>512</duration>
    <tie type="stop" />
    <instrument id="P1-I1" />
    <voice>1</voice>
    <type>half</type>
    <stem>down</stem>
    <staff>1</staff>
    <notations>
     <tied type="stop" orientation="over" />
    </notations>
   </note>
   <note default-x="243">
    <rest />
    <duration>512</duration>
    <instrument id="P1-I1" />
    <voice>1</voice>
    <type>half</type>
    <staff>1</staff>
   </note>
   <barline>
    <bar-style>light-light</bar-style>
   </barline>
  </measure>
  <!--============== Part: P1, Measure: 49 ==============-->
  <measure number="49" width="576">
   <print new-system="yes">
    <system-layout>
     <system-margins>
      <left-margin>0</left-margin>
      <right-margin>0</right-margin>
     </system-margins>
     <system-distance>116</system-distance>
    </system-layout>
   </print>
   <attributes>
    <staff-details number="1" print-object="yes" />
   </attributes>
   <harmony color="#000000" default-y="9">
    <root>
     <root-step>E</root-step>
     <root-alter>-1</root-alter>
    </root>
    <kind>major-sixth</kind>
    <staff>1</staff>
   </harmony>
   <note default-x="96">
    <rest />
    <duration>256</duration>
    <instrument id="P1-I1" />
    <voice>1</voice>
    <type>quarter</type>
    <staff>1</staff>
   </note>
   <note color="#000000" default-x="216" default-y="-40">
    <pitch>
     <step>E</step>
     <alter>-1</alter>
     <octave>5</octave>
    </pitch>
    <duration>256</duration>
    <instrument id="P1-I1" />
    <voice>1</voice>
    <type>quarter</type>
    <stem>down</stem>
    <staff>1</staff>
   </note>
   <note color="#000000" default-x="336" default-y="-40">
    <pitch>
     <step>E</step>
     <alter>-1</alter>
     <octave>5</octave>
    </pitch>
    <duration>256</duration>
    <instrument id="P1-I1" />
    <voice>1</voice>
    <type>quarter</type>
    <stem>down</stem>
    <staff>1</staff>
   </note>
   <note color="#000000" default-x="456" default-y="-40">
    <pitch>
     <step>E</step>
     <alter>-1</alter>
     <octave>5</octave>
    </pitch>
    <duration>256</duration>
    <instrument id="P1-I1" />
    <voice>1</voice>
    <type>quarter</type>
    <stem>down</stem>
    <staff>1</staff>
   </note>
  </measure>
  <!--============== Part: P1, Measure: 50 ==============-->
  <measure number="50" width="377">
   <harmony color="#000000" default-y="9">
    <root>
     <root-step>G</root-step>
    </root>
    <kind>minor</kind>
    <staff>1</staff>
   </harmony>
   <note color="#000000" default-x="15" default-y="-45">
    <pitch>
     <step>D</step>
     <octave>5</octave>
    </pitch>
    <duration>768</duration>
    <instrument id="P1-I1" />
    <voice>1</voice>
    <type>half</type>
    <dot />
    <stem>down</stem>
    <staff>1</staff>
   </note>
   <note color="#000000" default-x="257" default-y="-67">
    <pitch>
     <step>B</step>
     <alter>-1</alter>
     <octave>4</octave>
    </pitch>
    <duration>256</duration>
    <instrument id="P1-I1" />
    <voice>1</voice>
    <type>quarter</type>
    <stem>down</stem>
    <staff>1</staff>
   </note>
  </measure>
  <!--============== Part: P1, Measure: 51 ==============-->
  <measure number="51" width="467">
   <harmony color="#000000" default-y="9">
    <root>
     <root-step>A</root-step>
    </root>
    <kind>half-diminished</kind>
    <staff>1</staff>
   </harmony>
   <note color="#000000" default-x="15" default-y="-50">
    <pitch>
     <step>C</step>
     <octave>5</octave>
    </pitch>
    <duration>384</duration>
    <instrument id="P1-I1" />
    <voice>1</voice>
    <type>quarter</type>
    <dot />
    <stem>down</stem>
    <staff>1</staff>
   </note>
   <note color="#000000" default-x="176" default-y="-50">
    <pitch>
     <step>C</step>
     <octave>5</octave>
    </pitch>
    <duration>128</duration>
    <instrument id="P1-I1" />
    <voice>1</voice>
    <type>eighth</type>
    <stem>down</stem>
    <staff>1</staff>
   </note>
   <note color="#000000" default-x="263" default-y="-50">
    <pitch>
     <step>C</step>
     <octave>5</octave>
    </pitch>
    <duration>512</duration>
    <tie type="start" />
    <instrument id="P1-I1" />
    <voice>1</voice>
    <type>half</type>
    <stem>down</stem>
    <staff>1</staff>
    <notations>
     <tied type="start" orientation="over" />
    </notations>
   </note>
  </measure>
  <!--============== Part: P1, Measure: 52 ==============-->
  <measure number="52" width="377">
   <note color="#000000" default-x="15" default-y="-50">
    <pitch>
     <step>C</step>
     <octave>5</octave>
    </pitch>
    <duration>768</duration>
    <tie type="stop" />
    <instrument id="P1-I1" />
    <voice>1</voice>
    <type>half</type>
    <dot />
    <stem>down</stem>
    <staff>1</staff>
    <notations>
     <tied type="stop" orientation="over" />
    </notations>
   </note>
   <note default-x="257">
    <rest />
    <duration>256</duration>
    <instrument id="P1-I1" />
    <voice>1</voice>
    <type>quarter</type>
    <staff>1</staff>
   </note>
  </measure>
  <!--============== Part: P1, Measure: 53 ==============-->
  <measure number="53" width="613">
   <print new-system="yes">
    <system-layout>
     <system-margins>
      <left-margin>0</left-margin>
      <right-margin>0</right-margin>
     </system-margins>
     <system-distance>116</system-distance>
    </system-layout>
   </print>
   <attributes>
    <staff-details number="1" print-object="yes" />
   </attributes>
   <harmony color="#000000" default-y="15">
    <root>
     <root-step>B</root-step>
     <root-alter>-1</root-alter>
    </root>
    <kind>dominant</kind>
    <bass>
     <bass-step>A</bass-step>
     <bass-alter>-1</bass-alter>
    </bass>
    <staff>1</staff>
   </harmony>
   <note default-x="96">
    <rest />
    <duration>256</duration>
    <instrument id="P1-I1" />
    <voice>1</voice>
    <type>quarter</type>
    <staff>1</staff>
   </note>
   <note color="#000000" default-x="225" default-y="-50">
    <pitch>
     <step>C</step>
     <octave>5</octave>
    </pitch>
    <duration>256</duration>
    <instrument id="P1-I1" />
    <voice>1</voice>
    <type>quarter</type>
    <stem>down</stem>
    <staff>1</staff>
   </note>
   <note color="#000000" default-x="355" default-y="-55">
    <pitch>
     <step>B</step>
     <octave>4</octave>
    </pitch>
    <duration>256</duration>
    <instrument id="P1-I1" />
    <voice>1</voice>
    <type>quarter</type>
    <accidental>natural</accidental>
    <stem>down</stem>
    <staff>1</staff>
   </note>
   <note color="#000000" default-x="484" default-y="-50">
    <pitch>
     <step>C</step>
     <octave>5</octave>
    </pitch>
    <duration>256</duration>
    <instrument id="P1-I1" />
    <voice>1</voice>
    <type>quarter</type>
    <stem>down</stem>
    <staff>1</staff>
   </note>
  </measure>
  <!--============== Part: P1, Measure: 54 ==============-->
  <measure number="54" width="550">
   <harmony color="#000000" default-y="15">
    <root>
     <root-step>E</root-step>
     <root-alter>-1</root-alter>
    </root>
    <kind>major</kind>
    <bass>
     <bass-step>G</bass-step>
    </bass>
    <staff>1</staff>
   </harmony>
   <note color="#000000" default-x="15" default-y="-55">
    <pitch>
     <step>B</step>
     <alter>-1</alter>
     <octave>4</octave>
    </pitch>
    <duration>512</duration>
    <instrument id="P1-I1" />
    <voice>1</voice>
    <type>half</type>
    <stem>down</stem>
    <staff>1</staff>
   </note>
   <note color="#000000" default-x="234" default-y="-20">
    <pitch>
     <step>B</step>
     <alter>-1</alter>
     <octave>3</octave>
    </pitch>
    <duration>256</duration>
    <instrument id="P1-I1" />
    <voice>1</voice>
    <type>quarter</type>
    <accidental>flat</accidental>
    <stem>up</stem>
    <staff>1</staff>
   </note>
   <note color="#000000" default-x="363" default-y="-10">
    <pitch>
     <step>C</step>
     <octave>4</octave>
    </pitch>
    <duration>128</duration>
    <instrument id="P1-I1" />
    <voice>1</voice>
    <type>eighth</type>
    <stem>up</stem>
    <staff>1</staff>
    <beam number="1">begin</beam>
   </note>
   <note color="#000000" default-x="457" default-y="-10">
    <pitch>
     <step>E</step>
     <alter>-1</alter>
     <octave>4</octave>
    </pitch>
    <duration>128</duration>
    <instrument id="P1-I1" />
    <voice>1</voice>
    <type>eighth</type>
    <stem>up</stem>
    <staff>1</staff>
    <beam number="1">end</beam>
   </note>
  </measure>
  <!--============== Part: P1, Measure: 55 ==============-->
  <measure number="55" width="317">
   <harmony color="#000000" default-y="15">
    <root>
     <root-step>G</root-step>
    </root>
    <kind>dominant</kind>
    <bass>
     <bass-step>F</bass-step>
    </bass>
    <staff>1</staff>
   </harmony>
   <note color="#000000" default-x="15">
    <pitch>
     <step>G</step>
     <octave>4</octave>
    </pitch>
    <duration>1024</duration>
    <tie type="start" />
    <instrument id="P1-I1" />
    <voice>1</voice>
    <type>whole</type>
    <staff>1</staff>
    <notations>
     <tied type="start" orientation="under" />
    </notations>
   </note>
  </measure>
  <!--============== Part: P1, Measure: 56 ==============-->
  <measure number="56" width="317">
   <harmony color="#000000" default-y="15">
    <root>
     <root-step>G</root-step>
    </root>
    <kind>dominant</kind>
    <bass>
     <bass-step>E</bass-step>
     <bass-alter>-1</bass-alter>
    </bass>
    <staff>1</staff>
   </harmony>
   <note color="#000000" default-x="15">
    <pitch>
     <step>G</step>
     <octave>4</octave>
    </pitch>
    <duration>1024</duration>
    <tie type="stop" />
    <instrument id="P1-I1" />
    <voice>1</voice>
    <type>whole</type>
    <staff>1</staff>
    <notations>
     <tied type="stop" orientation="under" />
    </notations>
   </note>
   <backup>
    <duration>512</duration>
   </backup>
   <harmony color="#000000" default-y="15">
    <root>
     <root-step>G</root-step>
    </root>
    <kind>dominant</kind>
    <bass>
     <bass-step>D</bass-step>
    </bass>
    <staff>1</staff>
   </harmony>
  </measure>
  <!--============== Part: P1, Measure: 57 ==============-->
  <measure number="57" width="579">
   <print new-system="yes">
    <system-layout>
     <system-margins>
      <left-margin>0</left-margin>
      <right-margin>0</right-margin>
     </system-margins>
     <system-distance>116</system-distance>
    </system-layout>
   </print>
   <attributes>
    <staff-details number="1" print-object="yes" />
   </attributes>
   <harmony color="#000000" default-y="15">
    <root>
     <root-step>G</root-step>
    </root>
    <kind>half-diminished</kind>
    <bass>
     <bass-step>D</bass-step>
     <bass-alter>-1</bass-alter>
    </bass>
    <staff>1</staff>
   </harmony>
   <note default-x="96">
    <rest />
    <duration>256</duration>
    <instrument id="P1-I1" />
    <voice>1</voice>
    <type>quarter</type>
    <staff>1</staff>
   </note>
   <note color="#000000" default-x="217" default-y="5">
    <pitch>
     <step>G</step>
     <octave>4</octave>
    </pitch>
    <duration>256</duration>
    <instrument id="P1-I1" />
    <voice>1</voice>
    <type>quarter</type>
    <stem>up</stem>
    <staff>1</staff>
   </note>
   <note color="#000000" default-x="337" default-y="-55">
    <pitch>
     <step>B</step>
     <alter>-1</alter>
     <octave>4</octave>
    </pitch>
    <duration>256</duration>
    <instrument id="P1-I1" />
    <voice>1</voice>
    <type>quarter</type>
    <stem>down</stem>
    <staff>1</staff>
   </note>
   <note color="#000000" default-x="458" default-y="10">
    <pitch>
     <step>A</step>
     <octave>4</octave>
    </pitch>
    <duration>256</duration>
    <instrument id="P1-I1" />
    <voice>1</voice>
    <type>quarter</type>
    <accidental>natural</accidental>
    <stem>up</stem>
    <staff>1</staff>
   </note>
  </measure>
  <!--============== Part: P1, Measure: 58 ==============-->
  <measure number="58" width="425">
   <harmony color="#000000" default-y="15">
    <root>
     <root-step>C</root-step>
    </root>
    <kind>dominant</kind>
    <degree>
     <degree-value>5</degree-value>
     <degree-alter>1</degree-alter>
     <degree-type>alter</degree-type>
    </degree>
    <staff>1</staff>
   </harmony>
   <note color="#000000" default-x="15" default-y="10">
    <pitch>
     <step>A</step>
     <alter>-1</alter>
     <octave>4</octave>
    </pitch>
    <duration>512</duration>
    <instrument id="P1-I1" />
    <voice>1</voice>
    <type>half</type>
    <stem>up</stem>
    <staff>1</staff>
   </note>
   <harmony color="#000000" default-y="15">
    <root>
     <root-step>C</root-step>
    </root>
    <kind>dominant</kind>
    <degree>
     <degree-value>9</degree-value>
     <degree-alter>-1</degree-alter>
     <degree-type>add</degree-type>
    </degree>
    <staff>1</staff>
   </harmony>
   <note color="#000000" default-x="220" default-y="5">
    <pitch>
     <step>G</step>
     <octave>4</octave>
    </pitch>
    <duration>512</duration>
    <instrument id="P1-I1" />
    <voice>1</voice>
    <type>half</type>
    <stem>up</stem>
    <staff>1</staff>
   </note>
  </measure>
  <!--============== Part: P1, Measure: 59 ==============-->
  <measure number="59" width="498">
   <harmony color="#000000" default-y="15">
    <root>
     <root-step>F</root-step>
    </root>
    <kind>minor-seventh</kind>
    <staff>1</staff>
   </harmony>
   <note color="#000000" default-x="15" default-y="5">
    <pitch>
     <step>G</step>
     <octave>4</octave>
    </pitch>
    <duration>256</duration>
    <instrument id="P1-I1" />
    <voice>1</voice>
    <type>quarter</type>
    <stem>up</stem>
    <staff>1</staff>
   </note>
   <note color="#000000" default-x="135">
    <pitch>
     <step>F</step>
     <octave>4</octave>
    </pitch>
    <duration>256</duration>
    <instrument id="P1-I1" />
    <voice>1</voice>
    <type>quarter</type>
    <stem>up</stem>
    <staff>1</staff>
   </note>
   <note color="#000000" default-x="256" default-y="-5">
    <pitch>
     <step>E</step>
     <octave>4</octave>
    </pitch>
    <duration>256</duration>
    <instrument id="P1-I1" />
    <voice>1</voice>
    <type>quarter</type>
    <accidental>natural</accidental>
    <stem>up</stem>
    <staff>1</staff>
   </note>
   <note color="#000000" default-x="377">
    <pitch>
     <step>F</step>
     <octave>4</octave>
    </pitch>
    <duration>256</duration>
    <instrument id="P1-I1" />
    <voice>1</voice>
    <type>quarter</type>
    <stem>up</stem>
    <staff>1</staff>
   </note>
  </measure>
  <!--============== Part: P1, Measure: 60 ==============-->
  <measure number="60" width="297">
   <note color="#000000" default-x="15">
    <pitch>
     <step>C</step>
     <octave>5</octave>
    </pitch>
    <duration>1024</duration>
    <instrument id="P1-I1" />
    <voice>1</voice>
    <type>whole</type>
    <staff>1</staff>
   </note>
  </measure>
  <!--============== Part: P1, Measure: 61 ==============-->
  <measure number="61" width="585">
   <print new-system="yes">
    <system-layout>
     <system-margins>
      <left-margin>0</left-margin>
      <right-margin>0</right-margin>
     </system-margins>
     <system-distance>116</system-distance>
    </system-layout>
   </print>
   <attributes>
    <staff-details number="1" print-object="yes" />
   </attributes>
   <harmony color="#000000" default-y="13">
    <root>
     <root-step>F</root-step>
    </root>
    <kind>dominant</kind>
    <bass>
     <bass-step>C</bass-step>
    </bass>
    <staff>1</staff>
   </harmony>
   <note default-x="96">
    <rest />
    <duration>256</duration>
    <instrument id="P1-I1" />
    <voice>1</voice>
    <type>quarter</type>
    <staff>1</staff>
   </note>
   <note color="#000000" default-x="218">
    <pitch>
     <step>F</step>
     <octave>4</octave>
    </pitch>
    <duration>256</duration>
    <instrument id="P1-I1" />
    <voice>1</voice>
    <type>quarter</type>
    <stem>up</stem>
    <staff>1</staff>
   </note>
   <harmony color="#000000" default-y="13">
    <root>
     <root-step>C</root-step>
     <root-alter>-1</root-alter>
    </root>
    <kind>dominant</kind>
    <degree>
     <degree-value>11</degree-value>
     <degree-alter>1</degree-alter>
     <degree-type>add</degree-type>
    </degree>
    <staff>1</staff>
   </harmony>
   <note color="#000000" default-x="340" default-y="10">
    <pitch>
     <step>A</step>
     <alter>-1</alter>
     <octave>4</octave>
    </pitch>
    <duration>256</duration>
    <instrument id="P1-I1" />
    <voice>1</voice>
    <type>quarter</type>
    <stem>up</stem>
    <staff>1</staff>
   </note>
   <note color="#000000" default-x="463" default-y="5">
    <pitch>
     <step>G</step>
     <octave>4</octave>
    </pitch>
    <duration>256</duration>
    <instrument id="P1-I1" />
    <voice>1</voice>
    <type>quarter</type>
    <stem>up</stem>
    <staff>1</staff>
   </note>
  </measure>
  <!--============== Part: P1, Measure: 62 ==============-->
  <measure number="62" width="467">
   <harmony color="#000000" default-y="13">
    <root>
     <root-step>B</root-step>
     <root-alter>-1</root-alter>
    </root>
    <kind>dominant</kind>
    <degree>
     <degree-value>5</degree-value>
     <degree-alter>1</degree-alter>
     <degree-type>alter</degree-type>
    </degree>
    <staff>1</staff>
   </harmony>
   <note color="#000000" default-x="15" default-y="5">
    <pitch>
     <step>G</step>
     <alter>-1</alter>
     <octave>4</octave>
    </pitch>
    <duration>256</duration>
    <instrument id="P1-I1" />
    <voice>1</voice>
    <type>quarter</type>
    <accidental>flat</accidental>
    <stem>up</stem>
    <staff>1</staff>
   </note>
   <note color="#000000" default-x="137">
    <pitch>
     <step>F</step>
     <octave>4</octave>
    </pitch>
    <duration>512</duration>
    <instrument id="P1-I1" />
    <voice>1</voice>
    <type>half</type>
    <stem>up</stem>
    <staff>1</staff>
   </note>
   <backup>
    <duration>256</duration>
   </backup>
   <harmony color="#000000" default-y="13">
    <root>
     <root-step>B</root-step>
     <root-alter>-1</root-alter>
    </root>
    <kind>dominant</kind>
    <staff>1</staff>
   </harmony>
   <forward>
    <duration>256</duration>
   </forward>
   <note color="#000000" default-x="345" default-y="-5">
    <pitch>
     <step>E</step>
     <alter>-1</alter>
     <octave>4</octave>
    </pitch>
    <duration>256</duration>
    <tie type="start" />
    <instrument id="P1-I1" />
    <voice>1</voice>
    <type>quarter</type>
    <stem>up</stem>
    <staff>1</staff>
    <notations>
     <tied type="start" orientation="under" />
    </notations>
   </note>
  </measure>
  <!--============== Part: P1, Measure: 63 ==============-->
  <measure number="63" width="301">
   <harmony color="#000000" default-y="13">
    <root>
     <root-step>E</root-step>
     <root-alter>-1</root-alter>
    </root>
    <kind>major-sixth</kind>
    <degree>
     <degree-value>9</degree-value>
     <degree-alter>0</degree-alter>
     <degree-type>add</degree-type>
    </degree>
    <staff>1</staff>
   </harmony>
   <note color="#000000" default-x="15">
    <pitch>
     <step>E</step>
     <alter>-1</alter>
     <octave>4</octave>
    </pitch>
    <duration>1024</duration>
    <tie type="stop" />
    <tie type="start" />
    <instrument id="P1-I1" />
    <voice>1</voice>
    <type>whole</type>
    <staff>1</staff>
    <notations>
     <tied type="stop" orientation="under" />
     <tied type="start" orientation="under" />
    </notations>
   </note>
  </measure>
  <!--============== Part: P1, Measure: 64 ==============-->
  <measure number="64" width="445">
   <harmony color="#000000" default-y="13">
    <root>
     <root-step>F</root-step>
    </root>
    <kind>minor-seventh</kind>
    <staff>1</staff>
   </harmony>
   <note color="#000000" default-x="15" default-y="-5">
    <pitch>
     <step>E</step>
     <alter>-1</alter>
     <octave>4</octave>
    </pitch>
    <duration>512</duration>
    <tie type="stop" />
    <instrument id="P1-I1" />
    <voice>1</voice>
    <type>half</type>
    <stem>up</stem>
    <staff>1</staff>
    <notations>
     <tied type="stop" orientation="under" />
    </notations>
   </note>
   <harmony color="#000000" default-y="13">
    <root>
     <root-step>B</root-step>
     <root-alter>-1</root-alter>
    </root>
    <kind>dominant</kind>
    <staff>1</staff>
   </harmony>
   <note default-x="222">
    <rest />
    <duration>512</duration>
    <instrument id="P1-I1" />
    <voice>1</voice>
    <type>half</type>
    <staff>1</staff>
   </note>
   <barline>
    <bar-style>light-heavy</bar-style>
   </barline>
  </measure>
 </part>
</score-partwise>
