<?xml version="1.0" encoding='UTF-8' standalone='no' ?> <!DOCTYPE score-partwise PUBLIC "-//Recordare//DTD MusicXML 3.0 Partwise//EN" "http://www.musicxml.org/dtds/partwise.dtd"> <score-partwise version="3.0">  <work>   <work-title>Monk&apos;s Dream</work-title>  </work>  <identification>   <creator type="composer">1948 - Thelonious Monk</creator>   <rights>www.realbook.site</rights>   <encoding>    <encoding-date>2023-05-05</encoding-date>    <encoder>mosco</encoder>    <software>Sibelius 22.9.0</software>    <software>Direct export, not from Dolet</software>    <encoding-description>Sibelius / MusicXML 3.0</encoding-description>    <supports element="print" type="yes" value="yes" attribute="new-system" />    <supports element="print" type="yes" value="yes" attribute="new-page" />    <supports element="accidental" type="yes" />    <supports element="beam" type="yes" />    <supports element="stem" type="yes" />   </encoding>  </identification>  <defaults>   <scaling>    <millimeters>210</millimeters>    <tenths>1292</tenths>   </scaling>   <page-layout>    <page-height>1827</page-height>    <page-width>1292</page-width>    <page-margins type="both">     <left-margin>92</left-margin>     <right-margin>92</right-margin>     <top-margin>92</top-margin>     <bottom-margin>92</bottom-margin>    </page-margins>   </page-layout>   <system-layout>    <system-margins>     <left-margin>22</left-margin>     <right-margin>0</right-margin>    </system-margins>    <system-distance>120</system-distance>   </system-layout>   <appearance>    <line-width type="stem">1.25</line-width>    <line-width type="beam">5</line-width>    <line-width type="staff">0.9375</line-width>    <line-width type="light barline">1.5625</line-width>    <line-width type="heavy barline">5</line-width>    <line-width type="leger">1.5625</line-width>    <line-width type="ending">1.5625</line-width>    <line-width type="wedge">1.25</line-width>    <line-width type="enclosure">1.5625</line-width>    <line-width type="tuplet bracket">1.25</line-width>    <line-width type="bracket">5</line-width>    <line-width type="dashes">1.5625</line-width>    <line-width type="extend">0.9375</line-width>    <line-width type="octave shift">1.5625</line-width>    <line-width type="pedal">1.5625</line-width>    <line-width type="slur middle">1.5625</line-width>    <line-width type="slur tip">0.625</line-width>    <line-width type="tie middle">1.5625</line-width>    <line-width type="tie tip">0.625</line-width>    <note-size type="cue">75</note-size>    <note-size type="grace">60</note-size>   </appearance>   <music-font font-family="Opus Std" font-size="18.4252" />   <word-font font-family="Quicksand" font-size="11.0839" />   <lyric-font font-family="Quicksand" font-size="10.6521" />   <lyric-language xml:lang="en" />  </defaults>  <credit page="1">   <credit-words default-x="645" default-y="155" font-family="Quicksand" font-style="normal" font-size="19.4328" font-weight="normal" justify="center" valign="middle">Monk&apos;s Dream</credit-words>  </credit>  <credit page="1">   <credit-words default-x="1200" default-y="84" font-family="Quicksand" font-style="normal" font-size="10.2202" font-weight="normal" justify="right" valign="middle">1948 - Thelonious Monk</credit-words>  </credit>  <credit page="1">   <credit-words default-x="645" default-y="92" font-family="Quicksand" font-style="normal" font-size="9.3565" font-weight="normal" justify="center" valign="middle">www.realbook.site</credit-words>  </credit>  <part-list>   <score-part id="P1">    <identification>     <miscellaneous>      <miscellaneous-field name="show-rhythms">false</miscellaneous-field>     </miscellaneous>    </identification>    <part-name> </part-name>    <part-name-display>     <display-text> </display-text>    </part-name-display>    <part-abbreviation> </part-abbreviation>    <part-abbreviation-display>     <display-text> </display-text>    </part-abbreviation-display>    <score-instrument id="P1-I1">     <instrument-name> </instrument-name>     <virtual-instrument>      <virtual-library>Sibelius 7 Sounds</virtual-library>     </virtual-instrument>    </score-instrument>   </score-part>  </part-list>  <part id="P1">   <!--============== Part: P1, Measure: 1 ==============-->   <measure number="1" width="188">    <print new-page="yes">     <system-layout>      <system-margins>       <left-margin>-3</left-margin>       <right-margin>0</right-margin>      </system-margins>      <top-system-distance>181</top-system-distance>     </system-layout>    </print>    <attributes>     <divisions>256</divisions>     <key color="#000000">      <fifths>0</fifths>      <mode>major</mode>     </key>     <time color="#000000">      <beats>4</beats>      <beat-type>4</beat-type>     </time>     <staves>1</staves>     <clef number="1" color="#000000">      <sign>G</sign>      <line>2</line>     </clef>     <staff-details number="1" print-object="yes" />    </attributes>    <note color="#000000" default-x="75" default-y="-15">     <pitch>      <step>C</step>      <octave>4</octave>     </pitch>     <duration>128</duration>     <instrument id="P1-I1" />     <voice>1</voice>     <type>eighth</type>         <staff>1</staff>    </note>    <note color="#000000" default-x="104" default-y="9">     <pitch>      <step>E</step>      <octave>4</octave>     </pitch>     <duration>85</duration>     <instrument id="P1-I1" />     <voice>1</voice>     <type>eighth</type>     <time-modification>      <actual-notes>3</actual-notes>      <normal-notes>2</normal-notes>      <normal-type>eighth</normal-type>     </time-modification>         <staff>1</staff>     <beam number="1">begin</beam>     <notations>      <tuplet type="start" bracket="no" number="1" default-y="-20" placement="above" />     </notations>    </note>    <note color="#000000" default-x="128" default-y="9">     <pitch>      <step>G</step>      <octave>4</octave>     </pitch>     <duration>85</duration>     <instrument id="P1-I1" />     <voice>1</voice>     <type>eighth</type>     <time-modification>      <actual-notes>3</actual-notes>      <normal-notes>2</normal-notes>      <normal-type>eighth</normal-type>     </time-modification>         <staff>1</staff>     <beam number="1">continue</beam>    </note>    <note color="#000000" default-x="152" default-y="9">     <pitch>      <step>A</step>      <octave>4</octave>     </pitch>     <duration>86</duration>     <instrument id="P1-I1" />     <voice>1</voice>     <type>eighth</type>     <time-modification>      <actual-notes>3</actual-notes>      <normal-notes>2</normal-notes>      <normal-type>eighth</normal-type>     </time-modification>         <staff>1</staff>     <beam number="1">end</beam>     <notations>      <tuplet type="stop" bracket="no" number="1" default-y="-20" placement="above" />     </notations>    </note>    <barline>     <bar-style>light-light</bar-style>    </barline>   </measure>   <!--============== Part: P1, Measure: 2 ==============-->   <measure number="2" width="236">    <barline location="left">     <bar-style>heavy-light</bar-style>     <repeat direction="forward" />    </barline>    <harmony color="#000000" default-y="25">     <root>      <root-step>C</root-step>     </root>     <kind>major-ninth</kind>     <staff>1</staff>    </harmony>    <note color="#000000" default-x="27" default-y="15">     <pitch>      <step>D</step>      <octave>4</octave>     </pitch>     <duration>256</duration>     <instrument id="P1-I1" />     <voice>1</voice>     <type>quarter</type>         <staff>1</staff>     <notations>      <articulations>       <staccato />      </articulations>     </notations>    </note>    <note color="#000000" default-x="27">     <chord />     <pitch>      <step>E</step>      <octave>4</octave>     </pitch>     <duration>256</duration>     <instrument id="P1-I1" />     <type>quarter</type>     <staff>1</staff>    </note>    <note color="#000000" default-x="27">     <chord />     <pitch>      <step>B</step>      <octave>4</octave>     </pitch>     <duration>256</duration>     <instrument id="P1-I1" />     <type>quarter</type>     <staff>1</staff>    </note>    <note color="#000000" default-x="68" default-y="4">     <pitch>      <step>A</step>      <octave>4</octave>     </pitch>     <duration>128</duration>     <instrument id="P1-I1" />     <voice>1</voice>     <type>eighth</type>         <staff>1</staff>     <beam number="1">begin</beam>    </note>    <note color="#000000" default-x="97" default-y="4">     <pitch>      <step>C</step>      <octave>4</octave>     </pitch>     <duration>128</duration>     <instrument id="P1-I1" />     <voice>1</voice>     <type>eighth</type>         <staff>1</staff>     <beam number="1">end</beam>    </note>    <harmony color="#000000" default-y="25">     <root>      <root-step>F</root-step>     </root>     <kind>dominant-ninth</kind>     <staff>1</staff>    </harmony>    <note color="#000000" default-x="128" default-y="5">     <pitch>      <step>D</step>      <octave>4</octave>     </pitch>     <duration>128</duration>     <instrument id="P1-I1" />     <voice>1</voice>     <type>eighth</type>         <staff>1</staff>    </note>    <note color="#000000" default-x="128">     <chord />     <pitch>      <step>E</step>      <alter>-1</alter>      <octave>4</octave>     </pitch>     <duration>128</duration>     <instrument id="P1-I1" />     <type>eighth</type>     <accidental>flat</accidental>     <staff>1</staff>    </note>    <note color="#000000" default-x="128">     <chord />     <pitch>      <step>G</step>      <octave>4</octave>     </pitch>     <duration>128</duration>     <instrument id="P1-I1" />     <type>eighth</type>     <staff>1</staff>    </note>    <note color="#000000" default-x="162" default-y="-15">     <pitch>      <step>C</step>      <octave>4</octave>     </pitch>     <duration>256</duration>     <instrument id="P1-I1" />     <voice>1</voice>     <type>quarter</type>         <staff>1</staff>    </note>    <note color="#000000" default-x="203" default-y="-5">     <pitch>      <step>D</step>      <octave>4</octave>     </pitch>     <duration>128</duration>     <instrument id="P1-I1" />     <voice>1</voice>     <type>eighth</type>         <staff>1</staff>    </note>    <note color="#000000" default-x="203">     <chord />     <pitch>      <step>E</step>      <octave>4</octave>     </pitch>     <duration>128</duration>     <instrument id="P1-I1" />     <type>eighth</type>     <accidental>natural</accidental>     <staff>1</staff>    </note>   </measure>   <!--============== Part: P1, Measure: 3 ==============-->   <measure number="3" width="261">    <harmony color="#000000" default-y="25">     <root>      <root-step>B</root-step>      <root-alter>-1</root-alter>     </root>     <kind>dominant</kind>     <degree>      <degree-value>11</degree-value>      <degree-alter>1</degree-alter>      <degree-type>add</degree-type>     </degree>     <staff>1</staff>    </harmony>    <note default-x="15">     <rest />     <duration>512</duration>     <instrument id="P1-I1" />     <voice>1</voice>     <type>half</type>     <staff>1</staff>    </note>    <note default-x="131">     <rest />     <duration>128</duration>     <instrument id="P1-I1" />     <voice>1</voice>     <type>eighth</type>     <staff>1</staff>    </note>    <note color="#000000" default-x="160" default-y="-15">     <pitch>      <step>C</step>      <octave>4</octave>     </pitch>     <duration>128</duration>     <instrument id="P1-I1" />     <voice>1</voice>     <type>eighth</type>         <staff>1</staff>    </note>    <note color="#000000" default-x="190" default-y="9">     <pitch>      <step>E</step>      <octave>4</octave>     </pitch>     <duration>85</duration>     <instrument id="P1-I1" />     <voice>1</voice>     <type>eighth</type>     <time-modification>      <actual-notes>3</actual-notes>      <normal-notes>2</normal-notes>      <normal-type>eighth</normal-type>     </time-modification>         <staff>1</staff>     <beam number="1">begin</beam>     <notations>      <tuplet type="start" bracket="no" number="1" default-y="-20" placement="above" />     </notations>    </note>    <note color="#000000" default-x="213" default-y="9">     <pitch>      <step>G</step>      <octave>4</octave>     </pitch>     <duration>85</duration>     <instrument id="P1-I1" />     <voice>1</voice>     <type>eighth</type>     <time-modification>      <actual-notes>3</actual-notes>      <normal-notes>2</normal-notes>      <normal-type>eighth</normal-type>     </time-modification>         <staff>1</staff>     <beam number="1">continue</beam>    </note>    <note color="#000000" default-x="237" default-y="9">     <pitch>      <step>A</step>      <octave>4</octave>     </pitch>     <duration>86</duration>     <instrument id="P1-I1" />     <voice>1</voice>     <type>eighth</type>     <time-modification>      <actual-notes>3</actual-notes>      <normal-notes>2</normal-notes>      <normal-type>eighth</normal-type>     </time-modification>         <staff>1</staff>     <beam number="1">end</beam>     <notations>      <tuplet type="stop" bracket="no" number="1" default-y="-20" placement="above" />     </notations>    </note>    <backup>     <duration>1024</duration>    </backup>    <note default-x="15">     <cue />     <rest />     <duration>128</duration>     <instrument id="P1-I1" />     <voice>2</voice>     <type>eighth</type>     <staff>1</staff>    </note>    <note color="#000000" default-x="44" default-y="-86">     <cue />     <pitch>      <step>B</step>      <octave>3</octave>     </pitch>     <duration>128</duration>     <instrument id="P1-I1" />     <voice>2</voice>     <type>eighth</type>         <notehead>slash</notehead>     <staff>1</staff>    </note>    <note default-x="73">     <cue />     <rest />     <duration>128</duration>     <instrument id="P1-I1" />     <voice>2</voice>     <type>eighth</type>     <staff>1</staff>    </note>    <note color="#000000" default-x="102" default-y="-85">     <cue />     <pitch>      <step>B</step>      <octave>3</octave>     </pitch>     <duration>128</duration>     <instrument id="P1-I1" />     <voice>2</voice>     <type>eighth</type>         <notehead>slash</notehead>     <staff>1</staff>    </note>    <note default-x="131">     <cue />     <rest />     <duration>512</duration>     <instrument id="P1-I1" />     <voice>2</voice>     <type>half</type>     <staff>1</staff>    </note>   </measure>   <!--============== Part: P1, Measure: 4 ==============-->   <measure number="4" width="224">    <harmony color="#000000" default-y="25">     <root>      <root-step>C</root-step>     </root>     <kind>major-ninth</kind>     <staff>1</staff>    </harmony>    <note color="#000000" default-x="15" default-y="15">     <pitch>      <step>D</step>      <octave>4</octave>     </pitch>     <duration>256</duration>     <instrument id="P1-I1" />     <voice>1</voice>     <type>quarter</type>         <staff>1</staff>    </note>    <note color="#000000" default-x="15">     <chord />     <pitch>      <step>E</step>      <octave>4</octave>     </pitch>     <duration>256</duration>     <instrument id="P1-I1" />     <type>quarter</type>     <staff>1</staff>    </note>    <note color="#000000" default-x="15">     <chord />     <pitch>      <step>B</step>      <octave>4</octave>     </pitch>     <duration>256</duration>     <instrument id="P1-I1" />     <type>quarter</type>     <staff>1</staff>    </note>    <note color="#000000" default-x="55" default-y="4">     <pitch>      <step>A</step>      <octave>4</octave>     </pitch>     <duration>128</duration>     <instrument id="P1-I1" />     <voice>1</voice>     <type>eighth</type>         <staff>1</staff>     <beam number="1">begin</beam>    </note>    <note color="#000000" default-x="84" default-y="4">     <pitch>      <step>C</step>      <octave>4</octave>     </pitch>     <duration>128</duration>     <instrument id="P1-I1" />     <voice>1</voice>     <type>eighth</type>         <staff>1</staff>     <beam number="1">end</beam>    </note>    <harmony color="#000000" default-y="25">     <root>      <root-step>F</root-step>     </root>     <kind>dominant-ninth</kind>     <staff>1</staff>    </harmony>    <note color="#000000" default-x="116" default-y="5">     <pitch>      <step>D</step>      <octave>4</octave>     </pitch>     <duration>128</duration>     <instrument id="P1-I1" />     <voice>1</voice>     <type>eighth</type>         <staff>1</staff>    </note>    <note color="#000000" default-x="116">     <chord />     <pitch>      <step>E</step>      <alter>-1</alter>      <octave>4</octave>     </pitch>     <duration>128</duration>     <instrument id="P1-I1" />     <type>eighth</type>     <accidental>flat</accidental>     <staff>1</staff>    </note>    <note color="#000000" default-x="116">     <chord />     <pitch>      <step>G</step>      <octave>4</octave>     </pitch>     <duration>128</duration>     <instrument id="P1-I1" />     <type>eighth</type>     <staff>1</staff>    </note>    <note color="#000000" default-x="150" default-y="-15">     <pitch>      <step>C</step>      <octave>4</octave>     </pitch>     <duration>256</duration>     <instrument id="P1-I1" />     <voice>1</voice>     <type>quarter</type>         <staff>1</staff>    </note>    <note color="#000000" default-x="190" default-y="-5">     <pitch>      <step>D</step>      <octave>4</octave>     </pitch>     <duration>128</duration>     <instrument id="P1-I1" />     <voice>1</voice>     <type>eighth</type>         <staff>1</staff>    </note>    <note color="#000000" default-x="190">     <chord />     <pitch>      <step>E</step>      <octave>4</octave>     </pitch>     <duration>128</duration>     <instrument id="P1-I1" />     <type>eighth</type>     <accidental>natural</accidental>     <staff>1</staff>    </note>   </measure>   <!--============== Part: P1, Measure: 5 ==============-->   <measure number="5" width="200">    <harmony color="#000000" default-y="25">     <root>      <root-step>B</root-step>      <root-alter>-1</root-alter>     </root>     <kind>dominant</kind>     <degree>      <degree-value>11</degree-value>      <degree-alter>1</degree-alter>      <degree-type>add</degree-type>     </degree>     <staff>1</staff>    </harmony>    <note default-x="15">     <rest />     <duration>1024</duration>     <instrument id="P1-I1" />     <voice>1</voice>     <type>whole</type>     <staff>1</staff>    </note>    <backup>     <duration>1024</duration>    </backup>    <note default-x="15">     <cue />     <rest />     <duration>128</duration>     <instrument id="P1-I1" />     <voice>2</voice>     <type>eighth</type>     <staff>1</staff>    </note>    <note color="#000000" default-x="44" default-y="-84">     <cue />     <pitch>      <step>B</step>      <octave>3</octave>     </pitch>     <duration>128</duration>     <instrument id="P1-I1" />     <voice>2</voice>     <type>eighth</type>         <notehead>slash</notehead>     <staff>1</staff>    </note>    <note default-x="73">     <cue />     <rest />     <duration>128</duration>     <instrument id="P1-I1" />     <voice>2</voice>     <type>eighth</type>     <staff>1</staff>    </note>    <note color="#000000" default-x="102" default-y="-85">     <cue />     <pitch>      <step>B</step>      <octave>3</octave>     </pitch>     <duration>128</duration>     <instrument id="P1-I1" />     <voice>2</voice>     <type>eighth</type>         <notehead>slash</notehead>     <staff>1</staff>    </note>    <note default-x="131">     <cue />     <rest />     <duration>512</duration>     <instrument id="P1-I1" />     <voice>2</voice>     <type>half</type>     <staff>1</staff>    </note>   </measure>   <!--============== Part: P1, Measure: 6 ==============-->   <measure number="6" width="274">    <print new-system="yes">     <system-layout>      <system-margins>       <left-margin>0</left-margin>       <right-margin>0</right-margin>      </system-margins>      <system-distance>128</system-distance>     </system-layout>    </print>    <attributes>     <staff-details number="1" print-object="yes" />    </attributes>    <harmony color="#000000" default-y="25">     <root>      <root-step>C</root-step>     </root>     <kind>major-ninth</kind>     <staff>1</staff>    </harmony>    <note color="#000000" default-x="57" default-y="15">     <pitch>      <step>D</step>      <octave>4</octave>     </pitch>     <duration>256</duration>     <instrument id="P1-I1" />     <voice>1</voice>     <type>quarter</type>         <staff>1</staff>    </note>    <note color="#000000" default-x="57">     <chord />     <pitch>      <step>E</step>      <octave>4</octave>     </pitch>     <duration>256</duration>     <instrument id="P1-I1" />     <type>quarter</type>     <staff>1</staff>    </note>    <note color="#000000" default-x="57">     <chord />     <pitch>      <step>B</step>      <octave>4</octave>     </pitch>     <duration>256</duration>     <instrument id="P1-I1" />     <type>quarter</type>     <staff>1</staff>    </note>    <note color="#000000" default-x="92" default-y="12">     <pitch>      <step>A</step>      <octave>4</octave>     </pitch>     <duration>64</duration>     <instrument id="P1-I1" />     <voice>1</voice>     <type>16th</type>         <staff>1</staff>     <beam number="1">begin</beam>     <beam number="2">begin</beam>    </note>    <note color="#000000" default-x="111" default-y="12">     <pitch>      <step>G</step>      <octave>4</octave>     </pitch>     <duration>64</duration>     <instrument id="P1-I1" />     <voice>1</voice>     <type>16th</type>         <staff>1</staff>     <beam number="1">continue</beam>     <beam number="2">continue</beam>    </note>    <note color="#000000" default-x="130" default-y="12">     <pitch>      <step>E</step>      <octave>4</octave>     </pitch>     <duration>64</duration>     <instrument id="P1-I1" />     <voice>1</voice>     <type>16th</type>         <staff>1</staff>     <beam number="1">continue</beam>     <beam number="2">continue</beam>    </note>    <note color="#000000" default-x="150" default-y="12">     <pitch>      <step>C</step>      <octave>4</octave>     </pitch>     <duration>64</duration>     <instrument id="P1-I1" />     <voice>1</voice>     <type>16th</type>         <staff>1</staff>     <beam number="1">end</beam>     <beam number="2">end</beam>    </note>    <harmony color="#000000" default-y="25">     <root>      <root-step>F</root-step>     </root>     <kind>dominant-ninth</kind>     <staff>1</staff>    </harmony>    <note color="#000000" default-x="182" default-y="2">     <pitch>      <step>D</step>      <octave>4</octave>     </pitch>     <duration>128</duration>     <instrument id="P1-I1" />     <voice>1</voice>     <type>eighth</type>         <staff>1</staff>     <beam number="1">begin</beam>    </note>    <note color="#000000" default-x="182">     <chord />     <pitch>      <step>E</step>      <alter>-1</alter>      <octave>4</octave>     </pitch>     <duration>128</duration>     <instrument id="P1-I1" />     <type>eighth</type>     <accidental>flat</accidental>     <staff>1</staff>    </note>    <note color="#000000" default-x="182">     <chord />     <pitch>      <step>G</step>      <octave>4</octave>     </pitch>     <duration>128</duration>     <instrument id="P1-I1" />     <type>eighth</type>     <staff>1</staff>    </note>    <note color="#000000" default-x="216" default-y="2">     <pitch>      <step>C</step>      <octave>4</octave>     </pitch>     <duration>128</duration>     <instrument id="P1-I1" />     <voice>1</voice>     <type>eighth</type>         <staff>1</staff>     <beam number="1">end</beam>    </note>    <note default-x="240">     <rest />     <duration>256</duration>     <instrument id="P1-I1" />     <voice>1</voice>     <type>quarter</type>     <staff>1</staff>    </note>   </measure>   <!--============== Part: P1, Measure: 7 ==============-->   <measure number="7" width="216">    <harmony color="#000000" default-y="25">     <root>      <root-step>B</root-step>     </root>     <kind>minor-seventh</kind>     <staff>1</staff>    </harmony>    <note color="#000000" default-x="15" default-y="-7">     <pitch>      <step>D</step>      <octave>4</octave>     </pitch>     <duration>128</duration>     <instrument id="P1-I1" />     <voice>1</voice>     <type>eighth</type>         <staff>1</staff>     <beam number="1">begin</beam>    </note>    <note color="#000000" default-x="15">     <chord />     <pitch>      <step>E</step>      <octave>4</octave>     </pitch>     <duration>128</duration>     <instrument id="P1-I1" />     <type>eighth</type>     <accidental>natural</accidental>     <staff>1</staff>    </note>    <note color="#000000" default-x="48" default-y="-7">     <pitch>      <step>A</step>      <octave>3</octave>     </pitch>     <duration>128</duration>     <instrument id="P1-I1" />     <voice>1</voice>     <type>eighth</type>         <staff>1</staff>     <beam number="1">continue</beam>    </note>    <note color="#000000" default-x="73" default-y="-7">     <pitch>      <step>D</step>      <octave>4</octave>     </pitch>     <duration>128</duration>     <instrument id="P1-I1" />     <voice>1</voice>     <type>eighth</type>         <staff>1</staff>     <beam number="1">continue</beam>    </note>    <note color="#000000" default-x="73">     <chord />     <pitch>      <step>E</step>      <octave>4</octave>     </pitch>     <duration>128</duration>     <instrument id="P1-I1" />     <type>eighth</type>     <staff>1</staff>    </note>    <note color="#000000" default-x="117" default-y="-7">     <pitch>      <step>A</step>      <alter>-1</alter>      <octave>3</octave>     </pitch>     <duration>128</duration>     <tie type="start" />     <instrument id="P1-I1" />     <voice>1</voice>     <type>eighth</type>     <accidental>flat</accidental>         <staff>1</staff>     <beam number="1">end</beam>     <notations>      <tied type="start" orientation="under" />     </notations>    </note>    <harmony color="#000000" default-y="25">     <root>      <root-step>B</root-step>      <root-alter>-1</root-alter>     </root>     <kind>dominant</kind>     <staff>1</staff>    </harmony>    <note color="#000000" default-x="148" default-y="-20">     <pitch>      <step>A</step>      <alter>-1</alter>      <octave>3</octave>     </pitch>     <duration>256</duration>     <tie type="stop" />     <instrument id="P1-I1" />     <voice>1</voice>     <type>quarter</type>         <staff>1</staff>     <notations>      <tied type="stop" orientation="under" />     </notations>    </note>    <note default-x="182">     <rest />     <duration>256</duration>     <instrument id="P1-I1" />     <voice>1</voice>     <type>quarter</type>     <staff>1</staff>    </note>   </measure>   <!--============== Part: P1, Measure: 8 ==============-->   <measure number="8" width="236">    <harmony color="#000000" default-y="25">     <root>      <root-step>A</root-step>     </root>     <kind>dominant</kind>     <degree>      <degree-value>5</degree-value>      <degree-alter>-1</degree-alter>      <degree-type>alter</degree-type>     </degree>     <staff>1</staff>    </harmony>    <note color="#000000" default-x="26" default-y="-5">     <pitch>      <step>C</step>      <alter>1</alter>      <octave>4</octave>     </pitch>     <duration>512</duration>     <instrument id="P1-I1" />     <voice>1</voice>     <type>half</type>     <accidental>sharp</accidental>         <staff>1</staff>    </note>    <note color="#000000" default-x="26">     <chord />     <pitch>      <step>E</step>      <alter>-1</alter>      <octave>4</octave>     </pitch>     <duration>512</duration>     <instrument id="P1-I1" />     <type>half</type>     <accidental>flat</accidental>     <staff>1</staff>    </note>    <harmony color="#000000" default-y="25">     <root>      <root-step>A</root-step>      <root-alter>-1</root-alter>     </root>     <kind>dominant</kind>     <degree>      <degree-value>5</degree-value>      <degree-alter>-1</degree-alter>      <degree-type>alter</degree-type>     </degree>     <staff>1</staff>    </harmony>    <note color="#000000" default-x="90" default-y="-10">     <pitch>      <step>C</step>      <octave>4</octave>     </pitch>     <duration>85</duration>     <instrument id="P1-I1" />     <voice>1</voice>     <type>eighth</type>     <accidental>natural</accidental>     <time-modification>      <actual-notes>3</actual-notes>      <normal-notes>2</normal-notes>      <normal-type>eighth</normal-type>     </time-modification>         <staff>1</staff>     <beam number="1">begin</beam>     <notations>      <tuplet type="start" bracket="no" number="1" default-y="-20" placement="above" />     </notations>    </note>    <note color="#000000" default-x="90">     <chord />     <pitch>      <step>D</step>      <octave>4</octave>     </pitch>     <duration>128</duration>     <instrument id="P1-I1" />     <type>eighth</type>     <time-modification>      <actual-notes>3</actual-notes>      <normal-notes>2</normal-notes>      <normal-type>eighth</normal-type>     </time-modification>     <staff>1</staff>     <notations>      <tuplet type="start" bracket="no" number="1" default-y="-20" placement="above" />     </notations>    </note>    <note color="#000000" default-x="124" default-y="-10">     <pitch>      <step>C</step>      <octave>4</octave>     </pitch>     <duration>85</duration>     <instrument id="P1-I1" />     <voice>1</voice>     <type>eighth</type>     <time-modification>      <actual-notes>3</actual-notes>      <normal-notes>2</normal-notes>      <normal-type>eighth</normal-type>     </time-modification>         <staff>1</staff>     <beam number="1">continue</beam>    </note>    <note color="#000000" default-x="124">     <chord />     <pitch>      <step>D</step>      <octave>4</octave>     </pitch>     <duration>128</duration>     <instrument id="P1-I1" />     <type>eighth</type>     <time-modification>      <actual-notes>3</actual-notes>      <normal-notes>2</normal-notes>      <normal-type>eighth</normal-type>     </time-modification>     <staff>1</staff>    </note>    <note color="#000000" default-x="158" default-y="-10">     <pitch>      <step>C</step>      <octave>4</octave>     </pitch>     <duration>86</duration>     <instrument id="P1-I1" />     <voice>1</voice>     <type>eighth</type>     <time-modification>      <actual-notes>3</actual-notes>      <normal-notes>2</normal-notes>      <normal-type>eighth</normal-type>     </time-modification>         <staff>1</staff>     <beam number="1">end</beam>     <notations>      <tuplet type="stop" bracket="no" number="1" default-y="-20" placement="above" />     </notations>    </note>    <note color="#000000" default-x="158">     <chord />     <pitch>      <step>D</step>      <octave>4</octave>     </pitch>     <duration>128</duration>     <instrument id="P1-I1" />     <type>eighth</type>     <time-modification>      <actual-notes>3</actual-notes>      <normal-notes>2</normal-notes>      <normal-type>eighth</normal-type>     </time-modification>     <staff>1</staff>     <notations>      <tuplet type="stop" bracket="no" number="1" default-y="-20" placement="above" />     </notations>    </note>    <note color="#000000" default-x="202" default-y="-10">     <pitch>      <step>B</step>      <octave>3</octave>     </pitch>     <duration>256</duration>     <tie type="start" />     <instrument id="P1-I1" />     <voice>1</voice>     <type>quarter</type>         <staff>1</staff>     <notations>      <tied type="start" orientation="under" />     </notations>    </note>    <note color="#000000" default-x="202">     <chord />     <pitch>      <step>D</step>      <alter>-1</alter>      <octave>4</octave>     </pitch>     <duration>256</duration>     <tie type="start" />     <instrument id="P1-I1" />     <type>quarter</type>     <accidental>flat</accidental>     <staff>1</staff>     <notations>      <tied type="start" orientation="over" />     </notations>    </note>   </measure>   <!--============== Part: P1, Measure: 9 ==============-->   <measure number="9" width="219">    <barline location="left">     <ending number="1" type="start" />    </barline>    <harmony color="#000000" default-y="25">     <root>      <root-step>G</root-step>     </root>     <kind>dominant</kind>     <degree>      <degree-value>5</degree-value>      <degree-alter>-1</degree-alter>      <degree-type>alter</degree-type>     </degree>     <staff>1</staff>    </harmony>    <note color="#000000" default-x="15" default-y="-10">     <pitch>      <step>B</step>      <octave>3</octave>     </pitch>     <duration>512</duration>     <tie type="stop" />     <instrument id="P1-I1" />     <voice>1</voice>     <type>half</type>         <staff>1</staff>     <notations>      <tied type="stop" orientation="under" />     </notations>    </note>    <note color="#000000" default-x="15">     <chord />     <pitch>      <step>D</step>      <alter>-1</alter>      <octave>4</octave>     </pitch>     <duration>512</duration>     <tie type="stop" />     <instrument id="P1-I1" />     <type>half</type>     <staff>1</staff>     <notations>      <tied type="stop" orientation="over" />     </notations>    </note>    <note default-x="71">     <rest />     <duration>128</duration>     <instrument id="P1-I1" />     <voice>1</voice>     <type>eighth</type>     <staff>1</staff>    </note>    <note color="#000000" default-x="96" default-y="-15">     <pitch>      <step>C</step>      <octave>4</octave>     </pitch>     <duration>128</duration>     <instrument id="P1-I1" />     <voice>1</voice>     <type>eighth</type>         <staff>1</staff>    </note>    <note color="#000000" default-x="135" default-y="9">     <pitch>      <step>E</step>      <octave>4</octave>     </pitch>     <duration>85</duration>     <instrument id="P1-I1" />     <voice>1</voice>     <type>eighth</type>     <accidental>natural</accidental>     <time-modification>      <actual-notes>3</actual-notes>      <normal-notes>2</normal-notes>      <normal-type>eighth</normal-type>     </time-modification>         <staff>1</staff>     <beam number="1">begin</beam>     <notations>      <tuplet type="start" bracket="no" number="1" default-y="-20" placement="above" />     </notations>    </note>    <note color="#000000" default-x="155" default-y="9">     <pitch>      <step>G</step>      <octave>4</octave>     </pitch>     <duration>85</duration>     <instrument id="P1-I1" />     <voice>1</voice>     <type>eighth</type>     <time-modification>      <actual-notes>3</actual-notes>      <normal-notes>2</normal-notes>      <normal-type>eighth</normal-type>     </time-modification>         <staff>1</staff>     <beam number="1">continue</beam>    </note>    <note color="#000000" default-x="175" default-y="9">     <pitch>      <step>A</step>      <octave>4</octave>     </pitch>     <duration>86</duration>     <instrument id="P1-I1" />     <voice>1</voice>     <type>eighth</type>     <time-modification>      <actual-notes>3</actual-notes>      <normal-notes>2</normal-notes>      <normal-type>eighth</normal-type>     </time-modification>         <staff>1</staff>     <beam number="1">end</beam>     <notations>      <tuplet type="stop" bracket="no" number="1" default-y="-20" placement="above" />     </notations>    </note>    <barline location="right">     <bar-style>light-heavy</bar-style>     <ending number="1" type="stop" />     <repeat direction="backward" />    </barline>   </measure>   <!--============== Part: P1, Measure: 10 ==============-->   <measure number="10" width="160">    <barline location="left">     <ending number="2" type="start" />    </barline>    <harmony color="#000000" default-y="25">     <root>      <root-step>G</root-step>     </root>     <kind>dominant</kind>     <degree>      <degree-value>5</degree-value>      <degree-alter>-1</degree-alter>      <degree-type>alter</degree-type>     </degree>     <staff>1</staff>    </harmony>    <note color="#000000" default-x="17" default-y="-10">     <pitch>      <step>D</step>      <alter>-1</alter>      <octave>4</octave>     </pitch>     <duration>768</duration>     <instrument id="P1-I1" />     <voice>1</voice>     <type>half</type>     <dot />     <accidental>flat</accidental>         <staff>1</staff>    </note>    <note default-x="85">     <rest />     <duration>128</duration>     <instrument id="P1-I1" />     <voice>1</voice>     <type>eighth</type>     <staff>1</staff>    </note>    <note color="#000000" default-x="109" default-y="-15">     <pitch>      <step>C</step>      <octave>4</octave>     </pitch>     <duration>128</duration>     <tie type="start" />     <instrument id="P1-I1" />     <voice>1</voice>     <type>eighth</type>         <staff>1</staff>     <notations>      <tied type="start" orientation="under" />     </notations>    </note>    <barline location="right">     <bar-style>light-light</bar-style>     <ending number="2" type="discontinue" />    </barline>    <backup>     <duration>1024</duration>    </backup>    <note color="#000000" default-x="17" default-y="-82">     <pitch>      <step>B</step>      <octave>3</octave>     </pitch>     <duration>768</duration>     <instrument id="P1-I1" />     <voice>2</voice>     <type>half</type>     <dot />         <staff>1</staff>    </note>    <note print-object="no" default-x="85">     <rest />     <duration>256</duration>     <instrument id="P1-I1" />     <voice>2</voice>     <type>quarter</type>     <staff>1</staff>    </note>   </measure>   <!--============== Part: P1, Measure: 11 ==============-->   <measure number="11" width="322">    <print new-system="yes">     <system-layout>      <system-margins>       <left-margin>0</left-margin>       <right-margin>0</right-margin>      </system-margins>      <system-distance>120</system-distance>     </system-layout>    </print>    <attributes>     <staff-details number="1" print-object="yes" />    </attributes>    <harmony color="#000000" default-y="25">     <root>      <root-step>C</root-step>     </root>     <kind>dominant</kind>     <staff>1</staff>    </harmony>    <note color="#000000" default-x="57" default-y="-15">     <pitch>      <step>C</step>      <octave>4</octave>     </pitch>     <duration>256</duration>     <tie type="stop" />     <instrument id="P1-I1" />     <voice>1</voice>     <type>quarter</type>         <staff>1</staff>     <notations>      <tied type="stop" orientation="under" />     </notations>    </note>    <note color="#000000" default-x="116" default-y="-10">     <pitch>      <step>D</step>      <octave>4</octave>     </pitch>     <duration>256</duration>     <instrument id="P1-I1" />     <voice>1</voice>     <type>quarter</type>     <accidental>natural</accidental>         <staff>1</staff>    </note>    <note color="#000000" default-x="176" default-y="-5">     <pitch>      <step>E</step>      <octave>4</octave>     </pitch>     <duration>256</duration>     <instrument id="P1-I1" />     <voice>1</voice>     <type>quarter</type>         <staff>1</staff>    </note>    <note default-x="235">     <rest />     <duration>128</duration>     <instrument id="P1-I1" />     <voice>1</voice>     <type>eighth</type>     <staff>1</staff>    </note>    <note color="#000000" default-x="279" default-y="-5">     <pitch>      <step>E</step>      <octave>4</octave>     </pitch>     <duration>128</duration>     <tie type="start" />     <instrument id="P1-I1" />     <voice>1</voice>     <type>eighth</type>         <staff>1</staff>     <notations>      <tied type="start" orientation="under" />     </notations>    </note>   </measure>   <!--============== Part: P1, Measure: 12 ==============-->   <measure number="12" width="279">    <note color="#000000" default-x="15" default-y="-5">     <pitch>      <step>E</step>      <octave>4</octave>     </pitch>     <duration>256</duration>     <tie type="stop" />     <instrument id="P1-I1" />     <voice>1</voice>     <type>quarter</type>         <staff>1</staff>     <notations>      <tied type="stop" orientation="under" />     </notations>    </note>    <note color="#000000" default-x="74">     <pitch>      <step>F</step>      <octave>4</octave>     </pitch>     <duration>256</duration>     <instrument id="P1-I1" />     <voice>1</voice>     <type>quarter</type>         <staff>1</staff>    </note>    <note color="#000000" default-x="134">     <pitch>      <step>F</step>      <alter>1</alter>      <octave>4</octave>     </pitch>     <duration>256</duration>     <instrument id="P1-I1" />     <voice>1</voice>     <type>quarter</type>     <accidental>sharp</accidental>         <staff>1</staff>    </note>    <note default-x="193">     <rest />     <duration>128</duration>     <instrument id="P1-I1" />     <voice>1</voice>     <type>eighth</type>     <staff>1</staff>    </note>    <note color="#000000" default-x="236" default-y="5">     <pitch>      <step>G</step>      <octave>4</octave>     </pitch>     <duration>128</duration>     <tie type="start" />     <instrument id="P1-I1" />     <voice>1</voice>     <type>eighth</type>         <staff>1</staff>     <notations>      <tied type="start" orientation="under" />     </notations>    </note>   </measure>   <!--============== Part: P1, Measure: 13 ==============-->   <measure number="13" width="351">    <note color="#000000" default-x="15" default-y="5">     <pitch>      <step>G</step>      <octave>4</octave>     </pitch>     <duration>256</duration>     <tie type="stop" />     <instrument id="P1-I1" />     <voice>1</voice>     <type>quarter</type>         <staff>1</staff>     <notations>      <tied type="stop" orientation="under" />     </notations>    </note>    <note color="#000000" default-x="74" default-y="4">     <pitch>      <step>A</step>      <octave>4</octave>     </pitch>     <duration>128</duration>     <instrument id="P1-I1" />     <voice>1</voice>     <type>eighth</type>         <staff>1</staff>     <beam number="1">begin</beam>    </note>    <note color="#000000" default-x="117" default-y="4">     <pitch>      <step>G</step>      <octave>4</octave>     </pitch>     <duration>128</duration>     <instrument id="P1-I1" />     <voice>1</voice>     <type>eighth</type>         <staff>1</staff>     <beam number="1">end</beam>    </note>    <note color="#000000" default-x="160" default-y="-52">     <pitch>      <step>B</step>      <alter>-1</alter>      <octave>4</octave>     </pitch>     <duration>85</duration>     <instrument id="P1-I1" />     <voice>1</voice>     <type>eighth</type>     <accidental>flat</accidental>     <time-modification>      <actual-notes>3</actual-notes>      <normal-notes>2</normal-notes>      <normal-type>eighth</normal-type>     </time-modification>         <staff>1</staff>     <beam number="1">begin</beam>     <notations>      <tuplet type="start" bracket="no" number="1" default-y="-20" placement="below" />     </notations>    </note>    <note color="#000000" default-x="195" default-y="-52">     <pitch>      <step>B</step>      <alter>-1</alter>      <octave>4</octave>     </pitch>     <duration>85</duration>     <instrument id="P1-I1" />     <voice>1</voice>     <type>eighth</type>     <time-modification>      <actual-notes>3</actual-notes>      <normal-notes>2</normal-notes>      <normal-type>eighth</normal-type>     </time-modification>         <staff>1</staff>     <beam number="1">continue</beam>    </note>    <note color="#000000" default-x="230" default-y="-52">     <pitch>      <step>B</step>      <alter>-1</alter>      <octave>4</octave>     </pitch>     <duration>86</duration>     <instrument id="P1-I1" />     <voice>1</voice>     <type>eighth</type>     <time-modification>      <actual-notes>3</actual-notes>      <normal-notes>2</normal-notes>      <normal-type>eighth</normal-type>     </time-modification>         <staff>1</staff>     <beam number="1">end</beam>     <notations>      <tuplet type="stop" bracket="no" number="1" default-y="-20" placement="below" />     </notations>    </note>    <note color="#000000" default-x="265" default-y="4">     <pitch>      <step>A</step>      <octave>4</octave>     </pitch>     <duration>128</duration>     <instrument id="P1-I1" />     <voice>1</voice>     <type>eighth</type>         <staff>1</staff>     <beam number="1">begin</beam>    </note>    <note color="#000000" default-x="308" default-y="4">     <pitch>      <step>D</step>      <octave>4</octave>     </pitch>     <duration>128</duration>     <tie type="start" />     <instrument id="P1-I1" />     <voice>1</voice>     <type>eighth</type>         <staff>1</staff>     <beam number="1">end</beam>     <notations>      <tied type="start" orientation="under" />     </notations>    </note>   </measure>   <!--============== Part: P1, Measure: 14 ==============-->   <measure number="14" width="154">    <note color="#000000" default-x="15">     <pitch>      <step>D</step>      <octave>4</octave>     </pitch>     <duration>1024</duration>     <tie type="stop" />     <instrument id="P1-I1" />     <voice>1</voice>     <type>whole</type>     <staff>1</staff>     <notations>      <tied type="stop" orientation="under" />     </notations>    </note>   </measure>   <!--============== Part: P1, Measure: 15 ==============-->   <measure number="15" width="298">    <print new-system="yes">     <system-layout>      <system-margins>       <left-margin>0</left-margin>       <right-margin>0</right-margin>      </system-margins>      <system-distance>120</system-distance>     </system-layout>    </print>    <attributes>     <staff-details number="1" print-object="yes" />    </attributes>    <note color="#000000" default-x="57" default-y="12">     <pitch>      <step>B</step>      <alter>-1</alter>      <octave>4</octave>     </pitch>     <duration>85</duration>     <instrument id="P1-I1" />     <voice>1</voice>     <type>eighth</type>     <accidental>flat</accidental>     <time-modification>      <actual-notes>3</actual-notes>      <normal-notes>2</normal-notes>      <normal-type>eighth</normal-type>     </time-modification>         <staff>1</staff>     <beam number="1">begin</beam>     <notations>      <tuplet type="start" bracket="no" number="1" default-y="-20" placement="above" />     </notations>    </note>    <harmony color="#000000" default-y="25">     <root>      <root-step>C</root-step>     </root>     <kind>dominant</kind>     <staff>1</staff>    </harmony>    <note color="#000000" default-x="85" default-y="12">     <pitch>      <step>B</step>      <alter>-1</alter>      <octave>4</octave>     </pitch>     <duration>85</duration>     <instrument id="P1-I1" />     <voice>1</voice>     <type>eighth</type>     <time-modification>      <actual-notes>3</actual-notes>      <normal-notes>2</normal-notes>      <normal-type>eighth</normal-type>     </time-modification>         <staff>1</staff>     <beam number="1">continue</beam>    </note>    <note color="#000000" default-x="112" default-y="12">     <pitch>      <step>B</step>      <alter>-1</alter>      <octave>4</octave>     </pitch>     <duration>86</duration>     <instrument id="P1-I1" />     <voice>1</voice>     <type>eighth</type>     <time-modification>      <actual-notes>3</actual-notes>      <normal-notes>2</normal-notes>      <normal-type>eighth</normal-type>     </time-modification>         <staff>1</staff>     <beam number="1">end</beam>     <notations>      <tuplet type="stop" bracket="no" number="1" default-y="-20" placement="above" />     </notations>    </note>    <note color="#000000" default-x="139" default-y="15">     <pitch>      <step>B</step>      <alter>-1</alter>      <octave>4</octave>     </pitch>     <duration>170</duration>     <instrument id="P1-I1" />     <voice>1</voice>     <type>quarter</type>     <time-modification>      <actual-notes>3</actual-notes>      <normal-notes>2</normal-notes>      <normal-type>eighth</normal-type>     </time-modification>         <staff>1</staff>     <notations>      <tuplet type="start" bracket="yes" number="1" default-y="27" placement="above" />     </notations>    </note>    <note color="#000000" default-x="176" default-y="10">     <pitch>      <step>A</step>      <octave>4</octave>     </pitch>     <duration>86</duration>     <instrument id="P1-I1" />     <voice>1</voice>     <type>eighth</type>     <time-modification>      <actual-notes>3</actual-notes>      <normal-notes>2</normal-notes>      <normal-type>eighth</normal-type>     </time-modification>         <staff>1</staff>     <notations>      <tuplet type="stop" bracket="yes" number="1" default-y="27" placement="above" />     </notations>    </note>    <note color="#000000" default-x="205" default-y="-55">     <pitch>      <step>B</step>      <alter>-1</alter>      <octave>4</octave>     </pitch>     <duration>256</duration>     <instrument id="P1-I1" />     <voice>1</voice>     <type>quarter</type>         <staff>1</staff>    </note>    <note default-x="252">     <rest />     <duration>256</duration>     <instrument id="P1-I1" />     <voice>1</voice>     <type>quarter</type>     <staff>1</staff>    </note>   </measure>   <!--============== Part: P1, Measure: 16 ==============-->   <measure number="16" width="256">    <note color="#000000" default-x="15" default-y="12">     <pitch>      <step>B</step>      <alter>-1</alter>      <octave>4</octave>     </pitch>     <duration>85</duration>     <instrument id="P1-I1" />     <voice>1</voice>     <type>eighth</type>     <accidental>flat</accidental>     <time-modification>      <actual-notes>3</actual-notes>      <normal-notes>2</normal-notes>      <normal-type>eighth</normal-type>     </time-modification>         <staff>1</staff>     <beam number="1">begin</beam>     <notations>      <tuplet type="start" bracket="no" number="1" default-y="-20" placement="above" />     </notations>    </note>    <note color="#000000" default-x="42" default-y="12">     <pitch>      <step>B</step>      <alter>-1</alter>      <octave>4</octave>     </pitch>     <duration>85</duration>     <instrument id="P1-I1" />     <voice>1</voice>     <type>eighth</type>     <time-modification>      <actual-notes>3</actual-notes>      <normal-notes>2</normal-notes>      <normal-type>eighth</normal-type>     </time-modification>         <staff>1</staff>     <beam number="1">continue</beam>    </note>    <note color="#000000" default-x="69" default-y="12">     <pitch>      <step>B</step>      <alter>-1</alter>      <octave>4</octave>     </pitch>     <duration>86</duration>     <instrument id="P1-I1" />     <voice>1</voice>     <type>eighth</type>     <time-modification>      <actual-notes>3</actual-notes>      <normal-notes>2</normal-notes>      <normal-type>eighth</normal-type>     </time-modification>         <staff>1</staff>     <beam number="1">end</beam>     <notations>      <tuplet type="stop" bracket="no" number="1" default-y="-20" placement="above" />     </notations>    </note>    <note color="#000000" default-x="97" default-y="15">     <pitch>      <step>B</step>      <alter>-1</alter>      <octave>4</octave>     </pitch>     <duration>170</duration>     <instrument id="P1-I1" />     <voice>1</voice>     <type>quarter</type>     <time-modification>      <actual-notes>3</actual-notes>      <normal-notes>2</normal-notes>      <normal-type>eighth</normal-type>     </time-modification>         <staff>1</staff>     <notations>      <tuplet type="start" bracket="yes" number="1" default-y="27" placement="above" />     </notations>    </note>    <note color="#000000" default-x="134" default-y="10">     <pitch>      <step>A</step>      <octave>4</octave>     </pitch>     <duration>86</duration>     <instrument id="P1-I1" />     <voice>1</voice>     <type>eighth</type>     <time-modification>      <actual-notes>3</actual-notes>      <normal-notes>2</normal-notes>      <normal-type>eighth</normal-type>     </time-modification>         <staff>1</staff>     <notations>      <tuplet type="stop" bracket="yes" number="1" default-y="27" placement="above" />     </notations>    </note>    <note color="#000000" default-x="163" default-y="-55">     <pitch>      <step>B</step>      <alter>-1</alter>      <octave>4</octave>     </pitch>     <duration>256</duration>     <instrument id="P1-I1" />     <voice>1</voice>     <type>quarter</type>         <staff>1</staff>    </note>    <note default-x="209">     <rest />     <duration>256</duration>     <instrument id="P1-I1" />     <voice>1</voice>     <type>quarter</type>     <staff>1</staff>    </note>   </measure>   <!--============== Part: P1, Measure: 17 ==============-->   <measure number="17" width="297">    <note color="#000000" default-x="15" default-y="12">     <pitch>      <step>B</step>      <alter>-1</alter>      <octave>4</octave>     </pitch>     <duration>85</duration>     <instrument id="P1-I1" />     <voice>1</voice>     <type>eighth</type>     <accidental>flat</accidental>     <time-modification>      <actual-notes>3</actual-notes>      <normal-notes>2</normal-notes>      <normal-type>eighth</normal-type>     </time-modification>         <staff>1</staff>     <beam number="1">begin</beam>     <notations>      <tuplet type="start" bracket="no" number="1" default-y="-20" placement="above" />     </notations>    </note>    <note color="#000000" default-x="42" default-y="12">     <pitch>      <step>B</step>      <alter>-1</alter>      <octave>4</octave>     </pitch>     <duration>85</duration>     <instrument id="P1-I1" />     <voice>1</voice>     <type>eighth</type>     <time-modification>      <actual-notes>3</actual-notes>      <normal-notes>2</normal-notes>      <normal-type>eighth</normal-type>     </time-modification>         <staff>1</staff>     <beam number="1">continue</beam>    </note>    <note color="#000000" default-x="69" default-y="12">     <pitch>      <step>B</step>      <alter>-1</alter>      <octave>4</octave>     </pitch>     <duration>86</duration>     <instrument id="P1-I1" />     <voice>1</voice>     <type>eighth</type>     <time-modification>      <actual-notes>3</actual-notes>      <normal-notes>2</normal-notes>      <normal-type>eighth</normal-type>     </time-modification>         <staff>1</staff>     <beam number="1">end</beam>     <notations>      <tuplet type="stop" bracket="no" number="1" default-y="-20" placement="above" />     </notations>    </note>    <note color="#000000" default-x="97" default-y="15">     <pitch>      <step>B</step>      <alter>-1</alter>      <octave>4</octave>     </pitch>     <duration>170</duration>     <instrument id="P1-I1" />     <voice>1</voice>     <type>quarter</type>     <time-modification>      <actual-notes>3</actual-notes>      <normal-notes>2</normal-notes>      <normal-type>eighth</normal-type>     </time-modification>         <staff>1</staff>     <notations>      <tuplet type="start" bracket="yes" number="1" default-y="27" placement="above" />     </notations>    </note>    <note color="#000000" default-x="134" default-y="10">     <pitch>      <step>A</step>      <octave>4</octave>     </pitch>     <duration>86</duration>     <instrument id="P1-I1" />     <voice>1</voice>     <type>eighth</type>     <time-modification>      <actual-notes>3</actual-notes>      <normal-notes>2</normal-notes>      <normal-type>eighth</normal-type>     </time-modification>         <staff>1</staff>     <notations>      <tuplet type="stop" bracket="yes" number="1" default-y="27" placement="above" />     </notations>    </note>    <note color="#000000" default-x="163" default-y="12">     <pitch>      <step>C</step>      <octave>5</octave>     </pitch>     <duration>128</duration>     <instrument id="P1-I1" />     <voice>1</voice>     <type>eighth</type>         <staff>1</staff>     <beam number="1">begin</beam>    </note>    <note color="#000000" default-x="196" default-y="12">     <pitch>      <step>D</step>      <octave>4</octave>     </pitch>     <duration>128</duration>     <instrument id="P1-I1" />     <voice>1</voice>     <type>eighth</type>         <staff>1</staff>     <beam number="1">continue</beam>    </note>    <note color="#000000" default-x="230" default-y="12">     <pitch>      <step>A</step>      <octave>4</octave>     </pitch>     <duration>128</duration>     <instrument id="P1-I1" />     <voice>1</voice>     <type>eighth</type>         <staff>1</staff>     <beam number="1">continue</beam>    </note>    <note color="#000000" default-x="264" default-y="12">     <pitch>      <step>C</step>      <octave>4</octave>     </pitch>     <duration>128</duration>     <tie type="start" />     <instrument id="P1-I1" />     <voice>1</voice>     <type>eighth</type>         <staff>1</staff>     <beam number="1">end</beam>     <notations>      <tied type="start" orientation="under" />     </notations>    </note>   </measure>   <!--============== Part: P1, Measure: 18 ==============-->   <measure number="18" width="255">    <note color="#000000" default-x="15" default-y="-15">     <pitch>      <step>C</step>      <octave>4</octave>     </pitch>     <duration>512</duration>     <tie type="stop" />     <instrument id="P1-I1" />     <voice>1</voice>     <type>half</type>         <staff>1</staff>     <notations>      <tied type="stop" orientation="under" />     </notations>    </note>    <note default-x="93">     <rest />     <duration>128</duration>     <instrument id="P1-I1" />     <voice>1</voice>     <type>eighth</type>     <staff>1</staff>    </note>    <note color="#000000" default-x="127" default-y="-15">     <pitch>      <step>C</step>      <octave>4</octave>     </pitch>     <duration>128</duration>     <instrument id="P1-I1" />     <voice>1</voice>     <type>eighth</type>         <staff>1</staff>    </note>    <note color="#000000" default-x="160" default-y="9">     <pitch>      <step>E</step>      <octave>4</octave>     </pitch>     <duration>85</duration>     <instrument id="P1-I1" />     <voice>1</voice>     <type>eighth</type>     <time-modification>      <actual-notes>3</actual-notes>      <normal-notes>2</normal-notes>      <normal-type>eighth</normal-type>     </time-modification>         <staff>1</staff>     <beam number="1">begin</beam>     <notations>      <tuplet type="start" bracket="no" number="1" default-y="-20" placement="above" />     </notations>    </note>    <note color="#000000" default-x="188" default-y="9">     <pitch>      <step>G</step>      <octave>4</octave>     </pitch>     <duration>85</duration>     <instrument id="P1-I1" />     <voice>1</voice>     <type>eighth</type>     <time-modification>      <actual-notes>3</actual-notes>      <normal-notes>2</normal-notes>      <normal-type>eighth</normal-type>     </time-modification>         <staff>1</staff>     <beam number="1">continue</beam>    </note>    <note color="#000000" default-x="215" default-y="9">     <pitch>      <step>A</step>      <octave>4</octave>     </pitch>     <duration>86</duration>     <instrument id="P1-I1" />     <voice>1</voice>     <type>eighth</type>     <time-modification>      <actual-notes>3</actual-notes>      <normal-notes>2</normal-notes>      <normal-type>eighth</normal-type>     </time-modification>         <staff>1</staff>     <beam number="1">end</beam>     <notations>      <tuplet type="stop" bracket="no" number="1" default-y="-20" placement="above" />     </notations>    </note>    <barline>     <bar-style>light-light</bar-style>    </barline>   </measure>   <!--============== Part: P1, Measure: 19 ==============-->   <measure number="19" width="297">    <print new-system="yes">     <system-layout>      <system-margins>       <left-margin>0</left-margin>       <right-margin>0</right-margin>      </system-margins>      <system-distance>120</system-distance>     </system-layout>    </print>    <attributes>     <staff-details number="1" print-object="yes" />    </attributes>    <harmony color="#000000" default-y="25">     <root>      <root-step>C</root-step>     </root>     <kind>major-ninth</kind>     <staff>1</staff>    </harmony>    <note color="#000000" default-x="57" default-y="15">     <pitch>      <step>D</step>      <octave>4</octave>     </pitch>     <duration>256</duration>     <instrument id="P1-I1" />     <voice>1</voice>     <type>quarter</type>         <staff>1</staff>     <notations>      <articulations>       <staccato />      </articulations>     </notations>    </note>    <note color="#000000" default-x="57">     <chord />     <pitch>      <step>E</step>      <octave>4</octave>     </pitch>     <duration>256</duration>     <instrument id="P1-I1" />     <type>quarter</type>     <staff>1</staff>    </note>    <note color="#000000" default-x="57">     <chord />     <pitch>      <step>B</step>      <octave>4</octave>     </pitch>     <duration>256</duration>     <instrument id="P1-I1" />     <type>quarter</type>     <staff>1</staff>    </note>    <note color="#000000" default-x="106" default-y="4">     <pitch>      <step>A</step>      <octave>4</octave>     </pitch>     <duration>128</duration>     <instrument id="P1-I1" />     <voice>1</voice>     <type>eighth</type>         <staff>1</staff>     <beam number="1">begin</beam>    </note>    <note color="#000000" default-x="142" default-y="4">     <pitch>      <step>C</step>      <octave>4</octave>     </pitch>     <duration>128</duration>     <instrument id="P1-I1" />     <voice>1</voice>     <type>eighth</type>         <staff>1</staff>     <beam number="1">end</beam>    </note>    <harmony color="#000000" default-y="25">     <root>      <root-step>F</root-step>     </root>     <kind>dominant-ninth</kind>     <staff>1</staff>    </harmony>    <note color="#000000" default-x="177" default-y="5">     <pitch>      <step>D</step>      <octave>4</octave>     </pitch>     <duration>128</duration>     <instrument id="P1-I1" />     <voice>1</voice>     <type>eighth</type>         <staff>1</staff>    </note>    <note color="#000000" default-x="177">     <chord />     <pitch>      <step>E</step>      <alter>-1</alter>      <octave>4</octave>     </pitch>     <duration>128</duration>     <instrument id="P1-I1" />     <type>eighth</type>     <accidental>flat</accidental>     <staff>1</staff>    </note>    <note color="#000000" default-x="177">     <chord />     <pitch>      <step>G</step>      <octave>4</octave>     </pitch>     <duration>128</duration>     <instrument id="P1-I1" />     <type>eighth</type>     <staff>1</staff>    </note>    <note color="#000000" default-x="213" default-y="-15">     <pitch>      <step>C</step>      <octave>4</octave>     </pitch>     <duration>256</duration>     <instrument id="P1-I1" />     <voice>1</voice>     <type>quarter</type>         <staff>1</staff>    </note>    <note color="#000000" default-x="262" default-y="-5">     <pitch>      <step>D</step>      <octave>4</octave>     </pitch>     <duration>128</duration>     <instrument id="P1-I1" />     <voice>1</voice>     <type>eighth</type>         <staff>1</staff>    </note>    <note color="#000000" default-x="262">     <chord />     <pitch>      <step>E</step>      <octave>4</octave>     </pitch>     <duration>128</duration>     <instrument id="P1-I1" />     <type>eighth</type>     <accidental>natural</accidental>     <staff>1</staff>    </note>   </measure>   <!--============== Part: P1, Measure: 20 ==============-->   <measure number="20" width="315">    <harmony color="#000000" default-y="25">     <root>      <root-step>B</root-step>      <root-alter>-1</root-alter>     </root>     <kind>dominant</kind>     <degree>      <degree-value>11</degree-value>      <degree-alter>1</degree-alter>      <degree-type>add</degree-type>     </degree>     <staff>1</staff>    </harmony>    <note default-x="15">     <rest />     <duration>512</duration>     <instrument id="P1-I1" />     <voice>1</voice>     <type>half</type>     <staff>1</staff>    </note>    <note default-x="157">     <rest />     <duration>128</duration>     <instrument id="P1-I1" />     <voice>1</voice>     <type>eighth</type>     <staff>1</staff>    </note>    <note color="#000000" default-x="192" default-y="-15">     <pitch>      <step>C</step>      <octave>4</octave>     </pitch>     <duration>128</duration>     <instrument id="P1-I1" />     <voice>1</voice>     <type>eighth</type>         <staff>1</staff>    </note>    <note color="#000000" default-x="228" default-y="9">     <pitch>      <step>E</step>      <octave>4</octave>     </pitch>     <duration>85</duration>     <instrument id="P1-I1" />     <voice>1</voice>     <type>eighth</type>     <time-modification>      <actual-notes>3</actual-notes>      <normal-notes>2</normal-notes>      <normal-type>eighth</normal-type>     </time-modification>         <staff>1</staff>     <beam number="1">begin</beam>     <notations>      <tuplet type="start" bracket="no" number="1" default-y="-20" placement="above" />     </notations>    </note>    <note color="#000000" default-x="257" default-y="9">     <pitch>      <step>G</step>      <octave>4</octave>     </pitch>     <duration>85</duration>     <instrument id="P1-I1" />     <voice>1</voice>     <type>eighth</type>     <time-modification>      <actual-notes>3</actual-notes>      <normal-notes>2</normal-notes>      <normal-type>eighth</normal-type>     </time-modification>         <staff>1</staff>     <beam number="1">continue</beam>    </note>    <note color="#000000" default-x="285" default-y="9">     <pitch>      <step>A</step>      <octave>4</octave>     </pitch>     <duration>86</duration>     <instrument id="P1-I1" />     <voice>1</voice>     <type>eighth</type>     <time-modification>      <actual-notes>3</actual-notes>      <normal-notes>2</normal-notes>      <normal-type>eighth</normal-type>     </time-modification>         <staff>1</staff>     <beam number="1">end</beam>     <notations>      <tuplet type="stop" bracket="no" number="1" default-y="-20" placement="above" />     </notations>    </note>    <backup>     <duration>1024</duration>    </backup>    <note default-x="15">     <cue />     <rest />     <duration>128</duration>     <instrument id="P1-I1" />     <voice>2</voice>     <type>eighth</type>     <staff>1</staff>    </note>    <note color="#000000" default-x="50" default-y="-86">     <cue />     <pitch>      <step>B</step>      <octave>3</octave>     </pitch>     <duration>128</duration>     <instrument id="P1-I1" />     <voice>2</voice>     <type>eighth</type>         <notehead>slash</notehead>     <staff>1</staff>    </note>    <note default-x="86">     <cue />     <rest />     <duration>128</duration>     <instrument id="P1-I1" />     <voice>2</voice>     <type>eighth</type>     <staff>1</staff>    </note>    <note color="#000000" default-x="121" default-y="-85">     <cue />     <pitch>      <step>B</step>      <octave>3</octave>     </pitch>     <duration>128</duration>     <instrument id="P1-I1" />     <voice>2</voice>     <type>eighth</type>         <notehead>slash</notehead>     <staff>1</staff>    </note>    <note default-x="157">     <cue />     <rest />     <duration>512</duration>     <instrument id="P1-I1" />     <voice>2</voice>     <type>half</type>     <staff>1</staff>    </note>   </measure>   <!--============== Part: P1, Measure: 21 ==============-->   <measure number="21" width="255">    <harmony color="#000000" default-y="25">     <root>      <root-step>C</root-step>     </root>     <kind>major-ninth</kind>     <staff>1</staff>    </harmony>    <note color="#000000" default-x="15" default-y="15">     <pitch>      <step>D</step>      <octave>4</octave>     </pitch>     <duration>256</duration>     <instrument id="P1-I1" />     <voice>1</voice>     <type>quarter</type>         <staff>1</staff>    </note>    <note color="#000000" default-x="15">     <chord />     <pitch>      <step>E</step>      <octave>4</octave>     </pitch>     <duration>256</duration>     <instrument id="P1-I1" />     <type>quarter</type>     <staff>1</staff>    </note>    <note color="#000000" default-x="15">     <chord />     <pitch>      <step>B</step>      <octave>4</octave>     </pitch>     <duration>256</duration>     <instrument id="P1-I1" />     <type>quarter</type>     <staff>1</staff>    </note>    <note color="#000000" default-x="64" default-y="4">     <pitch>      <step>A</step>      <octave>4</octave>     </pitch>     <duration>128</duration>     <instrument id="P1-I1" />     <voice>1</voice>     <type>eighth</type>         <staff>1</staff>     <beam number="1">begin</beam>    </note>    <note color="#000000" default-x="99" default-y="4">     <pitch>      <step>C</step>      <octave>4</octave>     </pitch>     <duration>128</duration>     <instrument id="P1-I1" />     <voice>1</voice>     <type>eighth</type>         <staff>1</staff>     <beam number="1">end</beam>    </note>    <harmony color="#000000" default-y="25">     <root>      <root-step>F</root-step>     </root>     <kind>dominant-ninth</kind>     <staff>1</staff>    </harmony>    <note color="#000000" default-x="135" default-y="5">     <pitch>      <step>D</step>      <octave>4</octave>     </pitch>     <duration>128</duration>     <instrument id="P1-I1" />     <voice>1</voice>     <type>eighth</type>         <staff>1</staff>    </note>    <note color="#000000" default-x="135">     <chord />     <pitch>      <step>E</step>      <alter>-1</alter>      <octave>4</octave>     </pitch>     <duration>128</duration>     <instrument id="P1-I1" />     <type>eighth</type>     <accidental>flat</accidental>     <staff>1</staff>    </note>    <note color="#000000" default-x="135">     <chord />     <pitch>      <step>G</step>      <octave>4</octave>     </pitch>     <duration>128</duration>     <instrument id="P1-I1" />     <type>eighth</type>     <staff>1</staff>    </note>    <note color="#000000" default-x="170" default-y="-15">     <pitch>      <step>C</step>      <octave>4</octave>     </pitch>     <duration>256</duration>     <instrument id="P1-I1" />     <voice>1</voice>     <type>quarter</type>         <staff>1</staff>    </note>    <note color="#000000" default-x="219" default-y="-5">     <pitch>      <step>D</step>      <octave>4</octave>     </pitch>     <duration>128</duration>     <instrument id="P1-I1" />     <voice>1</voice>     <type>eighth</type>         <staff>1</staff>    </note>    <note color="#000000" default-x="219">     <chord />     <pitch>      <step>E</step>      <octave>4</octave>     </pitch>     <duration>128</duration>     <instrument id="P1-I1" />     <type>eighth</type>     <accidental>natural</accidental>     <staff>1</staff>    </note>   </measure>   <!--============== Part: P1, Measure: 22 ==============-->   <measure number="22" width="240">    <note default-x="15">     <rest />     <duration>1024</duration>     <instrument id="P1-I1" />     <voice>1</voice>     <type>whole</type>     <staff>1</staff>    </note>    <backup>     <duration>896</duration>    </backup>    <harmony color="#000000" default-y="25">     <root>      <root-step>B</root-step>      <root-alter>-1</root-alter>     </root>     <kind>dominant</kind>     <degree>      <degree-value>11</degree-value>      <degree-alter>1</degree-alter>      <degree-type>add</degree-type>     </degree>     <staff>1</staff>    </harmony>    <backup>     <duration>128</duration>    </backup>    <note default-x="15">     <cue />     <rest />     <duration>128</duration>     <instrument id="P1-I1" />     <voice>2</voice>     <type>eighth</type>     <staff>1</staff>    </note>    <note color="#000000" default-x="50" default-y="-84">     <cue />     <pitch>      <step>B</step>      <octave>3</octave>     </pitch>     <duration>128</duration>     <instrument id="P1-I1" />     <voice>2</voice>     <type>eighth</type>         <notehead>slash</notehead>     <staff>1</staff>    </note>    <note default-x="85">     <cue />     <rest />     <duration>128</duration>     <instrument id="P1-I1" />     <voice>2</voice>     <type>eighth</type>     <staff>1</staff>    </note>    <note color="#000000" default-x="121" default-y="-85">     <cue />     <pitch>      <step>B</step>      <octave>3</octave>     </pitch>     <duration>128</duration>     <instrument id="P1-I1" />     <voice>2</voice>     <type>eighth</type>         <notehead>slash</notehead>     <staff>1</staff>    </note>    <note default-x="157">     <cue />     <rest />     <duration>512</duration>     <instrument id="P1-I1" />     <voice>2</voice>     <type>half</type>     <staff>1</staff>    </note>   </measure>   <!--============== Part: P1, Measure: 23 ==============-->   <measure number="23" width="371">    <print new-system="yes">     <system-layout>      <system-margins>       <left-margin>0</left-margin>       <right-margin>0</right-margin>      </system-margins>      <system-distance>120</system-distance>     </system-layout>    </print>    <attributes>     <staff-details number="1" print-object="yes" />    </attributes>    <harmony color="#000000" default-y="25">     <root>      <root-step>C</root-step>     </root>     <kind>major-ninth</kind>     <staff>1</staff>    </harmony>    <note color="#000000" default-x="57" default-y="15">     <pitch>      <step>D</step>      <octave>4</octave>     </pitch>     <duration>256</duration>     <instrument id="P1-I1" />     <voice>1</voice>     <type>quarter</type>         <staff>1</staff>    </note>    <note color="#000000" default-x="57">     <chord />     <pitch>      <step>E</step>      <octave>4</octave>     </pitch>     <duration>256</duration>     <instrument id="P1-I1" />     <type>quarter</type>     <staff>1</staff>    </note>    <note color="#000000" default-x="57">     <chord />     <pitch>      <step>B</step>      <octave>4</octave>     </pitch>     <duration>256</duration>     <instrument id="P1-I1" />     <type>quarter</type>     <staff>1</staff>    </note>    <note color="#000000" default-x="112" default-y="12">     <pitch>      <step>A</step>      <octave>4</octave>     </pitch>     <duration>64</duration>     <instrument id="P1-I1" />     <voice>1</voice>     <type>16th</type>         <staff>1</staff>     <beam number="1">begin</beam>     <beam number="2">begin</beam>    </note>    <note color="#000000" default-x="143" default-y="12">     <pitch>      <step>G</step>      <octave>4</octave>     </pitch>     <duration>64</duration>     <instrument id="P1-I1" />     <voice>1</voice>     <type>16th</type>         <staff>1</staff>     <beam number="1">continue</beam>     <beam number="2">continue</beam>    </note>    <note color="#000000" default-x="174" default-y="12">     <pitch>      <step>E</step>      <octave>4</octave>     </pitch>     <duration>64</duration>     <instrument id="P1-I1" />     <voice>1</voice>     <type>16th</type>         <staff>1</staff>     <beam number="1">continue</beam>     <beam number="2">continue</beam>    </note>    <note color="#000000" default-x="204" default-y="12">     <pitch>      <step>C</step>      <octave>4</octave>     </pitch>     <duration>64</duration>     <instrument id="P1-I1" />     <voice>1</voice>     <type>16th</type>         <staff>1</staff>     <beam number="1">end</beam>     <beam number="2">end</beam>    </note>    <harmony color="#000000" default-y="25">     <root>      <root-step>F</root-step>     </root>     <kind>dominant-ninth</kind>     <staff>1</staff>    </harmony>    <note color="#000000" default-x="236" default-y="2">     <pitch>      <step>D</step>      <octave>4</octave>     </pitch>     <duration>128</duration>     <instrument id="P1-I1" />     <voice>1</voice>     <type>eighth</type>         <staff>1</staff>     <beam number="1">begin</beam>    </note>    <note color="#000000" default-x="236">     <chord />     <pitch>      <step>E</step>      <alter>-1</alter>      <octave>4</octave>     </pitch>     <duration>128</duration>     <instrument id="P1-I1" />     <type>eighth</type>     <accidental>flat</accidental>     <staff>1</staff>    </note>    <note color="#000000" default-x="236">     <chord />     <pitch>      <step>G</step>      <octave>4</octave>     </pitch>     <duration>128</duration>     <instrument id="P1-I1" />     <type>eighth</type>     <staff>1</staff>    </note>    <note color="#000000" default-x="276" default-y="2">     <pitch>      <step>C</step>      <octave>4</octave>     </pitch>     <duration>128</duration>     <instrument id="P1-I1" />     <voice>1</voice>     <type>eighth</type>         <staff>1</staff>     <beam number="1">end</beam>    </note>    <note default-x="316">     <rest />     <duration>256</duration>     <instrument id="P1-I1" />     <voice>1</voice>     <type>quarter</type>     <staff>1</staff>    </note>   </measure>   <!--============== Part: P1, Measure: 24 ==============-->   <measure number="24" width="289">    <harmony color="#000000" default-y="25">     <root>      <root-step>B</root-step>     </root>     <kind>minor-seventh</kind>     <staff>1</staff>    </harmony>    <note color="#000000" default-x="15" default-y="-7">     <pitch>      <step>D</step>      <octave>4</octave>     </pitch>     <duration>128</duration>     <instrument id="P1-I1" />     <voice>1</voice>     <type>eighth</type>         <staff>1</staff>     <beam number="1">begin</beam>    </note>    <note color="#000000" default-x="15">     <chord />     <pitch>      <step>E</step>      <octave>4</octave>     </pitch>     <duration>128</duration>     <instrument id="P1-I1" />     <type>eighth</type>     <accidental>natural</accidental>     <staff>1</staff>    </note>    <note color="#000000" default-x="55" default-y="-7">     <pitch>      <step>A</step>      <octave>3</octave>     </pitch>     <duration>128</duration>     <instrument id="P1-I1" />     <voice>1</voice>     <type>eighth</type>         <staff>1</staff>     <beam number="1">continue</beam>    </note>    <note color="#000000" default-x="95" default-y="-7">     <pitch>      <step>D</step>      <octave>4</octave>     </pitch>     <duration>128</duration>     <instrument id="P1-I1" />     <voice>1</voice>     <type>eighth</type>         <staff>1</staff>     <beam number="1">continue</beam>    </note>    <note color="#000000" default-x="95">     <chord />     <pitch>      <step>E</step>      <octave>4</octave>     </pitch>     <duration>128</duration>     <instrument id="P1-I1" />     <type>eighth</type>     <staff>1</staff>    </note>    <note color="#000000" default-x="139" default-y="-7">     <pitch>      <step>A</step>      <alter>-1</alter>      <octave>3</octave>     </pitch>     <duration>128</duration>     <tie type="start" />     <instrument id="P1-I1" />     <voice>1</voice>     <type>eighth</type>     <accidental>flat</accidental>         <staff>1</staff>     <beam number="1">end</beam>     <notations>      <tied type="start" orientation="under" />     </notations>    </note>    <harmony color="#000000" default-y="25">     <root>      <root-step>B</root-step>      <root-alter>-1</root-alter>     </root>     <kind>dominant</kind>     <staff>1</staff>    </harmony>    <note color="#000000" default-x="179" default-y="-20">     <pitch>      <step>A</step>      <alter>-1</alter>      <octave>3</octave>     </pitch>     <duration>256</duration>     <tie type="stop" />     <instrument id="P1-I1" />     <voice>1</voice>     <type>quarter</type>         <staff>1</staff>     <notations>      <tied type="stop" orientation="under" />     </notations>    </note>    <note default-x="234">     <rest />     <duration>256</duration>     <instrument id="P1-I1" />     <voice>1</voice>     <type>quarter</type>     <staff>1</staff>    </note>   </measure>   <!--============== Part: P1, Measure: 25 ==============-->   <measure number="25" width="286">    <harmony color="#000000" default-y="25">     <root>      <root-step>A</root-step>     </root>     <kind>dominant</kind>     <degree>      <degree-value>5</degree-value>      <degree-alter>-1</degree-alter>      <degree-type>alter</degree-type>     </degree>     <staff>1</staff>    </harmony>    <note color="#000000" default-x="26" default-y="-5">     <pitch>      <step>C</step>      <alter>1</alter>      <octave>4</octave>     </pitch>     <duration>512</duration>     <instrument id="P1-I1" />     <voice>1</voice>     <type>half</type>     <accidental>sharp</accidental>         <staff>1</staff>    </note>    <note color="#000000" default-x="26">     <chord />     <pitch>      <step>E</step>      <alter>-1</alter>      <octave>4</octave>     </pitch>     <duration>512</duration>     <instrument id="P1-I1" />     <type>half</type>     <accidental>flat</accidental>     <staff>1</staff>    </note>    <harmony color="#000000" default-y="25">     <root>      <root-step>A</root-step>      <root-alter>-1</root-alter>     </root>     <kind>dominant</kind>     <degree>      <degree-value>5</degree-value>      <degree-alter>-1</degree-alter>      <degree-type>alter</degree-type>     </degree>     <staff>1</staff>    </harmony>    <note color="#000000" default-x="120" default-y="-10">     <pitch>      <step>C</step>      <octave>4</octave>     </pitch>     <duration>85</duration>     <instrument id="P1-I1" />     <voice>1</voice>     <type>eighth</type>     <accidental>natural</accidental>     <time-modification>      <actual-notes>3</actual-notes>      <normal-notes>2</normal-notes>      <normal-type>eighth</normal-type>     </time-modification>         <staff>1</staff>     <beam number="1">begin</beam>     <notations>      <tuplet type="start" bracket="no" number="1" default-y="-20" placement="above" />     </notations>    </note>    <note color="#000000" default-x="120">     <chord />     <pitch>      <step>D</step>      <octave>4</octave>     </pitch>     <duration>128</duration>     <instrument id="P1-I1" />     <type>eighth</type>     <time-modification>      <actual-notes>3</actual-notes>      <normal-notes>2</normal-notes>      <normal-type>eighth</normal-type>     </time-modification>     <staff>1</staff>     <notations>      <tuplet type="start" bracket="no" number="1" default-y="-20" placement="above" />     </notations>    </note>    <note color="#000000" default-x="153" default-y="-10">     <pitch>      <step>C</step>      <octave>4</octave>     </pitch>     <duration>85</duration>     <instrument id="P1-I1" />     <voice>1</voice>     <type>eighth</type>     <time-modification>      <actual-notes>3</actual-notes>      <normal-notes>2</normal-notes>      <normal-type>eighth</normal-type>     </time-modification>         <staff>1</staff>     <beam number="1">continue</beam>    </note>    <note color="#000000" default-x="153">     <chord />     <pitch>      <step>D</step>      <octave>4</octave>     </pitch>     <duration>128</duration>     <instrument id="P1-I1" />     <type>eighth</type>     <time-modification>      <actual-notes>3</actual-notes>      <normal-notes>2</normal-notes>      <normal-type>eighth</normal-type>     </time-modification>     <staff>1</staff>    </note>    <note color="#000000" default-x="187" default-y="-10">     <pitch>      <step>C</step>      <octave>4</octave>     </pitch>     <duration>86</duration>     <instrument id="P1-I1" />     <voice>1</voice>     <type>eighth</type>     <time-modification>      <actual-notes>3</actual-notes>      <normal-notes>2</normal-notes>      <normal-type>eighth</normal-type>     </time-modification>         <staff>1</staff>     <beam number="1">end</beam>     <notations>      <tuplet type="stop" bracket="no" number="1" default-y="-20" placement="above" />     </notations>    </note>    <note color="#000000" default-x="187">     <chord />     <pitch>      <step>D</step>      <octave>4</octave>     </pitch>     <duration>128</duration>     <instrument id="P1-I1" />     <type>eighth</type>     <time-modification>      <actual-notes>3</actual-notes>      <normal-notes>2</normal-notes>      <normal-type>eighth</normal-type>     </time-modification>     <staff>1</staff>     <notations>      <tuplet type="stop" bracket="no" number="1" default-y="-20" placement="above" />     </notations>    </note>    <note color="#000000" default-x="231" default-y="-10">     <pitch>      <step>B</step>      <octave>3</octave>     </pitch>     <duration>256</duration>     <tie type="start" />     <instrument id="P1-I1" />     <voice>1</voice>     <type>quarter</type>         <staff>1</staff>     <notations>      <tied type="start" orientation="under" />     </notations>    </note>    <note color="#000000" default-x="231">     <chord />     <pitch>      <step>D</step>      <alter>-1</alter>      <octave>4</octave>     </pitch>     <duration>256</duration>     <tie type="start" />     <instrument id="P1-I1" />     <type>quarter</type>     <accidental>flat</accidental>     <staff>1</staff>     <notations>      <tied type="start" orientation="over" />     </notations>    </note>   </measure>   <!--============== Part: P1, Measure: 26 ==============-->   <measure number="26" width="159">    <harmony color="#000000" default-y="25">     <root>      <root-step>G</root-step>     </root>     <kind>dominant</kind>     <degree>      <degree-value>5</degree-value>      <degree-alter>-1</degree-alter>      <degree-type>alter</degree-type>     </degree>     <staff>1</staff>    </harmony>    <note color="#000000" default-x="15">     <pitch>      <step>D</step>      <alter>-1</alter>      <octave>4</octave>     </pitch>     <duration>1024</duration>     <tie type="stop" />     <instrument id="P1-I1" />     <voice>1</voice>     <type>whole</type>     <staff>1</staff>     <notations>      <tied type="stop" orientation="over" />     </notations>    </note>    <barline>     <bar-style>light-heavy</bar-style>    </barline>    <backup>     <duration>1024</duration>    </backup>    <note color="#000000" default-x="15">     <pitch>      <step>B</step>      <octave>3</octave>     </pitch>     <duration>1024</duration>     <tie type="stop" />     <instrument id="P1-I1" />     <voice>2</voice>     <type>whole</type>     <staff>1</staff>     <notations>      <tied type="stop" orientation="under" />     </notations>    </note>   </measure>  </part> </score-partwise>  