<?xml version="1.0" encoding='UTF-8' standalone='no' ?>
<!DOCTYPE score-partwise PUBLIC "-//Recordare//DTD MusicXML 3.0 Partwise//EN" "http://www.musicxml.org/dtds/partwise.dtd">
<score-partwise version="3.0">
 <work>
  <work-title>BESAME MUCHO</work-title>
 </work>
 <identification>
  <creator type="composer">1940 - Consuelo Velázquez / Sunny Skylar</creator>
  <rights>Copyright © www.realbook.site</rights>
  <encoding>
   <encoding-date>2022-12-25</encoding-date>
   <encoder>mosco</encoder>
   <software>Sibelius 19.4.1</software>
   <software>Direct export, not from Dolet</software>
   <encoding-description>Sibelius / MusicXML 3.0</encoding-description>
   <supports element="print" type="yes" value="yes" attribute="new-system" />
   <supports element="print" type="yes" value="yes" attribute="new-page" />
   <supports element="accidental" type="yes" />
   <supports element="beam" type="yes" />
   <supports element="stem" type="yes" />
  </encoding>
 </identification>
 <defaults>
  <scaling>
   <millimeters>215.9</millimeters>
   <tenths>1224</tenths>
  </scaling>
  <page-layout>
   <page-height>1584</page-height>
   <page-width>1224</page-width>
   <page-margins type="both">
    <left-margin>56</left-margin>
    <right-margin>56</right-margin>
    <top-margin>56</top-margin>
    <bottom-margin>113</bottom-margin>
   </page-margins>
  </page-layout>
  <system-layout>
   <system-margins>
    <left-margin>22</left-margin>
    <right-margin>0</right-margin>
   </system-margins>
   <system-distance>92</system-distance>
  </system-layout>
  <appearance>
   <line-width type="stem">0.9375</line-width>
   <line-width type="beam">5</line-width>
   <line-width type="staff">0.9375</line-width>
   <line-width type="light barline">1.5625</line-width>
   <line-width type="heavy barline">5</line-width>
   <line-width type="leger">1.5625</line-width>
   <line-width type="ending">1.5625</line-width>
   <line-width type="wedge">1.25</line-width>
   <line-width type="enclosure">0.9375</line-width>
   <line-width type="tuplet bracket">1.25</line-width>
   <line-width type="bracket">5</line-width>
   <line-width type="dashes">1.5625</line-width>
   <line-width type="extend">0.9375</line-width>
   <line-width type="octave shift">1.5625</line-width>
   <line-width type="pedal">1.5625</line-width>
   <line-width type="slur middle">1.5625</line-width>
   <line-width type="slur tip">0.625</line-width>
   <line-width type="tie middle">1.5625</line-width>
   <line-width type="tie tip">0.625</line-width>
   <note-size type="cue">75</note-size>
   <note-size type="grace">60</note-size>
  </appearance>
  <music-font font-family="Opus Std" font-size="20" />
  <lyric-font font-family="Palatino" font-size="10.1563" />
  <lyric-language xml:lang="en" />
 </defaults>
 <credit page="1">
  <credit-words default-x="611" default-y="184" font-family="Palatino" font-style="normal" font-size="32.1875" font-weight="bold" justify="center" valign="middle">BESAME MUCHO</credit-words>
 </credit>
 <credit page="1">
  <credit-words default-x="1167" default-y="108" font-family="Palatino" font-style="normal" font-size="11.0938" font-weight="normal" justify="right" valign="middle">1940 - Consuelo Velázquez / Sunny Skylar</credit-words>
 </credit>
 <credit page="1">
  <credit-words default-x="611" default-y="113" font-family="Aparajita" font-style="normal" font-size="10.1563" font-weight="normal" justify="center" valign="middle">Copyright © www.realbook.site</credit-words>
 </credit>
 <part-list>
  <score-part id="P1">
   <part-name> </part-name>
   <part-name-display>
    <display-text> </display-text>
   </part-name-display>
   <part-abbreviation> </part-abbreviation>
   <part-abbreviation-display>
    <display-text> </display-text>
   </part-abbreviation-display>
   <score-instrument id="P1-I1">
    <instrument-name> </instrument-name>
    <virtual-instrument>
     <virtual-library>Sibelius 7 Sounds</virtual-library>
    </virtual-instrument>
   </score-instrument>
  </score-part>
 </part-list>
 <part id="P1">
  <!--============== Part: P1, Measure: 1 ==============-->
  <measure number="1" width="360">
   <print new-page="yes">
    <system-layout>
     <system-margins>
      <left-margin>22</left-margin>
      <right-margin>0</right-margin>
     </system-margins>
     <top-system-distance>230</top-system-distance>
    </system-layout>
   </print>
   <attributes>
    <divisions>256</divisions>
    <key color="#000000">
     <fifths>-1</fifths>
     <mode>major</mode>
    </key>
    <time symbol="cut" color="#000000">
     <beats>2</beats>
     <beat-type>2</beat-type>
    </time>
    <staves>1</staves>
    <clef number="1" color="#000000">
     <sign>G</sign>
     <line>2</line>
    </clef>
    <staff-details number="1" print-object="yes" />
   </attributes>
   <note color="#000000" default-x="91" default-y="-10">
    <pitch>
     <step>D</step>
     <octave>4</octave>
    </pitch>
    <duration>256</duration>
    <instrument id="P1-I1" />
    <voice>1</voice>
    <type>quarter</type>
    
    <staff>1</staff>
   </note>
   <harmony color="#000000" default-y="25">
    <root>
     <root-step>D</root-step>
    </root>
    <kind>minor</kind>
    <staff>1</staff>
   </harmony>
   <note color="#000000" default-x="156" default-y="-10">
    <pitch>
     <step>D</step>
     <octave>4</octave>
    </pitch>
    <duration>128</duration>
    <instrument id="P1-I1" />
    <voice>1</voice>
    <type>eighth</type>
    
    <staff>1</staff>
    <beam number="1">begin</beam>
   </note>
   <note color="#000000" default-x="203" default-y="-10">
    <pitch>
     <step>D</step>
     <octave>4</octave>
    </pitch>
    <duration>128</duration>
    <tie type="start" />
    <instrument id="P1-I1" />
    <voice>1</voice>
    <type>eighth</type>
    
    <staff>1</staff>
    <beam number="1">end</beam>
    <notations>
     <tied type="start" orientation="under" />
    </notations>
   </note>
   <note color="#000000" default-x="250" default-y="-10">
    <pitch>
     <step>D</step>
     <octave>4</octave>
    </pitch>
    <duration>512</duration>
    <tie type="stop" />
    <tie type="start" />
    <instrument id="P1-I1" />
    <voice>1</voice>
    <type>half</type>
    
    <staff>1</staff>
    <notations>
     <tied type="stop" orientation="under" />
     <tied type="start" orientation="under" />
    </notations>
   </note>
  </measure>
  <!--============== Part: P1, Measure: 2 ==============-->
  <measure number="2" width="281">
   <note color="#000000" default-x="15" default-y="-10">
    <pitch>
     <step>D</step>
     <octave>4</octave>
    </pitch>
    <duration>512</duration>
    <tie type="stop" />
    <instrument id="P1-I1" />
    <voice>1</voice>
    <type>half</type>
    
    <staff>1</staff>
    <notations>
     <tied type="stop" orientation="under" />
    </notations>
   </note>
   <note color="#000000" default-x="125" default-y="-10">
    <pitch>
     <step>D</step>
     <octave>4</octave>
    </pitch>
    <duration>170</duration>
    <instrument id="P1-I1" />
    <voice>1</voice>
    <type>quarter</type>
    <time-modification>
     <actual-notes>3</actual-notes>
     <normal-notes>2</normal-notes>
     <normal-type>quarter</normal-type>
    </time-modification>
    
    <staff>1</staff>
    <notations>
     <tuplet type="start" bracket="yes" number="1" default-y="12" placement="above" />
    </notations>
   </note>
   <note color="#000000" default-x="177" default-y="-5">
    <pitch>
     <step>E</step>
     <octave>4</octave>
    </pitch>
    <duration>171</duration>
    <instrument id="P1-I1" />
    <voice>1</voice>
    <type>quarter</type>
    <time-modification>
     <actual-notes>3</actual-notes>
     <normal-notes>2</normal-notes>
     <normal-type>quarter</normal-type>
    </time-modification>
    
    <staff>1</staff>
   </note>
   <note color="#000000" default-x="229">
    <pitch>
     <step>F</step>
     <octave>4</octave>
    </pitch>
    <duration>171</duration>
    <instrument id="P1-I1" />
    <voice>1</voice>
    <type>quarter</type>
    <time-modification>
     <actual-notes>3</actual-notes>
     <normal-notes>2</normal-notes>
     <normal-type>quarter</normal-type>
    </time-modification>
    
    <staff>1</staff>
    <notations>
     <tuplet type="stop" bracket="yes" number="1" default-y="12" placement="above" />
    </notations>
   </note>
  </measure>
  <!--============== Part: P1, Measure: 3 ==============-->
  <measure number="3" width="235">
   <harmony color="#000000" default-y="25">
    <root>
     <root-step>G</root-step>
    </root>
    <kind>minor</kind>
    <staff>1</staff>
   </harmony>
   <note color="#000000" default-x="15" default-y="10">
    <pitch>
     <step>A</step>
     <octave>4</octave>
    </pitch>
    <duration>512</duration>
    <instrument id="P1-I1" />
    <voice>1</voice>
    <type>half</type>
    
    <staff>1</staff>
   </note>
   <note color="#000000" default-x="125" default-y="5">
    <pitch>
     <step>G</step>
     <octave>4</octave>
    </pitch>
    <duration>512</duration>
    <tie type="start" />
    <instrument id="P1-I1" />
    <voice>1</voice>
    <type>half</type>
    
    <staff>1</staff>
    <notations>
     <tied type="start" orientation="under" />
    </notations>
   </note>
  </measure>
  <!--============== Part: P1, Measure: 4 ==============-->
  <measure number="4" width="211">
   <note color="#000000" default-x="15" default-y="5">
    <pitch>
     <step>G</step>
     <octave>4</octave>
    </pitch>
    <duration>768</duration>
    <tie type="stop" />
    <instrument id="P1-I1" />
    <voice>1</voice>
    <type>half</type>
    <dot />
    
    <staff>1</staff>
    <notations>
     <tied type="stop" orientation="under" />
    </notations>
   </note>
   <note default-x="146">
    <rest />
    <duration>256</duration>
    <instrument id="P1-I1" />
    <voice>1</voice>
    <type>quarter</type>
    <staff>1</staff>
   </note>
  </measure>
  <!--============== Part: P1, Measure: 5 ==============-->
  <measure number="5" width="385">
   <print new-system="yes">
    <system-layout>
     <system-margins>
      <left-margin>22</left-margin>
      <right-margin>0</right-margin>
     </system-margins>
     <system-distance>140</system-distance>
    </system-layout>
   </print>
   <attributes>
    <staff-details number="1" print-object="yes" />
   </attributes>
   <harmony color="#000000" default-y="25">
    <root>
     <root-step>G</root-step>
    </root>
    <kind>minor</kind>
    <staff>1</staff>
   </harmony>
   <note color="#000000" default-x="73" default-y="5">
    <pitch>
     <step>G</step>
     <octave>4</octave>
    </pitch>
    <duration>170</duration>
    <instrument id="P1-I1" />
    <voice>1</voice>
    <type>quarter</type>
    <time-modification>
     <actual-notes>3</actual-notes>
     <normal-notes>2</normal-notes>
     <normal-type>quarter</normal-type>
    </time-modification>
    
    <staff>1</staff>
    <notations>
     <tuplet type="start" bracket="yes" number="1" default-y="17" placement="above" />
    </notations>
   </note>
   <note color="#000000" default-x="125" default-y="5">
    <pitch>
     <step>G</step>
     <octave>4</octave>
    </pitch>
    <duration>171</duration>
    <instrument id="P1-I1" />
    <voice>1</voice>
    <type>quarter</type>
    <time-modification>
     <actual-notes>3</actual-notes>
     <normal-notes>2</normal-notes>
     <normal-type>quarter</normal-type>
    </time-modification>
    
    <staff>1</staff>
   </note>
   <note color="#000000" default-x="177" default-y="5">
    <pitch>
     <step>G</step>
     <octave>4</octave>
    </pitch>
    <duration>171</duration>
    <instrument id="P1-I1" />
    <voice>1</voice>
    <type>quarter</type>
    <time-modification>
     <actual-notes>3</actual-notes>
     <normal-notes>2</normal-notes>
     <normal-type>quarter</normal-type>
    </time-modification>
    
    <staff>1</staff>
    <notations>
     <tuplet type="stop" bracket="yes" number="1" default-y="17" placement="above" />
    </notations>
   </note>
   <harmony color="#000000" default-y="25">
    <root>
     <root-step>G</root-step>
    </root>
    <kind>major-minor</kind>
    <degree>
     <degree-value>9</degree-value>
     <degree-alter>0</degree-alter>
     <degree-type>add</degree-type>
    </degree>
    <staff>1</staff>
   </harmony>
   <note color="#000000" default-x="229" default-y="10">
    <pitch>
     <step>A</step>
     <octave>4</octave>
    </pitch>
    <duration>170</duration>
    <instrument id="P1-I1" />
    <voice>1</voice>
    <type>quarter</type>
    <time-modification>
     <actual-notes>3</actual-notes>
     <normal-notes>2</normal-notes>
     <normal-type>quarter</normal-type>
    </time-modification>
    
    <staff>1</staff>
    <notations>
     <tuplet type="start" bracket="yes" number="1" default-y="22" placement="above" />
    </notations>
   </note>
   <note color="#000000" default-x="281" default-y="10">
    <pitch>
     <step>A</step>
     <octave>4</octave>
    </pitch>
    <duration>171</duration>
    <instrument id="P1-I1" />
    <voice>1</voice>
    <type>quarter</type>
    <time-modification>
     <actual-notes>3</actual-notes>
     <normal-notes>2</normal-notes>
     <normal-type>quarter</normal-type>
    </time-modification>
    
    <staff>1</staff>
   </note>
   <note color="#000000" default-x="333" default-y="10">
    <pitch>
     <step>A</step>
     <octave>4</octave>
    </pitch>
    <duration>171</duration>
    <instrument id="P1-I1" />
    <voice>1</voice>
    <type>quarter</type>
    <time-modification>
     <actual-notes>3</actual-notes>
     <normal-notes>2</normal-notes>
     <normal-type>quarter</normal-type>
    </time-modification>
    
    <staff>1</staff>
    <notations>
     <tuplet type="stop" bracket="yes" number="1" default-y="22" placement="above" />
    </notations>
   </note>
  </measure>
  <!--============== Part: P1, Measure: 6 ==============-->
  <measure number="6" width="326">
   <harmony color="#000000" default-y="25">
    <root>
     <root-step>G</root-step>
    </root>
    <kind>minor</kind>
    <staff>1</staff>
   </harmony>
   <note color="#000000" default-x="15" default-y="-55">
    <pitch>
     <step>B</step>
     <alter>-1</alter>
     <octave>4</octave>
    </pitch>
    <duration>170</duration>
    <instrument id="P1-I1" />
    <voice>1</voice>
    <type>quarter</type>
    <time-modification>
     <actual-notes>3</actual-notes>
     <normal-notes>2</normal-notes>
     <normal-type>quarter</normal-type>
    </time-modification>
    
    <staff>1</staff>
    <notations>
     <tuplet type="start" bracket="yes" number="1" default-y="-67" placement="below" />
    </notations>
   </note>
   <note color="#000000" default-x="66" default-y="-55">
    <pitch>
     <step>B</step>
     <alter>-1</alter>
     <octave>4</octave>
    </pitch>
    <duration>171</duration>
    <instrument id="P1-I1" />
    <voice>1</voice>
    <type>quarter</type>
    <time-modification>
     <actual-notes>3</actual-notes>
     <normal-notes>2</normal-notes>
     <normal-type>quarter</normal-type>
    </time-modification>
    
    <staff>1</staff>
   </note>
   <note color="#000000" default-x="119" default-y="-55">
    <pitch>
     <step>B</step>
     <alter>-1</alter>
     <octave>4</octave>
    </pitch>
    <duration>171</duration>
    <instrument id="P1-I1" />
    <voice>1</voice>
    <type>quarter</type>
    <time-modification>
     <actual-notes>3</actual-notes>
     <normal-notes>2</normal-notes>
     <normal-type>quarter</normal-type>
    </time-modification>
    
    <staff>1</staff>
    <notations>
     <tuplet type="stop" bracket="yes" number="1" default-y="-67" placement="below" />
    </notations>
   </note>
   <harmony color="#000000" default-y="25">
    <root>
     <root-step>A</root-step>
    </root>
    <kind>dominant</kind>
    <staff>1</staff>
   </harmony>
   <note color="#000000" default-x="170" default-y="-50">
    <pitch>
     <step>C</step>
     <alter>1</alter>
     <octave>5</octave>
    </pitch>
    <duration>170</duration>
    <instrument id="P1-I1" />
    <voice>1</voice>
    <type>quarter</type>
    <accidental>sharp</accidental>
    <time-modification>
     <actual-notes>3</actual-notes>
     <normal-notes>2</normal-notes>
     <normal-type>quarter</normal-type>
    </time-modification>
    
    <staff>1</staff>
    <notations>
     <tuplet type="start" bracket="yes" number="1" default-y="-62" placement="below" />
    </notations>
   </note>
   <note color="#000000" default-x="222" default-y="-45">
    <pitch>
     <step>D</step>
     <octave>5</octave>
    </pitch>
    <duration>171</duration>
    <instrument id="P1-I1" />
    <voice>1</voice>
    <type>quarter</type>
    <time-modification>
     <actual-notes>3</actual-notes>
     <normal-notes>2</normal-notes>
     <normal-type>quarter</normal-type>
    </time-modification>
    
    <staff>1</staff>
   </note>
   <note color="#000000" default-x="275" default-y="-40">
    <pitch>
     <step>E</step>
     <octave>5</octave>
    </pitch>
    <duration>171</duration>
    <instrument id="P1-I1" />
    <voice>1</voice>
    <type>quarter</type>
    <time-modification>
     <actual-notes>3</actual-notes>
     <normal-notes>2</normal-notes>
     <normal-type>quarter</normal-type>
    </time-modification>
    
    <staff>1</staff>
    <notations>
     <tuplet type="stop" bracket="yes" number="1" default-y="-62" placement="below" />
    </notations>
   </note>
  </measure>
  <!--============== Part: P1, Measure: 7 ==============-->
  <measure number="7" width="166">
   <harmony color="#000000" default-y="25">
    <root>
     <root-step>D</root-step>
    </root>
    <kind>minor</kind>
    <staff>1</staff>
   </harmony>
   <note color="#000000" default-x="15">
    <pitch>
     <step>A</step>
     <octave>4</octave>
    </pitch>
    <duration>1024</duration>
    <tie type="start" />
    <instrument id="P1-I1" />
    <voice>1</voice>
    <type>whole</type>
    <staff>1</staff>
    <notations>
     <tied type="start" orientation="under" />
    </notations>
   </note>
  </measure>
  <!--============== Part: P1, Measure: 8 ==============-->
  <measure number="8" width="210">
   <harmony color="#000000" default-y="25">
    <root>
     <root-step>E</root-step>
    </root>
    <kind>half-diminished</kind>
    <staff>1</staff>
   </harmony>
   <note color="#000000" default-x="15" default-y="10">
    <pitch>
     <step>A</step>
     <octave>4</octave>
    </pitch>
    <duration>768</duration>
    <tie type="stop" />
    <instrument id="P1-I1" />
    <voice>1</voice>
    <type>half</type>
    <dot />
    
    <staff>1</staff>
    <notations>
     <tied type="stop" orientation="under" />
    </notations>
   </note>
   <backup>
    <duration>256</duration>
   </backup>
   <harmony color="#000000" default-y="25">
    <root>
     <root-step>A</root-step>
    </root>
    <kind>dominant</kind>
    <staff>1</staff>
   </harmony>
   <forward>
    <duration>256</duration>
   </forward>
   <note default-x="145">
    <rest />
    <duration>256</duration>
    <instrument id="P1-I1" />
    <voice>1</voice>
    <type>quarter</type>
    <staff>1</staff>
   </note>
  </measure>
  <!--============== Part: P1, Measure: 9 ==============-->
  <measure number="9" width="347">
   <print new-system="yes">
    <system-layout>
     <system-margins>
      <left-margin>22</left-margin>
      <right-margin>0</right-margin>
     </system-margins>
     <system-distance>140</system-distance>
    </system-layout>
   </print>
   <attributes>
    <staff-details number="1" print-object="yes" />
   </attributes>
   <harmony color="#000000" default-y="25">
    <root>
     <root-step>D</root-step>
    </root>
    <kind>dominant</kind>
    <staff>1</staff>
   </harmony>
   <note color="#000000" default-x="73" default-y="-45">
    <pitch>
     <step>D</step>
     <octave>5</octave>
    </pitch>
    <duration>256</duration>
    <instrument id="P1-I1" />
    <voice>1</voice>
    <type>quarter</type>
    
    <staff>1</staff>
   </note>
   <note color="#000000" default-x="140" default-y="-42">
    <pitch>
     <step>D</step>
     <octave>5</octave>
    </pitch>
    <duration>128</duration>
    <instrument id="P1-I1" />
    <voice>1</voice>
    <type>eighth</type>
    
    <staff>1</staff>
    <beam number="1">begin</beam>
   </note>
   <note color="#000000" default-x="187" default-y="-42">
    <pitch>
     <step>D</step>
     <octave>5</octave>
    </pitch>
    <duration>128</duration>
    <tie type="start" />
    <instrument id="P1-I1" />
    <voice>1</voice>
    <type>eighth</type>
    
    <staff>1</staff>
    <beam number="1">end</beam>
    <notations>
     <tied type="start" orientation="over" />
    </notations>
   </note>
   <note color="#000000" default-x="235" default-y="-45">
    <pitch>
     <step>D</step>
     <octave>5</octave>
    </pitch>
    <duration>512</duration>
    <tie type="stop" />
    <tie type="start" />
    <instrument id="P1-I1" />
    <voice>1</voice>
    <type>half</type>
    
    <staff>1</staff>
    <notations>
     <tied type="stop" orientation="over" />
     <tied type="start" orientation="over" />
    </notations>
   </note>
  </measure>
  <!--============== Part: P1, Measure: 10 ==============-->
  <measure number="10" width="286">
   <note color="#000000" default-x="15" default-y="-45">
    <pitch>
     <step>D</step>
     <octave>5</octave>
    </pitch>
    <duration>512</duration>
    <tie type="stop" />
    <instrument id="P1-I1" />
    <voice>1</voice>
    <type>half</type>
    
    <staff>1</staff>
    <notations>
     <tied type="stop" orientation="over" />
    </notations>
   </note>
   <note color="#000000" default-x="127" default-y="-45">
    <pitch>
     <step>D</step>
     <octave>5</octave>
    </pitch>
    <duration>170</duration>
    <instrument id="P1-I1" />
    <voice>1</voice>
    <type>quarter</type>
    <time-modification>
     <actual-notes>3</actual-notes>
     <normal-notes>2</normal-notes>
     <normal-type>quarter</normal-type>
    </time-modification>
    
    <staff>1</staff>
    <notations>
     <tuplet type="start" bracket="yes" number="1" default-y="-57" placement="below" />
    </notations>
   </note>
   <note color="#000000" default-x="180" default-y="-50">
    <pitch>
     <step>C</step>
     <octave>5</octave>
    </pitch>
    <duration>171</duration>
    <instrument id="P1-I1" />
    <voice>1</voice>
    <type>quarter</type>
    <time-modification>
     <actual-notes>3</actual-notes>
     <normal-notes>2</normal-notes>
     <normal-type>quarter</normal-type>
    </time-modification>
    
    <staff>1</staff>
   </note>
   <note color="#000000" default-x="233" default-y="-55">
    <pitch>
     <step>B</step>
     <alter>-1</alter>
     <octave>4</octave>
    </pitch>
    <duration>171</duration>
    <instrument id="P1-I1" />
    <voice>1</voice>
    <type>quarter</type>
    <time-modification>
     <actual-notes>3</actual-notes>
     <normal-notes>2</normal-notes>
     <normal-type>quarter</normal-type>
    </time-modification>
    
    <staff>1</staff>
    <notations>
     <tuplet type="stop" bracket="yes" number="1" default-y="-57" placement="below" />
    </notations>
   </note>
  </measure>
  <!--============== Part: P1, Measure: 11 ==============-->
  <measure number="11" width="239">
   <harmony color="#000000" default-y="25">
    <root>
     <root-step>G</root-step>
    </root>
    <kind>minor</kind>
    <staff>1</staff>
   </harmony>
   <note color="#000000" default-x="15" default-y="10">
    <pitch>
     <step>A</step>
     <octave>4</octave>
    </pitch>
    <duration>512</duration>
    <instrument id="P1-I1" />
    <voice>1</voice>
    <type>half</type>
    
    <staff>1</staff>
   </note>
   <note color="#000000" default-x="127" default-y="5">
    <pitch>
     <step>G</step>
     <octave>4</octave>
    </pitch>
    <duration>512</duration>
    <tie type="start" />
    <instrument id="P1-I1" />
    <voice>1</voice>
    <type>half</type>
    
    <staff>1</staff>
    <notations>
     <tied type="start" orientation="under" />
    </notations>
   </note>
  </measure>
  <!--============== Part: P1, Measure: 12 ==============-->
  <measure number="12" width="214">
   <note color="#000000" default-x="15" default-y="5">
    <pitch>
     <step>G</step>
     <octave>4</octave>
    </pitch>
    <duration>768</duration>
    <tie type="stop" />
    <instrument id="P1-I1" />
    <voice>1</voice>
    <type>half</type>
    <dot />
    
    <staff>1</staff>
    <notations>
     <tied type="stop" orientation="under" />
    </notations>
   </note>
   <note default-x="148">
    <rest />
    <duration>256</duration>
    <instrument id="P1-I1" />
    <voice>1</voice>
    <type>quarter</type>
    <staff>1</staff>
   </note>
  </measure>
  <!--============== Part: P1, Measure: 13 ==============-->
  <measure number="13" width="381">
   <print new-system="yes">
    <system-layout>
     <system-margins>
      <left-margin>22</left-margin>
      <right-margin>0</right-margin>
     </system-margins>
     <system-distance>140</system-distance>
    </system-layout>
   </print>
   <attributes>
    <staff-details number="1" print-object="yes" />
   </attributes>
   <harmony color="#000000" default-y="25">
    <root>
     <root-step>D</root-step>
    </root>
    <kind>minor</kind>
    <staff>1</staff>
   </harmony>
   <note color="#000000" default-x="73" default-y="-45">
    <pitch>
     <step>D</step>
     <octave>5</octave>
    </pitch>
    <duration>170</duration>
    <instrument id="P1-I1" />
    <voice>1</voice>
    <type>quarter</type>
    <time-modification>
     <actual-notes>3</actual-notes>
     <normal-notes>2</normal-notes>
     <normal-type>quarter</normal-type>
    </time-modification>
    
    <staff>1</staff>
    <notations>
     <tuplet type="start" bracket="yes" number="1" default-y="-57" placement="below" />
    </notations>
   </note>
   <note color="#000000" default-x="125" default-y="10">
    <pitch>
     <step>A</step>
     <octave>4</octave>
    </pitch>
    <duration>171</duration>
    <instrument id="P1-I1" />
    <voice>1</voice>
    <type>quarter</type>
    <time-modification>
     <actual-notes>3</actual-notes>
     <normal-notes>2</normal-notes>
     <normal-type>quarter</normal-type>
    </time-modification>
    
    <staff>1</staff>
   </note>
   <note color="#000000" default-x="176">
    <pitch>
     <step>F</step>
     <octave>4</octave>
    </pitch>
    <duration>171</duration>
    <instrument id="P1-I1" />
    <voice>1</voice>
    <type>quarter</type>
    <time-modification>
     <actual-notes>3</actual-notes>
     <normal-notes>2</normal-notes>
     <normal-type>quarter</normal-type>
    </time-modification>
    
    <staff>1</staff>
    <notations>
     <tuplet type="stop" bracket="yes" number="1" default-y="-57" placement="below" />
    </notations>
   </note>
   <note color="#000000" default-x="227" default-y="10">
    <pitch>
     <step>A</step>
     <octave>4</octave>
    </pitch>
    <duration>170</duration>
    <instrument id="P1-I1" />
    <voice>1</voice>
    <type>quarter</type>
    <time-modification>
     <actual-notes>3</actual-notes>
     <normal-notes>2</normal-notes>
     <normal-type>quarter</normal-type>
    </time-modification>
    
    <staff>1</staff>
    <notations>
     <tuplet type="start" bracket="yes" number="1" default-y="22" placement="above" />
    </notations>
   </note>
   <note color="#000000" default-x="279">
    <pitch>
     <step>F</step>
     <octave>4</octave>
    </pitch>
    <duration>171</duration>
    <instrument id="P1-I1" />
    <voice>1</voice>
    <type>quarter</type>
    <time-modification>
     <actual-notes>3</actual-notes>
     <normal-notes>2</normal-notes>
     <normal-type>quarter</normal-type>
    </time-modification>
    
    <staff>1</staff>
   </note>
   <note color="#000000" default-x="330" default-y="-10">
    <pitch>
     <step>D</step>
     <octave>4</octave>
    </pitch>
    <duration>171</duration>
    <instrument id="P1-I1" />
    <voice>1</voice>
    <type>quarter</type>
    <time-modification>
     <actual-notes>3</actual-notes>
     <normal-notes>2</normal-notes>
     <normal-type>quarter</normal-type>
    </time-modification>
    
    <staff>1</staff>
    <notations>
     <tuplet type="stop" bracket="yes" number="1" default-y="22" placement="above" />
    </notations>
   </note>
  </measure>
  <!--============== Part: P1, Measure: 14 ==============-->
  <measure number="14" width="323">
   <harmony color="#000000" default-y="25">
    <root>
     <root-step>E</root-step>
    </root>
    <kind>dominant</kind>
    <degree>
     <degree-value>9</degree-value>
     <degree-alter>-1</degree-alter>
     <degree-type>add</degree-type>
    </degree>
    <staff>1</staff>
   </harmony>
   <note color="#000000" default-x="15">
    <pitch>
     <step>F</step>
     <octave>4</octave>
    </pitch>
    <duration>170</duration>
    <instrument id="P1-I1" />
    <voice>1</voice>
    <type>quarter</type>
    <time-modification>
     <actual-notes>3</actual-notes>
     <normal-notes>2</normal-notes>
     <normal-type>quarter</normal-type>
    </time-modification>
    
    <staff>1</staff>
    <notations>
     <tuplet type="start" bracket="yes" number="1" default-y="12" placement="above" />
    </notations>
   </note>
   <note color="#000000" default-x="66" default-y="-5">
    <pitch>
     <step>E</step>
     <octave>4</octave>
    </pitch>
    <duration>171</duration>
    <instrument id="P1-I1" />
    <voice>1</voice>
    <type>quarter</type>
    <time-modification>
     <actual-notes>3</actual-notes>
     <normal-notes>2</normal-notes>
     <normal-type>quarter</normal-type>
    </time-modification>
    
    <staff>1</staff>
   </note>
   <note color="#000000" default-x="117" default-y="-10">
    <pitch>
     <step>D</step>
     <octave>4</octave>
    </pitch>
    <duration>171</duration>
    <instrument id="P1-I1" />
    <voice>1</voice>
    <type>quarter</type>
    <time-modification>
     <actual-notes>3</actual-notes>
     <normal-notes>2</normal-notes>
     <normal-type>quarter</normal-type>
    </time-modification>
    
    <staff>1</staff>
    <notations>
     <tuplet type="stop" bracket="yes" number="1" default-y="12" placement="above" />
    </notations>
   </note>
   <harmony color="#000000" default-y="25">
    <root>
     <root-step>A</root-step>
    </root>
    <kind>dominant</kind>
    <staff>1</staff>
   </harmony>
   <note color="#000000" default-x="169" default-y="-5">
    <pitch>
     <step>E</step>
     <octave>4</octave>
    </pitch>
    <duration>170</duration>
    <instrument id="P1-I1" />
    <voice>1</voice>
    <type>quarter</type>
    <time-modification>
     <actual-notes>3</actual-notes>
     <normal-notes>2</normal-notes>
     <normal-type>quarter</normal-type>
    </time-modification>
    
    <staff>1</staff>
    <notations>
     <tuplet type="start" bracket="yes" number="1" default-y="12" placement="above" />
    </notations>
   </note>
   <note color="#000000" default-x="220" default-y="-10">
    <pitch>
     <step>D</step>
     <octave>4</octave>
    </pitch>
    <duration>171</duration>
    <instrument id="P1-I1" />
    <voice>1</voice>
    <type>quarter</type>
    <time-modification>
     <actual-notes>3</actual-notes>
     <normal-notes>2</normal-notes>
     <normal-type>quarter</normal-type>
    </time-modification>
    
    <staff>1</staff>
   </note>
   <note color="#000000" default-x="271" default-y="-15">
    <pitch>
     <step>C</step>
     <alter>1</alter>
     <octave>4</octave>
    </pitch>
    <duration>171</duration>
    <instrument id="P1-I1" />
    <voice>1</voice>
    <type>quarter</type>
    <accidental>sharp</accidental>
    <time-modification>
     <actual-notes>3</actual-notes>
     <normal-notes>2</normal-notes>
     <normal-type>quarter</normal-type>
    </time-modification>
    
    <staff>1</staff>
    <notations>
     <tuplet type="stop" bracket="yes" number="1" default-y="12" placement="above" />
    </notations>
   </note>
  </measure>
  <!--============== Part: P1, Measure: 15 ==============-->
  <measure number="15" width="164">
   <harmony color="#000000" default-y="25">
    <root>
     <root-step>D</root-step>
    </root>
    <kind>minor</kind>
    <staff>1</staff>
   </harmony>
   <note color="#000000" default-x="15">
    <pitch>
     <step>D</step>
     <octave>4</octave>
    </pitch>
    <duration>1024</duration>
    <tie type="start" />
    <instrument id="P1-I1" />
    <voice>1</voice>
    <type>whole</type>
    <staff>1</staff>
    <notations>
     <tied type="start" orientation="under" />
    </notations>
   </note>
  </measure>
  <!--============== Part: P1, Measure: 16 ==============-->
  <measure number="16" width="219">
   <harmony color="#000000" default-y="25">
    <root>
     <root-step>D</root-step>
    </root>
    <kind>minor</kind>
    <staff>1</staff>
   </harmony>
   <note color="#000000" default-x="15" default-y="-10">
    <pitch>
     <step>D</step>
     <octave>4</octave>
    </pitch>
    <duration>768</duration>
    <tie type="stop" />
    <instrument id="P1-I1" />
    <voice>1</voice>
    <type>half</type>
    <dot />
    
    <staff>1</staff>
    <notations>
     <tied type="stop" orientation="under" />
    </notations>
   </note>
   <direction>
    <direction-type>
     <words default-y="26" justify="right" valign="middle" font-family="Palatino" font-style="normal" font-size="13.125" font-weight="bold">Fine</words>
    </direction-type>
    <offset sound="no">166</offset>
    <voice>1</voice>
    <staff>1</staff>
    <sound fine="16">
     <offset>90</offset>
    </sound>
   </direction>
   <note default-x="144">
    <rest />
    <duration>256</duration>
    <instrument id="P1-I1" />
    <voice>1</voice>
    <type>quarter</type>
    <staff>1</staff>
   </note>
   <barline>
    <bar-style>light-light</bar-style>
   </barline>
  </measure>
  <!--============== Part: P1, Measure: 17 ==============-->
  <measure number="17" width="353">
   <print new-system="yes">
    <system-layout>
     <system-margins>
      <left-margin>22</left-margin>
      <right-margin>0</right-margin>
     </system-margins>
     <system-distance>140</system-distance>
    </system-layout>
   </print>
   <attributes>
    <staff-details number="1" print-object="yes" />
   </attributes>
   <note color="#000000" default-x="73" default-y="5">
    <pitch>
     <step>G</step>
     <octave>4</octave>
    </pitch>
    <duration>256</duration>
    <instrument id="P1-I1" />
    <voice>1</voice>
    <type>quarter</type>
    
    <staff>1</staff>
   </note>
   <harmony color="#000000" default-y="25">
    <root>
     <root-step>G</root-step>
    </root>
    <kind>minor</kind>
    <staff>1</staff>
   </harmony>
   <note color="#000000" default-x="131" default-y="2">
    <pitch>
     <step>G</step>
     <octave>4</octave>
    </pitch>
    <duration>128</duration>
    <instrument id="P1-I1" />
    <voice>1</voice>
    <type>eighth</type>
    
    <staff>1</staff>
    <beam number="1">begin</beam>
   </note>
   <note color="#000000" default-x="172" default-y="2">
    <pitch>
     <step>G</step>
     <octave>4</octave>
    </pitch>
    <duration>128</duration>
    <instrument id="P1-I1" />
    <voice>1</voice>
    <type>eighth</type>
    
    <staff>1</staff>
    <beam number="1">end</beam>
   </note>
   <note color="#000000" default-x="214" default-y="5">
    <pitch>
     <step>G</step>
     <octave>4</octave>
    </pitch>
    <duration>170</duration>
    <instrument id="P1-I1" />
    <voice>1</voice>
    <type>quarter</type>
    <time-modification>
     <actual-notes>3</actual-notes>
     <normal-notes>2</normal-notes>
     <normal-type>quarter</normal-type>
    </time-modification>
    
    <staff>1</staff>
    <notations>
     <tuplet type="start" bracket="yes" number="1" default-y="17" placement="above" />
    </notations>
   </note>
   <note color="#000000" default-x="260">
    <pitch>
     <step>F</step>
     <octave>4</octave>
    </pitch>
    <duration>171</duration>
    <instrument id="P1-I1" />
    <voice>1</voice>
    <type>quarter</type>
    <time-modification>
     <actual-notes>3</actual-notes>
     <normal-notes>2</normal-notes>
     <normal-type>quarter</normal-type>
    </time-modification>
    
    <staff>1</staff>
   </note>
   <note color="#000000" default-x="306" default-y="-5">
    <pitch>
     <step>E</step>
     <octave>4</octave>
    </pitch>
    <duration>171</duration>
    <instrument id="P1-I1" />
    <voice>1</voice>
    <type>quarter</type>
    <time-modification>
     <actual-notes>3</actual-notes>
     <normal-notes>2</normal-notes>
     <normal-type>quarter</normal-type>
    </time-modification>
    
    <staff>1</staff>
    <notations>
     <tuplet type="stop" bracket="yes" number="1" default-y="17" placement="above" />
    </notations>
   </note>
  </measure>
  <!--============== Part: P1, Measure: 18 ==============-->
  <measure number="18" width="294">
   <harmony color="#000000" default-y="25">
    <root>
     <root-step>D</root-step>
    </root>
    <kind>minor</kind>
    <staff>1</staff>
   </harmony>
   <note color="#000000" default-x="15">
    <pitch>
     <step>F</step>
     <octave>4</octave>
    </pitch>
    <duration>256</duration>
    <instrument id="P1-I1" />
    <voice>1</voice>
    <type>quarter</type>
    
    <staff>1</staff>
   </note>
   <note color="#000000" default-x="72">
    <pitch>
     <step>F</step>
     <octave>4</octave>
    </pitch>
    <duration>128</duration>
    <instrument id="P1-I1" />
    <voice>1</voice>
    <type>eighth</type>
    
    <staff>1</staff>
    <beam number="1">begin</beam>
   </note>
   <note color="#000000" default-x="114">
    <pitch>
     <step>F</step>
     <octave>4</octave>
    </pitch>
    <duration>128</duration>
    <instrument id="P1-I1" />
    <voice>1</voice>
    <type>eighth</type>
    
    <staff>1</staff>
    <beam number="1">end</beam>
   </note>
   <note color="#000000" default-x="155">
    <pitch>
     <step>F</step>
     <octave>4</octave>
    </pitch>
    <duration>170</duration>
    <instrument id="P1-I1" />
    <voice>1</voice>
    <type>quarter</type>
    <time-modification>
     <actual-notes>3</actual-notes>
     <normal-notes>2</normal-notes>
     <normal-type>quarter</normal-type>
    </time-modification>
    
    <staff>1</staff>
    <notations>
     <tuplet type="start" bracket="yes" number="1" default-y="12" placement="above" />
    </notations>
   </note>
   <note color="#000000" default-x="201" default-y="-5">
    <pitch>
     <step>E</step>
     <octave>4</octave>
    </pitch>
    <duration>171</duration>
    <instrument id="P1-I1" />
    <voice>1</voice>
    <type>quarter</type>
    <time-modification>
     <actual-notes>3</actual-notes>
     <normal-notes>2</normal-notes>
     <normal-type>quarter</normal-type>
    </time-modification>
    
    <staff>1</staff>
   </note>
   <note color="#000000" default-x="248" default-y="-10">
    <pitch>
     <step>D</step>
     <octave>4</octave>
    </pitch>
    <duration>171</duration>
    <instrument id="P1-I1" />
    <voice>1</voice>
    <type>quarter</type>
    <time-modification>
     <actual-notes>3</actual-notes>
     <normal-notes>2</normal-notes>
     <normal-type>quarter</normal-type>
    </time-modification>
    
    <staff>1</staff>
    <notations>
     <tuplet type="stop" bracket="yes" number="1" default-y="12" placement="above" />
    </notations>
   </note>
  </measure>
  <!--============== Part: P1, Measure: 19 ==============-->
  <measure number="19" width="292">
   <harmony color="#000000" default-y="25">
    <root>
     <root-step>A</root-step>
    </root>
    <kind>dominant</kind>
    <staff>1</staff>
   </harmony>
   <note color="#000000" default-x="15" default-y="-5">
    <pitch>
     <step>E</step>
     <octave>4</octave>
    </pitch>
    <duration>170</duration>
    <instrument id="P1-I1" />
    <voice>1</voice>
    <type>quarter</type>
    <time-modification>
     <actual-notes>3</actual-notes>
     <normal-notes>2</normal-notes>
     <normal-type>quarter</normal-type>
    </time-modification>
    
    <staff>1</staff>
    <notations>
     <tuplet type="start" bracket="yes" number="1" default-y="12" placement="above" />
    </notations>
   </note>
   <note color="#000000" default-x="61" default-y="-5">
    <pitch>
     <step>E</step>
     <octave>4</octave>
    </pitch>
    <duration>171</duration>
    <instrument id="P1-I1" />
    <voice>1</voice>
    <type>quarter</type>
    <time-modification>
     <actual-notes>3</actual-notes>
     <normal-notes>2</normal-notes>
     <normal-type>quarter</normal-type>
    </time-modification>
    
    <staff>1</staff>
   </note>
   <note color="#000000" default-x="107" default-y="-5">
    <pitch>
     <step>E</step>
     <octave>4</octave>
    </pitch>
    <duration>171</duration>
    <instrument id="P1-I1" />
    <voice>1</voice>
    <type>quarter</type>
    <time-modification>
     <actual-notes>3</actual-notes>
     <normal-notes>2</normal-notes>
     <normal-type>quarter</normal-type>
    </time-modification>
    
    <staff>1</staff>
    <notations>
     <tuplet type="stop" bracket="yes" number="1" default-y="12" placement="above" />
    </notations>
   </note>
   <harmony color="#000000" default-y="25">
    <root>
     <root-step>G</root-step>
    </root>
    <kind>minor-sixth</kind>
    <staff>1</staff>
   </harmony>
   <note color="#000000" default-x="153" default-y="-5">
    <pitch>
     <step>E</step>
     <octave>4</octave>
    </pitch>
    <duration>170</duration>
    <instrument id="P1-I1" />
    <voice>1</voice>
    <type>quarter</type>
    <time-modification>
     <actual-notes>3</actual-notes>
     <normal-notes>2</normal-notes>
     <normal-type>quarter</normal-type>
    </time-modification>
    
    <staff>1</staff>
    <notations>
     <tuplet type="start" bracket="yes" number="1" default-y="12" placement="above" />
    </notations>
   </note>
   <note color="#000000" default-x="200">
    <pitch>
     <step>F</step>
     <octave>4</octave>
    </pitch>
    <duration>171</duration>
    <instrument id="P1-I1" />
    <voice>1</voice>
    <type>quarter</type>
    <time-modification>
     <actual-notes>3</actual-notes>
     <normal-notes>2</normal-notes>
     <normal-type>quarter</normal-type>
    </time-modification>
    
    <staff>1</staff>
   </note>
   <note color="#000000" default-x="246" default-y="5">
    <pitch>
     <step>G</step>
     <octave>4</octave>
    </pitch>
    <duration>171</duration>
    <instrument id="P1-I1" />
    <voice>1</voice>
    <type>quarter</type>
    <time-modification>
     <actual-notes>3</actual-notes>
     <normal-notes>2</normal-notes>
     <normal-type>quarter</normal-type>
    </time-modification>
    
    <staff>1</staff>
    <notations>
     <tuplet type="stop" bracket="yes" number="1" default-y="12" placement="above" />
    </notations>
   </note>
  </measure>
  <!--============== Part: P1, Measure: 20 ==============-->
  <measure number="20" width="149">
   <harmony color="#000000" default-y="25">
    <root>
     <root-step>D</root-step>
    </root>
    <kind>minor</kind>
    <staff>1</staff>
   </harmony>
   <note color="#000000" default-x="15">
    <pitch>
     <step>A</step>
     <octave>4</octave>
    </pitch>
    <duration>1024</duration>
    <instrument id="P1-I1" />
    <voice>1</voice>
    <type>whole</type>
    <staff>1</staff>
   </note>
  </measure>
  <!--============== Part: P1, Measure: 21 ==============-->
  <measure number="21" width="335">
   <print new-system="yes">
    <system-layout>
     <system-margins>
      <left-margin>22</left-margin>
      <right-margin>0</right-margin>
     </system-margins>
     <system-distance>140</system-distance>
    </system-layout>
   </print>
   <attributes>
    <staff-details number="1" print-object="yes" />
   </attributes>
   <harmony color="#000000" default-y="25">
    <root>
     <root-step>G</root-step>
    </root>
    <kind>minor</kind>
    <staff>1</staff>
   </harmony>
   <note color="#000000" default-x="73" default-y="5">
    <pitch>
     <step>G</step>
     <octave>4</octave>
    </pitch>
    <duration>256</duration>
    <instrument id="P1-I1" />
    <voice>1</voice>
    <type>quarter</type>
    
    <staff>1</staff>
   </note>
   <note color="#000000" default-x="127" default-y="2">
    <pitch>
     <step>G</step>
     <octave>4</octave>
    </pitch>
    <duration>128</duration>
    <instrument id="P1-I1" />
    <voice>1</voice>
    <type>eighth</type>
    
    <staff>1</staff>
    <beam number="1">begin</beam>
   </note>
   <note color="#000000" default-x="166" default-y="2">
    <pitch>
     <step>G</step>
     <octave>4</octave>
    </pitch>
    <duration>128</duration>
    <instrument id="P1-I1" />
    <voice>1</voice>
    <type>eighth</type>
    
    <staff>1</staff>
    <beam number="1">end</beam>
   </note>
   <note color="#000000" default-x="205" default-y="5">
    <pitch>
     <step>G</step>
     <octave>4</octave>
    </pitch>
    <duration>170</duration>
    <instrument id="P1-I1" />
    <voice>1</voice>
    <type>quarter</type>
    <time-modification>
     <actual-notes>3</actual-notes>
     <normal-notes>2</normal-notes>
     <normal-type>quarter</normal-type>
    </time-modification>
    
    <staff>1</staff>
    <notations>
     <tuplet type="start" bracket="yes" number="1" default-y="17" placement="above" />
    </notations>
   </note>
   <note color="#000000" default-x="249">
    <pitch>
     <step>F</step>
     <octave>4</octave>
    </pitch>
    <duration>171</duration>
    <instrument id="P1-I1" />
    <voice>1</voice>
    <type>quarter</type>
    <time-modification>
     <actual-notes>3</actual-notes>
     <normal-notes>2</normal-notes>
     <normal-type>quarter</normal-type>
    </time-modification>
    
    <staff>1</staff>
   </note>
   <note color="#000000" default-x="292" default-y="-5">
    <pitch>
     <step>E</step>
     <octave>4</octave>
    </pitch>
    <duration>171</duration>
    <instrument id="P1-I1" />
    <voice>1</voice>
    <type>quarter</type>
    <time-modification>
     <actual-notes>3</actual-notes>
     <normal-notes>2</normal-notes>
     <normal-type>quarter</normal-type>
    </time-modification>
    
    <staff>1</staff>
    <notations>
     <tuplet type="stop" bracket="yes" number="1" default-y="17" placement="above" />
    </notations>
   </note>
  </measure>
  <!--============== Part: P1, Measure: 22 ==============-->
  <measure number="22" width="277">
   <harmony color="#000000" default-y="25">
    <root>
     <root-step>D</root-step>
    </root>
    <kind>minor</kind>
    <staff>1</staff>
   </harmony>
   <note color="#000000" default-x="15">
    <pitch>
     <step>F</step>
     <octave>4</octave>
    </pitch>
    <duration>256</duration>
    <instrument id="P1-I1" />
    <voice>1</voice>
    <type>quarter</type>
    
    <staff>1</staff>
   </note>
   <note color="#000000" default-x="69">
    <pitch>
     <step>F</step>
     <octave>4</octave>
    </pitch>
    <duration>128</duration>
    <instrument id="P1-I1" />
    <voice>1</voice>
    <type>eighth</type>
    
    <staff>1</staff>
    <beam number="1">begin</beam>
   </note>
   <note color="#000000" default-x="108">
    <pitch>
     <step>F</step>
     <octave>4</octave>
    </pitch>
    <duration>128</duration>
    <instrument id="P1-I1" />
    <voice>1</voice>
    <type>eighth</type>
    
    <staff>1</staff>
    <beam number="1">end</beam>
   </note>
   <note color="#000000" default-x="147">
    <pitch>
     <step>F</step>
     <octave>4</octave>
    </pitch>
    <duration>170</duration>
    <instrument id="P1-I1" />
    <voice>1</voice>
    <type>quarter</type>
    <time-modification>
     <actual-notes>3</actual-notes>
     <normal-notes>2</normal-notes>
     <normal-type>quarter</normal-type>
    </time-modification>
    
    <staff>1</staff>
    <notations>
     <tuplet type="start" bracket="yes" number="1" default-y="12" placement="above" />
    </notations>
   </note>
   <note color="#000000" default-x="190" default-y="-5">
    <pitch>
     <step>E</step>
     <octave>4</octave>
    </pitch>
    <duration>171</duration>
    <instrument id="P1-I1" />
    <voice>1</voice>
    <type>quarter</type>
    <time-modification>
     <actual-notes>3</actual-notes>
     <normal-notes>2</normal-notes>
     <normal-type>quarter</normal-type>
    </time-modification>
    
    <staff>1</staff>
   </note>
   <note color="#000000" default-x="234" default-y="-10">
    <pitch>
     <step>D</step>
     <octave>4</octave>
    </pitch>
    <duration>171</duration>
    <instrument id="P1-I1" />
    <voice>1</voice>
    <type>quarter</type>
    <time-modification>
     <actual-notes>3</actual-notes>
     <normal-notes>2</normal-notes>
     <normal-type>quarter</normal-type>
    </time-modification>
    
    <staff>1</staff>
    <notations>
     <tuplet type="stop" bracket="yes" number="1" default-y="12" placement="above" />
    </notations>
   </note>
  </measure>
  <!--============== Part: P1, Measure: 23 ==============-->
  <measure number="23" width="275">
   <harmony color="#000000" default-y="25">
    <root>
     <root-step>E</root-step>
    </root>
    <kind>dominant</kind>
    <staff>1</staff>
   </harmony>
   <note color="#000000" default-x="15" default-y="-5">
    <pitch>
     <step>E</step>
     <octave>4</octave>
    </pitch>
    <duration>170</duration>
    <instrument id="P1-I1" />
    <voice>1</voice>
    <type>quarter</type>
    <time-modification>
     <actual-notes>3</actual-notes>
     <normal-notes>2</normal-notes>
     <normal-type>quarter</normal-type>
    </time-modification>
    
    <staff>1</staff>
    <notations>
     <tuplet type="start" bracket="yes" number="1" default-y="12" placement="above" />
    </notations>
   </note>
   <note color="#000000" default-x="58" default-y="-5">
    <pitch>
     <step>E</step>
     <octave>4</octave>
    </pitch>
    <duration>171</duration>
    <instrument id="P1-I1" />
    <voice>1</voice>
    <type>quarter</type>
    <time-modification>
     <actual-notes>3</actual-notes>
     <normal-notes>2</normal-notes>
     <normal-type>quarter</normal-type>
    </time-modification>
    
    <staff>1</staff>
   </note>
   <note color="#000000" default-x="101" default-y="-5">
    <pitch>
     <step>E</step>
     <octave>4</octave>
    </pitch>
    <duration>171</duration>
    <instrument id="P1-I1" />
    <voice>1</voice>
    <type>quarter</type>
    <time-modification>
     <actual-notes>3</actual-notes>
     <normal-notes>2</normal-notes>
     <normal-type>quarter</normal-type>
    </time-modification>
    
    <staff>1</staff>
    <notations>
     <tuplet type="stop" bracket="yes" number="1" default-y="12" placement="above" />
    </notations>
   </note>
   <harmony color="#000000" default-y="25">
    <root>
     <root-step>B</root-step>
     <root-alter>-1</root-alter>
    </root>
    <kind>dominant</kind>
    <staff>1</staff>
   </harmony>
   <note color="#000000" default-x="145">
    <pitch>
     <step>F</step>
     <octave>4</octave>
    </pitch>
    <duration>170</duration>
    <instrument id="P1-I1" />
    <voice>1</voice>
    <type>quarter</type>
    <time-modification>
     <actual-notes>3</actual-notes>
     <normal-notes>2</normal-notes>
     <normal-type>quarter</normal-type>
    </time-modification>
    
    <staff>1</staff>
    <notations>
     <tuplet type="start" bracket="yes" number="1" default-y="12" placement="above" />
    </notations>
   </note>
   <note color="#000000" default-x="188">
    <pitch>
     <step>F</step>
     <octave>4</octave>
    </pitch>
    <duration>171</duration>
    <instrument id="P1-I1" />
    <voice>1</voice>
    <type>quarter</type>
    <time-modification>
     <actual-notes>3</actual-notes>
     <normal-notes>2</normal-notes>
     <normal-type>quarter</normal-type>
    </time-modification>
    
    <staff>1</staff>
   </note>
   <note color="#000000" default-x="231">
    <pitch>
     <step>F</step>
     <octave>4</octave>
    </pitch>
    <duration>171</duration>
    <instrument id="P1-I1" />
    <voice>1</voice>
    <type>quarter</type>
    <time-modification>
     <actual-notes>3</actual-notes>
     <normal-notes>2</normal-notes>
     <normal-type>quarter</normal-type>
    </time-modification>
    
    <staff>1</staff>
    <notations>
     <tuplet type="stop" bracket="yes" number="1" default-y="12" placement="above" />
    </notations>
   </note>
  </measure>
  <!--============== Part: P1, Measure: 24 ==============-->
  <measure number="24" width="153">
   <harmony color="#000000" default-y="25">
    <root>
     <root-step>A</root-step>
    </root>
    <kind>dominant</kind>
    <staff>1</staff>
   </harmony>
   <direction>
    <direction-type>
     <words default-y="18" justify="right" valign="middle" font-family="Palatino" font-style="normal" font-size="13.125" font-weight="bold">D.C. al Fine</words>
    </direction-type>
    <offset sound="no">1023</offset>
    <voice>1</voice>
    <staff>1</staff>
    <sound dacapo="yes">
     <offset>1</offset>
    </sound>
   </direction>
   <note color="#000000" default-x="15">
    <pitch>
     <step>E</step>
     <octave>4</octave>
    </pitch>
    <duration>1024</duration>
    <instrument id="P1-I1" />
    <voice>1</voice>
    <type>whole</type>
    <staff>1</staff>
   </note>
   <barline>
    <bar-style>light-light</bar-style>
   </barline>
  </measure>
 </part>
</score-partwise>
