<?xml version="1.0" encoding='UTF-8' standalone='no' ?> <!DOCTYPE score-partwise PUBLIC "-//Recordare//DTD MusicXML 3.0 Partwise//EN" "http://www.musicxml.org/dtds/partwise.dtd"> <score-partwise version="3.0">  <work>   <work-title>O Grande Amor</work-title>  </work>  <identification>   <creator type="composer">1963 - Antonio Carlos Jobim / Vinicius DeMoraes</creator>   <rights>www.realbook.site</rights>   <encoding>    <encoding-date>2023-04-24</encoding-date>    <encoder>mosco</encoder>    <software>Sibelius 22.9.0</software>    <software>Direct export, not from Dolet</software>    <encoding-description>Sibelius / MusicXML 3.0</encoding-description>    <supports element="print" type="yes" value="yes" attribute="new-system" />    <supports element="print" type="yes" value="yes" attribute="new-page" />    <supports element="accidental" type="yes" />    <supports element="beam" type="yes" />    <supports element="stem" type="yes" />   </encoding>  </identification>  <defaults>   <scaling>    <millimeters>210</millimeters>    <tenths>1200</tenths>   </scaling>   <page-layout>    <page-height>1697</page-height>    <page-width>1200</page-width>    <page-margins type="both">     <left-margin>72</left-margin>     <right-margin>72</right-margin>     <top-margin>72</top-margin>     <bottom-margin>72</bottom-margin>    </page-margins>   </page-layout>   <system-layout>    <system-margins>     <left-margin>22</left-margin>     <right-margin>0</right-margin>    </system-margins>    <system-distance>92</system-distance>   </system-layout>   <appearance>    <line-width type="stem">0.9375</line-width>    <line-width type="beam">5</line-width>    <line-width type="staff">0.9375</line-width>    <line-width type="light barline">1.5625</line-width>    <line-width type="heavy barline">5</line-width>    <line-width type="leger">1.5625</line-width>    <line-width type="ending">1.5625</line-width>    <line-width type="wedge">1.25</line-width>    <line-width type="enclosure">0.9375</line-width>    <line-width type="tuplet bracket">1.25</line-width>    <line-width type="bracket">5</line-width>    <line-width type="dashes">1.5625</line-width>    <line-width type="extend">0.9375</line-width>    <line-width type="octave shift">1.5625</line-width>    <line-width type="pedal">1.5625</line-width>    <line-width type="slur middle">1.5625</line-width>    <line-width type="slur tip">0.625</line-width>    <line-width type="tie middle">1.5625</line-width>    <line-width type="tie tip">0.625</line-width>    <note-size type="cue">75</note-size>    <note-size type="grace">60</note-size>   </appearance>   <music-font font-family="Opus Std" font-size="19.8425" />   <word-font font-family="Plantin MT Std" font-size="11.9365" />   <lyric-font font-family="Plantin MT Std" font-size="11.4715" />   <lyric-language xml:lang="en" />  </defaults>  <credit page="1">   <credit-words default-x="600" default-y="155" font-family="Plantin MT Std" font-style="normal" font-size="22.0128" font-weight="normal" justify="center" valign="middle">O Grande Amor</credit-words>  </credit>  <credit page="1">   <credit-words default-x="1127" default-y="84" font-family="Plantin MT Std" font-style="normal" font-size="11.0064" font-weight="normal" justify="right" valign="middle">1963 - Antonio Carlos Jobim / Vinicius DeMoraes</credit-words>  </credit>  <credit page="1">   <credit-words default-x="600" default-y="72" font-family="Plantin MT Std" font-style="normal" font-size="10.0763" font-weight="normal" justify="center" valign="middle">www.realbook.site</credit-words>  </credit>  <part-list>   <score-part id="P1">    <identification>     <miscellaneous>      <miscellaneous-field name="show-rhythms">false</miscellaneous-field>     </miscellaneous>    </identification>    <part-name> </part-name>    <part-name-display>     <display-text> </display-text>    </part-name-display>    <part-abbreviation> </part-abbreviation>    <part-abbreviation-display>     <display-text> </display-text>    </part-abbreviation-display>    <score-instrument id="P1-I1">     <instrument-name> </instrument-name>     <virtual-instrument>      <virtual-library>General MIDI</virtual-library>      <virtual-name>Bright Piano</virtual-name>     </virtual-instrument>    </score-instrument>   </score-part>  </part-list>  <part id="P1">   <!--============== Part: P1, Measure: 1 ==============-->   <measure number="1" width="267">    <print new-page="yes">     <system-layout>      <system-margins>       <left-margin>22</left-margin>       <right-margin>0</right-margin>      </system-margins>      <top-system-distance>218</top-system-distance>     </system-layout>    </print>    <attributes>     <divisions>256</divisions>     <key color="#000000">      <fifths>0</fifths>      <mode>minor</mode>     </key>     <time color="#000000">      <beats>4</beats>      <beat-type>4</beat-type>     </time>     <staves>1</staves>     <clef number="1" color="#000000">      <sign>G</sign>      <line>2</line>     </clef>     <staff-details number="1" print-object="yes" />    </attributes>    <harmony color="#000000" default-y="25">     <root>      <root-step>A</root-step>     </root>     <kind>minor-seventh</kind>     <staff>1</staff>    </harmony>    <note color="#000000" default-x="76" default-y="-25">     <pitch>      <step>A</step>      <octave>5</octave>     </pitch>     <duration>768</duration>     <instrument id="P1-I1" />     <voice>1</voice>     <type>half</type>     <dot />         <staff>1</staff>    </note>    <note color="#000000" default-x="204" default-y="-35">     <pitch>      <step>F</step>      <octave>5</octave>     </pitch>     <duration>256</duration>     <instrument id="P1-I1" />     <voice>1</voice>     <type>quarter</type>         <staff>1</staff>    </note>   </measure>   <!--============== Part: P1, Measure: 2 ==============-->   <measure number="2" width="277">    <harmony color="#000000" default-y="25">     <root>      <root-step>E</root-step>     </root>     <kind>dominant</kind>     <bass>      <bass-step>G</bass-step>      <bass-alter>1</bass-alter>     </bass>     <degree>      <degree-value>9</degree-value>      <degree-alter>-1</degree-alter>      <degree-type>add</degree-type>     </degree>     <staff>1</staff>    </harmony>    <note color="#000000" default-x="15" default-y="-40">     <pitch>      <step>E</step>      <octave>5</octave>     </pitch>     <duration>512</duration>     <tie type="start" />     <instrument id="P1-I1" />     <voice>1</voice>     <type>half</type>         <staff>1</staff>     <notations>      <tied type="start" orientation="over" />     </notations>    </note>    <note color="#000000" default-x="122" default-y="-40">     <pitch>      <step>E</step>      <octave>5</octave>     </pitch>     <duration>128</duration>     <tie type="stop" />     <instrument id="P1-I1" />     <voice>1</voice>     <type>eighth</type>         <staff>1</staff>     <notations>      <tied type="stop" orientation="over" />     </notations>    </note>    <note color="#000000" default-x="168" default-y="-45">     <pitch>      <step>D</step>      <octave>5</octave>     </pitch>     <duration>256</duration>     <instrument id="P1-I1" />     <voice>1</voice>     <type>quarter</type>         <staff>1</staff>    </note>    <note color="#000000" default-x="231" default-y="-50">     <pitch>      <step>C</step>      <octave>5</octave>     </pitch>     <duration>128</duration>     <tie type="start" />     <instrument id="P1-I1" />     <voice>1</voice>     <type>eighth</type>         <staff>1</staff>     <notations>      <tied type="start" orientation="over" />     </notations>    </note>   </measure>   <!--============== Part: P1, Measure: 3 ==============-->   <measure number="3" width="163">    <harmony color="#000000" default-y="25">     <root>      <root-step>G</root-step>     </root>     <kind>minor-seventh</kind>     <staff>1</staff>    </harmony>    <note color="#000000" default-x="15">     <pitch>      <step>C</step>      <octave>5</octave>     </pitch>     <duration>1024</duration>     <tie type="stop" />     <instrument id="P1-I1" />     <voice>1</voice>     <type>whole</type>     <staff>1</staff>     <notations>      <tied type="stop" orientation="over" />     </notations>    </note>   </measure>   <!--============== Part: P1, Measure: 4 ==============-->   <measure number="4" width="325">    <harmony color="#000000" default-y="25">     <root>      <root-step>C</root-step>     </root>     <kind>dominant</kind>     <staff>1</staff>    </harmony>    <note default-x="15">     <rest />     <duration>256</duration>     <instrument id="P1-I1" />     <voice>1</voice>     <type>quarter</type>     <staff>1</staff>    </note>    <note color="#000000" default-x="78" default-y="-49">     <pitch>      <step>D</step>      <octave>5</octave>     </pitch>     <duration>128</duration>     <instrument id="P1-I1" />     <voice>1</voice>     <type>eighth</type>         <staff>1</staff>     <beam number="1">begin</beam>    </note>    <note color="#000000" default-x="124" default-y="-49">     <pitch>      <step>C</step>      <octave>5</octave>     </pitch>     <duration>128</duration>     <tie type="start" />     <instrument id="P1-I1" />     <voice>1</voice>     <type>eighth</type>         <staff>1</staff>     <beam number="1">end</beam>     <notations>      <tied type="start" orientation="over" />     </notations>    </note>    <note color="#000000" default-x="170" default-y="-50">     <pitch>      <step>C</step>      <octave>5</octave>     </pitch>     <duration>128</duration>     <tie type="stop" />     <instrument id="P1-I1" />     <voice>1</voice>     <type>eighth</type>         <staff>1</staff>     <notations>      <tied type="stop" orientation="over" />     </notations>    </note>    <note color="#000000" default-x="215" default-y="-45">     <pitch>      <step>D</step>      <octave>5</octave>     </pitch>     <duration>256</duration>     <instrument id="P1-I1" />     <voice>1</voice>     <type>quarter</type>         <staff>1</staff>    </note>    <note color="#000000" default-x="279" default-y="-55">     <pitch>      <step>B</step>      <octave>4</octave>     </pitch>     <duration>128</duration>     <tie type="start" />     <instrument id="P1-I1" />     <voice>1</voice>     <type>eighth</type>         <staff>1</staff>     <notations>      <tied type="start" orientation="over" />     </notations>    </note>   </measure>   <!--============== Part: P1, Measure: 5 ==============-->   <measure number="5" width="271">    <print new-system="yes">     <system-layout>      <system-margins>       <left-margin>22</left-margin>       <right-margin>0</right-margin>      </system-margins>      <system-distance>135</system-distance>     </system-layout>    </print>    <attributes>     <staff-details number="1" print-object="yes" />    </attributes>    <harmony color="#000000" default-y="25">     <root>      <root-step>B</root-step>     </root>     <kind>half-diminished</kind>     <staff>1</staff>    </harmony>    <note color="#000000" default-x="57" default-y="-55">     <pitch>      <step>B</step>      <octave>4</octave>     </pitch>     <duration>512</duration>     <tie type="stop" />     <instrument id="P1-I1" />     <voice>1</voice>     <type>half</type>         <staff>1</staff>     <notations>      <tied type="stop" orientation="over" />     </notations>    </note>    <note color="#000000" default-x="164" default-y="-50">     <pitch>      <step>C</step>      <octave>5</octave>     </pitch>     <duration>512</duration>     <instrument id="P1-I1" />     <voice>1</voice>     <type>half</type>         <staff>1</staff>    </note>   </measure>   <!--============== Part: P1, Measure: 6 ==============-->   <measure number="6" width="299">    <harmony color="#000000" default-y="25">     <root>      <root-step>E</root-step>     </root>     <kind>dominant</kind>     <degree>      <degree-value>9</degree-value>      <degree-alter>1</degree-alter>      <degree-type>add</degree-type>     </degree>     <staff>1</staff>    </harmony>    <note color="#000000" default-x="15" default-y="-55">     <pitch>      <step>B</step>      <octave>4</octave>     </pitch>     <duration>384</duration>     <instrument id="P1-I1" />     <voice>1</voice>     <type>quarter</type>     <dot />         <staff>1</staff>    </note>    <note color="#000000" default-x="99" default-y="-55">     <pitch>      <step>B</step>      <octave>4</octave>     </pitch>     <duration>128</duration>     <tie type="start" />     <instrument id="P1-I1" />     <voice>1</voice>     <type>eighth</type>         <staff>1</staff>     <notations>      <tied type="start" orientation="over" />     </notations>    </note>    <note color="#000000" default-x="145" default-y="-55">     <pitch>      <step>B</step>      <octave>4</octave>     </pitch>     <duration>128</duration>     <tie type="stop" />     <instrument id="P1-I1" />     <voice>1</voice>     <type>eighth</type>         <staff>1</staff>     <notations>      <tied type="stop" orientation="over" />     </notations>    </note>    <note color="#000000" default-x="190" default-y="-45">     <pitch>      <step>D</step>      <octave>5</octave>     </pitch>     <duration>256</duration>     <instrument id="P1-I1" />     <voice>1</voice>     <type>quarter</type>         <staff>1</staff>    </note>    <note color="#000000" default-x="254" default-y="-50">     <pitch>      <step>C</step>      <octave>5</octave>     </pitch>     <duration>128</duration>     <tie type="start" />     <instrument id="P1-I1" />     <voice>1</voice>     <type>eighth</type>         <staff>1</staff>     <notations>      <tied type="start" orientation="over" />     </notations>    </note>   </measure>   <!--============== Part: P1, Measure: 7 ==============-->   <measure number="7" width="275">    <harmony color="#000000" default-y="25">     <root>      <root-step>A</root-step>     </root>     <kind>minor-seventh</kind>     <staff>1</staff>    </harmony>    <note color="#000000" default-x="15" default-y="-50">     <pitch>      <step>C</step>      <octave>5</octave>     </pitch>     <duration>128</duration>     <tie type="stop" />     <instrument id="P1-I1" />     <voice>1</voice>     <type>eighth</type>         <staff>1</staff>     <notations>      <tied type="stop" orientation="over" />     </notations>    </note>    <note color="#000000" default-x="60" default-y="-50">     <pitch>      <step>C</step>      <octave>5</octave>     </pitch>     <duration>256</duration>     <instrument id="P1-I1" />     <voice>1</voice>     <type>quarter</type>         <staff>1</staff>    </note>    <note color="#000000" default-x="123" default-y="-50">     <pitch>      <step>C</step>      <octave>5</octave>     </pitch>     <duration>128</duration>     <tie type="start" />     <instrument id="P1-I1" />     <voice>1</voice>     <type>eighth</type>         <staff>1</staff>     <notations>      <tied type="start" orientation="over" />     </notations>    </note>    <note color="#000000" default-x="169" default-y="-50">     <pitch>      <step>C</step>      <octave>5</octave>     </pitch>     <duration>512</duration>     <tie type="stop" />     <instrument id="P1-I1" />     <voice>1</voice>     <type>half</type>         <staff>1</staff>     <notations>      <tied type="stop" orientation="over" />     </notations>    </note>   </measure>   <!--============== Part: P1, Measure: 8 ==============-->   <measure number="8" width="186">    <harmony color="#000000" default-y="25">     <root>      <root-step>A</root-step>     </root>     <kind>dominant</kind>     <degree>      <degree-value>9</degree-value>      <degree-alter>1</degree-alter>      <degree-type>add</degree-type>     </degree>     <staff>1</staff>    </harmony>    <note>     <rest />     <duration>1024</duration>     <instrument id="P1-I1" />     <voice>1</voice>     <type>whole</type>     <staff>1</staff>    </note>    <barline>     <bar-style>light-light</bar-style>    </barline>   </measure>   <!--============== Part: P1, Measure: 9 ==============-->   <measure number="9" width="231">    <print new-system="yes">     <system-layout>      <system-margins>       <left-margin>22</left-margin>       <right-margin>0</right-margin>      </system-margins>      <system-distance>134</system-distance>     </system-layout>    </print>    <attributes>     <staff-details number="1" print-object="yes" />    </attributes>    <harmony color="#000000" default-y="25">     <root>      <root-step>D</root-step>     </root>     <kind>minor-seventh</kind>     <staff>1</staff>    </harmony>    <note color="#000000" default-x="57" default-y="-45">     <pitch>      <step>D</step>      <octave>5</octave>     </pitch>     <duration>768</duration>     <instrument id="P1-I1" />     <voice>1</voice>     <type>half</type>     <dot />         <staff>1</staff>    </note>    <note color="#000000" default-x="173" default-y="-25">     <pitch>      <step>A</step>      <octave>5</octave>     </pitch>     <duration>256</duration>     <instrument id="P1-I1" />     <voice>1</voice>     <type>quarter</type>         <staff>1</staff>    </note>   </measure>   <!--============== Part: P1, Measure: 10 ==============-->   <measure number="10" width="253">    <harmony color="#000000" default-y="25">     <root>      <root-step>G</root-step>     </root>     <kind>dominant</kind>     <staff>1</staff>    </harmony>    <note color="#000000" default-x="15" default-y="-30">     <pitch>      <step>G</step>      <octave>5</octave>     </pitch>     <duration>512</duration>     <tie type="start" />     <instrument id="P1-I1" />     <voice>1</voice>     <type>half</type>         <staff>1</staff>     <notations>      <tied type="start" orientation="over" />     </notations>    </note>    <note color="#000000" default-x="112" default-y="-30">     <pitch>      <step>G</step>      <octave>5</octave>     </pitch>     <duration>128</duration>     <tie type="stop" />     <instrument id="P1-I1" />     <voice>1</voice>     <type>eighth</type>         <staff>1</staff>     <notations>      <tied type="stop" orientation="over" />     </notations>    </note>    <note color="#000000" default-x="154" default-y="-35">     <pitch>      <step>F</step>      <octave>5</octave>     </pitch>     <duration>256</duration>     <instrument id="P1-I1" />     <voice>1</voice>     <type>quarter</type>         <staff>1</staff>    </note>    <note color="#000000" default-x="211" default-y="-40">     <pitch>      <step>E</step>      <octave>5</octave>     </pitch>     <duration>128</duration>     <tie type="start" />     <instrument id="P1-I1" />     <voice>1</voice>     <type>eighth</type>         <staff>1</staff>     <notations>      <tied type="start" orientation="over" />     </notations>    </note>   </measure>   <!--============== Part: P1, Measure: 11 ==============-->   <measure number="11" width="251">    <harmony color="#000000" default-y="25">     <root>      <root-step>C</root-step>     </root>     <kind>major-seventh</kind>     <staff>1</staff>    </harmony>    <note color="#000000" default-x="15" default-y="-40">     <pitch>      <step>E</step>      <octave>5</octave>     </pitch>     <duration>512</duration>     <tie type="stop" />     <instrument id="P1-I1" />     <voice>1</voice>     <type>half</type>         <staff>1</staff>     <notations>      <tied type="stop" orientation="over" />     </notations>    </note>    <note color="#000000" default-x="112" default-y="-45">     <pitch>      <step>D</step>      <octave>5</octave>     </pitch>     <duration>170</duration>     <instrument id="P1-I1" />     <voice>1</voice>     <type>quarter</type>     <time-modification>      <actual-notes>3</actual-notes>      <normal-notes>2</normal-notes>      <normal-type>quarter</normal-type>     </time-modification>         <staff>1</staff>     <notations>      <tuplet type="start" bracket="yes" number="1" default-y="-57" placement="below" />     </notations>    </note>    <note color="#000000" default-x="159" default-y="-50">     <pitch>      <step>C</step>      <octave>5</octave>     </pitch>     <duration>171</duration>     <instrument id="P1-I1" />     <voice>1</voice>     <type>quarter</type>     <time-modification>      <actual-notes>3</actual-notes>      <normal-notes>2</normal-notes>      <normal-type>quarter</normal-type>     </time-modification>         <staff>1</staff>    </note>    <note color="#000000" default-x="205" default-y="-45">     <pitch>      <step>D</step>      <octave>5</octave>     </pitch>     <duration>171</duration>     <instrument id="P1-I1" />     <voice>1</voice>     <type>quarter</type>     <time-modification>      <actual-notes>3</actual-notes>      <normal-notes>2</normal-notes>      <normal-type>quarter</normal-type>     </time-modification>         <staff>1</staff>     <notations>      <tuplet type="stop" bracket="yes" number="1" default-y="-57" placement="below" />     </notations>    </note>   </measure>   <!--============== Part: P1, Measure: 12 ==============-->   <measure number="12" width="296">    <harmony color="#000000" default-y="25">     <root>      <root-step>F</root-step>     </root>     <kind>major-seventh</kind>     <staff>1</staff>    </harmony>    <note color="#000000" default-x="15" default-y="-40">     <pitch>      <step>E</step>      <octave>5</octave>     </pitch>     <duration>128</duration>     <instrument id="P1-I1" />     <voice>1</voice>     <type>eighth</type>         <staff>1</staff>    </note>    <note color="#000000" default-x="56" default-y="-30">     <pitch>      <step>G</step>      <octave>5</octave>     </pitch>     <duration>256</duration>     <instrument id="P1-I1" />     <voice>1</voice>     <type>quarter</type>         <staff>1</staff>    </note>    <note color="#000000" default-x="114" default-y="-35">     <pitch>      <step>F</step>      <octave>5</octave>     </pitch>     <duration>128</duration>     <tie type="start" />     <instrument id="P1-I1" />     <voice>1</voice>     <type>eighth</type>         <staff>1</staff>     <notations>      <tied type="start" orientation="over" />     </notations>    </note>    <note color="#000000" default-x="155" default-y="-35">     <pitch>      <step>F</step>      <octave>5</octave>     </pitch>     <duration>128</duration>     <tie type="stop" />     <instrument id="P1-I1" />     <voice>1</voice>     <type>eighth</type>         <staff>1</staff>     <notations>      <tied type="stop" orientation="over" />     </notations>    </note>    <note color="#000000" default-x="197" default-y="-40">     <pitch>      <step>E</step>      <octave>5</octave>     </pitch>     <duration>256</duration>     <instrument id="P1-I1" />     <voice>1</voice>     <type>quarter</type>         <staff>1</staff>    </note>    <note color="#000000" default-x="255" default-y="-45">     <pitch>      <step>D</step>      <octave>5</octave>     </pitch>     <duration>128</duration>     <tie type="start" />     <instrument id="P1-I1" />     <voice>1</voice>     <type>eighth</type>         <staff>1</staff>     <notations>      <tied type="start" orientation="over" />     </notations>    </note>   </measure>   <!--============== Part: P1, Measure: 13 ==============-->   <measure number="13" width="214">    <print new-system="yes">     <system-layout>      <system-margins>       <left-margin>22</left-margin>       <right-margin>0</right-margin>      </system-margins>      <system-distance>135</system-distance>     </system-layout>    </print>    <attributes>     <staff-details number="1" print-object="yes" />    </attributes>    <harmony color="#000000" default-y="25">     <root>      <root-step>B</root-step>      <root-alter>-1</root-alter>     </root>     <kind>major-seventh</kind>     <staff>1</staff>    </harmony>    <note color="#000000" default-x="57">     <pitch>      <step>D</step>      <octave>5</octave>     </pitch>     <duration>1024</duration>     <tie type="stop" />     <instrument id="P1-I1" />     <voice>1</voice>     <type>whole</type>     <staff>1</staff>     <notations>      <tied type="stop" orientation="over" />     </notations>    </note>   </measure>   <!--============== Part: P1, Measure: 14 ==============-->   <measure number="14" width="343">    <note default-x="15">     <rest />     <duration>256</duration>     <instrument id="P1-I1" />     <voice>1</voice>     <type>quarter</type>     <staff>1</staff>    </note>    <note color="#000000" default-x="81" default-y="-39">     <pitch>      <step>F</step>      <octave>5</octave>     </pitch>     <duration>128</duration>     <instrument id="P1-I1" />     <voice>1</voice>     <type>eighth</type>         <staff>1</staff>     <beam number="1">begin</beam>    </note>    <note color="#000000" default-x="130" default-y="-39">     <pitch>      <step>E</step>      <octave>5</octave>     </pitch>     <duration>128</duration>     <tie type="start" />     <instrument id="P1-I1" />     <voice>1</voice>     <type>eighth</type>         <staff>1</staff>     <beam number="1">end</beam>     <notations>      <tied type="start" orientation="over" />     </notations>    </note>    <note color="#000000" default-x="179" default-y="-40">     <pitch>      <step>E</step>      <octave>5</octave>     </pitch>     <duration>128</duration>     <tie type="stop" />     <instrument id="P1-I1" />     <voice>1</voice>     <type>eighth</type>         <staff>1</staff>     <notations>      <tied type="stop" orientation="over" />     </notations>    </note>    <note color="#000000" default-x="227" default-y="-45">     <pitch>      <step>D</step>      <octave>5</octave>     </pitch>     <duration>256</duration>     <instrument id="P1-I1" />     <voice>1</voice>     <type>quarter</type>         <staff>1</staff>    </note>    <note color="#000000" default-x="295" default-y="-50">     <pitch>      <step>C</step>      <octave>5</octave>     </pitch>     <duration>128</duration>     <tie type="start" />     <instrument id="P1-I1" />     <voice>1</voice>     <type>eighth</type>         <staff>1</staff>     <notations>      <tied type="start" orientation="over" />     </notations>    </note>   </measure>   <!--============== Part: P1, Measure: 15 ==============-->   <measure number="15" width="290">    <harmony color="#000000" default-y="25">     <root>      <root-step>B</root-step>     </root>     <kind>half-diminished</kind>     <staff>1</staff>    </harmony>    <note color="#000000" default-x="15" default-y="-50">     <pitch>      <step>C</step>      <octave>5</octave>     </pitch>     <duration>512</duration>     <tie type="stop" />     <instrument id="P1-I1" />     <voice>1</voice>     <type>half</type>         <staff>1</staff>     <notations>      <tied type="stop" orientation="over" />     </notations>    </note>    <note color="#000000" default-x="128" default-y="-55">     <pitch>      <step>B</step>      <octave>4</octave>     </pitch>     <duration>170</duration>     <instrument id="P1-I1" />     <voice>1</voice>     <type>quarter</type>     <time-modification>      <actual-notes>3</actual-notes>      <normal-notes>2</normal-notes>      <normal-type>quarter</normal-type>     </time-modification>         <staff>1</staff>     <notations>      <tuplet type="start" bracket="yes" number="1" default-y="12" placement="above" />     </notations>    </note>    <note color="#000000" default-x="182" default-y="10">     <pitch>      <step>A</step>      <alter>1</alter>      <octave>4</octave>     </pitch>     <duration>171</duration>     <instrument id="P1-I1" />     <voice>1</voice>     <type>quarter</type>     <accidental>sharp</accidental>     <time-modification>      <actual-notes>3</actual-notes>      <normal-notes>2</normal-notes>      <normal-type>quarter</normal-type>     </time-modification>         <staff>1</staff>    </note>    <note color="#000000" default-x="236" default-y="-55">     <pitch>      <step>B</step>      <octave>4</octave>     </pitch>     <duration>171</duration>     <instrument id="P1-I1" />     <voice>1</voice>     <type>quarter</type>     <time-modification>      <actual-notes>3</actual-notes>      <normal-notes>2</normal-notes>      <normal-type>quarter</normal-type>     </time-modification>         <staff>1</staff>     <notations>      <tuplet type="stop" bracket="yes" number="1" default-y="12" placement="above" />     </notations>    </note>   </measure>   <!--============== Part: P1, Measure: 16 ==============-->   <measure number="16" width="184">    <harmony color="#000000" default-y="25">     <root>      <root-step>E</root-step>     </root>     <kind>dominant</kind>     <degree>      <degree-value>9</degree-value>      <degree-alter>1</degree-alter>      <degree-type>add</degree-type>     </degree>     <staff>1</staff>    </harmony>    <note color="#000000" default-x="15">     <pitch>      <step>D</step>      <octave>5</octave>     </pitch>     <duration>1024</duration>     <instrument id="P1-I1" />     <voice>1</voice>     <type>whole</type>     <staff>1</staff>    </note>    <barline>     <bar-style>light-light</bar-style>    </barline>   </measure>   <!--============== Part: P1, Measure: 17 ==============-->   <measure number="17" width="252">    <print new-system="yes">     <system-layout>      <system-margins>       <left-margin>22</left-margin>       <right-margin>0</right-margin>      </system-margins>      <system-distance>134</system-distance>     </system-layout>    </print>    <attributes>     <staff-details number="1" print-object="yes" />    </attributes>    <harmony color="#000000" default-y="25">     <root>      <root-step>A</root-step>     </root>     <kind>minor-seventh</kind>     <staff>1</staff>    </harmony>    <note color="#000000" default-x="57" default-y="-25">     <pitch>      <step>A</step>      <octave>5</octave>     </pitch>     <duration>768</duration>     <instrument id="P1-I1" />     <voice>1</voice>     <type>half</type>     <dot />         <staff>1</staff>    </note>    <note color="#000000" default-x="187" default-y="-35">     <pitch>      <step>F</step>      <octave>5</octave>     </pitch>     <duration>256</duration>     <instrument id="P1-I1" />     <voice>1</voice>     <type>quarter</type>         <staff>1</staff>    </note>   </measure>   <!--============== Part: P1, Measure: 18 ==============-->   <measure number="18" width="282">    <harmony color="#000000" default-y="25">     <root>      <root-step>E</root-step>     </root>     <kind>dominant</kind>     <bass>      <bass-step>G</bass-step>      <bass-alter>1</bass-alter>     </bass>     <degree>      <degree-value>9</degree-value>      <degree-alter>-1</degree-alter>      <degree-type>add</degree-type>     </degree>     <staff>1</staff>    </harmony>    <note color="#000000" default-x="15" default-y="-40">     <pitch>      <step>E</step>      <octave>5</octave>     </pitch>     <duration>512</duration>     <tie type="start" />     <instrument id="P1-I1" />     <voice>1</voice>     <type>half</type>         <staff>1</staff>     <notations>      <tied type="start" orientation="over" />     </notations>    </note>    <note color="#000000" default-x="124" default-y="-40">     <pitch>      <step>E</step>      <octave>5</octave>     </pitch>     <duration>128</duration>     <tie type="stop" />     <instrument id="P1-I1" />     <voice>1</voice>     <type>eighth</type>         <staff>1</staff>     <notations>      <tied type="stop" orientation="over" />     </notations>    </note>    <note color="#000000" default-x="171" default-y="-45">     <pitch>      <step>D</step>      <octave>5</octave>     </pitch>     <duration>256</duration>     <instrument id="P1-I1" />     <voice>1</voice>     <type>quarter</type>         <staff>1</staff>    </note>    <note color="#000000" default-x="236" default-y="-50">     <pitch>      <step>C</step>      <octave>5</octave>     </pitch>     <duration>128</duration>     <tie type="start" />     <instrument id="P1-I1" />     <voice>1</voice>     <type>eighth</type>         <staff>1</staff>     <notations>      <tied type="start" orientation="over" />     </notations>    </note>   </measure>   <!--============== Part: P1, Measure: 19 ==============-->   <measure number="19" width="166">    <harmony color="#000000" default-y="25">     <root>      <root-step>G</root-step>     </root>     <kind>minor-seventh</kind>     <staff>1</staff>    </harmony>    <note color="#000000" default-x="15">     <pitch>      <step>C</step>      <octave>5</octave>     </pitch>     <duration>1024</duration>     <tie type="stop" />     <instrument id="P1-I1" />     <voice>1</voice>     <type>whole</type>     <staff>1</staff>     <notations>      <tied type="stop" orientation="over" />     </notations>    </note>   </measure>   <!--============== Part: P1, Measure: 20 ==============-->   <measure number="20" width="331">    <harmony color="#000000" default-y="25">     <root>      <root-step>C</root-step>     </root>     <kind>dominant</kind>     <staff>1</staff>    </harmony>    <note default-x="15">     <rest />     <duration>256</duration>     <instrument id="P1-I1" />     <voice>1</voice>     <type>quarter</type>     <staff>1</staff>    </note>    <note color="#000000" default-x="79" default-y="-49">     <pitch>      <step>D</step>      <octave>5</octave>     </pitch>     <duration>128</duration>     <instrument id="P1-I1" />     <voice>1</voice>     <type>eighth</type>         <staff>1</staff>     <beam number="1">begin</beam>    </note>    <note color="#000000" default-x="126" default-y="-49">     <pitch>      <step>C</step>      <octave>5</octave>     </pitch>     <duration>128</duration>     <tie type="start" />     <instrument id="P1-I1" />     <voice>1</voice>     <type>eighth</type>         <staff>1</staff>     <beam number="1">end</beam>     <notations>      <tied type="start" orientation="over" />     </notations>    </note>    <note color="#000000" default-x="173" default-y="-50">     <pitch>      <step>C</step>      <octave>5</octave>     </pitch>     <duration>128</duration>     <tie type="stop" />     <instrument id="P1-I1" />     <voice>1</voice>     <type>eighth</type>         <staff>1</staff>     <notations>      <tied type="stop" orientation="over" />     </notations>    </note>    <note color="#000000" default-x="220" default-y="-45">     <pitch>      <step>D</step>      <octave>5</octave>     </pitch>     <duration>256</duration>     <instrument id="P1-I1" />     <voice>1</voice>     <type>quarter</type>         <staff>1</staff>    </note>    <note color="#000000" default-x="284" default-y="-55">     <pitch>      <step>B</step>      <octave>4</octave>     </pitch>     <duration>128</duration>     <tie type="start" />     <instrument id="P1-I1" />     <voice>1</voice>     <type>eighth</type>         <staff>1</staff>     <notations>      <tied type="start" orientation="over" />     </notations>    </note>   </measure>   <!--============== Part: P1, Measure: 21 ==============-->   <measure number="21" width="205">    <print new-system="yes">     <system-layout>      <system-margins>       <left-margin>22</left-margin>       <right-margin>0</right-margin>      </system-margins>      <system-distance>135</system-distance>     </system-layout>    </print>    <attributes>     <staff-details number="1" print-object="yes" />    </attributes>    <harmony color="#000000" default-y="25">     <root>      <root-step>B</root-step>     </root>     <kind>half-diminished</kind>     <staff>1</staff>    </harmony>    <note color="#000000" default-x="57">     <pitch>      <step>B</step>      <octave>4</octave>     </pitch>     <duration>1024</duration>     <tie type="stop" />     <instrument id="P1-I1" />     <voice>1</voice>     <type>whole</type>     <staff>1</staff>     <notations>      <tied type="stop" orientation="over" />     </notations>    </note>   </measure>   <!--============== Part: P1, Measure: 22 ==============-->   <measure number="22" width="325">    <harmony color="#000000" default-y="25">     <root>      <root-step>E</root-step>     </root>     <kind>dominant</kind>     <degree>      <degree-value>9</degree-value>      <degree-alter>1</degree-alter>      <degree-type>add</degree-type>     </degree>     <staff>1</staff>    </harmony>    <note default-x="15">     <rest />     <duration>256</duration>     <instrument id="P1-I1" />     <voice>1</voice>     <type>quarter</type>     <staff>1</staff>    </note>    <note color="#000000" default-x="78" default-y="-49">     <pitch>      <step>C</step>      <octave>5</octave>     </pitch>     <duration>128</duration>     <instrument id="P1-I1" />     <voice>1</voice>     <type>eighth</type>         <staff>1</staff>     <beam number="1">begin</beam>    </note>    <note color="#000000" default-x="124" default-y="-49">     <pitch>      <step>B</step>      <octave>4</octave>     </pitch>     <duration>128</duration>     <tie type="start" />     <instrument id="P1-I1" />     <voice>1</voice>     <type>eighth</type>         <staff>1</staff>     <beam number="1">end</beam>     <notations>      <tied type="start" orientation="over" />     </notations>    </note>    <note color="#000000" default-x="170" default-y="-55">     <pitch>      <step>B</step>      <octave>4</octave>     </pitch>     <duration>128</duration>     <tie type="stop" />     <instrument id="P1-I1" />     <voice>1</voice>     <type>eighth</type>         <staff>1</staff>     <notations>      <tied type="stop" orientation="over" />     </notations>    </note>    <note color="#000000" default-x="216" default-y="-50">     <pitch>      <step>C</step>      <octave>5</octave>     </pitch>     <duration>256</duration>     <instrument id="P1-I1" />     <voice>1</voice>     <type>quarter</type>         <staff>1</staff>    </note>    <note color="#000000" default-x="280" default-y="-55">     <pitch>      <step>B</step>      <alter>-1</alter>      <octave>4</octave>     </pitch>     <duration>128</duration>     <tie type="start" />     <instrument id="P1-I1" />     <voice>1</voice>     <type>eighth</type>     <accidental>flat</accidental>         <staff>1</staff>     <notations>      <tied type="start" orientation="over" />     </notations>    </note>   </measure>   <!--============== Part: P1, Measure: 23 ==============-->   <measure number="23" width="163">    <harmony color="#000000" default-y="25">     <root>      <root-step>E</root-step>     </root>     <kind>half-diminished</kind>     <staff>1</staff>    </harmony>    <note color="#000000" default-x="15">     <pitch>      <step>B</step>      <alter>-1</alter>      <octave>4</octave>     </pitch>     <duration>1024</duration>     <tie type="stop" />     <instrument id="P1-I1" />     <voice>1</voice>     <type>whole</type>     <staff>1</staff>     <notations>      <tied type="stop" orientation="over" />     </notations>    </note>   </measure>   <!--============== Part: P1, Measure: 24 ==============-->   <measure number="24" width="337">    <harmony color="#000000" default-y="25">     <root>      <root-step>A</root-step>     </root>     <kind>dominant</kind>     <degree>      <degree-value>9</degree-value>      <degree-alter>1</degree-alter>      <degree-type>add</degree-type>     </degree>     <staff>1</staff>    </harmony>    <note default-x="15">     <rest />     <duration>256</duration>     <instrument id="P1-I1" />     <voice>1</voice>     <type>quarter</type>     <staff>1</staff>    </note>    <note color="#000000" default-x="78" default-y="-49">     <pitch>      <step>C</step>      <octave>5</octave>     </pitch>     <duration>128</duration>     <instrument id="P1-I1" />     <voice>1</voice>     <type>eighth</type>         <staff>1</staff>     <beam number="1">begin</beam>    </note>    <note color="#000000" default-x="124" default-y="-49">     <pitch>      <step>B</step>      <alter>-1</alter>      <octave>4</octave>     </pitch>     <duration>128</duration>     <tie type="start" />     <instrument id="P1-I1" />     <voice>1</voice>     <type>eighth</type>     <accidental>flat</accidental>         <staff>1</staff>     <beam number="1">end</beam>     <notations>      <tied type="start" orientation="over" />     </notations>    </note>    <note color="#000000" default-x="170" default-y="-55">     <pitch>      <step>B</step>      <alter>-1</alter>      <octave>4</octave>     </pitch>     <duration>128</duration>     <tie type="stop" />     <instrument id="P1-I1" />     <voice>1</voice>     <type>eighth</type>         <staff>1</staff>     <notations>      <tied type="stop" orientation="over" />     </notations>    </note>    <note color="#000000" default-x="216" default-y="-50">     <pitch>      <step>C</step>      <octave>5</octave>     </pitch>     <duration>256</duration>     <instrument id="P1-I1" />     <voice>1</voice>     <type>quarter</type>         <staff>1</staff>    </note>    <note color="#000000" default-x="279" default-y="10">     <pitch>      <step>A</step>      <octave>4</octave>     </pitch>     <duration>128</duration>     <tie type="start" />     <instrument id="P1-I1" />     <voice>1</voice>     <type>eighth</type>         <staff>1</staff>     <notations>      <tied type="start" orientation="under" />     </notations>    </note>    <barline>     <bar-style>light-light</bar-style>    </barline>   </measure>   <!--============== Part: P1, Measure: 25 ==============-->   <measure number="25" width="207">    <print new-system="yes">     <system-layout>      <system-margins>       <left-margin>22</left-margin>       <right-margin>0</right-margin>      </system-margins>      <system-distance>134</system-distance>     </system-layout>    </print>    <attributes>     <staff-details number="1" print-object="yes" />    </attributes>    <harmony color="#000000" default-y="25">     <root>      <root-step>D</root-step>     </root>     <kind>minor-seventh</kind>     <staff>1</staff>    </harmony>    <note color="#000000" default-x="57">     <pitch>      <step>A</step>      <octave>4</octave>     </pitch>     <duration>1024</duration>     <tie type="stop" />     <instrument id="P1-I1" />     <voice>1</voice>     <type>whole</type>     <staff>1</staff>     <notations>      <tied type="stop" orientation="under" />     </notations>    </note>   </measure>   <!--============== Part: P1, Measure: 26 ==============-->   <measure number="26" width="329">    <harmony color="#000000" default-y="25">     <root>      <root-step>E</root-step>      <root-alter>-1</root-alter>     </root>     <kind>diminished-seventh</kind>     <staff>1</staff>    </harmony>    <note default-x="15">     <rest />     <duration>256</duration>     <instrument id="P1-I1" />     <voice>1</voice>     <type>quarter</type>     <staff>1</staff>    </note>    <note color="#000000" default-x="79" default-y="12">     <pitch>      <step>B</step>      <octave>4</octave>     </pitch>     <duration>128</duration>     <instrument id="P1-I1" />     <voice>1</voice>     <type>eighth</type>         <staff>1</staff>     <beam number="1">begin</beam>    </note>    <note color="#000000" default-x="125" default-y="12">     <pitch>      <step>A</step>      <octave>4</octave>     </pitch>     <duration>128</duration>     <tie type="start" />     <instrument id="P1-I1" />     <voice>1</voice>     <type>eighth</type>         <staff>1</staff>     <beam number="1">end</beam>     <notations>      <tied type="start" orientation="under" />     </notations>    </note>    <note color="#000000" default-x="172" default-y="10">     <pitch>      <step>A</step>      <octave>4</octave>     </pitch>     <duration>128</duration>     <tie type="stop" />     <instrument id="P1-I1" />     <voice>1</voice>     <type>eighth</type>         <staff>1</staff>     <notations>      <tied type="stop" orientation="under" />     </notations>    </note>    <note color="#000000" default-x="219" default-y="-55">     <pitch>      <step>B</step>      <octave>4</octave>     </pitch>     <duration>256</duration>     <instrument id="P1-I1" />     <voice>1</voice>     <type>quarter</type>         <staff>1</staff>    </note>    <note color="#000000" default-x="283" default-y="10">     <pitch>      <step>A</step>      <octave>4</octave>     </pitch>     <duration>128</duration>     <tie type="start" />     <instrument id="P1-I1" />     <voice>1</voice>     <type>eighth</type>         <staff>1</staff>     <notations>      <tied type="start" orientation="under" />     </notations>    </note>   </measure>   <!--============== Part: P1, Measure: 27 ==============-->   <measure number="27" width="165">    <harmony color="#000000" default-y="25">     <root>      <root-step>A</root-step>     </root>     <kind>minor-seventh</kind>     <bass>      <bass-step>E</bass-step>     </bass>     <staff>1</staff>    </harmony>    <note color="#000000" default-x="15">     <pitch>      <step>A</step>      <octave>4</octave>     </pitch>     <duration>1024</duration>     <tie type="stop" />     <instrument id="P1-I1" />     <voice>1</voice>     <type>whole</type>     <staff>1</staff>     <notations>      <tied type="stop" orientation="under" />     </notations>    </note>   </measure>   <!--============== Part: P1, Measure: 28 ==============-->   <measure number="28" width="329">    <harmony color="#000000" default-y="25">     <root>      <root-step>F</root-step>     </root>     <kind>major-seventh</kind>     <staff>1</staff>    </harmony>    <note default-x="15">     <rest />     <duration>256</duration>     <instrument id="P1-I1" />     <voice>1</voice>     <type>quarter</type>     <staff>1</staff>    </note>    <note color="#000000" default-x="79" default-y="-52">     <pitch>      <step>B</step>      <octave>4</octave>     </pitch>     <duration>128</duration>     <instrument id="P1-I1" />     <voice>1</voice>     <type>eighth</type>         <staff>1</staff>     <beam number="1">begin</beam>    </note>    <note color="#000000" default-x="125" default-y="-52">     <pitch>      <step>C</step>      <octave>5</octave>     </pitch>     <duration>128</duration>     <tie type="start" />     <instrument id="P1-I1" />     <voice>1</voice>     <type>eighth</type>         <staff>1</staff>     <beam number="1">end</beam>     <notations>      <tied type="start" orientation="over" />     </notations>    </note>    <note color="#000000" default-x="172" default-y="-50">     <pitch>      <step>C</step>      <octave>5</octave>     </pitch>     <duration>128</duration>     <tie type="stop" />     <instrument id="P1-I1" />     <voice>1</voice>     <type>eighth</type>         <staff>1</staff>     <notations>      <tied type="stop" orientation="over" />     </notations>    </note>    <note color="#000000" default-x="218" default-y="-40">     <pitch>      <step>E</step>      <octave>5</octave>     </pitch>     <duration>256</duration>     <instrument id="P1-I1" />     <voice>1</voice>     <type>quarter</type>         <staff>1</staff>    </note>    <note color="#000000" default-x="283" default-y="-45">     <pitch>      <step>D</step>      <octave>5</octave>     </pitch>     <duration>128</duration>     <tie type="start" />     <instrument id="P1-I1" />     <voice>1</voice>     <type>eighth</type>         <staff>1</staff>     <notations>      <tied type="start" orientation="over" />     </notations>    </note>   </measure>   <!--============== Part: P1, Measure: 29 ==============-->   <measure number="29" width="237">    <print new-system="yes">     <system-layout>      <system-margins>       <left-margin>22</left-margin>       <right-margin>0</right-margin>      </system-margins>      <system-distance>135</system-distance>     </system-layout>    </print>    <attributes>     <staff-details number="1" print-object="yes" />    </attributes>    <harmony color="#000000" default-y="31">     <root>      <root-step>B</root-step>      <root-alter>-1</root-alter>     </root>     <kind>major-seventh</kind>     <staff>1</staff>    </harmony>    <note color="#000000" default-x="57">     <pitch>      <step>D</step>      <octave>5</octave>     </pitch>     <duration>1024</duration>     <tie type="stop" />     <instrument id="P1-I1" />     <voice>1</voice>     <type>whole</type>     <staff>1</staff>     <notations>      <tied type="stop" orientation="over" />     </notations>    </note>   </measure>   <!--============== Part: P1, Measure: 30 ==============-->   <measure number="30" width="390">    <harmony color="#000000" default-y="31">     <root>      <root-step>B</root-step>     </root>     <kind>half-diminished</kind>     <staff>1</staff>    </harmony>    <note default-x="15">     <rest />     <duration>256</duration>     <instrument id="P1-I1" />     <voice>1</voice>     <type>quarter</type>     <staff>1</staff>    </note>    <note color="#000000" default-x="91" default-y="-34">     <pitch>      <step>E</step>      <octave>5</octave>     </pitch>     <duration>128</duration>     <instrument id="P1-I1" />     <voice>1</voice>     <type>eighth</type>         <staff>1</staff>     <beam number="1">begin</beam>    </note>    <note color="#000000" default-x="147" default-y="-34">     <pitch>      <step>G</step>      <alter>1</alter>      <octave>5</octave>     </pitch>     <duration>128</duration>     <tie type="start" />     <instrument id="P1-I1" />     <voice>1</voice>     <type>eighth</type>     <accidental>sharp</accidental>         <staff>1</staff>     <beam number="1">end</beam>     <notations>      <tied type="start" orientation="over" />     </notations>    </note>    <harmony color="#000000" default-y="31">     <root>      <root-step>E</root-step>     </root>     <kind>dominant</kind>     <degree>      <degree-value>9</degree-value>      <degree-alter>1</degree-alter>      <degree-type>add</degree-type>     </degree>     <staff>1</staff>    </harmony>    <note color="#000000" default-x="202" default-y="-30">     <pitch>      <step>G</step>      <alter>1</alter>      <octave>5</octave>     </pitch>     <duration>128</duration>     <tie type="stop" />     <instrument id="P1-I1" />     <voice>1</voice>     <type>eighth</type>         <staff>1</staff>     <notations>      <tied type="stop" orientation="over" />     </notations>    </note>    <note color="#000000" default-x="258" default-y="-20">     <pitch>      <step>B</step>      <octave>5</octave>     </pitch>     <duration>256</duration>     <instrument id="P1-I1" />     <voice>1</voice>     <type>quarter</type>         <staff>1</staff>    </note>    <note color="#000000" default-x="335" default-y="-25">     <pitch>      <step>A</step>      <octave>5</octave>     </pitch>     <duration>128</duration>     <tie type="start" />     <instrument id="P1-I1" />     <voice>1</voice>     <type>eighth</type>         <staff>1</staff>     <notations>      <tied type="start" orientation="over" />     </notations>    </note>   </measure>   <!--============== Part: P1, Measure: 31 ==============-->   <measure number="31" width="194">    <harmony color="#000000" default-y="31">     <root>      <root-step>A</root-step>     </root>     <kind>minor-seventh</kind>     <staff>1</staff>    </harmony>    <note color="#000000" default-x="15">     <pitch>      <step>A</step>      <octave>5</octave>     </pitch>     <duration>1024</duration>     <tie type="stop" />     <tie type="start" />     <instrument id="P1-I1" />     <voice>1</voice>     <type>whole</type>     <staff>1</staff>     <notations>      <tied type="stop" orientation="over" />      <tied type="start" orientation="over" />     </notations>    </note>   </measure>   <!--============== Part: P1, Measure: 32 ==============-->   <measure number="32" width="210">    <harmony color="#000000" default-y="31">     <root>      <root-step>E</root-step>     </root>     <kind>dominant</kind>     <degree>      <degree-value>9</degree-value>      <degree-alter>1</degree-alter>      <degree-type>add</degree-type>     </degree>     <staff>1</staff>    </harmony>    <note color="#000000" default-x="15">     <pitch>      <step>A</step>      <octave>5</octave>     </pitch>     <duration>1024</duration>     <tie type="stop" />     <instrument id="P1-I1" />     <voice>1</voice>     <type>whole</type>     <staff>1</staff>     <notations>      <tied type="stop" orientation="over" />     </notations>    </note>    <barline>     <bar-style>light-heavy</bar-style>    </barline>   </measure>  </part> </score-partwise>  