<?xml version="1.0" encoding='UTF-8' standalone='no' ?> <!DOCTYPE score-partwise PUBLIC "-//Recordare//DTD MusicXML 3.0 Partwise//EN" "http://www.musicxml.org/dtds/partwise.dtd"> <score-partwise version="3.0">  <work>   <work-title>Offshore</work-title>  </work>  <identification>   <creator type="composer">Booker Little</creator>   <rights>www.realbook.site</rights>   <encoding>    <encoding-date>2023-05-03</encoding-date>    <encoder>mosco</encoder>    <software>Sibelius 22.9.0</software>    <software>Direct export, not from Dolet</software>    <encoding-description>Sibelius / MusicXML 3.0</encoding-description>    <supports element="print" type="yes" value="yes" attribute="new-system" />    <supports element="print" type="yes" value="yes" attribute="new-page" />    <supports element="accidental" type="yes" />    <supports element="beam" type="yes" />    <supports element="stem" type="yes" />   </encoding>  </identification>  <defaults>   <scaling>    <millimeters>210</millimeters>    <tenths>1217</tenths>   </scaling>   <page-layout>    <page-height>1721</page-height>    <page-width>1217</page-width>    <page-margins type="both">     <left-margin>73</left-margin>     <right-margin>73</right-margin>     <top-margin>73</top-margin>     <bottom-margin>73</bottom-margin>    </page-margins>   </page-layout>   <system-layout>    <system-margins>     <left-margin>22</left-margin>     <right-margin>0</right-margin>    </system-margins>    <system-distance>92</system-distance>   </system-layout>   <appearance>    <line-width type="stem">0.9375</line-width>    <line-width type="beam">5</line-width>    <line-width type="staff">0.9375</line-width>    <line-width type="light barline">1.5625</line-width>    <line-width type="heavy barline">5</line-width>    <line-width type="leger">1.5625</line-width>    <line-width type="ending">1.5625</line-width>    <line-width type="wedge">1.25</line-width>    <line-width type="enclosure">0.9375</line-width>    <line-width type="tuplet bracket">1.25</line-width>    <line-width type="bracket">5</line-width>    <line-width type="dashes">1.5625</line-width>    <line-width type="extend">0.9375</line-width>    <line-width type="octave shift">1.5625</line-width>    <line-width type="pedal">1.5625</line-width>    <line-width type="slur middle">1.5625</line-width>    <line-width type="slur tip">0.625</line-width>    <line-width type="tie middle">1.5625</line-width>    <line-width type="tie tip">0.625</line-width>    <note-size type="cue">75</note-size>    <note-size type="grace">60</note-size>   </appearance>   <music-font font-family="Opus Std" font-size="19.5591" />   <word-font font-family="Plantin MT Std" font-size="11.766" />   <lyric-font font-family="Plantin MT Std" font-size="11.3076" />   <lyric-language xml:lang="en" />  </defaults>  <credit page="1">   <credit-words default-x="608" default-y="155" font-family="Plantin MT Std" font-style="normal" font-size="21.6983" font-weight="normal" justify="center" valign="middle">Offshore</credit-words>  </credit>  <credit page="1">   <credit-words default-x="1143" default-y="84" font-family="Plantin MT Std" font-style="normal" font-size="10.8492" font-weight="normal" justify="right" valign="middle">Booker Little</credit-words>  </credit>  <credit page="1">   <credit-words default-x="608" default-y="73" font-family="Plantin MT Std" font-style="normal" font-size="9.9323" font-weight="normal" justify="center" valign="middle">www.realbook.site</credit-words>  </credit>  <part-list>   <score-part id="P1">    <identification>     <miscellaneous>      <miscellaneous-field name="show-rhythms">false</miscellaneous-field>     </miscellaneous>    </identification>    <part-name> </part-name>    <part-name-display>     <display-text> </display-text>    </part-name-display>    <part-abbreviation> </part-abbreviation>    <part-abbreviation-display>     <display-text> </display-text>    </part-abbreviation-display>    <score-instrument id="P1-I1">     <instrument-name> </instrument-name>     <virtual-instrument>      <virtual-library>General MIDI</virtual-library>      <virtual-name>Bright Piano</virtual-name>     </virtual-instrument>    </score-instrument>   </score-part>  </part-list>  <part id="P1">   <!--============== Part: P1, Measure: 0 ==============-->   <measure number="0" width="172">    <print new-page="yes">     <system-layout>      <system-margins>       <left-margin>22</left-margin>       <right-margin>0</right-margin>      </system-margins>      <top-system-distance>218</top-system-distance>     </system-layout>    </print>    <attributes>     <divisions>256</divisions>     <key color="#000000">      <fifths>-4</fifths>      <mode>major</mode>     </key>     <time color="#000000">      <beats>4</beats>      <beat-type>4</beat-type>     </time>     <staves>1</staves>     <clef number="1" color="#000000">      <sign>G</sign>      <line>2</line>     </clef>     <staff-details number="1" print-object="yes" />    </attributes>    <note color="#000000" default-x="126" default-y="-5">     <pitch>      <step>E</step>      <alter>-1</alter>      <octave>4</octave>     </pitch>     <duration>256</duration>     <instrument id="P1-I1" />     <voice>1</voice>     <type>quarter</type>         <staff>1</staff>    </note>   </measure>   <!--============== Part: P1, Measure: 1 ==============-->   <measure number="1" width="238">    <barline location="left">     <bar-style>heavy-light</bar-style>     <repeat direction="forward" />    </barline>    <harmony color="#000000" default-y="25">     <root>      <root-step>A</root-step>      <root-alter>-1</root-alter>     </root>     <kind>major-seventh</kind>     <staff>1</staff>    </harmony>    <note color="#000000" default-x="27" default-y="5">     <pitch>      <step>G</step>      <octave>4</octave>     </pitch>     <duration>512</duration>     <tie type="start" />     <instrument id="P1-I1" />     <voice>1</voice>     <type>half</type>         <staff>1</staff>     <notations>      <tied type="start" orientation="under" />     </notations>    </note>    <note color="#000000" default-x="105" default-y="2">     <pitch>      <step>G</step>      <octave>4</octave>     </pitch>     <duration>128</duration>     <tie type="stop" />     <instrument id="P1-I1" />     <voice>1</voice>     <type>eighth</type>         <staff>1</staff>     <beam number="1">begin</beam>     <notations>      <tied type="stop" orientation="under" />     </notations>    </note>    <note color="#000000" default-x="139" default-y="2">     <pitch>      <step>C</step>      <octave>4</octave>     </pitch>     <duration>128</duration>     <instrument id="P1-I1" />     <voice>1</voice>     <type>eighth</type>         <staff>1</staff>     <beam number="1">continue</beam>    </note>    <note color="#000000" default-x="172" default-y="2">     <pitch>      <step>E</step>      <alter>-1</alter>      <octave>4</octave>     </pitch>     <duration>128</duration>     <instrument id="P1-I1" />     <voice>1</voice>     <type>eighth</type>         <staff>1</staff>     <beam number="1">continue</beam>    </note>    <note color="#000000" default-x="205" default-y="2">     <pitch>      <step>G</step>      <octave>4</octave>     </pitch>     <duration>128</duration>     <instrument id="P1-I1" />     <voice>1</voice>     <type>eighth</type>         <staff>1</staff>     <beam number="1">end</beam>    </note>   </measure>   <!--============== Part: P1, Measure: 2 ==============-->   <measure number="2" width="205">    <harmony color="#000000" default-y="25">     <root>      <root-step>G</root-step>      <root-alter>-1</root-alter>     </root>     <kind>major-seventh</kind>     <staff>1</staff>    </harmony>    <note color="#000000" default-x="15" default-y="-5">     <pitch>      <step>F</step>      <octave>4</octave>     </pitch>     <duration>128</duration>     <instrument id="P1-I1" />     <voice>1</voice>     <type>eighth</type>         <staff>1</staff>     <beam number="1">begin</beam>    </note>    <note color="#000000" default-x="48" default-y="-5">     <pitch>      <step>D</step>      <alter>-1</alter>      <octave>4</octave>     </pitch>     <duration>128</duration>     <tie type="start" />     <instrument id="P1-I1" />     <voice>1</voice>     <type>eighth</type>         <staff>1</staff>     <beam number="1">end</beam>     <notations>      <tied type="start" orientation="under" />     </notations>    </note>    <note color="#000000" default-x="81" default-y="-10">     <pitch>      <step>D</step>      <alter>-1</alter>      <octave>4</octave>     </pitch>     <duration>512</duration>     <tie type="stop" />     <instrument id="P1-I1" />     <voice>1</voice>     <type>half</type>         <staff>1</staff>     <notations>      <tied type="stop" orientation="under" />     </notations>    </note>    <note color="#000000" default-x="159" default-y="-5">     <pitch>      <step>E</step>      <alter>-1</alter>      <octave>4</octave>     </pitch>     <duration>256</duration>     <instrument id="P1-I1" />     <voice>1</voice>     <type>quarter</type>         <staff>1</staff>    </note>   </measure>   <!--============== Part: P1, Measure: 3 ==============-->   <measure number="3" width="225">    <harmony color="#000000" default-y="25">     <root>      <root-step>A</root-step>      <root-alter>-1</root-alter>     </root>     <kind>major-seventh</kind>     <staff>1</staff>    </harmony>    <note color="#000000" default-x="15" default-y="5">     <pitch>      <step>G</step>      <octave>4</octave>     </pitch>     <duration>512</duration>     <tie type="start" />     <instrument id="P1-I1" />     <voice>1</voice>     <type>half</type>         <staff>1</staff>     <notations>      <tied type="start" orientation="under" />     </notations>    </note>    <note color="#000000" default-x="92" default-y="2">     <pitch>      <step>G</step>      <octave>4</octave>     </pitch>     <duration>128</duration>     <tie type="stop" />     <instrument id="P1-I1" />     <voice>1</voice>     <type>eighth</type>         <staff>1</staff>     <beam number="1">begin</beam>     <notations>      <tied type="stop" orientation="under" />     </notations>    </note>    <note color="#000000" default-x="125" default-y="2">     <pitch>      <step>C</step>      <octave>4</octave>     </pitch>     <duration>128</duration>     <instrument id="P1-I1" />     <voice>1</voice>     <type>eighth</type>         <staff>1</staff>     <beam number="1">continue</beam>    </note>    <note color="#000000" default-x="159" default-y="2">     <pitch>      <step>E</step>      <alter>-1</alter>      <octave>4</octave>     </pitch>     <duration>128</duration>     <instrument id="P1-I1" />     <voice>1</voice>     <type>eighth</type>         <staff>1</staff>     <beam number="1">continue</beam>    </note>    <note color="#000000" default-x="192" default-y="2">     <pitch>      <step>G</step>      <octave>4</octave>     </pitch>     <duration>128</duration>     <instrument id="P1-I1" />     <voice>1</voice>     <type>eighth</type>         <staff>1</staff>     <beam number="1">end</beam>    </note>   </measure>   <!--============== Part: P1, Measure: 4 ==============-->   <measure number="4" width="205">    <harmony color="#000000" default-y="25">     <root>      <root-step>D</root-step>      <root-alter>-1</root-alter>     </root>     <kind>dominant-ninth</kind>     <degree>      <degree-value>11</degree-value>      <degree-alter>1</degree-alter>      <degree-type>add</degree-type>     </degree>     <staff>1</staff>    </harmony>    <note color="#000000" default-x="15" default-y="4">     <pitch>      <step>A</step>      <alter>-1</alter>      <octave>4</octave>     </pitch>     <duration>128</duration>     <instrument id="P1-I1" />     <voice>1</voice>     <type>eighth</type>         <staff>1</staff>     <beam number="1">begin</beam>    </note>    <note color="#000000" default-x="48" default-y="4">     <pitch>      <step>F</step>      <octave>4</octave>     </pitch>     <duration>128</duration>     <tie type="start" />     <instrument id="P1-I1" />     <voice>1</voice>     <type>eighth</type>         <staff>1</staff>     <beam number="1">end</beam>     <notations>      <tied type="start" orientation="under" />     </notations>    </note>    <note color="#000000" default-x="81">     <pitch>      <step>F</step>      <octave>4</octave>     </pitch>     <duration>512</duration>     <tie type="stop" />     <instrument id="P1-I1" />     <voice>1</voice>     <type>half</type>         <staff>1</staff>     <notations>      <tied type="stop" orientation="under" />     </notations>    </note>    <note color="#000000" default-x="159" default-y="-10">     <pitch>      <step>D</step>      <alter>-1</alter>      <octave>4</octave>     </pitch>     <duration>256</duration>     <instrument id="P1-I1" />     <voice>1</voice>     <type>quarter</type>         <staff>1</staff>    </note>   </measure>   <!--============== Part: P1, Measure: 5 ==============-->   <measure number="5" width="238">    <print new-system="yes">     <system-layout>      <system-margins>       <left-margin>22</left-margin>       <right-margin>0</right-margin>      </system-margins>      <system-distance>103</system-distance>     </system-layout>    </print>    <attributes>     <staff-details number="1" print-object="yes" />    </attributes>    <harmony color="#000000" default-y="25">     <root>      <root-step>G</root-step>      <root-alter>-1</root-alter>     </root>     <kind>major-seventh</kind>     <staff>1</staff>    </harmony>    <note color="#000000" default-x="107" default-y="-55">     <pitch>      <step>B</step>      <alter>-1</alter>      <octave>4</octave>     </pitch>     <duration>512</duration>     <instrument id="P1-I1" />     <voice>1</voice>     <type>half</type>         <staff>1</staff>    </note>    <note color="#000000" default-x="157" default-y="-10">     <pitch>      <step>D</step>      <alter>-1</alter>      <octave>4</octave>     </pitch>     <duration>170</duration>     <instrument id="P1-I1" />     <voice>1</voice>     <type>quarter</type>     <time-modification>      <actual-notes>3</actual-notes>      <normal-notes>2</normal-notes>      <normal-type>quarter</normal-type>     </time-modification>         <staff>1</staff>     <notations>      <tuplet type="start" bracket="yes" number="1" default-y="12" placement="above" />     </notations>    </note>    <note color="#000000" default-x="185" default-y="5">     <pitch>      <step>G</step>      <alter>-1</alter>      <octave>4</octave>     </pitch>     <duration>171</duration>     <instrument id="P1-I1" />     <voice>1</voice>     <type>quarter</type>     <accidental>flat</accidental>     <time-modification>      <actual-notes>3</actual-notes>      <normal-notes>2</normal-notes>      <normal-type>quarter</normal-type>     </time-modification>         <staff>1</staff>    </note>    <note color="#000000" default-x="211" default-y="-55">     <pitch>      <step>B</step>      <alter>-1</alter>      <octave>4</octave>     </pitch>     <duration>171</duration>     <instrument id="P1-I1" />     <voice>1</voice>     <type>quarter</type>     <time-modification>      <actual-notes>3</actual-notes>      <normal-notes>2</normal-notes>      <normal-type>quarter</normal-type>     </time-modification>         <staff>1</staff>     <notations>      <tuplet type="stop" bracket="yes" number="1" default-y="12" placement="above" />     </notations>    </note>   </measure>   <!--============== Part: P1, Measure: 6 ==============-->   <measure number="6" width="205">    <harmony color="#000000" default-y="25">     <root>      <root-step>E</root-step>     </root>     <kind>dominant-ninth</kind>     <degree>      <degree-value>11</degree-value>      <degree-alter>1</degree-alter>      <degree-type>add</degree-type>     </degree>     <staff>1</staff>    </harmony>    <note color="#000000" default-x="15" default-y="2">     <pitch>      <step>G</step>      <alter>1</alter>      <octave>4</octave>     </pitch>     <duration>128</duration>     <instrument id="P1-I1" />     <voice>1</voice>     <type>eighth</type>     <accidental>sharp</accidental>         <staff>1</staff>     <beam number="1">begin</beam>    </note>    <note color="#000000" default-x="41" default-y="2">     <pitch>      <step>E</step>      <octave>4</octave>     </pitch>     <duration>128</duration>     <tie type="start" />     <instrument id="P1-I1" />     <voice>1</voice>     <type>eighth</type>     <accidental>natural</accidental>         <staff>1</staff>     <beam number="1">end</beam>     <notations>      <tied type="start" orientation="under" />     </notations>    </note>    <note color="#000000" default-x="66" default-y="-5">     <pitch>      <step>E</step>      <octave>4</octave>     </pitch>     <duration>256</duration>     <tie type="stop" />     <tie type="start" />     <instrument id="P1-I1" />     <voice>1</voice>     <type>quarter</type>         <staff>1</staff>     <notations>      <tied type="stop" orientation="under" />      <tied type="start" orientation="under" />     </notations>    </note>    <note color="#000000" default-x="99">     <pitch>      <step>E</step>      <octave>4</octave>     </pitch>     <duration>128</duration>     <tie type="stop" />     <instrument id="P1-I1" />     <voice>1</voice>     <type>eighth</type>         <staff>1</staff>     <beam number="1">begin</beam>     <notations>      <tied type="stop" orientation="under" />     </notations>    </note>    <note color="#000000" default-x="127">     <pitch>      <step>F</step>      <alter>1</alter>      <octave>4</octave>     </pitch>     <duration>128</duration>     <instrument id="P1-I1" />     <voice>1</voice>     <type>eighth</type>     <accidental>sharp</accidental>         <staff>1</staff>     <beam number="1">continue</beam>    </note>    <note color="#000000" default-x="151">     <pitch>      <step>E</step>      <octave>4</octave>     </pitch>     <duration>128</duration>     <instrument id="P1-I1" />     <voice>1</voice>     <type>eighth</type>         <staff>1</staff>     <beam number="1">continue</beam>    </note>    <note color="#000000" default-x="179">     <pitch>      <step>E</step>      <alter>-1</alter>      <octave>4</octave>     </pitch>     <duration>128</duration>     <tie type="start" />     <instrument id="P1-I1" />     <voice>1</voice>     <type>eighth</type>     <accidental>flat</accidental>         <staff>1</staff>     <beam number="1">end</beam>     <notations>      <tied type="start" orientation="under" />     </notations>    </note>   </measure>   <!--============== Part: P1, Measure: 7 ==============-->   <measure number="7" width="174">    <barline location="left">     <ending number="1" type="start" />    </barline>    <harmony color="#000000" default-y="25">     <root>      <root-step>B</root-step>      <root-alter>-1</root-alter>     </root>     <kind>minor-seventh</kind>     <staff>1</staff>    </harmony>    <note color="#000000" default-x="15" default-y="-5">     <pitch>      <step>E</step>      <alter>-1</alter>      <octave>4</octave>     </pitch>     <duration>256</duration>     <tie type="stop" />     <instrument id="P1-I1" />     <voice>1</voice>     <type>quarter</type>         <staff>1</staff>     <notations>      <tied type="stop" orientation="under" />     </notations>    </note>    <note color="#000000" default-x="46" default-y="-7">     <pitch>      <step>E</step>      <alter>-1</alter>      <octave>4</octave>     </pitch>     <duration>128</duration>     <instrument id="P1-I1" />     <voice>1</voice>     <type>eighth</type>         <staff>1</staff>     <beam number="1">begin</beam>    </note>    <note color="#000000" default-x="69" default-y="-7">     <pitch>      <step>E</step>      <alter>-1</alter>      <octave>4</octave>     </pitch>     <duration>128</duration>     <instrument id="P1-I1" />     <voice>1</voice>     <type>eighth</type>         <staff>1</staff>     <beam number="1">end</beam>    </note>    <note color="#000000" default-x="92" default-y="-5">     <pitch>      <step>E</step>      <alter>-1</alter>      <octave>4</octave>     </pitch>     <duration>256</duration>     <instrument id="P1-I1" />     <voice>1</voice>     <type>quarter</type>         <staff>1</staff>    </note>    <note color="#000000" default-x="124" default-y="-7">     <pitch>      <step>E</step>      <alter>-1</alter>      <octave>4</octave>     </pitch>     <duration>128</duration>     <instrument id="P1-I1" />     <voice>1</voice>     <type>eighth</type>         <staff>1</staff>     <beam number="1">begin</beam>    </note>    <note color="#000000" default-x="147" default-y="-7">     <pitch>      <step>E</step>      <alter>-1</alter>      <octave>4</octave>     </pitch>     <duration>128</duration>     <tie type="start" />     <instrument id="P1-I1" />     <voice>1</voice>     <type>eighth</type>         <staff>1</staff>     <beam number="1">end</beam>     <notations>      <tied type="start" orientation="under" />     </notations>    </note>   </measure>   <!--============== Part: P1, Measure: 8 ==============-->   <measure number="8" width="130">    <harmony color="#000000" default-y="25">     <root>      <root-step>E</root-step>      <root-alter>-1</root-alter>     </root>     <kind>dominant</kind>     <staff>1</staff>    </harmony>    <note color="#000000" default-x="15" default-y="-5">     <pitch>      <step>E</step>      <alter>-1</alter>      <octave>4</octave>     </pitch>     <duration>768</duration>     <tie type="stop" />     <instrument id="P1-I1" />     <voice>1</voice>     <type>half</type>     <dot />         <staff>1</staff>     <notations>      <tied type="stop" orientation="under" />     </notations>    </note>    <note color="#000000" default-x="75" default-y="-5">     <pitch>      <step>E</step>      <alter>-1</alter>      <octave>4</octave>     </pitch>     <duration>256</duration>     <instrument id="P1-I1" />     <voice>1</voice>     <type>quarter</type>         <staff>1</staff>    </note>    <barline location="right">     <bar-style>light-heavy</bar-style>     <ending number="1" type="stop" />     <repeat direction="backward" />    </barline>   </measure>   <!--============== Part: P1, Measure: 9 ==============-->   <measure number="9" width="179">    <barline location="left">     <ending number="2" type="start" />    </barline>    <harmony color="#000000" default-y="25">     <root>      <root-step>B</root-step>      <root-alter>-1</root-alter>     </root>     <kind>minor-seventh</kind>     <staff>1</staff>    </harmony>    <note color="#000000" default-x="15" default-y="-5">     <pitch>      <step>E</step>      <alter>-1</alter>      <octave>4</octave>     </pitch>     <duration>256</duration>     <instrument id="P1-I1" />     <voice>1</voice>     <type>quarter</type>         <staff>1</staff>    </note>    <note color="#000000" default-x="50" default-y="-7">     <pitch>      <step>E</step>      <alter>-1</alter>      <octave>4</octave>     </pitch>     <duration>128</duration>     <instrument id="P1-I1" />     <voice>1</voice>     <type>eighth</type>         <staff>1</staff>     <beam number="1">begin</beam>    </note>    <note color="#000000" default-x="73" default-y="-7">     <pitch>      <step>E</step>      <alter>-1</alter>      <octave>4</octave>     </pitch>     <duration>128</duration>     <instrument id="P1-I1" />     <voice>1</voice>     <type>eighth</type>         <staff>1</staff>     <beam number="1">end</beam>    </note>    <harmony color="#000000" default-y="25">     <root>      <root-step>E</root-step>      <root-alter>-1</root-alter>     </root>     <kind>dominant</kind>     <staff>1</staff>    </harmony>    <note color="#000000" default-x="98" default-y="-5">     <pitch>      <step>E</step>      <alter>-1</alter>      <octave>4</octave>     </pitch>     <duration>256</duration>     <instrument id="P1-I1" />     <voice>1</voice>     <type>quarter</type>         <staff>1</staff>    </note>    <note color="#000000" default-x="129" default-y="9">     <pitch>      <step>F</step>      <octave>4</octave>     </pitch>     <duration>128</duration>     <instrument id="P1-I1" />     <voice>1</voice>     <type>eighth</type>         <staff>1</staff>     <beam number="1">begin</beam>    </note>    <note color="#000000" default-x="152" default-y="9">     <pitch>      <step>A</step>      <alter>-1</alter>      <octave>4</octave>     </pitch>     <duration>128</duration>     <tie type="start" />     <instrument id="P1-I1" />     <voice>1</voice>     <type>eighth</type>         <staff>1</staff>     <beam number="1">end</beam>     <notations>      <tied type="start" orientation="under" />     </notations>    </note>    <barline location="right">     <ending number="2" type="discontinue" />    </barline>   </measure>   <!--============== Part: P1, Measure: 10 ==============-->   <measure number="10" width="119">    <harmony color="#000000" default-y="25">     <root>      <root-step>A</root-step>      <root-alter>-1</root-alter>     </root>     <kind>major-seventh</kind>     <staff>1</staff>    </harmony>    <note color="#000000" default-x="15" default-y="10">     <pitch>      <step>A</step>      <alter>-1</alter>      <octave>4</octave>     </pitch>     <duration>768</duration>     <tie type="stop" />     <instrument id="P1-I1" />     <voice>1</voice>     <type>half</type>     <dot />         <staff>1</staff>     <notations>      <tied type="stop" orientation="under" />     </notations>    </note>    <backup>     <duration>256</duration>    </backup>    <harmony color="#000000" default-y="25">     <root>      <root-step>A</root-step>      <root-alter>-1</root-alter>     </root>     <kind>dominant</kind>     <degree>      <degree-value>9</degree-value>      <degree-alter>-1</degree-alter>      <degree-type>add</degree-type>     </degree>     <degree>      <degree-value>9</degree-value>      <degree-alter>1</degree-alter>      <degree-type>add</degree-type>     </degree>     <degree>      <degree-value>5</degree-value>      <degree-alter>-1</degree-alter>      <degree-type>alter</degree-type>     </degree>     <degree>      <degree-value>5</degree-value>      <degree-alter>1</degree-alter>      <degree-type>add</degree-type>     </degree>     <staff>1</staff>    </harmony>    <forward>     <duration>256</duration>    </forward>    <note color="#000000" default-x="75" default-y="10">     <pitch>      <step>A</step>      <alter>-1</alter>      <octave>4</octave>     </pitch>     <duration>256</duration>     <instrument id="P1-I1" />     <voice>1</voice>     <type>quarter</type>         <staff>1</staff>    </note>    <barline>     <bar-style>light-light</bar-style>    </barline>   </measure>   <!--============== Part: P1, Measure: 11 ==============-->   <measure number="11" width="350">    <print new-system="yes">     <system-layout>      <system-margins>       <left-margin>22</left-margin>       <right-margin>0</right-margin>      </system-margins>      <system-distance>92</system-distance>     </system-layout>    </print>    <attributes>     <staff-details number="1" print-object="yes" />    </attributes>    <harmony color="#000000" default-y="25">     <root>      <root-step>B</root-step>      <root-alter>-1</root-alter>     </root>     <kind>minor</kind>     <staff>1</staff>    </harmony>    <note color="#000000" default-x="107" default-y="-40">     <pitch>      <step>E</step>      <alter>-1</alter>      <octave>5</octave>     </pitch>     <duration>384</duration>     <instrument id="P1-I1" />     <voice>1</voice>     <type>quarter</type>     <dot />         <staff>1</staff>    </note>    <note color="#000000" default-x="180" default-y="-45">     <pitch>      <step>D</step>      <alter>-1</alter>      <octave>5</octave>     </pitch>     <duration>128</duration>     <instrument id="P1-I1" />     <voice>1</voice>     <type>eighth</type>         <staff>1</staff>    </note>    <note color="#000000" default-x="219" default-y="-40">     <pitch>      <step>E</step>      <alter>-1</alter>      <octave>5</octave>     </pitch>     <duration>170</duration>     <instrument id="P1-I1" />     <voice>1</voice>     <type>quarter</type>     <time-modification>      <actual-notes>3</actual-notes>      <normal-notes>2</normal-notes>      <normal-type>quarter</normal-type>     </time-modification>         <staff>1</staff>     <notations>      <tuplet type="start" bracket="yes" number="1" default-y="-52" placement="below" />     </notations>    </note>    <note color="#000000" default-x="263" default-y="-45">     <pitch>      <step>D</step>      <alter>-1</alter>      <octave>5</octave>     </pitch>     <duration>171</duration>     <instrument id="P1-I1" />     <voice>1</voice>     <type>quarter</type>     <time-modification>      <actual-notes>3</actual-notes>      <normal-notes>2</normal-notes>      <normal-type>quarter</normal-type>     </time-modification>         <staff>1</staff>    </note>    <note color="#000000" default-x="306" default-y="-40">     <pitch>      <step>E</step>      <alter>-1</alter>      <octave>5</octave>     </pitch>     <duration>171</duration>     <instrument id="P1-I1" />     <voice>1</voice>     <type>quarter</type>     <time-modification>      <actual-notes>3</actual-notes>      <normal-notes>2</normal-notes>      <normal-type>quarter</normal-type>     </time-modification>         <staff>1</staff>     <notations>      <tuplet type="stop" bracket="yes" number="1" default-y="-52" placement="below" />     </notations>    </note>   </measure>   <!--============== Part: P1, Measure: 12 ==============-->   <measure number="12" width="215">    <harmony color="#000000" default-y="25">     <root>      <root-step>A</root-step>      <root-alter>-1</root-alter>     </root>     <kind>dominant</kind>     <degree>      <degree-value>9</degree-value>      <degree-alter>-1</degree-alter>      <degree-type>add</degree-type>     </degree>     <degree>      <degree-value>9</degree-value>      <degree-alter>1</degree-alter>      <degree-type>add</degree-type>     </degree>     <degree>      <degree-value>5</degree-value>      <degree-alter>-1</degree-alter>      <degree-type>alter</degree-type>     </degree>     <degree>      <degree-value>5</degree-value>      <degree-alter>1</degree-alter>      <degree-type>add</degree-type>     </degree>     <staff>1</staff>    </harmony>    <note color="#000000" default-x="15" default-y="-40">     <pitch>      <step>E</step>      <octave>5</octave>     </pitch>     <duration>256</duration>     <instrument id="P1-I1" />     <voice>1</voice>     <type>quarter</type>     <accidental>natural</accidental>         <staff>1</staff>    </note>    <note color="#000000" default-x="69" default-y="10">     <pitch>      <step>A</step>      <octave>4</octave>     </pitch>     <duration>512</duration>     <instrument id="P1-I1" />     <voice>1</voice>     <type>half</type>     <accidental>natural</accidental>         <staff>1</staff>    </note>    <note color="#000000" default-x="160" default-y="10">     <pitch>      <step>A</step>      <alter>-1</alter>      <octave>4</octave>     </pitch>     <duration>256</duration>     <instrument id="P1-I1" />     <voice>1</voice>     <type>quarter</type>     <accidental>flat</accidental>         <staff>1</staff>    </note>   </measure>   <!--============== Part: P1, Measure: 13 ==============-->   <measure number="13" width="304">    <harmony color="#000000" default-y="25">     <root>      <root-step>D</root-step>      <root-alter>-1</root-alter>     </root>     <kind>minor-seventh</kind>     <staff>1</staff>    </harmony>    <note color="#000000" default-x="15" default-y="-42">     <pitch>      <step>E</step>      <alter>-1</alter>      <octave>5</octave>     </pitch>     <duration>128</duration>     <instrument id="P1-I1" />     <voice>1</voice>     <type>eighth</type>     <accidental>flat</accidental>         <staff>1</staff>     <beam number="1">begin</beam>    </note>    <note color="#000000" default-x="54" default-y="-42">     <pitch>      <step>D</step>      <alter>-1</alter>      <octave>5</octave>     </pitch>     <duration>128</duration>     <instrument id="P1-I1" />     <voice>1</voice>     <type>eighth</type>         <staff>1</staff>     <beam number="1">continue</beam>    </note>    <note color="#000000" default-x="93" default-y="-42">     <pitch>      <step>E</step>      <alter>-1</alter>      <octave>5</octave>     </pitch>     <duration>128</duration>     <instrument id="P1-I1" />     <voice>1</voice>     <type>eighth</type>         <staff>1</staff>     <beam number="1">continue</beam>    </note>    <note color="#000000" default-x="132" default-y="-42">     <pitch>      <step>D</step>      <alter>-1</alter>      <octave>5</octave>     </pitch>     <duration>128</duration>     <instrument id="P1-I1" />     <voice>1</voice>     <type>eighth</type>         <staff>1</staff>     <beam number="1">end</beam>    </note>    <harmony color="#000000" default-y="25">     <root>      <root-step>G</root-step>      <root-alter>-1</root-alter>     </root>     <kind>dominant</kind>     <staff>1</staff>    </harmony>    <note color="#000000" default-x="171" default-y="10">     <pitch>      <step>A</step>      <alter>-1</alter>      <octave>4</octave>     </pitch>     <duration>256</duration>     <instrument id="P1-I1" />     <voice>1</voice>     <type>quarter</type>         <staff>1</staff>    </note>    <note color="#000000" default-x="225" default-y="-52">     <pitch>      <step>B</step>      <alter>-1</alter>      <octave>4</octave>     </pitch>     <duration>128</duration>     <instrument id="P1-I1" />     <voice>1</voice>     <type>eighth</type>         <staff>1</staff>     <beam number="1">begin</beam>    </note>    <note color="#000000" default-x="265" default-y="-52">     <pitch>      <step>C</step>      <octave>5</octave>     </pitch>     <duration>128</duration>     <tie type="start" />     <instrument id="P1-I1" />     <voice>1</voice>     <type>eighth</type>         <staff>1</staff>     <beam number="1">end</beam>     <notations>      <tied type="start" orientation="over" />     </notations>    </note>   </measure>   <!--============== Part: P1, Measure: 14 ==============-->   <measure number="14" width="178">    <harmony color="#000000" default-y="25">     <root>      <root-step>A</root-step>      <root-alter>-1</root-alter>     </root>     <kind>major-seventh</kind>     <staff>1</staff>    </harmony>    <note color="#000000" default-x="15" default-y="-50">     <pitch>      <step>C</step>      <octave>5</octave>     </pitch>     <duration>768</duration>     <tie type="stop" />     <instrument id="P1-I1" />     <voice>1</voice>     <type>half</type>     <dot />         <staff>1</staff>     <notations>      <tied type="stop" orientation="over" />     </notations>    </note>    <note color="#000000" default-x="124" default-y="10">     <pitch>      <step>A</step>      <alter>-1</alter>      <octave>4</octave>     </pitch>     <duration>256</duration>     <instrument id="P1-I1" />     <voice>1</voice>     <type>quarter</type>         <staff>1</staff>    </note>   </measure>   <!--============== Part: P1, Measure: 15 ==============-->   <measure number="15" width="325">    <print new-system="yes">     <system-layout>      <system-margins>       <left-margin>22</left-margin>       <right-margin>0</right-margin>      </system-margins>      <system-distance>92</system-distance>     </system-layout>    </print>    <attributes>     <staff-details number="1" print-object="yes" />    </attributes>    <harmony color="#000000" default-y="25">     <root>      <root-step>D</root-step>      <root-alter>-1</root-alter>     </root>     <kind>minor-seventh</kind>     <staff>1</staff>    </harmony>    <note color="#000000" default-x="107" default-y="-40">     <pitch>      <step>E</step>      <alter>-1</alter>      <octave>5</octave>     </pitch>     <duration>384</duration>     <instrument id="P1-I1" />     <voice>1</voice>     <type>quarter</type>     <dot />         <staff>1</staff>    </note>    <note color="#000000" default-x="173" default-y="-45">     <pitch>      <step>D</step>      <alter>-1</alter>      <octave>5</octave>     </pitch>     <duration>128</duration>     <instrument id="P1-I1" />     <voice>1</voice>     <type>eighth</type>         <staff>1</staff>    </note>    <harmony color="#000000" default-y="25">     <root>      <root-step>G</root-step>      <root-alter>-1</root-alter>     </root>     <kind>dominant</kind>     <staff>1</staff>    </harmony>    <note color="#000000" default-x="208" default-y="-40">     <pitch>      <step>E</step>      <alter>-1</alter>      <octave>5</octave>     </pitch>     <duration>170</duration>     <instrument id="P1-I1" />     <voice>1</voice>     <type>quarter</type>     <time-modification>      <actual-notes>3</actual-notes>      <normal-notes>2</normal-notes>      <normal-type>quarter</normal-type>     </time-modification>         <staff>1</staff>     <notations>      <tuplet type="start" bracket="yes" number="1" default-y="-52" placement="below" />     </notations>    </note>    <note color="#000000" default-x="247" default-y="-45">     <pitch>      <step>D</step>      <alter>-1</alter>      <octave>5</octave>     </pitch>     <duration>171</duration>     <instrument id="P1-I1" />     <voice>1</voice>     <type>quarter</type>     <time-modification>      <actual-notes>3</actual-notes>      <normal-notes>2</normal-notes>      <normal-type>quarter</normal-type>     </time-modification>         <staff>1</staff>    </note>    <note color="#000000" default-x="286" default-y="-40">     <pitch>      <step>E</step>      <alter>-1</alter>      <octave>5</octave>     </pitch>     <duration>171</duration>     <instrument id="P1-I1" />     <voice>1</voice>     <type>quarter</type>     <time-modification>      <actual-notes>3</actual-notes>      <normal-notes>2</normal-notes>      <normal-type>quarter</normal-type>     </time-modification>         <staff>1</staff>     <notations>      <tuplet type="stop" bracket="yes" number="1" default-y="-52" placement="below" />     </notations>    </note>   </measure>   <!--============== Part: P1, Measure: 16 ==============-->   <measure number="16" width="275">    <harmony color="#000000" default-y="25">     <root>      <root-step>A</root-step>      <root-alter>-1</root-alter>     </root>     <kind>major-seventh</kind>     <staff>1</staff>    </harmony>    <note color="#000000" default-x="15" default-y="-49">     <pitch>      <step>C</step>      <octave>5</octave>     </pitch>     <duration>128</duration>     <instrument id="P1-I1" />     <voice>1</voice>     <type>eighth</type>         <staff>1</staff>     <beam number="1">begin</beam>    </note>    <note color="#000000" default-x="50" default-y="-49">     <pitch>      <step>C</step>      <octave>5</octave>     </pitch>     <duration>128</duration>     <tie type="start" />     <instrument id="P1-I1" />     <voice>1</voice>     <type>eighth</type>         <staff>1</staff>     <beam number="1">end</beam>     <notations>      <tied type="start" orientation="over" />     </notations>    </note>    <note color="#000000" default-x="85" default-y="-50">     <pitch>      <step>C</step>      <octave>5</octave>     </pitch>     <duration>256</duration>     <tie type="stop" />     <tie type="start" />     <instrument id="P1-I1" />     <voice>1</voice>     <type>quarter</type>         <staff>1</staff>     <notations>      <tied type="stop" orientation="over" />      <tied type="start" orientation="over" />     </notations>    </note>    <note color="#000000" default-x="134" default-y="-54">     <pitch>      <step>C</step>      <octave>5</octave>     </pitch>     <duration>128</duration>     <tie type="stop" />     <instrument id="P1-I1" />     <voice>1</voice>     <type>eighth</type>         <staff>1</staff>     <beam number="1">begin</beam>     <notations>      <tied type="stop" orientation="over" />     </notations>    </note>    <note color="#000000" default-x="169" default-y="-54">     <pitch>      <step>A</step>      <alter>-1</alter>      <octave>4</octave>     </pitch>     <duration>128</duration>     <instrument id="P1-I1" />     <voice>1</voice>     <type>eighth</type>         <staff>1</staff>     <beam number="1">continue</beam>    </note>    <note color="#000000" default-x="204" default-y="-54">     <pitch>      <step>B</step>      <alter>-1</alter>      <octave>4</octave>     </pitch>     <duration>128</duration>     <instrument id="P1-I1" />     <voice>1</voice>     <type>eighth</type>         <staff>1</staff>     <beam number="1">continue</beam>    </note>    <note color="#000000" default-x="240" default-y="-54">     <pitch>      <step>B</step>      <octave>4</octave>     </pitch>     <duration>128</duration>     <tie type="start" />     <instrument id="P1-I1" />     <voice>1</voice>     <type>eighth</type>     <accidental>natural</accidental>         <staff>1</staff>     <beam number="1">end</beam>     <notations>      <tied type="start" orientation="over" />     </notations>    </note>   </measure>   <!--============== Part: P1, Measure: 17 ==============-->   <measure number="17" width="199">    <harmony color="#000000" default-y="25">     <root>      <root-step>B</root-step>     </root>     <kind>minor-seventh</kind>     <staff>1</staff>    </harmony>    <note color="#000000" default-x="15" default-y="-55">     <pitch>      <step>B</step>      <octave>4</octave>     </pitch>     <duration>384</duration>     <tie type="stop" />     <instrument id="P1-I1" />     <voice>1</voice>     <type>quarter</type>     <dot />         <staff>1</staff>     <notations>      <tied type="stop" orientation="over" />     </notations>    </note>    <note color="#000000" default-x="80" default-y="-5">     <pitch>      <step>E</step>      <octave>4</octave>     </pitch>     <duration>128</duration>     <tie type="start" />     <instrument id="P1-I1" />     <voice>1</voice>     <type>eighth</type>     <accidental>natural</accidental>         <staff>1</staff>     <notations>      <tied type="start" orientation="under" />     </notations>    </note>    <harmony color="#000000" default-y="25">     <root>      <root-step>E</root-step>     </root>     <kind>dominant</kind>     <staff>1</staff>    </harmony>    <note color="#000000" default-x="116" default-y="-5">     <pitch>      <step>E</step>      <octave>4</octave>     </pitch>     <duration>512</duration>     <tie type="stop" />     <instrument id="P1-I1" />     <voice>1</voice>     <type>half</type>         <staff>1</staff>     <notations>      <tied type="stop" orientation="under" />     </notations>    </note>   </measure>   <!--============== Part: P1, Measure: 18 ==============-->   <measure number="18" width="247">    <harmony color="#000000" default-y="25">     <root>      <root-step>B</root-step>      <root-alter>-1</root-alter>     </root>     <kind>minor-seventh</kind>     <staff>1</staff>    </harmony>    <note color="#000000" default-x="15" default-y="-50">     <pitch>      <step>C</step>      <octave>5</octave>     </pitch>     <duration>384</duration>     <instrument id="P1-I1" />     <voice>1</voice>     <type>quarter</type>     <dot />         <staff>1</staff>    </note>    <note color="#000000" default-x="80">     <pitch>      <step>F</step>      <octave>4</octave>     </pitch>     <duration>128</duration>     <tie type="start" />     <instrument id="P1-I1" />     <voice>1</voice>     <type>eighth</type>         <staff>1</staff>     <notations>      <tied type="start" orientation="under" />     </notations>    </note>    <harmony color="#000000" default-y="25">     <root>      <root-step>E</root-step>      <root-alter>-1</root-alter>     </root>     <kind>dominant</kind>     <staff>1</staff>    </harmony>    <note color="#000000" default-x="116">     <pitch>      <step>F</step>      <octave>4</octave>     </pitch>     <duration>256</duration>     <tie type="stop" />     <instrument id="P1-I1" />     <voice>1</voice>     <type>quarter</type>         <staff>1</staff>     <notations>      <tied type="stop" orientation="under" />     </notations>    </note>    <note color="#000000" default-x="165">     <pitch>      <step>E</step>      <alter>-1</alter>      <octave>4</octave>     </pitch>     <duration>128</duration>     <instrument id="P1-I1" />     <voice>1</voice>     <type>eighth</type>     <accidental>flat</accidental>         <staff>1</staff>     <beam number="1">begin</beam>    </note>    <note color="#000000" default-x="200">     <pitch>      <step>G</step>      <octave>4</octave>     </pitch>     <duration>128</duration>     <tie type="start" />     <instrument id="P1-I1" />     <voice>1</voice>     <type>eighth</type>         <staff>1</staff>     <beam number="1">end</beam>     <notations>      <tied type="start" orientation="under" />     </notations>    </note>    <barline>     <bar-style>light-light</bar-style>    </barline>   </measure>   <!--============== Part: P1, Measure: 19 ==============-->   <measure number="19" width="342">    <print new-system="yes">     <system-layout>      <system-margins>       <left-margin>22</left-margin>       <right-margin>0</right-margin>      </system-margins>      <system-distance>92</system-distance>     </system-layout>    </print>    <attributes>     <staff-details number="1" print-object="yes" />    </attributes>    <harmony color="#000000" default-y="25">     <root>      <root-step>A</root-step>      <root-alter>-1</root-alter>     </root>     <kind>major-seventh</kind>     <staff>1</staff>    </harmony>    <note color="#000000" default-x="107" default-y="5">     <pitch>      <step>G</step>      <octave>4</octave>     </pitch>     <duration>512</duration>     <tie type="stop" />     <tie type="start" />     <instrument id="P1-I1" />     <voice>1</voice>     <type>half</type>         <staff>1</staff>     <notations>      <tied type="stop" orientation="under" />      <tied type="start" orientation="under" />     </notations>    </note>    <note color="#000000" default-x="194" default-y="2">     <pitch>      <step>G</step>      <octave>4</octave>     </pitch>     <duration>128</duration>     <tie type="stop" />     <instrument id="P1-I1" />     <voice>1</voice>     <type>eighth</type>         <staff>1</staff>     <beam number="1">begin</beam>     <notations>      <tied type="stop" orientation="under" />     </notations>    </note>    <note color="#000000" default-x="231" default-y="2">     <pitch>      <step>C</step>      <octave>4</octave>     </pitch>     <duration>128</duration>     <instrument id="P1-I1" />     <voice>1</voice>     <type>eighth</type>         <staff>1</staff>     <beam number="1">continue</beam>    </note>    <note color="#000000" default-x="268" default-y="2">     <pitch>      <step>E</step>      <alter>-1</alter>      <octave>4</octave>     </pitch>     <duration>128</duration>     <instrument id="P1-I1" />     <voice>1</voice>     <type>eighth</type>         <staff>1</staff>     <beam number="1">continue</beam>    </note>    <note color="#000000" default-x="305" default-y="2">     <pitch>      <step>G</step>      <octave>4</octave>     </pitch>     <duration>128</duration>     <instrument id="P1-I1" />     <voice>1</voice>     <type>eighth</type>         <staff>1</staff>     <beam number="1">end</beam>    </note>   </measure>   <!--============== Part: P1, Measure: 20 ==============-->   <measure number="20" width="227">    <harmony color="#000000" default-y="25">     <root>      <root-step>G</root-step>      <root-alter>-1</root-alter>     </root>     <kind>major-seventh</kind>     <staff>1</staff>    </harmony>    <note color="#000000" default-x="15" default-y="-5">     <pitch>      <step>F</step>      <octave>4</octave>     </pitch>     <duration>128</duration>     <instrument id="P1-I1" />     <voice>1</voice>     <type>eighth</type>         <staff>1</staff>     <beam number="1">begin</beam>    </note>    <note color="#000000" default-x="52" default-y="-5">     <pitch>      <step>D</step>      <alter>-1</alter>      <octave>4</octave>     </pitch>     <duration>128</duration>     <tie type="start" />     <instrument id="P1-I1" />     <voice>1</voice>     <type>eighth</type>         <staff>1</staff>     <beam number="1">end</beam>     <notations>      <tied type="start" orientation="under" />     </notations>    </note>    <note color="#000000" default-x="89" default-y="-10">     <pitch>      <step>D</step>      <alter>-1</alter>      <octave>4</octave>     </pitch>     <duration>512</duration>     <tie type="stop" />     <instrument id="P1-I1" />     <voice>1</voice>     <type>half</type>         <staff>1</staff>     <notations>      <tied type="stop" orientation="under" />     </notations>    </note>    <note color="#000000" default-x="175" default-y="-5">     <pitch>      <step>E</step>      <alter>-1</alter>      <octave>4</octave>     </pitch>     <duration>256</duration>     <instrument id="P1-I1" />     <voice>1</voice>     <type>quarter</type>         <staff>1</staff>    </note>   </measure>   <!--============== Part: P1, Measure: 21 ==============-->   <measure number="21" width="250">    <harmony color="#000000" default-y="25">     <root>      <root-step>A</root-step>      <root-alter>-1</root-alter>     </root>     <kind>major-seventh</kind>     <staff>1</staff>    </harmony>    <note color="#000000" default-x="15" default-y="5">     <pitch>      <step>G</step>      <octave>4</octave>     </pitch>     <duration>512</duration>     <tie type="start" />     <instrument id="P1-I1" />     <voice>1</voice>     <type>half</type>         <staff>1</staff>     <notations>      <tied type="start" orientation="under" />     </notations>    </note>    <note color="#000000" default-x="102" default-y="2">     <pitch>      <step>G</step>      <octave>4</octave>     </pitch>     <duration>128</duration>     <tie type="stop" />     <instrument id="P1-I1" />     <voice>1</voice>     <type>eighth</type>         <staff>1</staff>     <beam number="1">begin</beam>     <notations>      <tied type="stop" orientation="under" />     </notations>    </note>    <note color="#000000" default-x="139" default-y="2">     <pitch>      <step>C</step>      <octave>4</octave>     </pitch>     <duration>128</duration>     <instrument id="P1-I1" />     <voice>1</voice>     <type>eighth</type>         <staff>1</staff>     <beam number="1">continue</beam>    </note>    <note color="#000000" default-x="176" default-y="2">     <pitch>      <step>E</step>      <alter>-1</alter>      <octave>4</octave>     </pitch>     <duration>128</duration>     <instrument id="P1-I1" />     <voice>1</voice>     <type>eighth</type>         <staff>1</staff>     <beam number="1">continue</beam>    </note>    <note color="#000000" default-x="213" default-y="2">     <pitch>      <step>G</step>      <octave>4</octave>     </pitch>     <duration>128</duration>     <instrument id="P1-I1" />     <voice>1</voice>     <type>eighth</type>         <staff>1</staff>     <beam number="1">end</beam>    </note>   </measure>   <!--============== Part: P1, Measure: 22 ==============-->   <measure number="22" width="227">    <harmony color="#000000" default-y="25">     <root>      <root-step>D</root-step>      <root-alter>-1</root-alter>     </root>     <kind>dominant-ninth</kind>     <degree>      <degree-value>11</degree-value>      <degree-alter>1</degree-alter>      <degree-type>add</degree-type>     </degree>     <staff>1</staff>    </harmony>    <note color="#000000" default-x="15" default-y="4">     <pitch>      <step>A</step>      <alter>-1</alter>      <octave>4</octave>     </pitch>     <duration>128</duration>     <instrument id="P1-I1" />     <voice>1</voice>     <type>eighth</type>         <staff>1</staff>     <beam number="1">begin</beam>    </note>    <note color="#000000" default-x="52" default-y="4">     <pitch>      <step>F</step>      <octave>4</octave>     </pitch>     <duration>128</duration>     <tie type="start" />     <instrument id="P1-I1" />     <voice>1</voice>     <type>eighth</type>         <staff>1</staff>     <beam number="1">end</beam>     <notations>      <tied type="start" orientation="under" />     </notations>    </note>    <note color="#000000" default-x="89">     <pitch>      <step>F</step>      <octave>4</octave>     </pitch>     <duration>512</duration>     <tie type="stop" />     <instrument id="P1-I1" />     <voice>1</voice>     <type>half</type>         <staff>1</staff>     <notations>      <tied type="stop" orientation="under" />     </notations>    </note>    <note color="#000000" default-x="176" default-y="-10">     <pitch>      <step>D</step>      <alter>-1</alter>      <octave>4</octave>     </pitch>     <duration>256</duration>     <instrument id="P1-I1" />     <voice>1</voice>     <type>quarter</type>         <staff>1</staff>    </note>   </measure>   <!--============== Part: P1, Measure: 23 ==============-->   <measure number="23" width="324">    <print new-system="yes">     <system-layout>      <system-margins>       <left-margin>22</left-margin>       <right-margin>0</right-margin>      </system-margins>      <system-distance>92</system-distance>     </system-layout>    </print>    <attributes>     <staff-details number="1" print-object="yes" />    </attributes>    <harmony color="#000000" default-y="25">     <root>      <root-step>G</root-step>      <root-alter>-1</root-alter>     </root>     <kind>major-seventh</kind>     <staff>1</staff>    </harmony>    <note color="#000000" default-x="107" default-y="-55">     <pitch>      <step>B</step>      <alter>-1</alter>      <octave>4</octave>     </pitch>     <duration>512</duration>     <instrument id="P1-I1" />     <voice>1</voice>     <type>half</type>         <staff>1</staff>    </note>    <note color="#000000" default-x="196" default-y="-10">     <pitch>      <step>D</step>      <alter>-1</alter>      <octave>4</octave>     </pitch>     <duration>170</duration>     <instrument id="P1-I1" />     <voice>1</voice>     <type>quarter</type>     <time-modification>      <actual-notes>3</actual-notes>      <normal-notes>2</normal-notes>      <normal-type>quarter</normal-type>     </time-modification>         <staff>1</staff>     <notations>      <tuplet type="start" bracket="yes" number="1" default-y="12" placement="above" />     </notations>    </note>    <note color="#000000" default-x="239" default-y="5">     <pitch>      <step>G</step>      <alter>-1</alter>      <octave>4</octave>     </pitch>     <duration>171</duration>     <instrument id="P1-I1" />     <voice>1</voice>     <type>quarter</type>     <accidental>flat</accidental>     <time-modification>      <actual-notes>3</actual-notes>      <normal-notes>2</normal-notes>      <normal-type>quarter</normal-type>     </time-modification>         <staff>1</staff>    </note>    <note color="#000000" default-x="281" default-y="-55">     <pitch>      <step>B</step>      <alter>-1</alter>      <octave>4</octave>     </pitch>     <duration>171</duration>     <instrument id="P1-I1" />     <voice>1</voice>     <type>quarter</type>     <time-modification>      <actual-notes>3</actual-notes>      <normal-notes>2</normal-notes>      <normal-type>quarter</normal-type>     </time-modification>         <staff>1</staff>     <notations>      <tuplet type="stop" bracket="yes" number="1" default-y="12" placement="above" />     </notations>    </note>   </measure>   <!--============== Part: P1, Measure: 24 ==============-->   <measure number="24" width="297">    <harmony color="#000000" default-y="25">     <root>      <root-step>E</root-step>     </root>     <kind>dominant-ninth</kind>     <degree>      <degree-value>11</degree-value>      <degree-alter>1</degree-alter>      <degree-type>add</degree-type>     </degree>     <staff>1</staff>    </harmony>    <note color="#000000" default-x="15" default-y="2">     <pitch>      <step>G</step>      <alter>1</alter>      <octave>4</octave>     </pitch>     <duration>128</duration>     <instrument id="P1-I1" />     <voice>1</voice>     <type>eighth</type>     <accidental>sharp</accidental>         <staff>1</staff>     <beam number="1">begin</beam>    </note>    <note color="#000000" default-x="54" default-y="2">     <pitch>      <step>E</step>      <octave>4</octave>     </pitch>     <duration>128</duration>     <tie type="start" />     <instrument id="P1-I1" />     <voice>1</voice>     <type>eighth</type>     <accidental>natural</accidental>         <staff>1</staff>     <beam number="1">end</beam>     <notations>      <tied type="start" orientation="under" />     </notations>    </note>    <note color="#000000" default-x="92" default-y="-5">     <pitch>      <step>E</step>      <octave>4</octave>     </pitch>     <duration>256</duration>     <tie type="stop" />     <tie type="start" />     <instrument id="P1-I1" />     <voice>1</voice>     <type>quarter</type>         <staff>1</staff>     <notations>      <tied type="stop" orientation="under" />      <tied type="start" orientation="under" />     </notations>    </note>    <note color="#000000" default-x="144">     <pitch>      <step>E</step>      <octave>4</octave>     </pitch>     <duration>128</duration>     <tie type="stop" />     <instrument id="P1-I1" />     <voice>1</voice>     <type>eighth</type>         <staff>1</staff>     <beam number="1">begin</beam>     <notations>      <tied type="stop" orientation="under" />     </notations>    </note>    <note color="#000000" default-x="182">     <pitch>      <step>F</step>      <alter>1</alter>      <octave>4</octave>     </pitch>     <duration>128</duration>     <instrument id="P1-I1" />     <voice>1</voice>     <type>eighth</type>     <accidental>sharp</accidental>         <staff>1</staff>     <beam number="1">continue</beam>    </note>    <note color="#000000" default-x="220">     <pitch>      <step>E</step>      <octave>4</octave>     </pitch>     <duration>128</duration>     <instrument id="P1-I1" />     <voice>1</voice>     <type>eighth</type>         <staff>1</staff>     <beam number="1">continue</beam>    </note>    <note color="#000000" default-x="259">     <pitch>      <step>E</step>      <alter>-1</alter>      <octave>4</octave>     </pitch>     <duration>128</duration>     <tie type="start" />     <instrument id="P1-I1" />     <voice>1</voice>     <type>eighth</type>     <accidental>flat</accidental>         <staff>1</staff>     <beam number="1">end</beam>     <notations>      <tied type="start" orientation="under" />     </notations>    </note>   </measure>   <!--============== Part: P1, Measure: 25 ==============-->   <measure number="25" width="272">    <harmony color="#000000" default-y="25">     <root>      <root-step>B</root-step>      <root-alter>-1</root-alter>     </root>     <kind>minor-seventh</kind>     <staff>1</staff>    </harmony>    <note color="#000000" default-x="15" default-y="-5">     <pitch>      <step>E</step>      <alter>-1</alter>      <octave>4</octave>     </pitch>     <duration>256</duration>     <tie type="stop" />     <instrument id="P1-I1" />     <voice>1</voice>     <type>quarter</type>         <staff>1</staff>     <notations>      <tied type="stop" orientation="under" />     </notations>    </note>    <note color="#000000" default-x="67" default-y="-7">     <pitch>      <step>E</step>      <alter>-1</alter>      <octave>4</octave>     </pitch>     <duration>128</duration>     <instrument id="P1-I1" />     <voice>1</voice>     <type>eighth</type>         <staff>1</staff>     <beam number="1">begin</beam>    </note>    <note color="#000000" default-x="105" default-y="-7">     <pitch>      <step>E</step>      <alter>-1</alter>      <octave>4</octave>     </pitch>     <duration>128</duration>     <instrument id="P1-I1" />     <voice>1</voice>     <type>eighth</type>         <staff>1</staff>     <beam number="1">end</beam>    </note>    <harmony color="#000000" default-y="25">     <root>      <root-step>E</root-step>      <root-alter>-1</root-alter>     </root>     <kind>dominant</kind>     <staff>1</staff>    </harmony>    <note color="#000000" default-x="144" default-y="-5">     <pitch>      <step>E</step>      <alter>-1</alter>      <octave>4</octave>     </pitch>     <duration>256</duration>     <instrument id="P1-I1" />     <voice>1</voice>     <type>quarter</type>         <staff>1</staff>    </note>    <note color="#000000" default-x="196" default-y="9">     <pitch>      <step>F</step>      <octave>4</octave>     </pitch>     <duration>128</duration>     <instrument id="P1-I1" />     <voice>1</voice>     <type>eighth</type>     <accidental>natural</accidental>         <staff>1</staff>     <beam number="1">begin</beam>    </note>    <note color="#000000" default-x="234" default-y="9">     <pitch>      <step>A</step>      <alter>-1</alter>      <octave>4</octave>     </pitch>     <duration>128</duration>     <tie type="start" />     <instrument id="P1-I1" />     <voice>1</voice>     <type>eighth</type>         <staff>1</staff>     <beam number="1">end</beam>     <notations>      <tied type="start" orientation="under" />     </notations>    </note>   </measure>   <!--============== Part: P1, Measure: 26 ==============-->   <measure number="26" width="153">    <harmony color="#000000" default-y="25">     <root>      <root-step>A</root-step>      <root-alter>-1</root-alter>     </root>     <kind>major-seventh</kind>     <staff>1</staff>    </harmony>    <note color="#000000" default-x="15">     <pitch>      <step>A</step>      <alter>-1</alter>      <octave>4</octave>     </pitch>     <duration>1024</duration>     <tie type="stop" />     <instrument id="P1-I1" />     <voice>1</voice>     <type>whole</type>     <staff>1</staff>     <notations>      <tied type="stop" orientation="under" />     </notations>    </note>    <barline>     <bar-style>light-heavy</bar-style>    </barline>   </measure>  </part> </score-partwise>  