<?xml version="1.0" encoding='UTF-8' standalone='no' ?> <!DOCTYPE score-partwise PUBLIC "-//Recordare//DTD MusicXML 3.0 Partwise//EN" "http://www.musicxml.org/dtds/partwise.dtd"> <score-partwise version="3.0">  <work>   <work-title>On the Street Where You Live</work-title>  </work>  <identification>   <creator type="composer">1956 - Frederick Loewe / Alan Jay Lerner</creator>   <rights>www.realbook.site</rights>   <encoding>    <encoding-date>2023-04-24</encoding-date>    <encoder>mosco</encoder>    <software>Sibelius 22.9.0</software>    <software>Direct export, not from Dolet</software>    <encoding-description>Sibelius / MusicXML 3.0</encoding-description>    <supports element="print" type="yes" value="yes" attribute="new-system" />    <supports element="print" type="yes" value="yes" attribute="new-page" />    <supports element="accidental" type="yes" />    <supports element="beam" type="yes" />    <supports element="stem" type="yes" />   </encoding>  </identification>  <defaults>   <scaling>    <millimeters>210</millimeters>    <tenths>1354</tenths>   </scaling>   <page-layout>    <page-height>1916</page-height>    <page-width>1354</page-width>    <page-margins type="both">     <left-margin>81</left-margin>     <right-margin>81</right-margin>     <top-margin>81</top-margin>     <bottom-margin>81</bottom-margin>    </page-margins>   </page-layout>   <system-layout>    <system-margins>     <left-margin>22</left-margin>     <right-margin>0</right-margin>    </system-margins>    <system-distance>92</system-distance>   </system-layout>   <appearance>    <line-width type="stem">0.9375</line-width>    <line-width type="beam">5</line-width>    <line-width type="staff">0.9375</line-width>    <line-width type="light barline">1.5625</line-width>    <line-width type="heavy barline">5</line-width>    <line-width type="leger">1.5625</line-width>    <line-width type="ending">1.5625</line-width>    <line-width type="wedge">1.25</line-width>    <line-width type="enclosure">0.9375</line-width>    <line-width type="tuplet bracket">1.25</line-width>    <line-width type="bracket">5</line-width>    <line-width type="dashes">1.5625</line-width>    <line-width type="extend">0.9375</line-width>    <line-width type="octave shift">1.5625</line-width>    <line-width type="pedal">1.5625</line-width>    <line-width type="slur middle">1.5625</line-width>    <line-width type="slur tip">0.625</line-width>    <line-width type="tie middle">1.5625</line-width>    <line-width type="tie tip">0.625</line-width>    <note-size type="cue">75</note-size>    <note-size type="grace">60</note-size>   </appearance>   <music-font font-family="Opus Std" font-size="17.5748" />   <word-font font-family="Plantin MT Std" font-size="10.5723" />   <lyric-font font-family="Plantin MT Std" font-size="10.1604" />   <lyric-language xml:lang="en" />  </defaults>  <credit page="1">   <credit-words default-x="677" default-y="155" font-family="Plantin MT Std" font-style="normal" font-size="19.497" font-weight="normal" justify="center" valign="middle">On the Street Where You Live</credit-words>  </credit>  <credit page="1">   <credit-words default-x="1272" default-y="84" font-family="Plantin MT Std" font-style="normal" font-size="9.7485" font-weight="normal" justify="right" valign="middle">1956 - Frederick Loewe / Alan Jay Lerner</credit-words>  </credit>  <credit page="1">   <credit-words default-x="677" default-y="81" font-family="Plantin MT Std" font-style="normal" font-size="8.9247" font-weight="normal" justify="center" valign="middle">www.realbook.site</credit-words>  </credit>  <part-list>   <score-part id="P1">    <part-name> </part-name>    <part-name-display>     <display-text> </display-text>    </part-name-display>    <part-abbreviation> </part-abbreviation>    <part-abbreviation-display>     <display-text> </display-text>    </part-abbreviation-display>    <score-instrument id="P1-I1">     <instrument-name> </instrument-name>     <virtual-instrument>      <virtual-library>General MIDI</virtual-library>      <virtual-name>Bright Piano</virtual-name>     </virtual-instrument>    </score-instrument>   </score-part>  </part-list>  <part id="P1">   <!--============== Part: P1, Measure: 0 ==============-->   <measure number="0" width="197">    <print new-page="yes">     <system-layout>      <system-margins>       <left-margin>23</left-margin>       <right-margin>0</right-margin>      </system-margins>      <top-system-distance>218</top-system-distance>     </system-layout>    </print>    <attributes>     <divisions>256</divisions>     <key color="#000000">      <fifths>0</fifths>      <mode>major</mode>     </key>     <time symbol="common" color="#000000">      <beats>4</beats>      <beat-type>4</beat-type>     </time>     <staves>1</staves>     <clef number="1" color="#000000">      <sign>G</sign>      <line>2</line>     </clef>     <staff-details number="1" print-object="yes" />    </attributes>    <note color="#000000" default-x="75" default-y="-15">     <pitch>      <step>C</step>      <octave>4</octave>     </pitch>     <duration>256</duration>     <instrument id="P1-I1" />     <voice>1</voice>     <type>quarter</type>         <staff>1</staff>    </note>    <note color="#000000" default-x="136" default-y="-10">     <pitch>      <step>D</step>      <octave>4</octave>     </pitch>     <duration>256</duration>     <instrument id="P1-I1" />     <voice>1</voice>     <type>quarter</type>         <staff>1</staff>    </note>   </measure>   <!--============== Part: P1, Measure: 1 ==============-->   <measure number="1" width="252">    <barline location="left">     <bar-style>heavy-light</bar-style>     <repeat direction="forward" />    </barline>    <harmony color="#000000" default-y="25">     <root>      <root-step>C</root-step>     </root>     <kind>major</kind>     <staff>1</staff>    </harmony>    <note color="#000000" default-x="27" default-y="-5">     <pitch>      <step>E</step>      <octave>4</octave>     </pitch>     <duration>256</duration>     <instrument id="P1-I1" />     <voice>1</voice>     <type>quarter</type>         <staff>1</staff>    </note>    <note color="#000000" default-x="88" default-y="10">     <pitch>      <step>A</step>      <octave>4</octave>     </pitch>     <duration>256</duration>     <instrument id="P1-I1" />     <voice>1</voice>     <type>quarter</type>         <staff>1</staff>    </note>    <note color="#000000" default-x="149" default-y="10">     <pitch>      <step>A</step>      <octave>4</octave>     </pitch>     <duration>512</duration>     <instrument id="P1-I1" />     <voice>1</voice>     <type>half</type>         <staff>1</staff>    </note>   </measure>   <!--============== Part: P1, Measure: 2 ==============-->   <measure number="2" width="239">    <harmony color="#000000" default-y="25">     <root>      <root-step>G</root-step>     </root>     <kind>dominant</kind>     <staff>1</staff>    </harmony>    <note default-x="15">     <rest />     <duration>512</duration>     <instrument id="P1-I1" />     <voice>1</voice>     <type>half</type>     <staff>1</staff>    </note>    <note color="#000000" default-x="118" default-y="5">     <pitch>      <step>G</step>      <octave>4</octave>     </pitch>     <duration>256</duration>     <instrument id="P1-I1" />     <voice>1</voice>     <type>quarter</type>         <staff>1</staff>    </note>    <note color="#000000" default-x="179">     <pitch>      <step>F</step>      <octave>4</octave>     </pitch>     <duration>256</duration>     <instrument id="P1-I1" />     <voice>1</voice>     <type>quarter</type>         <staff>1</staff>    </note>   </measure>   <!--============== Part: P1, Measure: 3 ==============-->   <measure number="3" width="239">    <harmony color="#000000" default-y="25">     <root>      <root-step>C</root-step>     </root>     <kind>major</kind>     <staff>1</staff>    </harmony>    <note color="#000000" default-x="15" default-y="-5">     <pitch>      <step>E</step>      <octave>4</octave>     </pitch>     <duration>256</duration>     <instrument id="P1-I1" />     <voice>1</voice>     <type>quarter</type>         <staff>1</staff>    </note>    <note color="#000000" default-x="75" default-y="-15">     <pitch>      <step>C</step>      <octave>4</octave>     </pitch>     <duration>256</duration>     <instrument id="P1-I1" />     <voice>1</voice>     <type>quarter</type>         <staff>1</staff>    </note>    <note color="#000000" default-x="136" default-y="-15">     <pitch>      <step>C</step>      <octave>4</octave>     </pitch>     <duration>512</duration>     <instrument id="P1-I1" />     <voice>1</voice>     <type>half</type>         <staff>1</staff>    </note>   </measure>   <!--============== Part: P1, Measure: 4 ==============-->   <measure number="4" width="239">    <harmony color="#000000" default-y="25">     <root>      <root-step>G</root-step>     </root>     <kind>dominant</kind>     <staff>1</staff>    </harmony>    <note default-x="15">     <rest />     <duration>512</duration>     <instrument id="P1-I1" />     <voice>1</voice>     <type>half</type>     <staff>1</staff>    </note>    <note color="#000000" default-x="118" default-y="-15">     <pitch>      <step>C</step>      <octave>4</octave>     </pitch>     <duration>256</duration>     <instrument id="P1-I1" />     <voice>1</voice>     <type>quarter</type>         <staff>1</staff>    </note>    <note color="#000000" default-x="178" default-y="-10">     <pitch>      <step>D</step>      <octave>4</octave>     </pitch>     <duration>256</duration>     <instrument id="P1-I1" />     <voice>1</voice>     <type>quarter</type>         <staff>1</staff>    </note>   </measure>   <!--============== Part: P1, Measure: 5 ==============-->   <measure number="5" width="334">    <print new-system="yes">     <system-layout>      <system-margins>       <left-margin>23</left-margin>       <right-margin>0</right-margin>      </system-margins>      <system-distance>64</system-distance>     </system-layout>    </print>    <attributes>     <staff-details number="1" print-object="yes" />    </attributes>    <harmony color="#000000" default-y="25">     <root>      <root-step>C</root-step>     </root>     <kind>major</kind>     <staff>1</staff>    </harmony>    <note color="#000000" default-x="57" default-y="-5">     <pitch>      <step>E</step>      <octave>4</octave>     </pitch>     <duration>256</duration>     <instrument id="P1-I1" />     <voice>1</voice>     <type>quarter</type>         <staff>1</staff>    </note>    <note color="#000000" default-x="126" default-y="-55">     <pitch>      <step>B</step>      <octave>4</octave>     </pitch>     <duration>256</duration>     <instrument id="P1-I1" />     <voice>1</voice>     <type>quarter</type>         <staff>1</staff>    </note>    <note color="#000000" default-x="195" default-y="-55">     <pitch>      <step>B</step>      <octave>4</octave>     </pitch>     <duration>256</duration>     <instrument id="P1-I1" />     <voice>1</voice>     <type>quarter</type>         <staff>1</staff>    </note>    <note color="#000000" default-x="265" default-y="-55">     <pitch>      <step>B</step>      <octave>4</octave>     </pitch>     <duration>256</duration>     <instrument id="P1-I1" />     <voice>1</voice>     <type>quarter</type>         <staff>1</staff>    </note>   </measure>   <!--============== Part: P1, Measure: 6 ==============-->   <measure number="6" width="291">    <harmony color="#000000" default-y="25">     <root>      <root-step>D</root-step>      <root-alter>1</root-alter>     </root>     <kind>diminished</kind>     <staff>1</staff>    </harmony>    <note color="#000000" default-x="15" default-y="-55">     <pitch>      <step>B</step>      <octave>4</octave>     </pitch>     <duration>256</duration>     <instrument id="P1-I1" />     <voice>1</voice>     <type>quarter</type>         <staff>1</staff>    </note>    <note color="#000000" default-x="84" default-y="-50">     <pitch>      <step>C</step>      <octave>5</octave>     </pitch>     <duration>256</duration>     <instrument id="P1-I1" />     <voice>1</voice>     <type>quarter</type>         <staff>1</staff>    </note>    <note color="#000000" default-x="153" default-y="-55">     <pitch>      <step>B</step>      <octave>4</octave>     </pitch>     <duration>256</duration>     <instrument id="P1-I1" />     <voice>1</voice>     <type>quarter</type>         <staff>1</staff>    </note>    <note color="#000000" default-x="222" default-y="-50">     <pitch>      <step>C</step>      <octave>5</octave>     </pitch>     <duration>256</duration>     <instrument id="P1-I1" />     <voice>1</voice>     <type>quarter</type>         <staff>1</staff>    </note>   </measure>   <!--============== Part: P1, Measure: 7 ==============-->   <measure number="7" width="271">    <harmony color="#000000" default-y="25">     <root>      <root-step>D</root-step>     </root>     <kind>minor-seventh</kind>     <staff>1</staff>    </harmony>    <note color="#000000" default-x="15" default-y="10">     <pitch>      <step>A</step>      <octave>4</octave>     </pitch>     <duration>256</duration>     <instrument id="P1-I1" />     <voice>1</voice>     <type>quarter</type>         <staff>1</staff>    </note>    <note color="#000000" default-x="84" default-y="5">     <pitch>      <step>G</step>      <octave>4</octave>     </pitch>     <duration>256</duration>     <instrument id="P1-I1" />     <voice>1</voice>     <type>quarter</type>         <staff>1</staff>    </note>    <note color="#000000" default-x="153" default-y="5">     <pitch>      <step>G</step>      <octave>4</octave>     </pitch>     <duration>512</duration>     <instrument id="P1-I1" />     <voice>1</voice>     <type>half</type>         <staff>1</staff>    </note>   </measure>   <!--============== Part: P1, Measure: 8 ==============-->   <measure number="8" width="270">    <harmony color="#000000" default-y="25">     <root>      <root-step>G</root-step>     </root>     <kind>dominant</kind>     <staff>1</staff>    </harmony>    <note default-x="15">     <rest />     <duration>512</duration>     <instrument id="P1-I1" />     <voice>1</voice>     <type>half</type>     <staff>1</staff>    </note>    <note color="#000000" default-x="132" default-y="-10">     <pitch>      <step>D</step>      <octave>4</octave>     </pitch>     <duration>256</duration>     <instrument id="P1-I1" />     <voice>1</voice>     <type>quarter</type>         <staff>1</staff>    </note>    <note color="#000000" default-x="201" default-y="-5">     <pitch>      <step>E</step>      <octave>4</octave>     </pitch>     <duration>256</duration>     <instrument id="P1-I1" />     <voice>1</voice>     <type>quarter</type>         <staff>1</staff>    </note>   </measure>   <!--============== Part: P1, Measure: 9 ==============-->   <measure number="9" width="324">    <print new-system="yes">     <system-layout>      <system-margins>       <left-margin>23</left-margin>       <right-margin>0</right-margin>      </system-margins>      <system-distance>65</system-distance>     </system-layout>    </print>    <attributes>     <staff-details number="1" print-object="yes" />    </attributes>    <harmony color="#000000" default-y="25">     <root>      <root-step>D</root-step>     </root>     <kind>minor-seventh</kind>     <staff>1</staff>    </harmony>    <note color="#000000" default-x="57">     <pitch>      <step>F</step>      <octave>4</octave>     </pitch>     <duration>256</duration>     <instrument id="P1-I1" />     <voice>1</voice>     <type>quarter</type>         <staff>1</staff>    </note>    <note color="#000000" default-x="129" default-y="-40">     <pitch>      <step>E</step>      <octave>5</octave>     </pitch>     <duration>256</duration>     <instrument id="P1-I1" />     <voice>1</voice>     <type>quarter</type>         <staff>1</staff>    </note>    <note color="#000000" default-x="201" default-y="-40">     <pitch>      <step>E</step>      <octave>5</octave>     </pitch>     <duration>512</duration>     <instrument id="P1-I1" />     <voice>1</voice>     <type>half</type>         <staff>1</staff>    </note>   </measure>   <!--============== Part: P1, Measure: 10 ==============-->   <measure number="10" width="281">    <harmony color="#000000" default-y="25">     <root>      <root-step>B</root-step>      <root-alter>-1</root-alter>     </root>     <kind>dominant</kind>     <staff>1</staff>    </harmony>    <note default-x="15">     <rest />     <duration>512</duration>     <instrument id="P1-I1" />     <voice>1</voice>     <type>half</type>     <staff>1</staff>    </note>    <note color="#000000" default-x="137" default-y="-45">     <pitch>      <step>D</step>      <octave>5</octave>     </pitch>     <duration>256</duration>     <instrument id="P1-I1" />     <voice>1</voice>     <type>quarter</type>         <staff>1</staff>    </note>    <note color="#000000" default-x="209" default-y="-40">     <pitch>      <step>E</step>      <octave>5</octave>     </pitch>     <duration>256</duration>     <instrument id="P1-I1" />     <voice>1</voice>     <type>quarter</type>         <staff>1</staff>    </note>   </measure>   <!--============== Part: P1, Measure: 11 ==============-->   <measure number="11" width="281">    <harmony color="#000000" default-y="25">     <root>      <root-step>C</root-step>     </root>     <kind>major</kind>     <staff>1</staff>    </harmony>    <note color="#000000" default-x="15" default-y="-45">     <pitch>      <step>D</step>      <octave>5</octave>     </pitch>     <duration>256</duration>     <instrument id="P1-I1" />     <voice>1</voice>     <type>quarter</type>         <staff>1</staff>    </note>    <note color="#000000" default-x="87" default-y="-50">     <pitch>      <step>C</step>      <octave>5</octave>     </pitch>     <duration>256</duration>     <instrument id="P1-I1" />     <voice>1</voice>     <type>quarter</type>         <staff>1</staff>    </note>    <note color="#000000" default-x="159" default-y="-50">     <pitch>      <step>C</step>      <octave>5</octave>     </pitch>     <duration>512</duration>     <instrument id="P1-I1" />     <voice>1</voice>     <type>half</type>         <staff>1</staff>    </note>   </measure>   <!--============== Part: P1, Measure: 12 ==============-->   <measure number="12" width="281">    <harmony color="#000000" default-y="25">     <root>      <root-step>A</root-step>     </root>     <kind>minor-seventh</kind>     <staff>1</staff>    </harmony>    <note default-x="15">     <rest />     <duration>512</duration>     <instrument id="P1-I1" />     <voice>1</voice>     <type>half</type>     <staff>1</staff>    </note>    <note color="#000000" default-x="137" default-y="-40">     <pitch>      <step>E</step>      <octave>5</octave>     </pitch>     <duration>256</duration>     <instrument id="P1-I1" />     <voice>1</voice>     <type>quarter</type>         <staff>1</staff>    </note>    <note color="#000000" default-x="209" default-y="-45">     <pitch>      <step>D</step>      <octave>5</octave>     </pitch>     <duration>256</duration>     <instrument id="P1-I1" />     <voice>1</voice>     <type>quarter</type>         <staff>1</staff>    </note>   </measure>   <!--============== Part: P1, Measure: 13 ==============-->   <measure number="13" width="323">    <print new-system="yes">     <system-layout>      <system-margins>       <left-margin>23</left-margin>       <right-margin>0</right-margin>      </system-margins>      <system-distance>90</system-distance>     </system-layout>    </print>    <attributes>     <staff-details number="1" print-object="yes" />    </attributes>    <barline location="left">     <ending number="1" type="start" />    </barline>    <harmony color="#000000" default-y="25">     <root>      <root-step>D</root-step>     </root>     <kind>dominant</kind>     <staff>1</staff>    </harmony>    <note color="#000000" default-x="57" default-y="-50">     <pitch>      <step>C</step>      <octave>5</octave>     </pitch>     <duration>512</duration>     <instrument id="P1-I1" />     <voice>1</voice>     <type>half</type>         <staff>1</staff>    </note>    <note color="#000000" default-x="179" default-y="-45">     <pitch>      <step>D</step>      <octave>5</octave>     </pitch>     <duration>256</duration>     <instrument id="P1-I1" />     <voice>1</voice>     <type>quarter</type>         <staff>1</staff>    </note>    <note color="#000000" default-x="251" default-y="-50">     <pitch>      <step>C</step>      <octave>5</octave>     </pitch>     <duration>256</duration>     <instrument id="P1-I1" />     <voice>1</voice>     <type>quarter</type>         <staff>1</staff>    </note>   </measure>   <!--============== Part: P1, Measure: 14 ==============-->   <measure number="14" width="281">    <harmony color="#000000" default-y="25">     <root>      <root-step>G</root-step>     </root>     <kind>dominant</kind>     <staff>1</staff>    </harmony>    <note color="#000000" default-x="15" default-y="-55">     <pitch>      <step>B</step>      <octave>4</octave>     </pitch>     <duration>512</duration>     <instrument id="P1-I1" />     <voice>1</voice>     <type>half</type>         <staff>1</staff>    </note>    <note color="#000000" default-x="137" default-y="-50">     <pitch>      <step>C</step>      <octave>5</octave>     </pitch>     <duration>256</duration>     <instrument id="P1-I1" />     <voice>1</voice>     <type>quarter</type>         <staff>1</staff>    </note>    <note color="#000000" default-x="209" default-y="-55">     <pitch>      <step>B</step>      <octave>4</octave>     </pitch>     <duration>256</duration>     <instrument id="P1-I1" />     <voice>1</voice>     <type>quarter</type>         <staff>1</staff>    </note>   </measure>   <!--============== Part: P1, Measure: 15 ==============-->   <measure number="15" width="259">    <harmony color="#000000" default-y="25">     <root>      <root-step>C</root-step>     </root>     <kind>major</kind>     <staff>1</staff>    </harmony>    <note color="#000000" default-x="15" default-y="10">     <pitch>      <step>A</step>      <octave>4</octave>     </pitch>     <duration>512</duration>     <instrument id="P1-I1" />     <voice>1</voice>     <type>half</type>         <staff>1</staff>    </note>    <note default-x="137">     <rest />     <duration>512</duration>     <instrument id="P1-I1" />     <voice>1</voice>     <type>half</type>     <staff>1</staff>    </note>   </measure>   <!--============== Part: P1, Measure: 16 ==============-->   <measure number="16" width="304">    <harmony color="#000000" default-y="25">     <root>      <root-step>G</root-step>     </root>     <kind>dominant</kind>     <staff>1</staff>    </harmony>    <note default-x="15">     <rest />     <duration>512</duration>     <instrument id="P1-I1" />     <voice>1</voice>     <type>half</type>     <staff>1</staff>    </note>    <note color="#000000" default-x="137" default-y="-15">     <pitch>      <step>C</step>      <octave>4</octave>     </pitch>     <duration>256</duration>     <instrument id="P1-I1" />     <voice>1</voice>     <type>quarter</type>         <staff>1</staff>    </note>    <note color="#000000" default-x="209" default-y="-10">     <pitch>      <step>D</step>      <octave>4</octave>     </pitch>     <duration>256</duration>     <instrument id="P1-I1" />     <voice>1</voice>     <type>quarter</type>         <staff>1</staff>    </note>    <barline location="right">     <bar-style>light-heavy</bar-style>     <ending number="1" type="stop" />     <repeat direction="backward" />    </barline>   </measure>   <!--============== Part: P1, Measure: 17 ==============-->   <measure number="17" width="347">    <print new-system="yes">     <system-layout>      <system-margins>       <left-margin>23</left-margin>       <right-margin>0</right-margin>      </system-margins>      <system-distance>90</system-distance>     </system-layout>    </print>    <attributes>     <staff-details number="1" print-object="yes" />    </attributes>    <barline location="left">     <ending number="2" type="start" />    </barline>    <harmony color="#000000" default-y="25">     <root>      <root-step>D</root-step>     </root>     <kind>dominant</kind>     <staff>1</staff>    </harmony>    <note color="#000000" default-x="57" default-y="-50">     <pitch>      <step>C</step>      <octave>5</octave>     </pitch>     <duration>512</duration>     <instrument id="P1-I1" />     <voice>1</voice>     <type>half</type>         <staff>1</staff>    </note>    <note color="#000000" default-x="190" default-y="-45">     <pitch>      <step>D</step>      <octave>5</octave>     </pitch>     <duration>256</duration>     <instrument id="P1-I1" />     <voice>1</voice>     <type>quarter</type>         <staff>1</staff>    </note>    <note color="#000000" default-x="269" default-y="-50">     <pitch>      <step>C</step>      <octave>5</octave>     </pitch>     <duration>256</duration>     <instrument id="P1-I1" />     <voice>1</voice>     <type>quarter</type>         <staff>1</staff>    </note>   </measure>   <!--============== Part: P1, Measure: 18 ==============-->   <measure number="18" width="305">    <harmony color="#000000" default-y="25">     <root>      <root-step>G</root-step>     </root>     <kind>dominant</kind>     <staff>1</staff>    </harmony>    <note color="#000000" default-x="15" default-y="-55">     <pitch>      <step>B</step>      <octave>4</octave>     </pitch>     <duration>512</duration>     <instrument id="P1-I1" />     <voice>1</voice>     <type>half</type>         <staff>1</staff>    </note>    <note color="#000000" default-x="148" default-y="-50">     <pitch>      <step>C</step>      <octave>5</octave>     </pitch>     <duration>256</duration>     <instrument id="P1-I1" />     <voice>1</voice>     <type>quarter</type>         <staff>1</staff>    </note>    <note color="#000000" default-x="226" default-y="-45">     <pitch>      <step>D</step>      <octave>5</octave>     </pitch>     <duration>256</duration>     <instrument id="P1-I1" />     <voice>1</voice>     <type>quarter</type>         <staff>1</staff>    </note>   </measure>   <!--============== Part: P1, Measure: 19 ==============-->   <measure number="19" width="198">    <harmony color="#000000" default-y="25">     <root>      <root-step>C</root-step>     </root>     <kind>major</kind>     <staff>1</staff>    </harmony>    <note color="#000000" default-x="15">     <pitch>      <step>C</step>      <octave>5</octave>     </pitch>     <duration>1024</duration>     <instrument id="P1-I1" />     <voice>1</voice>     <type>whole</type>     <staff>1</staff>    </note>    <barline location="right">     <ending number="2" type="discontinue" />    </barline>   </measure>   <!--============== Part: P1, Measure: 20 ==============-->   <measure number="20" width="317">    <note default-x="15">     <rest />     <duration>512</duration>     <instrument id="P1-I1" />     <voice>1</voice>     <type>half</type>     <staff>1</staff>    </note>    <note color="#000000" default-x="148" default-y="-45">     <pitch>      <step>D</step>      <octave>5</octave>     </pitch>     <duration>256</duration>     <instrument id="P1-I1" />     <voice>1</voice>     <type>quarter</type>         <staff>1</staff>    </note>    <note color="#000000" default-x="226" default-y="-50">     <pitch>      <step>C</step>      <octave>5</octave>     </pitch>     <duration>256</duration>     <instrument id="P1-I1" />     <voice>1</voice>     <type>quarter</type>         <staff>1</staff>    </note>    <barline>     <bar-style>light-light</bar-style>    </barline>   </measure>   <!--============== Part: P1, Measure: 21 ==============-->   <measure number="21" width="237">    <print new-system="yes">     <system-layout>      <system-margins>       <left-margin>23</left-margin>       <right-margin>0</right-margin>      </system-margins>      <system-distance>64</system-distance>     </system-layout>    </print>    <attributes>     <staff-details number="1" print-object="yes" />    </attributes>    <harmony color="#000000" default-y="25">     <root>      <root-step>B</root-step>     </root>     <kind>minor-seventh</kind>     <staff>1</staff>    </harmony>    <note color="#000000" default-x="57">     <pitch>      <step>E</step>      <octave>5</octave>     </pitch>     <duration>1024</duration>     <instrument id="P1-I1" />     <voice>1</voice>     <type>whole</type>     <staff>1</staff>    </note>   </measure>   <!--============== Part: P1, Measure: 22 ==============-->   <measure number="22" width="354">    <harmony color="#000000" default-y="25">     <root>      <root-step>E</root-step>     </root>     <kind>dominant</kind>     <staff>1</staff>    </harmony>    <note default-x="15">     <rest />     <duration>256</duration>     <instrument id="P1-I1" />     <voice>1</voice>     <type>quarter</type>     <staff>1</staff>    </note>    <note color="#000000" default-x="91" default-y="-45">     <pitch>      <step>D</step>      <octave>5</octave>     </pitch>     <duration>256</duration>     <instrument id="P1-I1" />     <voice>1</voice>     <type>quarter</type>         <staff>1</staff>    </note>    <note color="#000000" default-x="169" default-y="-45">     <pitch>      <step>D</step>      <octave>5</octave>     </pitch>     <duration>170</duration>     <instrument id="P1-I1" />     <voice>1</voice>     <type>quarter</type>     <time-modification>      <actual-notes>3</actual-notes>      <normal-notes>2</normal-notes>      <normal-type>quarter</normal-type>     </time-modification>         <staff>1</staff>     <notations>      <tuplet type="start" bracket="yes" number="1" default-y="-57" placement="below" />     </notations>    </note>    <note color="#000000" default-x="230" default-y="-50">     <pitch>      <step>C</step>      <octave>5</octave>     </pitch>     <duration>171</duration>     <instrument id="P1-I1" />     <voice>1</voice>     <type>quarter</type>     <time-modification>      <actual-notes>3</actual-notes>      <normal-notes>2</normal-notes>      <normal-type>quarter</normal-type>     </time-modification>         <staff>1</staff>    </note>    <note color="#000000" default-x="292" default-y="-55">     <pitch>      <step>B</step>      <octave>4</octave>     </pitch>     <duration>171</duration>     <instrument id="P1-I1" />     <voice>1</voice>     <type>quarter</type>     <time-modification>      <actual-notes>3</actual-notes>      <normal-notes>2</normal-notes>      <normal-type>quarter</normal-type>     </time-modification>         <staff>1</staff>     <notations>      <tuplet type="stop" bracket="yes" number="1" default-y="-57" placement="below" />     </notations>    </note>   </measure>   <!--============== Part: P1, Measure: 23 ==============-->   <measure number="23" width="276">    <harmony color="#000000" default-y="25">     <root>      <root-step>F</root-step>     </root>     <kind>major</kind>     <staff>1</staff>    </harmony>    <note color="#000000" default-x="15" default-y="-45">     <pitch>      <step>D</step>      <octave>5</octave>     </pitch>     <duration>512</duration>     <instrument id="P1-I1" />     <voice>1</voice>     <type>half</type>         <staff>1</staff>    </note>    <note color="#000000" default-x="145" default-y="10">     <pitch>      <step>A</step>      <octave>4</octave>     </pitch>     <duration>512</duration>     <instrument id="P1-I1" />     <voice>1</voice>     <type>half</type>         <staff>1</staff>    </note>   </measure>   <!--============== Part: P1, Measure: 24 ==============-->   <measure number="24" width="299">    <note default-x="15">     <rest />     <duration>512</duration>     <instrument id="P1-I1" />     <voice>1</voice>     <type>half</type>     <staff>1</staff>    </note>    <note color="#000000" default-x="145" default-y="-55">     <pitch>      <step>B</step>      <octave>4</octave>     </pitch>     <duration>256</duration>     <instrument id="P1-I1" />     <voice>1</voice>     <type>quarter</type>         <staff>1</staff>    </note>    <note color="#000000" default-x="222" default-y="-50">     <pitch>      <step>C</step>      <octave>5</octave>     </pitch>     <duration>256</duration>     <instrument id="P1-I1" />     <voice>1</voice>     <type>quarter</type>         <staff>1</staff>    </note>   </measure>   <!--============== Part: P1, Measure: 25 ==============-->   <measure number="25" width="356">    <print new-system="yes">     <system-layout>      <system-margins>       <left-margin>23</left-margin>       <right-margin>0</right-margin>      </system-margins>      <system-distance>64</system-distance>     </system-layout>    </print>    <attributes>     <staff-details number="1" print-object="yes" />    </attributes>    <harmony color="#000000" default-y="25">     <root>      <root-step>D</root-step>     </root>     <kind>half-diminished</kind>     <staff>1</staff>    </harmony>    <note color="#000000" default-x="57" default-y="-45">     <pitch>      <step>D</step>      <octave>5</octave>     </pitch>     <duration>384</duration>     <instrument id="P1-I1" />     <voice>1</voice>     <type>quarter</type>     <dot />         <staff>1</staff>    </note>    <note color="#000000" default-x="156" default-y="-45">     <pitch>      <step>D</step>      <octave>5</octave>     </pitch>     <duration>128</duration>     <instrument id="P1-I1" />     <voice>1</voice>     <type>eighth</type>         <staff>1</staff>    </note>    <note color="#000000" default-x="209" default-y="-45">     <pitch>      <step>D</step>      <octave>5</octave>     </pitch>     <duration>256</duration>     <instrument id="P1-I1" />     <voice>1</voice>     <type>quarter</type>         <staff>1</staff>    </note>    <note color="#000000" default-x="283" default-y="-45">     <pitch>      <step>D</step>      <octave>5</octave>     </pitch>     <duration>256</duration>     <instrument id="P1-I1" />     <voice>1</voice>     <type>quarter</type>         <staff>1</staff>    </note>   </measure>   <!--============== Part: P1, Measure: 26 ==============-->   <measure number="26" width="338">    <note color="#000000" default-x="15" default-y="-45">     <pitch>      <step>D</step>      <octave>5</octave>     </pitch>     <duration>256</duration>     <instrument id="P1-I1" />     <voice>1</voice>     <type>quarter</type>         <staff>1</staff>    </note>    <note color="#000000" default-x="88" default-y="-50">     <pitch>      <step>C</step>      <octave>5</octave>     </pitch>     <duration>256</duration>     <instrument id="P1-I1" />     <voice>1</voice>     <type>quarter</type>         <staff>1</staff>    </note>    <note color="#000000" default-x="161" default-y="-50">     <pitch>      <step>C</step>      <octave>5</octave>     </pitch>     <duration>170</duration>     <instrument id="P1-I1" />     <voice>1</voice>     <type>quarter</type>     <time-modification>      <actual-notes>3</actual-notes>      <normal-notes>2</normal-notes>      <normal-type>quarter</normal-type>     </time-modification>         <staff>1</staff>     <notations>      <tuplet type="start" bracket="yes" number="1" default-y="-62" placement="below" />     </notations>    </note>    <note color="#000000" default-x="220" default-y="-55">     <pitch>      <step>B</step>      <octave>4</octave>     </pitch>     <duration>171</duration>     <instrument id="P1-I1" />     <voice>1</voice>     <type>quarter</type>     <time-modification>      <actual-notes>3</actual-notes>      <normal-notes>2</normal-notes>      <normal-type>quarter</normal-type>     </time-modification>         <staff>1</staff>    </note>    <note color="#000000" default-x="280" default-y="10">     <pitch>      <step>A</step>      <octave>4</octave>     </pitch>     <duration>171</duration>     <instrument id="P1-I1" />     <voice>1</voice>     <type>quarter</type>     <time-modification>      <actual-notes>3</actual-notes>      <normal-notes>2</normal-notes>      <normal-type>quarter</normal-type>     </time-modification>         <staff>1</staff>     <notations>      <tuplet type="stop" bracket="yes" number="1" default-y="-62" placement="below" />     </notations>    </note>   </measure>   <!--============== Part: P1, Measure: 27 ==============-->   <measure number="27" width="186">    <harmony color="#000000" default-y="25">     <root>      <root-step>C</root-step>     </root>     <kind>major</kind>     <staff>1</staff>    </harmony>    <note color="#000000" default-x="15">     <pitch>      <step>C</step>      <octave>5</octave>     </pitch>     <duration>1024</duration>     <instrument id="P1-I1" />     <voice>1</voice>     <type>whole</type>     <staff>1</staff>    </note>   </measure>   <!--============== Part: P1, Measure: 28 ==============-->   <measure number="28" width="286">    <note default-x="15">     <rest />     <duration>512</duration>     <instrument id="P1-I1" />     <voice>1</voice>     <type>half</type>     <staff>1</staff>    </note>    <note color="#000000" default-x="139" default-y="-55">     <pitch>      <step>B</step>      <octave>4</octave>     </pitch>     <duration>256</duration>     <instrument id="P1-I1" />     <voice>1</voice>     <type>quarter</type>         <staff>1</staff>    </note>    <note color="#000000" default-x="213" default-y="10">     <pitch>      <step>A</step>      <octave>4</octave>     </pitch>     <duration>256</duration>     <instrument id="P1-I1" />     <voice>1</voice>     <type>quarter</type>         <staff>1</staff>    </note>   </measure>   <!--============== Part: P1, Measure: 29 ==============-->   <measure number="29" width="233">    <print new-system="yes">     <system-layout>      <system-margins>       <left-margin>23</left-margin>       <right-margin>0</right-margin>      </system-margins>      <system-distance>77</system-distance>     </system-layout>    </print>    <attributes>     <staff-details number="1" print-object="yes" />    </attributes>    <harmony color="#000000" default-y="25">     <root>      <root-step>F</root-step>      <root-alter>1</root-alter>     </root>     <kind>half-diminished</kind>     <staff>1</staff>    </harmony>    <note color="#000000" default-x="57">     <pitch>      <step>C</step>      <octave>5</octave>     </pitch>     <duration>1024</duration>     <instrument id="P1-I1" />     <voice>1</voice>     <type>whole</type>     <staff>1</staff>    </note>   </measure>   <!--============== Part: P1, Measure: 30 ==============-->   <measure number="30" width="347">    <note default-x="15">     <rest />     <duration>256</duration>     <instrument id="P1-I1" />     <voice>1</voice>     <type>quarter</type>     <staff>1</staff>    </note>    <note color="#000000" default-x="90" default-y="-55">     <pitch>      <step>B</step>      <octave>4</octave>     </pitch>     <duration>256</duration>     <instrument id="P1-I1" />     <voice>1</voice>     <type>quarter</type>         <staff>1</staff>    </note>    <note color="#000000" default-x="165" default-y="-55">     <pitch>      <step>B</step>      <octave>4</octave>     </pitch>     <duration>170</duration>     <instrument id="P1-I1" />     <voice>1</voice>     <type>quarter</type>     <time-modification>      <actual-notes>3</actual-notes>      <normal-notes>2</normal-notes>      <normal-type>quarter</normal-type>     </time-modification>         <staff>1</staff>     <notations>      <tuplet type="start" bracket="yes" number="1" default-y="12" placement="above" />     </notations>    </note>    <note color="#000000" default-x="226" default-y="10">     <pitch>      <step>A</step>      <octave>4</octave>     </pitch>     <duration>171</duration>     <instrument id="P1-I1" />     <voice>1</voice>     <type>quarter</type>     <time-modification>      <actual-notes>3</actual-notes>      <normal-notes>2</normal-notes>      <normal-type>quarter</normal-type>     </time-modification>         <staff>1</staff>    </note>    <note color="#000000" default-x="287" default-y="5">     <pitch>      <step>G</step>      <alter>1</alter>      <octave>4</octave>     </pitch>     <duration>171</duration>     <instrument id="P1-I1" />     <voice>1</voice>     <type>quarter</type>     <accidental>sharp</accidental>     <time-modification>      <actual-notes>3</actual-notes>      <normal-notes>2</normal-notes>      <normal-type>quarter</normal-type>     </time-modification>         <staff>1</staff>     <notations>      <tuplet type="stop" bracket="yes" number="1" default-y="12" placement="above" />     </notations>    </note>   </measure>   <!--============== Part: P1, Measure: 31 ==============-->   <measure number="31" width="270">    <harmony color="#000000" default-y="25">     <root>      <root-step>B</root-step>     </root>     <kind>dominant</kind>     <staff>1</staff>    </harmony>    <note color="#000000" default-x="15" default-y="-55">     <pitch>      <step>B</step>      <octave>4</octave>     </pitch>     <duration>512</duration>     <instrument id="P1-I1" />     <voice>1</voice>     <type>half</type>         <staff>1</staff>    </note>    <note color="#000000" default-x="143">     <pitch>      <step>F</step>      <alter>1</alter>      <octave>4</octave>     </pitch>     <duration>512</duration>     <instrument id="P1-I1" />     <voice>1</voice>     <type>half</type>     <accidental>sharp</accidental>         <staff>1</staff>    </note>   </measure>   <!--============== Part: P1, Measure: 32 ==============-->   <measure number="32" width="316">    <note default-x="15">     <rest />     <duration>256</duration>     <instrument id="P1-I1" />     <voice>1</voice>     <type>quarter</type>     <staff>1</staff>    </note>    <note color="#000000" default-x="90">     <pitch>      <step>F</step>      <alter>1</alter>      <octave>4</octave>     </pitch>     <duration>256</duration>     <instrument id="P1-I1" />     <voice>1</voice>     <type>quarter</type>     <accidental>sharp</accidental>         <staff>1</staff>    </note>    <note color="#000000" default-x="165" default-y="5">     <pitch>      <step>G</step>      <octave>4</octave>     </pitch>     <duration>256</duration>     <instrument id="P1-I1" />     <voice>1</voice>     <type>quarter</type>         <staff>1</staff>    </note>    <note color="#000000" default-x="241" default-y="10">     <pitch>      <step>A</step>      <octave>4</octave>     </pitch>     <duration>256</duration>     <instrument id="P1-I1" />     <voice>1</voice>     <type>quarter</type>         <staff>1</staff>    </note>   </measure>   <!--============== Part: P1, Measure: 33 ==============-->   <measure number="33" width="356">    <print new-system="yes">     <system-layout>      <system-margins>       <left-margin>23</left-margin>       <right-margin>0</right-margin>      </system-margins>      <system-distance>64</system-distance>     </system-layout>    </print>    <attributes>     <staff-details number="1" print-object="yes" />    </attributes>    <harmony color="#000000" default-y="25">     <root>      <root-step>E</root-step>     </root>     <kind>minor</kind>     <staff>1</staff>    </harmony>    <note color="#000000" default-x="57" default-y="-55">     <pitch>      <step>B</step>      <octave>4</octave>     </pitch>     <duration>256</duration>     <instrument id="P1-I1" />     <voice>1</voice>     <type>quarter</type>         <staff>1</staff>    </note>    <note color="#000000" default-x="132" default-y="-55">     <pitch>      <step>B</step>      <octave>4</octave>     </pitch>     <duration>256</duration>     <instrument id="P1-I1" />     <voice>1</voice>     <type>quarter</type>         <staff>1</staff>    </note>    <note color="#000000" default-x="206" default-y="-55">     <pitch>      <step>B</step>      <octave>4</octave>     </pitch>     <duration>256</duration>     <instrument id="P1-I1" />     <voice>1</voice>     <type>quarter</type>         <staff>1</staff>    </note>    <note color="#000000" default-x="281" default-y="-55">     <pitch>      <step>B</step>      <octave>4</octave>     </pitch>     <duration>256</duration>     <instrument id="P1-I1" />     <voice>1</voice>     <type>quarter</type>         <staff>1</staff>    </note>   </measure>   <!--============== Part: P1, Measure: 34 ==============-->   <measure number="34" width="319">    <harmony color="#000000" default-y="25">     <root>      <root-step>B</root-step>     </root>     <kind>dominant</kind>     <staff>1</staff>    </harmony>    <note color="#000000" default-x="15" default-y="-55">     <pitch>      <step>B</step>      <octave>4</octave>     </pitch>     <duration>384</duration>     <instrument id="P1-I1" />     <voice>1</voice>     <type>quarter</type>     <dot />         <staff>1</staff>    </note>    <note color="#000000" default-x="115">     <pitch>      <step>F</step>      <alter>1</alter>      <octave>4</octave>     </pitch>     <duration>128</duration>     <instrument id="P1-I1" />     <voice>1</voice>     <type>eighth</type>     <accidental>sharp</accidental>         <staff>1</staff>    </note>    <note color="#000000" default-x="169" default-y="5">     <pitch>      <step>G</step>      <octave>4</octave>     </pitch>     <duration>256</duration>     <instrument id="P1-I1" />     <voice>1</voice>     <type>quarter</type>         <staff>1</staff>    </note>    <note color="#000000" default-x="244" default-y="10">     <pitch>      <step>A</step>      <octave>4</octave>     </pitch>     <duration>256</duration>     <instrument id="P1-I1" />     <voice>1</voice>     <type>quarter</type>         <staff>1</staff>    </note>   </measure>   <!--============== Part: P1, Measure: 35 ==============-->   <measure number="35" width="190">    <harmony color="#000000" default-y="25">     <root>      <root-step>E</root-step>     </root>     <kind>minor-seventh</kind>     <staff>1</staff>    </harmony>    <note color="#000000" default-x="15">     <pitch>      <step>B</step>      <octave>4</octave>     </pitch>     <duration>1024</duration>     <instrument id="P1-I1" />     <voice>1</voice>     <type>whole</type>     <staff>1</staff>    </note>   </measure>   <!--============== Part: P1, Measure: 36 ==============-->   <measure number="36" width="303">    <harmony color="#000000" default-y="25">     <root>      <root-step>G</root-step>     </root>     <kind>dominant</kind>     <staff>1</staff>    </harmony>    <note default-x="15">     <rest />     <duration>512</duration>     <instrument id="P1-I1" />     <voice>1</voice>     <type>half</type>     <staff>1</staff>    </note>    <note color="#000000" default-x="141" default-y="-15">     <pitch>      <step>C</step>      <octave>4</octave>     </pitch>     <duration>256</duration>     <instrument id="P1-I1" />     <voice>1</voice>     <type>quarter</type>         <staff>1</staff>    </note>    <note color="#000000" default-x="216" default-y="-10">     <pitch>      <step>D</step>      <octave>4</octave>     </pitch>     <duration>256</duration>     <instrument id="P1-I1" />     <voice>1</voice>     <type>quarter</type>         <staff>1</staff>    </note>    <barline>     <bar-style>light-light</bar-style>    </barline>   </measure>   <!--============== Part: P1, Measure: 37 ==============-->   <measure number="37" width="324">    <print new-system="yes">     <system-layout>      <system-margins>       <left-margin>23</left-margin>       <right-margin>0</right-margin>      </system-margins>      <system-distance>64</system-distance>     </system-layout>    </print>    <attributes>     <staff-details number="1" print-object="yes" />    </attributes>    <harmony color="#000000" default-y="25">     <root>      <root-step>C</root-step>     </root>     <kind>major</kind>     <staff>1</staff>    </harmony>    <note color="#000000" default-x="57" default-y="-5">     <pitch>      <step>E</step>      <octave>4</octave>     </pitch>     <duration>256</duration>     <instrument id="P1-I1" />     <voice>1</voice>     <type>quarter</type>         <staff>1</staff>    </note>    <note color="#000000" default-x="129" default-y="10">     <pitch>      <step>A</step>      <octave>4</octave>     </pitch>     <duration>256</duration>     <instrument id="P1-I1" />     <voice>1</voice>     <type>quarter</type>         <staff>1</staff>    </note>    <note color="#000000" default-x="201" default-y="10">     <pitch>      <step>A</step>      <octave>4</octave>     </pitch>     <duration>512</duration>     <instrument id="P1-I1" />     <voice>1</voice>     <type>half</type>         <staff>1</staff>    </note>   </measure>   <!--============== Part: P1, Measure: 38 ==============-->   <measure number="38" width="281">    <harmony color="#000000" default-y="25">     <root>      <root-step>G</root-step>     </root>     <kind>dominant</kind>     <staff>1</staff>    </harmony>    <note default-x="15">     <rest />     <duration>512</duration>     <instrument id="P1-I1" />     <voice>1</voice>     <type>half</type>     <staff>1</staff>    </note>    <note color="#000000" default-x="137" default-y="5">     <pitch>      <step>G</step>      <octave>4</octave>     </pitch>     <duration>256</duration>     <instrument id="P1-I1" />     <voice>1</voice>     <type>quarter</type>         <staff>1</staff>    </note>    <note color="#000000" default-x="209">     <pitch>      <step>F</step>      <octave>4</octave>     </pitch>     <duration>256</duration>     <instrument id="P1-I1" />     <voice>1</voice>     <type>quarter</type>         <staff>1</staff>    </note>   </measure>   <!--============== Part: P1, Measure: 39 ==============-->   <measure number="39" width="281">    <harmony color="#000000" default-y="25">     <root>      <root-step>C</root-step>     </root>     <kind>major</kind>     <staff>1</staff>    </harmony>    <note color="#000000" default-x="15" default-y="-5">     <pitch>      <step>E</step>      <octave>4</octave>     </pitch>     <duration>256</duration>     <instrument id="P1-I1" />     <voice>1</voice>     <type>quarter</type>         <staff>1</staff>    </note>    <note color="#000000" default-x="87" default-y="-15">     <pitch>      <step>C</step>      <octave>4</octave>     </pitch>     <duration>256</duration>     <instrument id="P1-I1" />     <voice>1</voice>     <type>quarter</type>         <staff>1</staff>    </note>    <note color="#000000" default-x="159" default-y="-15">     <pitch>      <step>C</step>      <octave>4</octave>     </pitch>     <duration>512</duration>     <instrument id="P1-I1" />     <voice>1</voice>     <type>half</type>         <staff>1</staff>    </note>   </measure>   <!--============== Part: P1, Measure: 40 ==============-->   <measure number="40" width="281">    <harmony color="#000000" default-y="25">     <root>      <root-step>G</root-step>     </root>     <kind>dominant</kind>     <staff>1</staff>    </harmony>    <note default-x="15">     <rest />     <duration>512</duration>     <instrument id="P1-I1" />     <voice>1</voice>     <type>half</type>     <staff>1</staff>    </note>    <note color="#000000" default-x="137" default-y="-15">     <pitch>      <step>C</step>      <octave>4</octave>     </pitch>     <duration>256</duration>     <instrument id="P1-I1" />     <voice>1</voice>     <type>quarter</type>         <staff>1</staff>    </note>    <note color="#000000" default-x="209" default-y="-10">     <pitch>      <step>D</step>      <octave>4</octave>     </pitch>     <duration>256</duration>     <instrument id="P1-I1" />     <voice>1</voice>     <type>quarter</type>         <staff>1</staff>    </note>   </measure>   <!--============== Part: P1, Measure: 41 ==============-->   <measure number="41" width="334">    <print new-system="yes">     <system-layout>      <system-margins>       <left-margin>23</left-margin>       <right-margin>0</right-margin>      </system-margins>      <system-distance>64</system-distance>     </system-layout>    </print>    <attributes>     <staff-details number="1" print-object="yes" />    </attributes>    <harmony color="#000000" default-y="25">     <root>      <root-step>C</root-step>     </root>     <kind>major</kind>     <staff>1</staff>    </harmony>    <note color="#000000" default-x="57" default-y="-5">     <pitch>      <step>E</step>      <octave>4</octave>     </pitch>     <duration>256</duration>     <instrument id="P1-I1" />     <voice>1</voice>     <type>quarter</type>         <staff>1</staff>    </note>    <note color="#000000" default-x="126" default-y="-55">     <pitch>      <step>B</step>      <octave>4</octave>     </pitch>     <duration>256</duration>     <instrument id="P1-I1" />     <voice>1</voice>     <type>quarter</type>         <staff>1</staff>    </note>    <note color="#000000" default-x="195" default-y="-55">     <pitch>      <step>B</step>      <octave>4</octave>     </pitch>     <duration>256</duration>     <instrument id="P1-I1" />     <voice>1</voice>     <type>quarter</type>         <staff>1</staff>    </note>    <note color="#000000" default-x="265" default-y="-55">     <pitch>      <step>B</step>      <octave>4</octave>     </pitch>     <duration>256</duration>     <instrument id="P1-I1" />     <voice>1</voice>     <type>quarter</type>         <staff>1</staff>    </note>   </measure>   <!--============== Part: P1, Measure: 42 ==============-->   <measure number="42" width="291">    <harmony color="#000000" default-y="25">     <root>      <root-step>D</root-step>      <root-alter>1</root-alter>     </root>     <kind>diminished</kind>     <staff>1</staff>    </harmony>    <note color="#000000" default-x="15" default-y="-55">     <pitch>      <step>B</step>      <octave>4</octave>     </pitch>     <duration>256</duration>     <instrument id="P1-I1" />     <voice>1</voice>     <type>quarter</type>         <staff>1</staff>    </note>    <note color="#000000" default-x="84" default-y="-50">     <pitch>      <step>C</step>      <octave>5</octave>     </pitch>     <duration>256</duration>     <instrument id="P1-I1" />     <voice>1</voice>     <type>quarter</type>         <staff>1</staff>    </note>    <note color="#000000" default-x="153" default-y="-55">     <pitch>      <step>B</step>      <octave>4</octave>     </pitch>     <duration>256</duration>     <instrument id="P1-I1" />     <voice>1</voice>     <type>quarter</type>         <staff>1</staff>    </note>    <note color="#000000" default-x="222" default-y="-50">     <pitch>      <step>C</step>      <octave>5</octave>     </pitch>     <duration>256</duration>     <instrument id="P1-I1" />     <voice>1</voice>     <type>quarter</type>         <staff>1</staff>    </note>   </measure>   <!--============== Part: P1, Measure: 43 ==============-->   <measure number="43" width="271">    <harmony color="#000000" default-y="25">     <root>      <root-step>D</root-step>     </root>     <kind>minor-seventh</kind>     <staff>1</staff>    </harmony>    <note color="#000000" default-x="15" default-y="10">     <pitch>      <step>A</step>      <octave>4</octave>     </pitch>     <duration>256</duration>     <instrument id="P1-I1" />     <voice>1</voice>     <type>quarter</type>         <staff>1</staff>    </note>    <note color="#000000" default-x="84" default-y="5">     <pitch>      <step>G</step>      <octave>4</octave>     </pitch>     <duration>256</duration>     <instrument id="P1-I1" />     <voice>1</voice>     <type>quarter</type>         <staff>1</staff>    </note>    <note color="#000000" default-x="153" default-y="5">     <pitch>      <step>G</step>      <octave>4</octave>     </pitch>     <duration>512</duration>     <instrument id="P1-I1" />     <voice>1</voice>     <type>half</type>         <staff>1</staff>    </note>   </measure>   <!--============== Part: P1, Measure: 44 ==============-->   <measure number="44" width="270">    <harmony color="#000000" default-y="25">     <root>      <root-step>G</root-step>     </root>     <kind>dominant</kind>     <staff>1</staff>    </harmony>    <note default-x="15">     <rest />     <duration>512</duration>     <instrument id="P1-I1" />     <voice>1</voice>     <type>half</type>     <staff>1</staff>    </note>    <note color="#000000" default-x="132" default-y="-10">     <pitch>      <step>D</step>      <octave>4</octave>     </pitch>     <duration>256</duration>     <instrument id="P1-I1" />     <voice>1</voice>     <type>quarter</type>         <staff>1</staff>    </note>    <note color="#000000" default-x="201" default-y="-5">     <pitch>      <step>E</step>      <octave>4</octave>     </pitch>     <duration>256</duration>     <instrument id="P1-I1" />     <voice>1</voice>     <type>quarter</type>         <staff>1</staff>    </note>   </measure>   <!--============== Part: P1, Measure: 45 ==============-->   <measure number="45" width="324">    <print new-system="yes">     <system-layout>      <system-margins>       <left-margin>23</left-margin>       <right-margin>0</right-margin>      </system-margins>      <system-distance>65</system-distance>     </system-layout>    </print>    <attributes>     <staff-details number="1" print-object="yes" />    </attributes>    <harmony color="#000000" default-y="25">     <root>      <root-step>D</root-step>     </root>     <kind>minor-seventh</kind>     <staff>1</staff>    </harmony>    <note color="#000000" default-x="57">     <pitch>      <step>F</step>      <octave>4</octave>     </pitch>     <duration>256</duration>     <instrument id="P1-I1" />     <voice>1</voice>     <type>quarter</type>         <staff>1</staff>    </note>    <note color="#000000" default-x="129" default-y="-40">     <pitch>      <step>E</step>      <octave>5</octave>     </pitch>     <duration>256</duration>     <instrument id="P1-I1" />     <voice>1</voice>     <type>quarter</type>         <staff>1</staff>    </note>    <note color="#000000" default-x="201" default-y="-40">     <pitch>      <step>E</step>      <octave>5</octave>     </pitch>     <duration>512</duration>     <instrument id="P1-I1" />     <voice>1</voice>     <type>half</type>         <staff>1</staff>    </note>   </measure>   <!--============== Part: P1, Measure: 46 ==============-->   <measure number="46" width="281">    <harmony color="#000000" default-y="25">     <root>      <root-step>B</root-step>      <root-alter>-1</root-alter>     </root>     <kind>dominant</kind>     <staff>1</staff>    </harmony>    <note default-x="15">     <rest />     <duration>512</duration>     <instrument id="P1-I1" />     <voice>1</voice>     <type>half</type>     <staff>1</staff>    </note>    <note color="#000000" default-x="137" default-y="-45">     <pitch>      <step>D</step>      <octave>5</octave>     </pitch>     <duration>256</duration>     <instrument id="P1-I1" />     <voice>1</voice>     <type>quarter</type>         <staff>1</staff>    </note>    <note color="#000000" default-x="209" default-y="-40">     <pitch>      <step>E</step>      <octave>5</octave>     </pitch>     <duration>256</duration>     <instrument id="P1-I1" />     <voice>1</voice>     <type>quarter</type>         <staff>1</staff>    </note>   </measure>   <!--============== Part: P1, Measure: 47 ==============-->   <measure number="47" width="281">    <harmony color="#000000" default-y="25">     <root>      <root-step>C</root-step>     </root>     <kind>major</kind>     <staff>1</staff>    </harmony>    <note color="#000000" default-x="15" default-y="-45">     <pitch>      <step>D</step>      <octave>5</octave>     </pitch>     <duration>256</duration>     <instrument id="P1-I1" />     <voice>1</voice>     <type>quarter</type>         <staff>1</staff>    </note>    <note color="#000000" default-x="87" default-y="-50">     <pitch>      <step>C</step>      <octave>5</octave>     </pitch>     <duration>256</duration>     <instrument id="P1-I1" />     <voice>1</voice>     <type>quarter</type>         <staff>1</staff>    </note>    <note color="#000000" default-x="159" default-y="-50">     <pitch>      <step>C</step>      <octave>5</octave>     </pitch>     <duration>512</duration>     <instrument id="P1-I1" />     <voice>1</voice>     <type>half</type>         <staff>1</staff>    </note>   </measure>   <!--============== Part: P1, Measure: 48 ==============-->   <measure number="48" width="281">    <harmony color="#000000" default-y="25">     <root>      <root-step>A</root-step>     </root>     <kind>minor-seventh</kind>     <staff>1</staff>    </harmony>    <note default-x="15">     <rest />     <duration>512</duration>     <instrument id="P1-I1" />     <voice>1</voice>     <type>half</type>     <staff>1</staff>    </note>    <note color="#000000" default-x="137" default-y="-40">     <pitch>      <step>E</step>      <octave>5</octave>     </pitch>     <duration>256</duration>     <instrument id="P1-I1" />     <voice>1</voice>     <type>quarter</type>         <staff>1</staff>    </note>    <note color="#000000" default-x="209" default-y="-45">     <pitch>      <step>D</step>      <octave>5</octave>     </pitch>     <duration>256</duration>     <instrument id="P1-I1" />     <voice>1</voice>     <type>quarter</type>         <staff>1</staff>    </note>   </measure>   <!--============== Part: P1, Measure: 49 ==============-->   <measure number="49" width="350">    <print new-system="yes">     <system-layout>      <system-margins>       <left-margin>23</left-margin>       <right-margin>0</right-margin>      </system-margins>      <system-distance>64</system-distance>     </system-layout>    </print>    <attributes>     <staff-details number="1" print-object="yes" />    </attributes>    <harmony color="#000000" default-y="25">     <root>      <root-step>D</root-step>     </root>     <kind>dominant</kind>     <staff>1</staff>    </harmony>    <note color="#000000" default-x="57" default-y="-50">     <pitch>      <step>C</step>      <octave>5</octave>     </pitch>     <duration>512</duration>     <instrument id="P1-I1" />     <voice>1</voice>     <type>half</type>         <staff>1</staff>    </note>    <note color="#000000" default-x="192" default-y="-45">     <pitch>      <step>D</step>      <octave>5</octave>     </pitch>     <duration>256</duration>     <instrument id="P1-I1" />     <voice>1</voice>     <type>quarter</type>         <staff>1</staff>    </note>    <note color="#000000" default-x="271" default-y="-50">     <pitch>      <step>C</step>      <octave>5</octave>     </pitch>     <duration>256</duration>     <instrument id="P1-I1" />     <voice>1</voice>     <type>quarter</type>         <staff>1</staff>    </note>   </measure>   <!--============== Part: P1, Measure: 50 ==============-->   <measure number="50" width="308">    <harmony color="#000000" default-y="25">     <root>      <root-step>G</root-step>     </root>     <kind>dominant</kind>     <staff>1</staff>    </harmony>    <note color="#000000" default-x="15" default-y="-55">     <pitch>      <step>B</step>      <octave>4</octave>     </pitch>     <duration>512</duration>     <instrument id="P1-I1" />     <voice>1</voice>     <type>half</type>         <staff>1</staff>    </note>    <note color="#000000" default-x="149" default-y="-50">     <pitch>      <step>C</step>      <octave>5</octave>     </pitch>     <duration>256</duration>     <instrument id="P1-I1" />     <voice>1</voice>     <type>quarter</type>         <staff>1</staff>    </note>    <note color="#000000" default-x="229" default-y="-45">     <pitch>      <step>D</step>      <octave>5</octave>     </pitch>     <duration>256</duration>     <instrument id="P1-I1" />     <voice>1</voice>     <type>quarter</type>         <staff>1</staff>    </note>   </measure>   <!--============== Part: P1, Measure: 51 ==============-->   <measure number="51" width="200">    <harmony color="#000000" default-y="25">     <root>      <root-step>E</root-step>     </root>     <kind>half-diminished</kind>     <staff>1</staff>    </harmony>    <note color="#000000" default-x="15">     <pitch>      <step>E</step>      <octave>5</octave>     </pitch>     <duration>1024</duration>     <instrument id="P1-I1" />     <voice>1</voice>     <type>whole</type>     <staff>1</staff>    </note>   </measure>   <!--============== Part: P1, Measure: 52 ==============-->   <measure number="52" width="308">    <harmony color="#000000" default-y="25">     <root>      <root-step>A</root-step>     </root>     <kind>dominant</kind>     <staff>1</staff>    </harmony>    <note default-x="15">     <rest />     <duration>512</duration>     <instrument id="P1-I1" />     <voice>1</voice>     <type>half</type>     <staff>1</staff>    </note>    <note color="#000000" default-x="149" default-y="-40">     <pitch>      <step>E</step>      <octave>5</octave>     </pitch>     <duration>256</duration>     <instrument id="P1-I1" />     <voice>1</voice>     <type>quarter</type>         <staff>1</staff>    </note>    <note color="#000000" default-x="229" default-y="-45">     <pitch>      <step>D</step>      <octave>5</octave>     </pitch>     <duration>256</duration>     <instrument id="P1-I1" />     <voice>1</voice>     <type>quarter</type>         <staff>1</staff>    </note>   </measure>   <!--============== Part: P1, Measure: 53 ==============-->   <measure number="53" width="372">    <print new-system="yes">     <system-layout>      <system-margins>       <left-margin>23</left-margin>       <right-margin>0</right-margin>      </system-margins>      <system-distance>65</system-distance>     </system-layout>    </print>    <attributes>     <staff-details number="1" print-object="yes" />    </attributes>    <harmony color="#000000" default-y="25">     <root>      <root-step>D</root-step>     </root>     <kind>minor-seventh</kind>     <staff>1</staff>    </harmony>    <note color="#000000" default-x="57" default-y="-50">     <pitch>      <step>C</step>      <octave>5</octave>     </pitch>     <duration>512</duration>     <instrument id="P1-I1" />     <voice>1</voice>     <type>half</type>         <staff>1</staff>    </note>    <note color="#000000" default-x="202" default-y="-45">     <pitch>      <step>D</step>      <octave>5</octave>     </pitch>     <duration>256</duration>     <instrument id="P1-I1" />     <voice>1</voice>     <type>quarter</type>         <staff>1</staff>    </note>    <note color="#000000" default-x="287" default-y="-50">     <pitch>      <step>C</step>      <octave>5</octave>     </pitch>     <duration>256</duration>     <instrument id="P1-I1" />     <voice>1</voice>     <type>quarter</type>         <staff>1</staff>    </note>   </measure>   <!--============== Part: P1, Measure: 54 ==============-->   <measure number="54" width="330">    <harmony color="#000000" default-y="25">     <root>      <root-step>G</root-step>     </root>     <kind>dominant</kind>     <staff>1</staff>    </harmony>    <note color="#000000" default-x="15" default-y="-55">     <pitch>      <step>B</step>      <octave>4</octave>     </pitch>     <duration>512</duration>     <instrument id="P1-I1" />     <voice>1</voice>     <type>half</type>         <staff>1</staff>    </note>    <note color="#000000" default-x="159" default-y="-50">     <pitch>      <step>C</step>      <octave>5</octave>     </pitch>     <duration>256</duration>     <instrument id="P1-I1" />     <voice>1</voice>     <type>quarter</type>         <staff>1</staff>    </note>    <note color="#000000" default-x="244" default-y="-45">     <pitch>      <step>D</step>      <octave>5</octave>     </pitch>     <duration>256</duration>     <instrument id="P1-I1" />     <voice>1</voice>     <type>quarter</type>         <staff>1</staff>    </note>   </measure>   <!--============== Part: P1, Measure: 55 ==============-->   <measure number="55" width="214">    <harmony color="#000000" default-y="25">     <root>      <root-step>C</root-step>     </root>     <kind>major</kind>     <staff>1</staff>    </harmony>    <note color="#000000" default-x="15">     <pitch>      <step>C</step>      <octave>5</octave>     </pitch>     <duration>1024</duration>     <instrument id="P1-I1" />     <voice>1</voice>     <type>whole</type>     <staff>1</staff>    </note>   </measure>   <!--============== Part: P1, Measure: 56 ==============-->   <measure number="56" width="251">    <note>     <rest />     <duration>1024</duration>     <instrument id="P1-I1" />     <voice>1</voice>     <type>whole</type>     <staff>1</staff>    </note>    <barline>     <bar-style>light-heavy</bar-style>    </barline>   </measure>  </part> </score-partwise>  