<?xml version="1.0" encoding='UTF-8' standalone='no' ?> <!DOCTYPE score-partwise PUBLIC "-//Recordare//DTD MusicXML 3.0 Partwise//EN" "http://www.musicxml.org/dtds/partwise.dtd"> <score-partwise version="3.0">  <work>   <work-title>Ruby, My Dear</work-title>  </work>  <identification>   <creator type="composer">1945 - Thelonius Monk</creator>   <rights>www.realbook.site</rights>   <encoding>    <encoding-date>2023-04-30</encoding-date>    <encoder>mosco</encoder>    <software>Sibelius 22.9.0</software>    <software>Direct export, not from Dolet</software>    <encoding-description>Sibelius / MusicXML 3.0</encoding-description>    <supports element="print" type="yes" value="yes" attribute="new-system" />    <supports element="print" type="yes" value="yes" attribute="new-page" />    <supports element="accidental" type="yes" />    <supports element="beam" type="yes" />    <supports element="stem" type="yes" />   </encoding>  </identification>  <defaults>   <scaling>    <millimeters>210</millimeters>    <tenths>1200</tenths>   </scaling>   <page-layout>    <page-height>1697</page-height>    <page-width>1200</page-width>    <page-margins type="both">     <left-margin>72</left-margin>     <right-margin>72</right-margin>     <top-margin>72</top-margin>     <bottom-margin>72</bottom-margin>    </page-margins>   </page-layout>   <system-layout>    <system-margins>     <left-margin>22</left-margin>     <right-margin>0</right-margin>    </system-margins>    <system-distance>92</system-distance>   </system-layout>   <appearance>    <line-width type="stem">0.9375</line-width>    <line-width type="beam">5</line-width>    <line-width type="staff">0.9375</line-width>    <line-width type="light barline">1.5625</line-width>    <line-width type="heavy barline">5</line-width>    <line-width type="leger">1.5625</line-width>    <line-width type="ending">1.5625</line-width>    <line-width type="wedge">1.25</line-width>    <line-width type="enclosure">0.9375</line-width>    <line-width type="tuplet bracket">1.25</line-width>    <line-width type="bracket">5</line-width>    <line-width type="dashes">1.5625</line-width>    <line-width type="extend">0.9375</line-width>    <line-width type="octave shift">1.5625</line-width>    <line-width type="pedal">1.5625</line-width>    <line-width type="slur middle">1.5625</line-width>    <line-width type="slur tip">0.625</line-width>    <line-width type="tie middle">1.5625</line-width>    <line-width type="tie tip">0.625</line-width>    <note-size type="cue">75</note-size>    <note-size type="grace">60</note-size>   </appearance>   <music-font font-family="Opus Std" font-size="19.8425" />   <word-font font-family="Plantin MT Std" font-size="11.9365" />   <lyric-font font-family="Plantin MT Std" font-size="11.4715" />   <lyric-language xml:lang="en" />  </defaults>  <credit page="1">   <credit-words default-x="600" default-y="155" font-family="Plantin MT Std" font-style="normal" font-size="22.0128" font-weight="normal" justify="center" valign="middle">Ruby, My Dear</credit-words>  </credit>  <credit page="1">   <credit-words default-x="1127" default-y="84" font-family="Plantin MT Std" font-style="normal" font-size="11.0064" font-weight="normal" justify="right" valign="middle">1945 - Thelonius Monk</credit-words>  </credit>  <credit page="1">   <credit-words default-x="600" default-y="72" font-family="Plantin MT Std" font-style="normal" font-size="10.0763" font-weight="normal" justify="center" valign="middle">www.realbook.site</credit-words>  </credit>  <part-list>   <score-part id="P1">    <identification>     <miscellaneous>      <miscellaneous-field name="show-rhythms">false</miscellaneous-field>     </miscellaneous>    </identification>    <part-name> </part-name>    <part-name-display>     <display-text> </display-text>    </part-name-display>    <part-abbreviation> </part-abbreviation>    <part-abbreviation-display>     <display-text> </display-text>    </part-abbreviation-display>    <score-instrument id="P1-I1">     <instrument-name> </instrument-name>     <virtual-instrument>      <virtual-library>General MIDI</virtual-library>      <virtual-name>Bright Piano</virtual-name>     </virtual-instrument>    </score-instrument>   </score-part>  </part-list>  <part id="P1">   <!--============== Part: P1, Measure: 1 ==============-->   <measure number="1" width="370">    <print new-page="yes">     <system-layout>      <system-margins>       <left-margin>22</left-margin>       <right-margin>0</right-margin>      </system-margins>      <top-system-distance>218</top-system-distance>     </system-layout>    </print>    <attributes>     <divisions>256</divisions>     <key color="#000000">      <fifths>0</fifths>      <mode>none</mode>     </key>     <time color="#000000">      <beats>4</beats>      <beat-type>4</beat-type>     </time>     <staves>1</staves>     <clef number="1" color="#000000">      <sign>G</sign>      <line>2</line>     </clef>     <staff-details number="1" print-object="yes" />    </attributes>    <barline location="left">     <bar-style>heavy-light</bar-style>     <repeat direction="forward" />    </barline>    <harmony color="#000000" default-y="25">     <root>      <root-step>F</root-step>     </root>     <kind>minor</kind>     <staff>1</staff>    </harmony>    <direction>     <direction-type>      <segno default-x="-15" />     </direction-type>     <offset sound="yes">-1</offset>     <voice>1</voice>     <staff>1</staff>     <sound segno="1" />    </direction>    <note default-x="94">     <rest />     <duration>256</duration>     <instrument id="P1-I1" />     <voice>1</voice>     <type>quarter</type>     <staff>1</staff>    </note>    <note color="#000000" default-x="156" default-y="5">     <pitch>      <step>G</step>      <octave>4</octave>     </pitch>     <duration>256</duration>     <tie type="start" />     <instrument id="P1-I1" />     <voice>1</voice>     <type>quarter</type>         <staff>1</staff>     <notations>      <tied type="start" orientation="under" />     </notations>    </note>    <harmony color="#000000" default-y="25">     <root>      <root-step>B</root-step>      <root-alter>-1</root-alter>     </root>     <kind>dominant</kind>     <degree>      <degree-value>9</degree-value>      <degree-alter>-1</degree-alter>      <degree-type>add</degree-type>     </degree>     <staff>1</staff>    </harmony>    <note color="#000000" default-x="219" default-y="5">     <pitch>      <step>G</step>      <octave>4</octave>     </pitch>     <duration>170</duration>     <tie type="stop" />     <instrument id="P1-I1" />     <voice>1</voice>     <type>quarter</type>     <time-modification>      <actual-notes>3</actual-notes>      <normal-notes>2</normal-notes>      <normal-type>quarter</normal-type>     </time-modification>         <staff>1</staff>     <notations>      <tuplet type="start" bracket="yes" number="1" default-y="17" placement="above" />      <tied type="stop" orientation="under" />     </notations>    </note>    <note color="#000000" default-x="269">     <pitch>      <step>F</step>      <octave>4</octave>     </pitch>     <duration>171</duration>     <instrument id="P1-I1" />     <voice>1</voice>     <type>quarter</type>     <time-modification>      <actual-notes>3</actual-notes>      <normal-notes>2</normal-notes>      <normal-type>quarter</normal-type>     </time-modification>         <staff>1</staff>    </note>    <note color="#000000" default-x="320" default-y="-15">     <pitch>      <step>C</step>      <alter>-1</alter>      <octave>4</octave>     </pitch>     <duration>171</duration>     <instrument id="P1-I1" />     <voice>1</voice>     <type>quarter</type>     <accidental>flat</accidental>     <time-modification>      <actual-notes>3</actual-notes>      <normal-notes>2</normal-notes>      <normal-type>quarter</normal-type>     </time-modification>         <staff>1</staff>     <notations>      <tuplet type="stop" bracket="yes" number="1" default-y="17" placement="above" />     </notations>    </note>   </measure>   <!--============== Part: P1, Measure: 2 ==============-->   <measure number="2" width="165">    <harmony color="#000000" default-y="25">     <root>      <root-step>E</root-step>      <root-alter>-1</root-alter>     </root>     <kind>major-seventh</kind>     <staff>1</staff>    </harmony>    <note color="#000000" default-x="18">     <pitch>      <step>B</step>      <alter>-1</alter>      <octave>3</octave>     </pitch>     <duration>1024</duration>     <instrument id="P1-I1" />     <voice>1</voice>     <type>whole</type>     <accidental>flat</accidental>     <staff>1</staff>    </note>   </measure>   <!--============== Part: P1, Measure: 3 ==============-->   <measure number="3" width="293">    <harmony color="#000000" default-y="25">     <root>      <root-step>G</root-step>     </root>     <kind>minor</kind>     <staff>1</staff>    </harmony>    <note default-x="15">     <rest />     <duration>256</duration>     <instrument id="P1-I1" />     <voice>1</voice>     <type>quarter</type>     <staff>1</staff>    </note>    <note color="#000000" default-x="77" default-y="10">     <pitch>      <step>A</step>      <octave>4</octave>     </pitch>     <duration>256</duration>     <tie type="start" />     <instrument id="P1-I1" />     <voice>1</voice>     <type>quarter</type>         <staff>1</staff>     <notations>      <tied type="start" orientation="under" />     </notations>    </note>    <harmony color="#000000" default-y="25">     <root>      <root-step>C</root-step>     </root>     <kind>dominant</kind>     <degree>      <degree-value>9</degree-value>      <degree-alter>-1</degree-alter>      <degree-type>add</degree-type>     </degree>     <staff>1</staff>    </harmony>    <note color="#000000" default-x="140" default-y="4">     <pitch>      <step>A</step>      <octave>4</octave>     </pitch>     <duration>128</duration>     <tie type="stop" />     <instrument id="P1-I1" />     <voice>1</voice>     <type>eighth</type>         <staff>1</staff>     <beam number="1">begin</beam>     <notations>      <tied type="stop" orientation="under" />     </notations>    </note>    <note color="#000000" default-x="185" default-y="4">     <pitch>      <step>G</step>      <octave>4</octave>     </pitch>     <duration>128</duration>     <instrument id="P1-I1" />     <voice>1</voice>     <type>eighth</type>         <staff>1</staff>     <beam number="1">end</beam>    </note>    <note color="#000000" default-x="230" default-y="-10">     <pitch>      <step>D</step>      <alter>-1</alter>      <octave>4</octave>     </pitch>     <duration>256</duration>     <instrument id="P1-I1" />     <voice>1</voice>     <type>quarter</type>     <accidental>flat</accidental>         <staff>1</staff>    </note>   </measure>   <!--============== Part: P1, Measure: 4 ==============-->   <measure number="4" width="204">    <harmony color="#000000" default-y="25">     <root>      <root-step>F</root-step>     </root>     <kind>major-seventh</kind>     <staff>1</staff>    </harmony>    <note color="#000000" default-x="15" default-y="-15">     <pitch>      <step>C</step>      <octave>4</octave>     </pitch>     <duration>768</duration>     <instrument id="P1-I1" />     <voice>1</voice>     <type>half</type>     <dot />         <staff>1</staff>    </note>    <backup>     <duration>512</duration>    </backup>    <harmony color="#000000" default-y="25">     <root>      <root-step>G</root-step>     </root>     <kind>minor</kind>     <staff>1</staff>    </harmony>    <forward>     <duration>256</duration>    </forward>    <harmony color="#000000" default-y="25">     <root>      <root-step>A</root-step>      <root-alter>-1</root-alter>     </root>     <kind>minor</kind>     <staff>1</staff>    </harmony>    <forward>     <duration>256</duration>    </forward>    <harmony color="#000000" default-y="25">     <root>      <root-step>A</root-step>     </root>     <kind>minor</kind>     <staff>1</staff>    </harmony>    <note default-x="141">     <rest />     <duration>256</duration>     <instrument id="P1-I1" />     <voice>1</voice>     <type>quarter</type>     <staff>1</staff>    </note>   </measure>   <!--============== Part: P1, Measure: 5 ==============-->   <measure number="5" width="223">    <print new-system="yes">     <system-layout>      <system-margins>       <left-margin>22</left-margin>       <right-margin>0</right-margin>      </system-margins>      <system-distance>166</system-distance>     </system-layout>    </print>    <attributes>     <staff-details number="1" print-object="yes" />    </attributes>    <harmony color="#000000" default-y="25">     <root>      <root-step>B</root-step>      <root-alter>-1</root-alter>     </root>     <kind>minor</kind>     <staff>1</staff>    </harmony>    <note color="#000000" default-x="57" default-y="-50">     <pitch>      <step>C</step>      <octave>5</octave>     </pitch>     <duration>512</duration>     <instrument id="P1-I1" />     <voice>1</voice>     <type>half</type>         <staff>1</staff>    </note>    <harmony color="#000000" default-y="25">     <root>      <root-step>E</root-step>      <root-alter>-1</root-alter>     </root>     <kind>dominant</kind>     <degree>      <degree-value>9</degree-value>      <degree-alter>-1</degree-alter>      <degree-type>add</degree-type>     </degree>     <staff>1</staff>    </harmony>    <note color="#000000" default-x="131" default-y="-55">     <pitch>      <step>B</step>      <alter>-1</alter>      <octave>4</octave>     </pitch>     <duration>384</duration>     <instrument id="P1-I1" />     <voice>1</voice>     <type>quarter</type>     <dot />     <accidental>flat</accidental>         <staff>1</staff>    </note>    <note color="#000000" default-x="190" default-y="-5">     <pitch>      <step>E</step>      <octave>4</octave>     </pitch>     <duration>128</duration>     <instrument id="P1-I1" />     <voice>1</voice>     <type>eighth</type>     <accidental>natural</accidental>         <staff>1</staff>    </note>   </measure>   <!--============== Part: P1, Measure: 6 ==============-->   <measure number="6" width="216">    <harmony color="#000000" default-y="25">     <root>      <root-step>A</root-step>      <root-alter>-1</root-alter>     </root>     <kind>major-seventh</kind>     <staff>1</staff>    </harmony>    <note color="#000000" default-x="15" default-y="-5">     <pitch>      <step>E</step>      <alter>-1</alter>      <octave>4</octave>     </pitch>     <duration>512</duration>     <instrument id="P1-I1" />     <voice>1</voice>     <type>half</type>     <accidental>flat</accidental>         <staff>1</staff>    </note>    <harmony color="#000000" default-y="25">     <root>      <root-step>C</root-step>     </root>     <kind>minor</kind>     <staff>1</staff>    </harmony>    <note default-x="89">     <rest />     <duration>128</duration>     <instrument id="P1-I1" />     <voice>1</voice>     <type>eighth</type>     <staff>1</staff>    </note>    <note color="#000000" default-x="120">     <pitch>      <step>F</step>      <octave>4</octave>     </pitch>     <duration>128</duration>     <instrument id="P1-I1" />     <voice>1</voice>     <type>eighth</type>         <staff>1</staff>    </note>    <harmony color="#000000" default-y="25">     <root>      <root-step>F</root-step>     </root>     <kind>dominant</kind>     <staff>1</staff>    </harmony>    <note color="#000000" default-x="153" default-y="-10">     <pitch>      <step>C</step>      <octave>4</octave>     </pitch>     <duration>128</duration>     <instrument id="P1-I1" />     <voice>1</voice>     <type>eighth</type>         <staff>1</staff>     <beam number="1">begin</beam>    </note>    <note color="#000000" default-x="184" default-y="-10">     <pitch>      <step>D</step>      <alter>-1</alter>      <octave>4</octave>     </pitch>     <duration>128</duration>     <instrument id="P1-I1" />     <voice>1</voice>     <type>eighth</type>     <accidental>flat</accidental>         <staff>1</staff>     <beam number="1">end</beam>    </note>   </measure>   <!--============== Part: P1, Measure: 7 ==============-->   <measure number="7" width="215">    <note color="#000000" default-x="15" default-y="-5">     <pitch>      <step>E</step>      <alter>-1</alter>      <octave>4</octave>     </pitch>     <duration>512</duration>     <tie type="start" />     <instrument id="P1-I1" />     <voice>1</voice>     <type>half</type>     <accidental>flat</accidental>         <staff>1</staff>     <notations>      <tied type="start" orientation="under" />     </notations>    </note>    <backup>     <duration>256</duration>    </backup>    <harmony color="#000000" default-y="25">     <root>      <root-step>B</root-step>      <root-alter>-1</root-alter>     </root>     <kind>minor</kind>     <staff>1</staff>    </harmony>    <forward>     <duration>256</duration>    </forward>    <note color="#000000" default-x="89" default-y="2">     <pitch>      <step>E</step>      <alter>-1</alter>      <octave>4</octave>     </pitch>     <duration>128</duration>     <tie type="stop" />     <instrument id="P1-I1" />     <voice>1</voice>     <type>eighth</type>         <staff>1</staff>     <beam number="1">begin</beam>     <notations>      <tied type="stop" orientation="under" />     </notations>    </note>    <harmony color="#000000" default-y="25">     <root>      <root-step>A</root-step>     </root>     <kind>major-sixth</kind>     <staff>1</staff>    </harmony>    <note color="#000000" default-x="120" default-y="2">     <pitch>      <step>F</step>      <alter>1</alter>      <octave>4</octave>     </pitch>     <duration>128</duration>     <instrument id="P1-I1" />     <voice>1</voice>     <type>eighth</type>     <accidental>sharp</accidental>         <staff>1</staff>     <beam number="1">continue</beam>    </note>    <note color="#000000" default-x="152" default-y="2">     <pitch>      <step>C</step>      <alter>1</alter>      <octave>4</octave>     </pitch>     <duration>128</duration>     <instrument id="P1-I1" />     <voice>1</voice>     <type>eighth</type>     <accidental>sharp</accidental>         <staff>1</staff>     <beam number="1">continue</beam>    </note>    <note color="#000000" default-x="183" default-y="2">     <pitch>      <step>D</step>      <octave>4</octave>     </pitch>     <duration>128</duration>     <instrument id="P1-I1" />     <voice>1</voice>     <type>eighth</type>     <accidental>natural</accidental>         <staff>1</staff>     <beam number="1">end</beam>    </note>   </measure>   <!--============== Part: P1, Measure: 8 ==============-->   <measure number="8" width="199">    <barline location="left">     <ending number="1" type="start" />    </barline>    <harmony color="#000000" default-y="25">     <root>      <root-step>B</root-step>     </root>     <kind>minor</kind>     <bass>      <bass-step>E</bass-step>     </bass>     <staff>1</staff>    </harmony>    <note color="#000000" default-x="15" default-y="-5">     <pitch>      <step>E</step>      <octave>4</octave>     </pitch>     <duration>512</duration>     <instrument id="P1-I1" />     <voice>1</voice>     <type>half</type>     <accidental>natural</accidental>         <staff>1</staff>    </note>    <harmony color="#000000" default-y="25">     <root>      <root-step>B</root-step>      <root-alter>-1</root-alter>     </root>     <kind>augmented</kind>     <degree>      <degree-value>7</degree-value>      <degree-alter>0</degree-alter>      <degree-type>add</degree-type>     </degree>     <staff>1</staff>    </harmony>    <note default-x="89">     <rest />     <duration>256</duration>     <instrument id="P1-I1" />     <voice>1</voice>     <type>quarter</type>     <staff>1</staff>    </note>    <note color="#000000" default-x="133">     <pitch>      <step>F</step>      <alter>1</alter>      <octave>4</octave>     </pitch>     <duration>256</duration>     <instrument id="P1-I1" />     <voice>1</voice>     <type>quarter</type>     <accidental>sharp</accidental>         <staff>1</staff>    </note>    <barline location="right">     <bar-style>light-heavy</bar-style>     <ending number="1" type="stop" />     <repeat direction="backward" />    </barline>   </measure>   <!--============== Part: P1, Measure: 9 ==============-->   <measure number="9" width="178">    <barline location="left">     <ending number="2" type="start" />    </barline>    <harmony color="#000000" default-y="25">     <root>      <root-step>B</root-step>     </root>     <kind>minor</kind>     <bass>      <bass-step>E</bass-step>     </bass>     <staff>1</staff>    </harmony>    <note color="#000000" default-x="15" default-y="-5">     <pitch>      <step>E</step>      <octave>4</octave>     </pitch>     <duration>768</duration>     <tie type="start" />     <instrument id="P1-I1" />     <voice>1</voice>     <type>half</type>     <dot />     <accidental>natural</accidental>         <staff>1</staff>     <notations>      <tied type="start" orientation="under" />     </notations>    </note>    <backup>     <duration>256</duration>    </backup>    <harmony color="#000000" default-y="25">     <root>      <root-step>E</root-step>     </root>     <kind>dominant</kind>     <staff>1</staff>    </harmony>    <forward>     <duration>256</duration>    </forward>    <note color="#000000" default-x="103" default-y="-5">     <pitch>      <step>E</step>      <octave>4</octave>     </pitch>     <duration>128</duration>     <tie type="stop" />     <instrument id="P1-I1" />     <voice>1</voice>     <type>eighth</type>         <staff>1</staff>     <notations>      <tied type="stop" orientation="under" />     </notations>    </note>    <note default-x="135">     <rest />     <duration>128</duration>     <instrument id="P1-I1" />     <voice>1</voice>     <type>eighth</type>     <staff>1</staff>    </note>    <barline location="right">     <bar-style>light-light</bar-style>     <ending number="2" type="discontinue" />    </barline>   </measure>   <!--============== Part: P1, Measure: 10 ==============-->   <measure number="10" width="303">    <print new-system="yes">     <system-layout>      <system-margins>       <left-margin>22</left-margin>       <right-margin>0</right-margin>      </system-margins>      <system-distance>160</system-distance>     </system-layout>    </print>    <attributes>     <staff-details number="1" print-object="yes" />    </attributes>    <harmony color="#000000" default-y="25">     <root>      <root-step>A</root-step>     </root>     <kind>major-seventh</kind>     <staff>1</staff>    </harmony>    <note color="#000000" default-x="57" default-y="-5">     <pitch>      <step>E</step>      <octave>4</octave>     </pitch>     <duration>512</duration>     <instrument id="P1-I1" />     <voice>1</voice>     <type>half</type>         <staff>1</staff>    </note>    <harmony color="#000000" default-y="25">     <root>      <root-step>F</root-step>      <root-alter>1</root-alter>     </root>     <kind>minor</kind>     <staff>1</staff>    </harmony>    <note color="#000000" default-x="168">     <pitch>      <step>F</step>      <alter>1</alter>      <octave>4</octave>     </pitch>     <duration>384</duration>     <instrument id="P1-I1" />     <voice>1</voice>     <type>quarter</type>     <dot />     <accidental>sharp</accidental>         <staff>1</staff>    </note>    <note color="#000000" default-x="256" default-y="-15">     <pitch>      <step>C</step>      <alter>1</alter>      <octave>4</octave>     </pitch>     <duration>128</duration>     <instrument id="P1-I1" />     <voice>1</voice>     <type>eighth</type>     <accidental>sharp</accidental>         <staff>1</staff>    </note>   </measure>   <!--============== Part: P1, Measure: 11 ==============-->   <measure number="11" width="256">    <harmony color="#000000" default-y="25">     <root>      <root-step>B</root-step>     </root>     <kind>minor</kind>     <staff>1</staff>    </harmony>    <note color="#000000" default-x="15" default-y="-20">     <pitch>      <step>B</step>      <octave>3</octave>     </pitch>     <duration>512</duration>     <instrument id="P1-I1" />     <voice>1</voice>     <type>half</type>         <staff>1</staff>    </note>    <harmony color="#000000" default-y="25">     <root>      <root-step>E</root-step>     </root>     <kind>dominant</kind>     <degree>      <degree-value>9</degree-value>      <degree-alter>-1</degree-alter>      <degree-type>add</degree-type>     </degree>     <staff>1</staff>    </harmony>    <note color="#000000" default-x="125" default-y="-20">     <pitch>      <step>F</step>      <octave>3</octave>     </pitch>     <duration>256</duration>     <instrument id="P1-I1" />     <voice>1</voice>     <type>quarter</type>     <accidental>natural</accidental>         <staff>1</staff>    </note>    <note color="#000000" default-x="190" default-y="-15">     <pitch>      <step>C</step>      <alter>1</alter>      <octave>4</octave>     </pitch>     <duration>256</duration>     <instrument id="P1-I1" />     <voice>1</voice>     <type>quarter</type>     <accidental>sharp</accidental>         <staff>1</staff>    </note>   </measure>   <!--============== Part: P1, Measure: 12 ==============-->   <measure number="12" width="260">    <harmony color="#000000" default-y="25">     <root>      <root-step>A</root-step>     </root>     <kind>major-seventh</kind>     <staff>1</staff>    </harmony>    <note color="#000000" default-x="18" default-y="-20">     <pitch>      <step>F</step>      <alter>1</alter>      <octave>3</octave>     </pitch>     <duration>256</duration>     <instrument id="P1-I1" />     <voice>1</voice>     <type>quarter</type>     <accidental>sharp</accidental>         <staff>1</staff>    </note>    <note color="#000000" default-x="83" default-y="-20">     <pitch>      <step>F</step>      <alter>1</alter>      <octave>3</octave>     </pitch>     <duration>512</duration>     <instrument id="P1-I1" />     <voice>1</voice>     <type>half</type>         <staff>1</staff>    </note>    <note color="#000000" default-x="194" default-y="-20">     <pitch>      <step>G</step>      <alter>1</alter>      <octave>3</octave>     </pitch>     <duration>256</duration>     <instrument id="P1-I1" />     <voice>1</voice>     <type>quarter</type>     <accidental>sharp</accidental>         <staff>1</staff>    </note>   </measure>   <!--============== Part: P1, Measure: 13 ==============-->   <measure number="13" width="212">    <harmony color="#000000" default-y="25">     <root>      <root-step>B</root-step>      <root-alter>-1</root-alter>     </root>     <kind>major-sixth</kind>     <staff>1</staff>    </harmony>    <note color="#000000" default-x="15" default-y="-20">     <pitch>      <step>G</step>      <octave>3</octave>     </pitch>     <duration>256</duration>     <instrument id="P1-I1" />     <voice>1</voice>     <type>quarter</type>     <accidental>natural</accidental>         <staff>1</staff>    </note>    <note color="#000000" default-x="80" default-y="-20">     <pitch>      <step>G</step>      <octave>3</octave>     </pitch>     <duration>768</duration>     <instrument id="P1-I1" />     <voice>1</voice>     <type>half</type>     <dot />         <staff>1</staff>    </note>    <backup>     <duration>512</duration>    </backup>    <harmony color="#000000" default-y="25">     <root>      <root-step>B</root-step>     </root>     <kind>diminished-seventh</kind>     <staff>1</staff>    </harmony>   </measure>   <!--============== Part: P1, Measure: 14 ==============-->   <measure number="14" width="259">    <print new-system="yes">     <system-layout>      <system-margins>       <left-margin>22</left-margin>       <right-margin>0</right-margin>      </system-margins>      <system-distance>163</system-distance>     </system-layout>    </print>    <attributes>     <staff-details number="1" print-object="yes" />    </attributes>    <harmony color="#000000" default-y="25">     <root>      <root-step>C</root-step>     </root>     <kind>minor</kind>     <staff>1</staff>    </harmony>    <note color="#000000" default-x="57" default-y="-15">     <pitch>      <step>C</step>      <octave>4</octave>     </pitch>     <duration>768</duration>     <instrument id="P1-I1" />     <voice>1</voice>     <type>half</type>     <dot />         <staff>1</staff>    </note>    <backup>     <duration>256</duration>    </backup>    <harmony color="#000000" default-y="25">     <root>      <root-step>C</root-step>     </root>     <kind>major-minor</kind>     <staff>1</staff>    </harmony>    <forward>     <duration>256</duration>    </forward>    <note color="#000000" default-x="175" default-y="-15">     <pitch>      <step>D</step>      <octave>4</octave>     </pitch>     <duration>128</duration>     <instrument id="P1-I1" />     <voice>1</voice>     <type>eighth</type>         <staff>1</staff>     <beam number="1">begin</beam>    </note>    <note color="#000000" default-x="216" default-y="-15">     <pitch>      <step>C</step>      <octave>4</octave>     </pitch>     <duration>128</duration>     <instrument id="P1-I1" />     <voice>1</voice>     <type>eighth</type>         <staff>1</staff>     <beam number="1">end</beam>    </note>   </measure>   <!--============== Part: P1, Measure: 15 ==============-->   <measure number="15" width="230">    <harmony color="#000000" default-y="25">     <root>      <root-step>C</root-step>     </root>     <kind>minor</kind>     <staff>1</staff>    </harmony>    <note color="#000000" default-x="15" default-y="-20">     <pitch>      <step>G</step>      <octave>3</octave>     </pitch>     <duration>512</duration>     <instrument id="P1-I1" />     <voice>1</voice>     <type>half</type>         <staff>1</staff>    </note>    <harmony color="#000000" default-y="25">     <root>      <root-step>D</root-step>     </root>     <kind>minor</kind>     <staff>1</staff>    </harmony>    <note default-x="113">     <rest />     <duration>256</duration>     <instrument id="P1-I1" />     <voice>1</voice>     <type>quarter</type>     <staff>1</staff>    </note>    <note color="#000000" default-x="171" default-y="-20">     <pitch>      <step>A</step>      <octave>3</octave>     </pitch>     <duration>256</duration>     <instrument id="P1-I1" />     <voice>1</voice>     <type>quarter</type>         <staff>1</staff>    </note>   </measure>   <!--============== Part: P1, Measure: 16 ==============-->   <measure number="16" width="251">    <harmony color="#000000" default-y="25">     <root>      <root-step>E</root-step>      <root-alter>-1</root-alter>     </root>     <kind>minor</kind>     <staff>1</staff>    </harmony>    <note color="#000000" default-x="15" default-y="-5">     <pitch>      <step>E</step>      <alter>-1</alter>      <octave>4</octave>     </pitch>     <duration>128</duration>     <instrument id="P1-I1" />     <voice>1</voice>     <type>eighth</type>     <accidental>flat</accidental>         <staff>1</staff>    </note>    <note color="#000000" default-x="56" default-y="-5">     <pitch>      <step>E</step>      <alter>-1</alter>      <octave>4</octave>     </pitch>     <duration>384</duration>     <instrument id="P1-I1" />     <voice>1</voice>     <type>quarter</type>     <dot />         <staff>1</staff>    </note>    <note color="#000000" default-x="135">     <pitch>      <step>F</step>      <octave>4</octave>     </pitch>     <duration>256</duration>     <instrument id="P1-I1" />     <voice>1</voice>     <type>quarter</type>         <staff>1</staff>    </note>    <note color="#000000" default-x="193" default-y="-5">     <pitch>      <step>E</step>      <alter>-1</alter>      <octave>4</octave>     </pitch>     <duration>256</duration>     <instrument id="P1-I1" />     <voice>1</voice>     <type>quarter</type>         <staff>1</staff>    </note>   </measure>   <!--============== Part: P1, Measure: 17 ==============-->   <measure number="17" width="292">    <harmony color="#000000" default-y="25">     <root>      <root-step>A</root-step>      <root-alter>-1</root-alter>     </root>     <kind>dominant</kind>     <staff>1</staff>    </harmony>    <note color="#000000" default-x="17" default-y="-20">     <pitch>      <step>B</step>      <alter>-1</alter>      <octave>3</octave>     </pitch>     <duration>128</duration>     <instrument id="P1-I1" />     <voice>1</voice>     <type>eighth</type>     <accidental>flat</accidental>         <staff>1</staff>    </note>    <note color="#000000" default-x="59">     <pitch>      <step>F</step>      <octave>4</octave>     </pitch>     <duration>384</duration>     <tie type="start" />     <instrument id="P1-I1" />     <voice>1</voice>     <type>quarter</type>     <dot />         <staff>1</staff>     <notations>      <tied type="start" orientation="under" />     </notations>    </note>    <harmony color="#000000" default-y="25">     <root>      <root-step>E</root-step>      <root-alter>-1</root-alter>     </root>     <kind>dominant</kind>     <degree>      <degree-value>9</degree-value>      <degree-alter>1</degree-alter>      <degree-type>add</degree-type>     </degree>     <staff>1</staff>    </harmony>    <note color="#000000" default-x="138">     <pitch>      <step>F</step>      <octave>4</octave>     </pitch>     <duration>128</duration>     <tie type="stop" />     <instrument id="P1-I1" />     <voice>1</voice>     <type>eighth</type>         <staff>1</staff>     <notations>      <tied type="stop" orientation="under" />     </notations>    </note>    <note default-x="180">     <rest />     <duration>128</duration>     <instrument id="P1-I1" />     <voice>1</voice>     <type>eighth</type>     <staff>1</staff>    </note>    <note color="#000000" default-x="222">     <pitch>      <step>F</step>      <alter>1</alter>      <octave>4</octave>     </pitch>     <duration>256</duration>     <instrument id="P1-I1" />     <voice>1</voice>     <type>quarter</type>     <accidental>sharp</accidental>         <staff>1</staff>    </note>    <barline>     <bar-style>light-light</bar-style>    </barline>   </measure>   <!--============== Part: P1, Measure: 18 ==============-->   <measure number="18" width="345">    <print new-system="yes">     <system-layout>      <system-margins>       <left-margin>22</left-margin>       <right-margin>0</right-margin>      </system-margins>      <system-distance>160</system-distance>     </system-layout>    </print>    <attributes>     <staff-details number="1" print-object="yes" />    </attributes>    <harmony color="#000000" default-y="25">     <root>      <root-step>F</root-step>     </root>     <kind>minor</kind>     <staff>1</staff>    </harmony>    <note default-x="57">     <rest />     <duration>256</duration>     <instrument id="P1-I1" />     <voice>1</voice>     <type>quarter</type>     <staff>1</staff>    </note>    <note color="#000000" default-x="122" default-y="5">     <pitch>      <step>G</step>      <octave>4</octave>     </pitch>     <duration>256</duration>     <tie type="start" />     <instrument id="P1-I1" />     <voice>1</voice>     <type>quarter</type>         <staff>1</staff>     <notations>      <tied type="start" orientation="under" />     </notations>    </note>    <harmony color="#000000" default-y="25">     <root>      <root-step>B</root-step>      <root-alter>-1</root-alter>     </root>     <kind>dominant</kind>     <degree>      <degree-value>9</degree-value>      <degree-alter>-1</degree-alter>      <degree-type>add</degree-type>     </degree>     <staff>1</staff>    </harmony>    <note color="#000000" default-x="187" default-y="5">     <pitch>      <step>G</step>      <octave>4</octave>     </pitch>     <duration>170</duration>     <tie type="stop" />     <instrument id="P1-I1" />     <voice>1</voice>     <type>quarter</type>     <time-modification>      <actual-notes>3</actual-notes>      <normal-notes>2</normal-notes>      <normal-type>quarter</normal-type>     </time-modification>         <staff>1</staff>     <notations>      <tuplet type="start" bracket="yes" number="1" default-y="17" placement="above" />      <tied type="stop" orientation="under" />     </notations>    </note>    <note color="#000000" default-x="240">     <pitch>      <step>F</step>      <octave>4</octave>     </pitch>     <duration>171</duration>     <instrument id="P1-I1" />     <voice>1</voice>     <type>quarter</type>     <accidental>natural</accidental>     <time-modification>      <actual-notes>3</actual-notes>      <normal-notes>2</normal-notes>      <normal-type>quarter</normal-type>     </time-modification>         <staff>1</staff>    </note>    <note color="#000000" default-x="292" default-y="-15">     <pitch>      <step>C</step>      <alter>-1</alter>      <octave>4</octave>     </pitch>     <duration>171</duration>     <instrument id="P1-I1" />     <voice>1</voice>     <type>quarter</type>     <accidental>flat</accidental>     <time-modification>      <actual-notes>3</actual-notes>      <normal-notes>2</normal-notes>      <normal-type>quarter</normal-type>     </time-modification>         <staff>1</staff>     <notations>      <tuplet type="stop" bracket="yes" number="1" default-y="17" placement="above" />     </notations>    </note>   </measure>   <!--============== Part: P1, Measure: 19 ==============-->   <measure number="19" width="171">    <harmony color="#000000" default-y="25">     <root>      <root-step>E</root-step>      <root-alter>-1</root-alter>     </root>     <kind>major-seventh</kind>     <staff>1</staff>    </harmony>    <note color="#000000" default-x="18">     <pitch>      <step>B</step>      <alter>-1</alter>      <octave>3</octave>     </pitch>     <duration>1024</duration>     <instrument id="P1-I1" />     <voice>1</voice>     <type>whole</type>     <accidental>flat</accidental>     <staff>1</staff>    </note>   </measure>   <!--============== Part: P1, Measure: 20 ==============-->   <measure number="20" width="304">    <harmony color="#000000" default-y="25">     <root>      <root-step>G</root-step>     </root>     <kind>minor</kind>     <staff>1</staff>    </harmony>    <note default-x="15">     <rest />     <duration>256</duration>     <instrument id="P1-I1" />     <voice>1</voice>     <type>quarter</type>     <staff>1</staff>    </note>    <note color="#000000" default-x="80" default-y="10">     <pitch>      <step>A</step>      <octave>4</octave>     </pitch>     <duration>256</duration>     <tie type="start" />     <instrument id="P1-I1" />     <voice>1</voice>     <type>quarter</type>         <staff>1</staff>     <notations>      <tied type="start" orientation="under" />     </notations>    </note>    <harmony color="#000000" default-y="25">     <root>      <root-step>C</root-step>     </root>     <kind>dominant</kind>     <degree>      <degree-value>9</degree-value>      <degree-alter>-1</degree-alter>      <degree-type>add</degree-type>     </degree>     <staff>1</staff>    </harmony>    <note color="#000000" default-x="145" default-y="4">     <pitch>      <step>A</step>      <octave>4</octave>     </pitch>     <duration>128</duration>     <tie type="stop" />     <instrument id="P1-I1" />     <voice>1</voice>     <type>eighth</type>         <staff>1</staff>     <beam number="1">begin</beam>     <notations>      <tied type="stop" orientation="under" />     </notations>    </note>    <note color="#000000" default-x="192" default-y="4">     <pitch>      <step>G</step>      <octave>4</octave>     </pitch>     <duration>128</duration>     <instrument id="P1-I1" />     <voice>1</voice>     <type>eighth</type>         <staff>1</staff>     <beam number="1">end</beam>    </note>    <note color="#000000" default-x="239" default-y="-10">     <pitch>      <step>D</step>      <alter>-1</alter>      <octave>4</octave>     </pitch>     <duration>256</duration>     <instrument id="P1-I1" />     <voice>1</voice>     <type>quarter</type>     <accidental>flat</accidental>         <staff>1</staff>    </note>   </measure>   <!--============== Part: P1, Measure: 21 ==============-->   <measure number="21" width="211">    <harmony color="#000000" default-y="25">     <root>      <root-step>F</root-step>     </root>     <kind>major-seventh</kind>     <staff>1</staff>    </harmony>    <note color="#000000" default-x="15" default-y="-15">     <pitch>      <step>C</step>      <octave>4</octave>     </pitch>     <duration>768</duration>     <instrument id="P1-I1" />     <voice>1</voice>     <type>half</type>     <dot />         <staff>1</staff>    </note>    <backup>     <duration>512</duration>    </backup>    <harmony color="#000000" default-y="25">     <root>      <root-step>G</root-step>     </root>     <kind>minor</kind>     <staff>1</staff>    </harmony>    <forward>     <duration>256</duration>    </forward>    <harmony color="#000000" default-y="25">     <root>      <root-step>A</root-step>      <root-alter>-1</root-alter>     </root>     <kind>minor</kind>     <staff>1</staff>    </harmony>    <forward>     <duration>256</duration>    </forward>    <harmony color="#000000" default-y="25">     <root>      <root-step>A</root-step>     </root>     <kind>minor</kind>     <staff>1</staff>    </harmony>    <note default-x="146">     <rest />     <duration>256</duration>     <instrument id="P1-I1" />     <voice>1</voice>     <type>quarter</type>     <staff>1</staff>    </note>   </measure>   <!--============== Part: P1, Measure: 22 ==============-->   <measure number="22" width="260">    <print new-system="yes">     <system-layout>      <system-margins>       <left-margin>22</left-margin>       <right-margin>0</right-margin>      </system-margins>      <system-distance>172</system-distance>     </system-layout>    </print>    <attributes>     <staff-details number="1" print-object="yes" />    </attributes>    <harmony color="#000000" default-y="25">     <root>      <root-step>B</root-step>      <root-alter>-1</root-alter>     </root>     <kind>minor</kind>     <staff>1</staff>    </harmony>    <note color="#000000" default-x="57" default-y="-50">     <pitch>      <step>C</step>      <octave>5</octave>     </pitch>     <duration>512</duration>     <instrument id="P1-I1" />     <voice>1</voice>     <type>half</type>         <staff>1</staff>    </note>    <harmony color="#000000" default-y="25">     <root>      <root-step>E</root-step>      <root-alter>-1</root-alter>     </root>     <kind>dominant</kind>     <degree>      <degree-value>9</degree-value>      <degree-alter>-1</degree-alter>      <degree-type>add</degree-type>     </degree>     <staff>1</staff>    </harmony>    <note color="#000000" default-x="149" default-y="-55">     <pitch>      <step>B</step>      <alter>-1</alter>      <octave>4</octave>     </pitch>     <duration>384</duration>     <instrument id="P1-I1" />     <voice>1</voice>     <type>quarter</type>     <dot />     <accidental>flat</accidental>         <staff>1</staff>    </note>    <note color="#000000" default-x="221" default-y="-5">     <pitch>      <step>E</step>      <octave>4</octave>     </pitch>     <duration>128</duration>     <instrument id="P1-I1" />     <voice>1</voice>     <type>eighth</type>     <accidental>natural</accidental>         <staff>1</staff>    </note>   </measure>   <!--============== Part: P1, Measure: 23 ==============-->   <measure number="23" width="262">    <harmony color="#000000" default-y="25">     <root>      <root-step>A</root-step>      <root-alter>-1</root-alter>     </root>     <kind>major-seventh</kind>     <staff>1</staff>    </harmony>    <note color="#000000" default-x="15" default-y="-5">     <pitch>      <step>E</step>      <alter>-1</alter>      <octave>4</octave>     </pitch>     <duration>512</duration>     <instrument id="P1-I1" />     <voice>1</voice>     <type>half</type>     <accidental>flat</accidental>         <staff>1</staff>    </note>    <harmony color="#000000" default-y="25">     <root>      <root-step>C</root-step>     </root>     <kind>minor</kind>     <staff>1</staff>    </harmony>    <note default-x="106">     <rest />     <duration>128</duration>     <instrument id="P1-I1" />     <voice>1</voice>     <type>eighth</type>     <staff>1</staff>    </note>    <note color="#000000" default-x="145">     <pitch>      <step>F</step>      <octave>4</octave>     </pitch>     <duration>128</duration>     <instrument id="P1-I1" />     <voice>1</voice>     <type>eighth</type>         <staff>1</staff>    </note>    <harmony color="#000000" default-y="25">     <root>      <root-step>F</root-step>     </root>     <kind>dominant</kind>     <staff>1</staff>    </harmony>    <note color="#000000" default-x="184" default-y="-10">     <pitch>      <step>C</step>      <octave>4</octave>     </pitch>     <duration>128</duration>     <instrument id="P1-I1" />     <voice>1</voice>     <type>eighth</type>         <staff>1</staff>     <beam number="1">begin</beam>    </note>    <note color="#000000" default-x="223" default-y="-10">     <pitch>      <step>D</step>      <alter>-1</alter>      <octave>4</octave>     </pitch>     <duration>128</duration>     <instrument id="P1-I1" />     <voice>1</voice>     <type>eighth</type>     <accidental>flat</accidental>         <staff>1</staff>     <beam number="1">end</beam>    </note>   </measure>   <!--============== Part: P1, Measure: 24 ==============-->   <measure number="24" width="280">    <harmony color="#000000" default-y="25">     <root>      <root-step>B</root-step>      <root-alter>-1</root-alter>     </root>     <kind>minor</kind>     <staff>1</staff>    </harmony>    <direction>     <direction-type>      <coda />     </direction-type>     <voice>1</voice>     <staff>1</staff>     <sound coda="24" />    </direction>    <note color="#000000" default-x="15" default-y="-5">     <pitch>      <step>E</step>      <alter>-1</alter>      <octave>4</octave>     </pitch>     <duration>512</duration>     <tie type="start" />     <instrument id="P1-I1" />     <voice>1</voice>     <type>half</type>     <accidental>flat</accidental>         <staff>1</staff>     <notations>      <tied type="start" orientation="under" />     </notations>    </note>    <harmony color="#000000" default-y="25">     <root>      <root-step>A</root-step>     </root>     <kind>major-sixth</kind>     <bass>      <bass-step>E</bass-step>     </bass>     <staff>1</staff>    </harmony>    <note color="#000000" default-x="106">     <pitch>      <step>E</step>      <alter>-1</alter>      <octave>4</octave>     </pitch>     <duration>128</duration>     <tie type="stop" />     <instrument id="P1-I1" />     <voice>1</voice>     <type>eighth</type>         <staff>1</staff>     <beam number="1">begin</beam>     <notations>      <tied type="stop" orientation="under" />     </notations>    </note>    <note color="#000000" default-x="145">     <pitch>      <step>F</step>      <alter>1</alter>      <octave>4</octave>     </pitch>     <duration>128</duration>     <instrument id="P1-I1" />     <voice>1</voice>     <type>eighth</type>     <accidental>sharp</accidental>         <staff>1</staff>     <beam number="1">end</beam>    </note>    <note color="#000000" default-x="184" default-y="-7">     <pitch>      <step>E</step>      <octave>4</octave>     </pitch>     <duration>85</duration>     <instrument id="P1-I1" />     <voice>1</voice>     <type>eighth</type>     <accidental>natural</accidental>     <time-modification>      <actual-notes>3</actual-notes>      <normal-notes>2</normal-notes>      <normal-type>eighth</normal-type>     </time-modification>         <staff>1</staff>     <beam number="1">begin</beam>     <notations>      <tuplet type="start" bracket="no" number="1" default-y="-20" placement="above" />     </notations>    </note>    <note color="#000000" default-x="216" default-y="-7">     <pitch>      <step>C</step>      <alter>1</alter>      <octave>4</octave>     </pitch>     <duration>85</duration>     <instrument id="P1-I1" />     <voice>1</voice>     <type>eighth</type>     <accidental>sharp</accidental>     <time-modification>      <actual-notes>3</actual-notes>      <normal-notes>2</normal-notes>      <normal-type>eighth</normal-type>     </time-modification>         <staff>1</staff>     <beam number="1">continue</beam>    </note>    <note color="#000000" default-x="248" default-y="-7">     <pitch>      <step>A</step>      <octave>3</octave>     </pitch>     <duration>86</duration>     <instrument id="P1-I1" />     <voice>1</voice>     <type>eighth</type>     <time-modification>      <actual-notes>3</actual-notes>      <normal-notes>2</normal-notes>      <normal-type>eighth</normal-type>     </time-modification>         <staff>1</staff>     <beam number="1">end</beam>     <notations>      <tuplet type="stop" bracket="no" number="1" default-y="-20" placement="above" />     </notations>    </note>   </measure>   <!--============== Part: P1, Measure: 25 ==============-->   <measure number="25" width="229">    <harmony color="#000000" default-y="25">     <root>      <root-step>F</root-step>      <root-alter>1</root-alter>     </root>     <kind>major-seventh</kind>     <staff>1</staff>    </harmony>    <note color="#000000" default-x="17" default-y="-20">     <pitch>      <step>A</step>      <alter>-1</alter>      <octave>3</octave>     </pitch>     <duration>768</duration>     <instrument id="P1-I1" />     <voice>1</voice>     <type>half</type>     <dot />     <accidental>flat</accidental>         <staff>1</staff>    </note>    <backup>     <duration>256</duration>    </backup>    <harmony color="#000000" default-y="25">     <root>      <root-step>B</root-step>     </root>     <kind>dominant</kind>     <degree>      <degree-value>9</degree-value>      <degree-alter>-1</degree-alter>      <degree-type>add</degree-type>     </degree>     <staff>1</staff>    </harmony>    <forward>     <duration>256</duration>    </forward>    <harmony color="#000000" default-y="25">     <root>      <root-step>B</root-step>      <root-alter>-1</root-alter>     </root>     <kind>dominant</kind>     <degree>      <degree-value>9</degree-value>      <degree-alter>-1</degree-alter>      <degree-type>add</degree-type>     </degree>     <staff>1</staff>    </harmony>    <note default-x="163">     <rest />     <duration>256</duration>     <instrument id="P1-I1" />     <voice>1</voice>     <type>quarter</type>     <staff>1</staff>    </note>    <barline>     <bar-style>light-light</bar-style>    </barline>   </measure>   <!--============== Part: P1, Measure: 26 ==============-->   <measure number="26" width="421">    <print new-system="yes">     <system-layout>      <system-margins>       <left-margin>22</left-margin>       <right-margin>0</right-margin>      </system-margins>      <system-distance>160</system-distance>     </system-layout>    </print>    <attributes>     <staff-details number="1" print-object="yes" />    </attributes>    <harmony color="#000000" default-y="25">     <root>      <root-step>B</root-step>      <root-alter>-1</root-alter>     </root>     <kind>minor-seventh</kind>     <staff>1</staff>    </harmony>    <direction>     <direction-type>      <segno default-x="-15" />     </direction-type>     <offset sound="yes">-1</offset>     <voice>1</voice>     <staff>1</staff>     <sound segno="26" />    </direction>    <direction>     <direction-type>      <coda />     </direction-type>     <voice>1</voice>     <staff>1</staff>     <sound coda="26" />    </direction>    <note color="#000000" default-x="57" default-y="-5">     <pitch>      <step>E</step>      <alter>-1</alter>      <octave>4</octave>     </pitch>     <duration>512</duration>     <tie type="start" />     <instrument id="P1-I1" />     <voice>1</voice>     <type>half</type>     <accidental>flat</accidental>         <staff>1</staff>     <notations>      <tied type="start" orientation="under" />     </notations>    </note>    <note color="#000000" default-x="183">     <pitch>      <step>E</step>      <alter>-1</alter>      <octave>4</octave>     </pitch>     <duration>128</duration>     <tie type="stop" />     <instrument id="P1-I1" />     <voice>1</voice>     <type>eighth</type>         <staff>1</staff>     <beam number="1">begin</beam>     <notations>      <tied type="stop" orientation="under" />     </notations>    </note>    <harmony color="#000000" default-y="25">     <root>      <root-step>A</root-step>     </root>     <kind>major-sixth</kind>     <staff>1</staff>    </harmony>    <note color="#000000" default-x="236">     <pitch>      <step>F</step>      <alter>1</alter>      <octave>4</octave>     </pitch>     <duration>128</duration>     <instrument id="P1-I1" />     <voice>1</voice>     <type>eighth</type>     <accidental>sharp</accidental>         <staff>1</staff>     <beam number="1">end</beam>    </note>    <note color="#000000" default-x="290" default-y="-7">     <pitch>      <step>E</step>      <octave>4</octave>     </pitch>     <duration>85</duration>     <instrument id="P1-I1" />     <voice>1</voice>     <type>eighth</type>     <accidental>natural</accidental>     <time-modification>      <actual-notes>3</actual-notes>      <normal-notes>2</normal-notes>      <normal-type>eighth</normal-type>     </time-modification>         <staff>1</staff>     <beam number="1">begin</beam>     <notations>      <tuplet type="start" bracket="no" number="1" default-y="-20" placement="above" />     </notations>    </note>    <note color="#000000" default-x="334" default-y="-7">     <pitch>      <step>C</step>      <alter>1</alter>      <octave>4</octave>     </pitch>     <duration>85</duration>     <instrument id="P1-I1" />     <voice>1</voice>     <type>eighth</type>     <accidental>sharp</accidental>     <time-modification>      <actual-notes>3</actual-notes>      <normal-notes>2</normal-notes>      <normal-type>eighth</normal-type>     </time-modification>         <staff>1</staff>     <beam number="1">continue</beam>    </note>    <note color="#000000" default-x="377" default-y="-7">     <pitch>      <step>A</step>      <octave>3</octave>     </pitch>     <duration>86</duration>     <instrument id="P1-I1" />     <voice>1</voice>     <type>eighth</type>     <accidental>natural</accidental>     <time-modification>      <actual-notes>3</actual-notes>      <normal-notes>2</normal-notes>      <normal-type>eighth</normal-type>     </time-modification>         <staff>1</staff>     <beam number="1">end</beam>     <notations>      <tuplet type="stop" bracket="no" number="1" default-y="-20" placement="above" />     </notations>    </note>   </measure>   <!--============== Part: P1, Measure: 27 ==============-->   <measure number="27" width="403">    <harmony color="#000000" default-y="25">     <root>      <root-step>G</root-step>      <root-alter>-1</root-alter>     </root>     <kind>major-seventh</kind>     <staff>1</staff>    </harmony>    <note color="#000000" default-x="17" default-y="-20">     <pitch>      <step>A</step>      <alter>-1</alter>      <octave>3</octave>     </pitch>     <duration>256</duration>     <instrument id="P1-I1" />     <voice>1</voice>     <type>quarter</type>     <accidental>flat</accidental>         <staff>1</staff>    </note>    <harmony color="#000000" default-y="25">     <root>      <root-step>B</root-step>     </root>     <kind>dominant</kind>     <degree>      <degree-value>9</degree-value>      <degree-alter>-1</degree-alter>      <degree-type>add</degree-type>     </degree>     <staff>1</staff>    </harmony>    <note color="#000000" default-x="91" default-y="-5">     <pitch>      <step>A</step>      <octave>3</octave>     </pitch>     <duration>256</duration>     <instrument id="P1-I1" />     <voice>1</voice>     <type>quarter</type>     <accidental>natural</accidental>         <staff>1</staff>    </note>    <note color="#000000" default-x="91">     <chord />     <pitch>      <step>C</step>      <octave>4</octave>     </pitch>     <duration>256</duration>     <instrument id="P1-I1" />     <type>quarter</type>     <accidental>natural</accidental>     <staff>1</staff>    </note>    <note color="#000000" default-x="91">     <chord />     <pitch>      <step>E</step>      <alter>-1</alter>      <octave>4</octave>     </pitch>     <duration>256</duration>     <instrument id="P1-I1" />     <type>quarter</type>     <accidental>flat</accidental>     <staff>1</staff>    </note>    <harmony color="#000000" default-y="25">     <root>      <root-step>B</root-step>      <root-alter>-1</root-alter>     </root>     <kind>dominant</kind>     <degree>      <degree-value>9</degree-value>      <degree-alter>-1</degree-alter>      <degree-type>add</degree-type>     </degree>     <staff>1</staff>    </harmony>    <note color="#000000" default-x="165" default-y="9">     <pitch>      <step>D</step>      <octave>4</octave>     </pitch>     <duration>128</duration>     <instrument id="P1-I1" />     <voice>1</voice>     <type>eighth</type>         <staff>1</staff>     <beam number="1">begin</beam>    </note>    <note color="#000000" default-x="219" default-y="9">     <pitch>      <step>B</step>      <octave>4</octave>     </pitch>     <duration>128</duration>     <instrument id="P1-I1" />     <voice>1</voice>     <type>eighth</type>     <accidental>natural</accidental>         <staff>1</staff>     <beam number="1">end</beam>    </note>    <note color="#000000" default-x="272" default-y="12">     <pitch>      <step>B</step>      <alter>-1</alter>      <octave>4</octave>     </pitch>     <duration>85</duration>     <instrument id="P1-I1" />     <voice>1</voice>     <type>eighth</type>     <accidental>flat</accidental>     <time-modification>      <actual-notes>3</actual-notes>      <normal-notes>2</normal-notes>      <normal-type>eighth</normal-type>     </time-modification>         <staff>1</staff>     <beam number="1">begin</beam>     <notations>      <tuplet type="start" bracket="no" number="1" default-y="-20" placement="above" />     </notations>    </note>    <note color="#000000" default-x="316" default-y="12">     <pitch>      <step>F</step>      <alter>1</alter>      <octave>4</octave>     </pitch>     <duration>85</duration>     <instrument id="P1-I1" />     <voice>1</voice>     <type>eighth</type>     <accidental>sharp</accidental>     <time-modification>      <actual-notes>3</actual-notes>      <normal-notes>2</normal-notes>      <normal-type>eighth</normal-type>     </time-modification>         <staff>1</staff>     <beam number="1">continue</beam>    </note>    <note color="#000000" default-x="360" default-y="12">     <pitch>      <step>B</step>      <octave>3</octave>     </pitch>     <duration>86</duration>     <instrument id="P1-I1" />     <voice>1</voice>     <type>eighth</type>     <accidental>natural</accidental>     <time-modification>      <actual-notes>3</actual-notes>      <normal-notes>2</normal-notes>      <normal-type>eighth</normal-type>     </time-modification>         <staff>1</staff>     <beam number="1">end</beam>     <notations>      <tuplet type="stop" bracket="no" number="1" default-y="-20" placement="above" />     </notations>    </note>    <backup>     <duration>1024</duration>    </backup>    <note default-x="17">     <rest />     <duration>512</duration>     <instrument id="P1-I1" />     <voice>2</voice>     <type>half</type>     <staff>1</staff>    </note>    <note color="#000000" default-x="165" default-y="-97">     <pitch>      <step>F</step>      <alter>-1</alter>      <octave>3</octave>     </pitch>     <duration>512</duration>     <instrument id="P1-I1" />     <voice>2</voice>     <type>half</type>     <accidental>flat</accidental>         <staff>1</staff>    </note>    <note color="#000000" default-x="165">     <chord />     <pitch>      <step>B</step>      <octave>3</octave>     </pitch>     <duration>512</duration>     <instrument id="P1-I1" />     <type>half</type>     <accidental>natural</accidental>     <staff>1</staff>    </note>   </measure>   <!--============== Part: P1, Measure: 28 ==============-->   <measure number="28" width="207">    <harmony color="#000000" default-y="25">     <root>      <root-step>E</root-step>      <root-alter>-1</root-alter>     </root>     <kind>major-seventh</kind>     <staff>1</staff>    </harmony>    <note color="#000000" default-x="18">     <pitch>      <step>B</step>      <alter>-1</alter>      <octave>3</octave>     </pitch>     <duration>1024</duration>     <instrument id="P1-I1" />     <voice>1</voice>     <type>whole</type>     <accidental>flat</accidental>     <staff>1</staff>     <notations>      <fermata>normal</fermata>     </notations>    </note>    <barline>     <bar-style>light-heavy</bar-style>    </barline>   </measure>  </part> </score-partwise>  