<?xml version="1.0" encoding='UTF-8' standalone='no' ?> <!DOCTYPE score-partwise PUBLIC "-//Recordare//DTD MusicXML 3.0 Partwise//EN" "http://www.musicxml.org/dtds/partwise.dtd"> <score-partwise version="3.0">  <work>   <work-title>Wave</work-title>  </work>  <identification>   <creator type="composer">1967 - Antonio Carlos Jobim</creator>   <rights>www.realbook.site</rights>   <encoding>    <encoding-date>2023-05-02</encoding-date>    <encoder>mosco</encoder>    <software>Sibelius 22.9.0</software>    <software>Direct export, not from Dolet</software>    <encoding-description>Sibelius / MusicXML 3.0</encoding-description>    <supports element="print" type="yes" value="yes" attribute="new-system" />    <supports element="print" type="yes" value="yes" attribute="new-page" />    <supports element="accidental" type="yes" />    <supports element="beam" type="yes" />    <supports element="stem" type="yes" />   </encoding>  </identification>  <defaults>   <scaling>    <millimeters>210</millimeters>    <tenths>1200</tenths>   </scaling>   <page-layout>    <page-height>1697</page-height>    <page-width>1200</page-width>    <page-margins type="both">     <left-margin>72</left-margin>     <right-margin>72</right-margin>     <top-margin>72</top-margin>     <bottom-margin>72</bottom-margin>    </page-margins>   </page-layout>   <system-layout>    <system-margins>     <left-margin>22</left-margin>     <right-margin>0</right-margin>    </system-margins>    <system-distance>92</system-distance>   </system-layout>   <appearance>    <line-width type="stem">0.9375</line-width>    <line-width type="beam">5</line-width>    <line-width type="staff">0.9375</line-width>    <line-width type="light barline">1.5625</line-width>    <line-width type="heavy barline">5</line-width>    <line-width type="leger">1.5625</line-width>    <line-width type="ending">1.5625</line-width>    <line-width type="wedge">1.25</line-width>    <line-width type="enclosure">0.9375</line-width>    <line-width type="tuplet bracket">1.25</line-width>    <line-width type="bracket">5</line-width>    <line-width type="dashes">1.5625</line-width>    <line-width type="extend">0.9375</line-width>    <line-width type="octave shift">1.5625</line-width>    <line-width type="pedal">1.5625</line-width>    <line-width type="slur middle">1.5625</line-width>    <line-width type="slur tip">0.625</line-width>    <line-width type="tie middle">1.5625</line-width>    <line-width type="tie tip">0.625</line-width>    <note-size type="cue">75</note-size>    <note-size type="grace">60</note-size>   </appearance>   <music-font font-family="Opus Std" font-size="19.8425" />   <word-font font-family="Plantin MT Std" font-size="11.9365" />   <lyric-font font-family="Plantin MT Std" font-size="11.4715" />   <lyric-language xml:lang="en" />  </defaults>  <credit page="1">   <credit-words default-x="600" default-y="155" font-family="Plantin MT Std" font-style="normal" font-size="22.0128" font-weight="normal" justify="center" valign="middle">Wave</credit-words>  </credit>  <credit page="1">   <credit-words default-x="1127" default-y="84" font-family="Plantin MT Std" font-style="normal" font-size="11.0064" font-weight="normal" justify="right" valign="middle">1967 - Antonio Carlos Jobim</credit-words>  </credit>  <credit page="1">   <credit-words default-x="600" default-y="72" font-family="Plantin MT Std" font-style="normal" font-size="10.0763" font-weight="normal" justify="center" valign="middle">www.realbook.site</credit-words>  </credit>  <part-list>   <score-part id="P1">    <identification>     <miscellaneous>      <miscellaneous-field name="show-rhythms">false</miscellaneous-field>     </miscellaneous>    </identification>    <part-name> </part-name>    <part-name-display>     <display-text> </display-text>    </part-name-display>    <part-abbreviation> </part-abbreviation>    <part-abbreviation-display>     <display-text> </display-text>    </part-abbreviation-display>    <score-instrument id="P1-I1">     <instrument-name> </instrument-name>     <virtual-instrument>      <virtual-library>General MIDI</virtual-library>      <virtual-name>Bright Piano</virtual-name>     </virtual-instrument>    </score-instrument>   </score-part>  </part-list>  <part id="P1">   <!--============== Part: P1, Measure: 1 ==============-->   <measure number="1" width="311">    <print new-page="yes">     <system-layout>      <system-margins>       <left-margin>22</left-margin>       <right-margin>0</right-margin>      </system-margins>      <top-system-distance>218</top-system-distance>     </system-layout>    </print>    <attributes>     <divisions>256</divisions>     <key color="#000000">      <fifths>2</fifths>      <mode>major</mode>     </key>     <time symbol="common" color="#000000">      <beats>4</beats>      <beat-type>4</beat-type>     </time>     <staves>1</staves>     <clef number="1" color="#000000">      <sign>G</sign>      <line>2</line>     </clef>     <staff-details number="1" print-object="yes" />    </attributes>    <harmony color="#000000" default-y="25">     <root>      <root-step>D</root-step>     </root>     <kind>minor-seventh</kind>     <staff>1</staff>    </harmony>    <note color="#000000" default-x="105" default-y="-55">     <pitch>      <step>B</step>      <octave>4</octave>     </pitch>     <duration>256</duration>     <instrument id="P1-I1" />     <voice>1</voice>     <type>quarter</type>     <stem>none</stem>     <notehead>slash</notehead>     <staff>1</staff>    </note>    <note color="#000000" default-x="157" default-y="-55">     <pitch>      <step>B</step>      <octave>4</octave>     </pitch>     <duration>256</duration>     <instrument id="P1-I1" />     <voice>1</voice>     <type>quarter</type>     <stem>none</stem>     <notehead>slash</notehead>     <staff>1</staff>    </note>    <harmony color="#000000" default-y="25">     <root>      <root-step>G</root-step>     </root>     <kind>dominant</kind>     <staff>1</staff>    </harmony>    <note color="#000000" default-x="208" default-y="-55">     <pitch>      <step>B</step>      <octave>4</octave>     </pitch>     <duration>256</duration>     <instrument id="P1-I1" />     <voice>1</voice>     <type>quarter</type>     <stem>none</stem>     <notehead>slash</notehead>     <staff>1</staff>    </note>    <note color="#000000" default-x="260" default-y="-55">     <pitch>      <step>B</step>      <octave>4</octave>     </pitch>     <duration>256</duration>     <instrument id="P1-I1" />     <voice>1</voice>     <type>quarter</type>     <stem>none</stem>     <notehead>slash</notehead>     <staff>1</staff>    </note>   </measure>   <!--============== Part: P1, Measure: 2 ==============-->   <measure number="2" width="221">    <harmony color="#000000" default-y="25">     <root>      <root-step>D</root-step>     </root>     <kind>minor-seventh</kind>     <staff>1</staff>    </harmony>    <note color="#000000" default-x="15" default-y="-55">     <pitch>      <step>B</step>      <octave>4</octave>     </pitch>     <duration>256</duration>     <instrument id="P1-I1" />     <voice>1</voice>     <type>quarter</type>     <stem>none</stem>     <notehead>slash</notehead>     <staff>1</staff>    </note>    <note color="#000000" default-x="66" default-y="-55">     <pitch>      <step>B</step>      <octave>4</octave>     </pitch>     <duration>256</duration>     <instrument id="P1-I1" />     <voice>1</voice>     <type>quarter</type>     <stem>none</stem>     <notehead>slash</notehead>     <staff>1</staff>    </note>    <harmony color="#000000" default-y="25">     <root>      <root-step>G</root-step>     </root>     <kind>dominant</kind>     <staff>1</staff>    </harmony>    <note color="#000000" default-x="118" default-y="-55">     <pitch>      <step>B</step>      <octave>4</octave>     </pitch>     <duration>256</duration>     <instrument id="P1-I1" />     <voice>1</voice>     <type>quarter</type>     <stem>none</stem>     <notehead>slash</notehead>     <staff>1</staff>    </note>    <note color="#000000" default-x="169" default-y="-55">     <pitch>      <step>B</step>      <octave>4</octave>     </pitch>     <duration>256</duration>     <instrument id="P1-I1" />     <voice>1</voice>     <type>quarter</type>     <stem>none</stem>     <notehead>slash</notehead>     <staff>1</staff>    </note>   </measure>   <!--============== Part: P1, Measure: 3 ==============-->   <measure number="3" width="220">    <harmony color="#000000" default-y="25">     <root>      <root-step>D</root-step>     </root>     <kind>minor-seventh</kind>     <staff>1</staff>    </harmony>    <note color="#000000" default-x="15" default-y="-55">     <pitch>      <step>B</step>      <octave>4</octave>     </pitch>     <duration>256</duration>     <instrument id="P1-I1" />     <voice>1</voice>     <type>quarter</type>     <stem>none</stem>     <notehead>slash</notehead>     <staff>1</staff>    </note>    <note color="#000000" default-x="66" default-y="-55">     <pitch>      <step>B</step>      <octave>4</octave>     </pitch>     <duration>256</duration>     <instrument id="P1-I1" />     <voice>1</voice>     <type>quarter</type>     <stem>none</stem>     <notehead>slash</notehead>     <staff>1</staff>    </note>    <harmony color="#000000" default-y="25">     <root>      <root-step>G</root-step>     </root>     <kind>dominant</kind>     <staff>1</staff>    </harmony>    <note color="#000000" default-x="118" default-y="-55">     <pitch>      <step>B</step>      <octave>4</octave>     </pitch>     <duration>256</duration>     <instrument id="P1-I1" />     <voice>1</voice>     <type>quarter</type>     <stem>none</stem>     <notehead>slash</notehead>     <staff>1</staff>    </note>    <note color="#000000" default-x="169" default-y="-55">     <pitch>      <step>B</step>      <octave>4</octave>     </pitch>     <duration>256</duration>     <instrument id="P1-I1" />     <voice>1</voice>     <type>quarter</type>     <stem>none</stem>     <notehead>slash</notehead>     <staff>1</staff>    </note>   </measure>   <!--============== Part: P1, Measure: 4 ==============-->   <measure number="4" width="279">    <harmony color="#000000" default-y="25">     <root>      <root-step>D</root-step>     </root>     <kind>minor-seventh</kind>     <staff>1</staff>    </harmony>    <note color="#000000" default-x="15" default-y="-55">     <pitch>      <step>B</step>      <octave>4</octave>     </pitch>     <duration>256</duration>     <instrument id="P1-I1" />     <voice>1</voice>     <type>quarter</type>     <stem>none</stem>     <notehead>slash</notehead>     <staff>1</staff>    </note>    <note color="#000000" default-x="66" default-y="-55">     <pitch>      <step>B</step>      <octave>4</octave>     </pitch>     <duration>256</duration>     <instrument id="P1-I1" />     <voice>1</voice>     <type>quarter</type>     <stem>none</stem>     <notehead>slash</notehead>     <staff>1</staff>    </note>    <harmony color="#000000" default-y="25">     <root>      <root-step>G</root-step>     </root>     <kind>dominant</kind>     <staff>1</staff>    </harmony>    <note default-x="118">     <rest />     <duration>128</duration>     <instrument id="P1-I1" />     <voice>1</voice>     <type>eighth</type>     <staff>1</staff>    </note>    <note color="#000000" default-x="155" default-y="-55">     <pitch>      <step>B</step>      <octave>4</octave>     </pitch>     <duration>128</duration>     <instrument id="P1-I1" />     <voice>1</voice>     <type>eighth</type>         <staff>1</staff>    </note>    <note color="#000000" default-x="192" default-y="-49">     <pitch>      <step>D</step>      <octave>5</octave>     </pitch>     <duration>128</duration>     <instrument id="P1-I1" />     <voice>1</voice>     <type>eighth</type>         <staff>1</staff>     <beam number="1">begin</beam>    </note>    <note color="#000000" default-x="230" default-y="-49">     <pitch>      <step>C</step>      <alter>1</alter>      <octave>5</octave>     </pitch>     <duration>128</duration>     <instrument id="P1-I1" />     <voice>1</voice>     <type>eighth</type>         <staff>1</staff>     <beam number="1">end</beam>    </note>    <barline>     <bar-style>light-light</bar-style>    </barline>   </measure>   <!--============== Part: P1, Measure: 5 ==============-->   <measure number="5" width="295">    <print new-system="yes">     <system-layout>      <system-margins>       <left-margin>22</left-margin>       <right-margin>0</right-margin>      </system-margins>      <system-distance>113</system-distance>     </system-layout>    </print>    <attributes>     <staff-details number="1" print-object="yes" />    </attributes>    <barline location="left">     <bar-style>heavy-light</bar-style>     <repeat direction="forward" />    </barline>    <harmony color="#000000" default-y="29">     <root>      <root-step>D</root-step>     </root>     <kind>major-seventh</kind>     <staff>1</staff>    </harmony>    <note color="#000000" default-x="105" default-y="10">     <pitch>      <step>A</step>      <octave>4</octave>     </pitch>     <duration>768</duration>     <tie type="start" />     <instrument id="P1-I1" />     <voice>1</voice>     <type>half</type>     <dot />         <staff>1</staff>     <notations>      <tied type="start" orientation="under" />     </notations>    </note>    <note color="#000000" default-x="216" default-y="4">     <pitch>      <step>A</step>      <octave>4</octave>     </pitch>     <duration>128</duration>     <tie type="stop" />     <instrument id="P1-I1" />     <voice>1</voice>     <type>eighth</type>         <staff>1</staff>     <beam number="1">begin</beam>     <notations>      <tied type="stop" orientation="under" />     </notations>    </note>    <note color="#000000" default-x="256" default-y="4">     <pitch>      <step>F</step>      <alter>1</alter>      <octave>4</octave>     </pitch>     <duration>128</duration>     <instrument id="P1-I1" />     <voice>1</voice>     <type>eighth</type>         <staff>1</staff>     <beam number="1">end</beam>    </note>   </measure>   <!--============== Part: P1, Measure: 6 ==============-->   <measure number="6" width="308">    <harmony color="#000000" default-y="29">     <root>      <root-step>B</root-step>      <root-alter>-1</root-alter>     </root>     <kind>diminished</kind>     <staff>1</staff>    </harmony>    <note color="#000000" default-x="15" default-y="-57">     <pitch>      <step>G</step>      <octave>4</octave>     </pitch>     <duration>128</duration>     <instrument id="P1-I1" />     <voice>1</voice>     <type>eighth</type>         <staff>1</staff>     <beam number="1">begin</beam>    </note>    <note color="#000000" default-x="54" default-y="-57">     <pitch>      <step>B</step>      <alter>-1</alter>      <octave>4</octave>     </pitch>     <duration>128</duration>     <instrument id="P1-I1" />     <voice>1</voice>     <type>eighth</type>     <accidental>flat</accidental>         <staff>1</staff>     <beam number="1">continue</beam>    </note>    <note color="#000000" default-x="94" default-y="-57">     <pitch>      <step>C</step>      <alter>1</alter>      <octave>5</octave>     </pitch>     <duration>128</duration>     <instrument id="P1-I1" />     <voice>1</voice>     <type>eighth</type>         <staff>1</staff>     <beam number="1">continue</beam>    </note>    <note color="#000000" default-x="134" default-y="-57">     <pitch>      <step>E</step>      <octave>5</octave>     </pitch>     <duration>128</duration>     <instrument id="P1-I1" />     <voice>1</voice>     <type>eighth</type>         <staff>1</staff>     <beam number="1">end</beam>    </note>    <note color="#000000" default-x="174" default-y="-30">     <pitch>      <step>G</step>      <octave>5</octave>     </pitch>     <duration>128</duration>     <instrument id="P1-I1" />     <voice>1</voice>     <type>eighth</type>         <staff>1</staff>    </note>    <note color="#000000" default-x="214" default-y="-35">     <pitch>      <step>F</step>      <alter>1</alter>      <octave>5</octave>     </pitch>     <duration>256</duration>     <instrument id="P1-I1" />     <voice>1</voice>     <type>quarter</type>         <staff>1</staff>    </note>    <note color="#000000" default-x="269" default-y="-25">     <pitch>      <step>A</step>      <octave>5</octave>     </pitch>     <duration>128</duration>     <tie type="start" />     <instrument id="P1-I1" />     <voice>1</voice>     <type>eighth</type>         <staff>1</staff>     <notations>      <tied type="start" orientation="over" />     </notations>    </note>   </measure>   <!--============== Part: P1, Measure: 7 ==============-->   <measure number="7" width="143">    <harmony color="#000000" default-y="29">     <root>      <root-step>A</root-step>     </root>     <kind>minor-seventh</kind>     <staff>1</staff>    </harmony>    <note color="#000000" default-x="15">     <pitch>      <step>A</step>      <octave>5</octave>     </pitch>     <duration>1024</duration>     <tie type="stop" />     <tie type="start" />     <instrument id="P1-I1" />     <voice>1</voice>     <type>whole</type>     <staff>1</staff>     <notations>      <tied type="stop" orientation="over" />      <tied type="start" orientation="over" />     </notations>    </note>   </measure>   <!--============== Part: P1, Measure: 8 ==============-->   <measure number="8" width="284">    <harmony color="#000000" default-y="29">     <root>      <root-step>D</root-step>     </root>     <kind>dominant</kind>     <staff>1</staff>    </harmony>    <note color="#000000" default-x="15" default-y="-25">     <pitch>      <step>A</step>      <octave>5</octave>     </pitch>     <duration>256</duration>     <tie type="stop" />     <instrument id="P1-I1" />     <voice>1</voice>     <type>quarter</type>         <staff>1</staff>     <notations>      <tied type="stop" orientation="over" />     </notations>    </note>    <note color="#000000" default-x="70" default-y="-22">     <pitch>      <step>A</step>      <octave>5</octave>     </pitch>     <duration>128</duration>     <instrument id="P1-I1" />     <voice>1</voice>     <type>eighth</type>         <staff>1</staff>     <beam number="1">begin</beam>    </note>    <note color="#000000" default-x="110" default-y="-22">     <pitch>      <step>A</step>      <octave>5</octave>     </pitch>     <duration>128</duration>     <tie type="start" />     <instrument id="P1-I1" />     <voice>1</voice>     <type>eighth</type>         <staff>1</staff>     <beam number="1">end</beam>     <notations>      <tied type="start" orientation="over" />     </notations>    </note>    <note color="#000000" default-x="149" default-y="-25">     <pitch>      <step>A</step>      <octave>5</octave>     </pitch>     <duration>128</duration>     <tie type="stop" />     <instrument id="P1-I1" />     <voice>1</voice>     <type>eighth</type>         <staff>1</staff>     <notations>      <tied type="stop" orientation="over" />     </notations>    </note>    <note color="#000000" default-x="189" default-y="-20">     <pitch>      <step>B</step>      <octave>5</octave>     </pitch>     <duration>256</duration>     <instrument id="P1-I1" />     <voice>1</voice>     <type>quarter</type>         <staff>1</staff>    </note>    <note color="#000000" default-x="244" default-y="-25">     <pitch>      <step>A</step>      <octave>5</octave>     </pitch>     <duration>128</duration>     <tie type="start" />     <instrument id="P1-I1" />     <voice>1</voice>     <type>eighth</type>         <staff>1</staff>     <notations>      <tied type="start" orientation="over" />     </notations>    </note>   </measure>   <!--============== Part: P1, Measure: 9 ==============-->   <measure number="9" width="322">    <print new-system="yes">     <system-layout>      <system-margins>       <left-margin>22</left-margin>       <right-margin>0</right-margin>      </system-margins>      <system-distance>112</system-distance>     </system-layout>    </print>    <attributes>     <staff-details number="1" print-object="yes" />    </attributes>    <harmony color="#000000" default-y="27">     <root>      <root-step>G</root-step>     </root>     <kind>major-seventh</kind>     <staff>1</staff>    </harmony>    <note color="#000000" default-x="87" default-y="-25">     <pitch>      <step>A</step>      <octave>5</octave>     </pitch>     <duration>128</duration>     <tie type="stop" />     <instrument id="P1-I1" />     <voice>1</voice>     <type>eighth</type>         <staff>1</staff>     <notations>      <tied type="stop" orientation="over" />     </notations>    </note>    <note color="#000000" default-x="125" default-y="-30">     <pitch>      <step>G</step>      <octave>5</octave>     </pitch>     <duration>256</duration>     <instrument id="P1-I1" />     <voice>1</voice>     <type>quarter</type>         <staff>1</staff>    </note>    <note color="#000000" default-x="178" default-y="-30">     <pitch>      <step>G</step>      <octave>5</octave>     </pitch>     <duration>128</duration>     <instrument id="P1-I1" />     <voice>1</voice>     <type>eighth</type>         <staff>1</staff>    </note>    <note color="#000000" default-x="216" default-y="-35">     <pitch>      <step>F</step>      <alter>1</alter>      <octave>5</octave>     </pitch>     <duration>256</duration>     <instrument id="P1-I1" />     <voice>1</voice>     <type>quarter</type>         <staff>1</staff>    </note>    <note color="#000000" default-x="269" default-y="-30">     <pitch>      <step>G</step>      <octave>5</octave>     </pitch>     <duration>256</duration>     <tie type="start" />     <instrument id="P1-I1" />     <voice>1</voice>     <type>quarter</type>         <staff>1</staff>     <notations>      <tied type="start" orientation="over" />     </notations>    </note>   </measure>   <!--============== Part: P1, Measure: 10 ==============-->   <measure number="10" width="273">    <harmony color="#000000" default-y="27">     <root>      <root-step>G</root-step>     </root>     <kind>minor-seventh</kind>     <staff>1</staff>    </harmony>    <note color="#000000" default-x="15" default-y="-30">     <pitch>      <step>G</step>      <octave>5</octave>     </pitch>     <duration>256</duration>     <tie type="stop" />     <instrument id="P1-I1" />     <voice>1</voice>     <type>quarter</type>         <staff>1</staff>     <notations>      <tied type="stop" orientation="over" />     </notations>    </note>    <note color="#000000" default-x="67" default-y="-32">     <pitch>      <step>F</step>      <alter>1</alter>      <octave>5</octave>     </pitch>     <duration>128</duration>     <instrument id="P1-I1" />     <voice>1</voice>     <type>eighth</type>         <staff>1</staff>     <beam number="1">begin</beam>    </note>    <note color="#000000" default-x="105" default-y="-32">     <pitch>      <step>G</step>      <octave>5</octave>     </pitch>     <duration>128</duration>     <tie type="start" />     <instrument id="P1-I1" />     <voice>1</voice>     <type>eighth</type>         <staff>1</staff>     <beam number="1">end</beam>     <notations>      <tied type="start" orientation="over" />     </notations>    </note>    <note color="#000000" default-x="144" default-y="-30">     <pitch>      <step>G</step>      <octave>5</octave>     </pitch>     <duration>128</duration>     <tie type="stop" />     <instrument id="P1-I1" />     <voice>1</voice>     <type>eighth</type>         <staff>1</staff>     <notations>      <tied type="stop" orientation="over" />     </notations>    </note>    <note color="#000000" default-x="182" default-y="-25">     <pitch>      <step>A</step>      <octave>5</octave>     </pitch>     <duration>256</duration>     <instrument id="P1-I1" />     <voice>1</voice>     <type>quarter</type>         <staff>1</staff>    </note>    <note color="#000000" default-x="235" default-y="-35">     <pitch>      <step>F</step>      <alter>1</alter>      <octave>5</octave>     </pitch>     <duration>128</duration>     <tie type="start" />     <instrument id="P1-I1" />     <voice>1</voice>     <type>eighth</type>         <staff>1</staff>     <notations>      <tied type="start" orientation="over" />     </notations>    </note>   </measure>   <!--============== Part: P1, Measure: 11 ==============-->   <measure number="11" width="138">    <harmony color="#000000" default-y="27">     <root>      <root-step>F</root-step>      <root-alter>1</root-alter>     </root>     <kind>dominant</kind>     <staff>1</staff>    </harmony>    <note color="#000000" default-x="15">     <pitch>      <step>F</step>      <alter>1</alter>      <octave>5</octave>     </pitch>     <duration>1024</duration>     <tie type="stop" />     <instrument id="P1-I1" />     <voice>1</voice>     <type>whole</type>     <staff>1</staff>     <notations>      <tied type="stop" orientation="over" />     </notations>    </note>   </measure>   <!--============== Part: P1, Measure: 12 ==============-->   <measure number="12" width="297">    <harmony color="#000000" default-y="27">     <root>      <root-step>B</root-step>     </root>     <kind>dominant</kind>     <staff>1</staff>    </harmony>    <note default-x="15">     <rest />     <duration>128</duration>     <instrument id="P1-I1" />     <voice>1</voice>     <type>eighth</type>     <staff>1</staff>    </note>    <note color="#000000" default-x="53" default-y="-35">     <pitch>      <step>F</step>      <alter>1</alter>      <octave>5</octave>     </pitch>     <duration>128</duration>     <instrument id="P1-I1" />     <voice>1</voice>     <type>eighth</type>         <staff>1</staff>    </note>    <note color="#000000" default-x="91" default-y="-29">     <pitch>      <step>A</step>      <octave>5</octave>     </pitch>     <duration>128</duration>     <instrument id="P1-I1" />     <voice>1</voice>     <type>eighth</type>         <staff>1</staff>     <beam number="1">begin</beam>    </note>    <note color="#000000" default-x="129" default-y="-29">     <pitch>      <step>G</step>      <alter>1</alter>      <octave>5</octave>     </pitch>     <duration>128</duration>     <instrument id="P1-I1" />     <voice>1</voice>     <type>eighth</type>     <accidental>sharp</accidental>         <staff>1</staff>     <beam number="1">end</beam>    </note>    <note color="#000000" default-x="168" default-y="-30">     <pitch>      <step>G</step>      <octave>5</octave>     </pitch>     <duration>128</duration>     <instrument id="P1-I1" />     <voice>1</voice>     <type>eighth</type>     <accidental>natural</accidental>         <staff>1</staff>    </note>    <note color="#000000" default-x="206" default-y="-35">     <pitch>      <step>F</step>      <alter>1</alter>      <octave>5</octave>     </pitch>     <duration>256</duration>     <instrument id="P1-I1" />     <voice>1</voice>     <type>quarter</type>         <staff>1</staff>    </note>    <note color="#000000" default-x="259" default-y="-35">     <pitch>      <step>F</step>      <alter>1</alter>      <octave>5</octave>     </pitch>     <duration>128</duration>     <tie type="start" />     <instrument id="P1-I1" />     <voice>1</voice>     <type>eighth</type>         <staff>1</staff>     <notations>      <tied type="start" orientation="over" />     </notations>    </note>   </measure>   <!--============== Part: P1, Measure: 13 ==============-->   <measure number="13" width="305">    <print new-system="yes">     <system-layout>      <system-margins>       <left-margin>22</left-margin>       <right-margin>0</right-margin>      </system-margins>      <system-distance>113</system-distance>     </system-layout>    </print>    <attributes>     <staff-details number="1" print-object="yes" />    </attributes>    <harmony color="#000000" default-y="25">     <root>      <root-step>E</root-step>     </root>     <kind>dominant</kind>     <staff>1</staff>    </harmony>    <note color="#000000" default-x="87" default-y="-42">     <pitch>      <step>F</step>      <alter>1</alter>      <octave>5</octave>     </pitch>     <duration>128</duration>     <tie type="stop" />     <instrument id="P1-I1" />     <voice>1</voice>     <type>eighth</type>         <staff>1</staff>     <beam number="1">begin</beam>     <notations>      <tied type="stop" orientation="over" />     </notations>    </note>    <note color="#000000" default-x="114" default-y="-42">     <pitch>      <step>D</step>      <octave>5</octave>     </pitch>     <duration>128</duration>     <instrument id="P1-I1" />     <voice>1</voice>     <type>eighth</type>         <staff>1</staff>     <beam number="1">continue</beam>    </note>    <note color="#000000" default-x="142" default-y="-42">     <pitch>      <step>D</step>      <octave>5</octave>     </pitch>     <duration>128</duration>     <instrument id="P1-I1" />     <voice>1</voice>     <type>eighth</type>         <staff>1</staff>     <beam number="1">continue</beam>    </note>    <note color="#000000" default-x="169" default-y="-42">     <pitch>      <step>D</step>      <octave>5</octave>     </pitch>     <duration>128</duration>     <tie type="start" />     <instrument id="P1-I1" />     <voice>1</voice>     <type>eighth</type>         <staff>1</staff>     <beam number="1">end</beam>     <notations>      <tied type="start" orientation="over" />     </notations>    </note>    <note color="#000000" default-x="196" default-y="-52">     <pitch>      <step>D</step>      <octave>5</octave>     </pitch>     <duration>128</duration>     <tie type="stop" />     <instrument id="P1-I1" />     <voice>1</voice>     <type>eighth</type>         <staff>1</staff>     <beam number="1">begin</beam>     <notations>      <tied type="stop" orientation="over" />     </notations>    </note>    <note color="#000000" default-x="224" default-y="-52">     <pitch>      <step>B</step>      <octave>4</octave>     </pitch>     <duration>128</duration>     <instrument id="P1-I1" />     <voice>1</voice>     <type>eighth</type>         <staff>1</staff>     <beam number="1">continue</beam>    </note>    <note color="#000000" default-x="251" default-y="-52">     <pitch>      <step>D</step>      <octave>5</octave>     </pitch>     <duration>128</duration>     <instrument id="P1-I1" />     <voice>1</voice>     <type>eighth</type>         <staff>1</staff>     <beam number="1">continue</beam>    </note>    <note color="#000000" default-x="278" default-y="-52">     <pitch>      <step>E</step>      <octave>5</octave>     </pitch>     <duration>128</duration>     <instrument id="P1-I1" />     <voice>1</voice>     <type>eighth</type>         <staff>1</staff>     <beam number="1">end</beam>    </note>   </measure>   <!--============== Part: P1, Measure: 14 ==============-->   <measure number="14" width="240">    <harmony color="#000000" default-y="25">     <root>      <root-step>B</root-step>      <root-alter>-1</root-alter>     </root>     <kind>dominant</kind>     <staff>1</staff>    </harmony>    <note color="#000000" default-x="15" default-y="-52">     <pitch>      <step>F</step>      <octave>5</octave>     </pitch>     <duration>128</duration>     <instrument id="P1-I1" />     <voice>1</voice>     <type>eighth</type>     <accidental>natural</accidental>         <staff>1</staff>     <beam number="1">begin</beam>    </note>    <note color="#000000" default-x="42" default-y="-52">     <pitch>      <step>D</step>      <octave>5</octave>     </pitch>     <duration>128</duration>     <instrument id="P1-I1" />     <voice>1</voice>     <type>eighth</type>         <staff>1</staff>     <beam number="1">continue</beam>    </note>    <note color="#000000" default-x="69" default-y="-52">     <pitch>      <step>C</step>      <octave>5</octave>     </pitch>     <duration>128</duration>     <instrument id="P1-I1" />     <voice>1</voice>     <type>eighth</type>     <accidental>natural</accidental>         <staff>1</staff>     <beam number="1">continue</beam>    </note>    <note color="#000000" default-x="97" default-y="-52">     <pitch>      <step>A</step>      <alter>-1</alter>      <octave>4</octave>     </pitch>     <duration>128</duration>     <instrument id="P1-I1" />     <voice>1</voice>     <type>eighth</type>     <accidental>flat</accidental>         <staff>1</staff>     <beam number="1">end</beam>    </note>    <harmony color="#000000" default-y="25">     <root>      <root-step>A</root-step>     </root>     <kind>dominant</kind>     <staff>1</staff>    </harmony>    <note color="#000000" default-x="125" default-y="5">     <pitch>      <step>G</step>      <octave>4</octave>     </pitch>     <duration>128</duration>     <instrument id="P1-I1" />     <voice>1</voice>     <type>eighth</type>         <staff>1</staff>    </note>    <note color="#000000" default-x="163">     <pitch>      <step>F</step>      <octave>4</octave>     </pitch>     <duration>256</duration>     <instrument id="P1-I1" />     <voice>1</voice>     <type>quarter</type>     <accidental>natural</accidental>         <staff>1</staff>    </note>    <note color="#000000" default-x="201">     <pitch>      <step>F</step>      <octave>4</octave>     </pitch>     <duration>128</duration>     <tie type="start" />     <instrument id="P1-I1" />     <voice>1</voice>     <type>eighth</type>         <staff>1</staff>     <notations>      <tied type="start" orientation="under" />     </notations>    </note>   </measure>   <!--============== Part: P1, Measure: 15 ==============-->   <measure number="15" width="158">    <harmony color="#000000" default-y="25">     <root>      <root-step>D</root-step>     </root>     <kind>minor-seventh</kind>     <staff>1</staff>    </harmony>    <note color="#000000" default-x="15">     <pitch>      <step>F</step>      <octave>4</octave>     </pitch>     <duration>128</duration>     <tie type="stop" />     <instrument id="P1-I1" />     <voice>1</voice>     <type>eighth</type>         <staff>1</staff>     <notations>      <tied type="stop" orientation="under" />     </notations>    </note>    <note color="#000000" default-x="43" default-y="-10">     <pitch>      <step>D</step>      <octave>4</octave>     </pitch>     <duration>384</duration>     <tie type="start" />     <instrument id="P1-I1" />     <voice>1</voice>     <type>quarter</type>     <dot />         <staff>1</staff>     <notations>      <tied type="start" orientation="under" />     </notations>    </note>    <harmony color="#000000" default-y="25">     <root>      <root-step>G</root-step>     </root>     <kind>dominant</kind>     <staff>1</staff>    </harmony>    <note color="#000000" default-x="94" default-y="-10">     <pitch>      <step>D</step>      <octave>4</octave>     </pitch>     <duration>512</duration>     <tie type="stop" />     <instrument id="P1-I1" />     <voice>1</voice>     <type>half</type>         <staff>1</staff>     <notations>      <tied type="stop" orientation="under" />     </notations>    </note>   </measure>   <!--============== Part: P1, Measure: 16 ==============-->   <measure number="16" width="210">    <barline location="left">     <ending number="1" type="start" />    </barline>    <harmony color="#000000" default-y="25">     <root>      <root-step>D</root-step>     </root>     <kind>minor</kind>     <staff>1</staff>    </harmony>    <note default-x="15">     <rest />     <duration>512</duration>     <instrument id="P1-I1" />     <voice>1</voice>     <type>half</type>     <staff>1</staff>    </note>    <harmony color="#000000" default-y="25">     <root>      <root-step>G</root-step>     </root>     <kind>dominant</kind>     <staff>1</staff>    </harmony>    <note default-x="79">     <rest />     <duration>128</duration>     <instrument id="P1-I1" />     <voice>1</voice>     <type>eighth</type>     <staff>1</staff>    </note>    <note color="#000000" default-x="106" default-y="-55">     <pitch>      <step>B</step>      <octave>4</octave>     </pitch>     <duration>128</duration>     <instrument id="P1-I1" />     <voice>1</voice>     <type>eighth</type>         <staff>1</staff>    </note>    <note color="#000000" default-x="133" default-y="-49">     <pitch>      <step>D</step>      <octave>5</octave>     </pitch>     <duration>128</duration>     <instrument id="P1-I1" />     <voice>1</voice>     <type>eighth</type>         <staff>1</staff>     <beam number="1">begin</beam>    </note>    <note color="#000000" default-x="160" default-y="-49">     <pitch>      <step>C</step>      <alter>1</alter>      <octave>5</octave>     </pitch>     <duration>128</duration>     <instrument id="P1-I1" />     <voice>1</voice>     <type>eighth</type>         <staff>1</staff>     <beam number="1">end</beam>    </note>    <barline location="right">     <bar-style>light-heavy</bar-style>     <ending number="1" type="stop" />     <repeat direction="backward" />    </barline>   </measure>   <!--============== Part: P1, Measure: 17 ==============-->   <measure number="17" width="116">    <barline location="left">     <ending number="2" type="start" />    </barline>    <harmony color="#000000" default-y="25">     <root>      <root-step>D</root-step>     </root>     <kind>minor-seventh</kind>     <staff>1</staff>    </harmony>    <note>     <rest />     <duration>1024</duration>     <instrument id="P1-I1" />     <voice>1</voice>     <type>whole</type>     <staff>1</staff>    </note>    <backup>     <duration>512</duration>    </backup>    <harmony color="#000000" default-y="25">     <root>      <root-step>G</root-step>     </root>     <kind>dominant</kind>     <staff>1</staff>    </harmony>    <forward>     <duration>512</duration>    </forward>    <barline location="right">     <bar-style>light-light</bar-style>     <ending number="2" type="discontinue" />    </barline>   </measure>   <!--============== Part: P1, Measure: 18 ==============-->   <measure number="18" width="328">    <print new-system="yes">     <system-layout>      <system-margins>       <left-margin>22</left-margin>       <right-margin>0</right-margin>      </system-margins>      <system-distance>112</system-distance>     </system-layout>    </print>    <attributes>     <staff-details number="1" print-object="yes" />    </attributes>    <harmony color="#000000" default-y="25">     <root>      <root-step>G</root-step>     </root>     <kind>minor-seventh</kind>     <staff>1</staff>    </harmony>    <note color="#000000" default-x="87" default-y="-45">     <pitch>      <step>D</step>      <octave>5</octave>     </pitch>     <duration>512</duration>     <instrument id="P1-I1" />     <voice>1</voice>     <type>half</type>         <staff>1</staff>    </note>    <note color="#000000" default-x="186" default-y="-50">     <pitch>      <step>C</step>      <octave>5</octave>     </pitch>     <duration>170</duration>     <instrument id="P1-I1" />     <voice>1</voice>     <type>quarter</type>     <accidental>natural</accidental>     <time-modification>      <actual-notes>3</actual-notes>      <normal-notes>2</normal-notes>      <normal-type>quarter</normal-type>     </time-modification>         <staff>1</staff>     <notations>      <tuplet type="start" bracket="yes" number="1" default-y="-62" placement="below" />     </notations>    </note>    <note color="#000000" default-x="233" default-y="-55">     <pitch>      <step>B</step>      <alter>-1</alter>      <octave>4</octave>     </pitch>     <duration>171</duration>     <instrument id="P1-I1" />     <voice>1</voice>     <type>quarter</type>     <accidental>flat</accidental>     <time-modification>      <actual-notes>3</actual-notes>      <normal-notes>2</normal-notes>      <normal-type>quarter</normal-type>     </time-modification>         <staff>1</staff>    </note>    <note color="#000000" default-x="280" default-y="10">     <pitch>      <step>A</step>      <octave>4</octave>     </pitch>     <duration>171</duration>     <instrument id="P1-I1" />     <voice>1</voice>     <type>quarter</type>     <time-modification>      <actual-notes>3</actual-notes>      <normal-notes>2</normal-notes>      <normal-type>quarter</normal-type>     </time-modification>         <staff>1</staff>     <notations>      <tuplet type="stop" bracket="yes" number="1" default-y="-62" placement="below" />     </notations>    </note>   </measure>   <!--============== Part: P1, Measure: 19 ==============-->   <measure number="19" width="255">    <harmony color="#000000" default-y="25">     <root>      <root-step>C</root-step>     </root>     <kind>dominant</kind>     <staff>1</staff>    </harmony>    <note color="#000000" default-x="15" default-y="5">     <pitch>      <step>G</step>      <octave>4</octave>     </pitch>     <duration>512</duration>     <instrument id="P1-I1" />     <voice>1</voice>     <type>half</type>         <staff>1</staff>    </note>    <note color="#000000" default-x="114" default-y="10">     <pitch>      <step>A</step>      <octave>4</octave>     </pitch>     <duration>170</duration>     <instrument id="P1-I1" />     <voice>1</voice>     <type>quarter</type>     <time-modification>      <actual-notes>3</actual-notes>      <normal-notes>2</normal-notes>      <normal-type>quarter</normal-type>     </time-modification>         <staff>1</staff>     <notations>      <tuplet type="start" bracket="yes" number="1" default-y="-54" placement="above" />     </notations>    </note>    <note color="#000000" default-x="161" default-y="-55">     <pitch>      <step>B</step>      <alter>-1</alter>      <octave>4</octave>     </pitch>     <duration>171</duration>     <instrument id="P1-I1" />     <voice>1</voice>     <type>quarter</type>     <accidental>flat</accidental>     <time-modification>      <actual-notes>3</actual-notes>      <normal-notes>2</normal-notes>      <normal-type>quarter</normal-type>     </time-modification>         <staff>1</staff>    </note>    <note color="#000000" default-x="208" default-y="-45">     <pitch>      <step>D</step>      <octave>5</octave>     </pitch>     <duration>171</duration>     <instrument id="P1-I1" />     <voice>1</voice>     <type>quarter</type>     <time-modification>      <actual-notes>3</actual-notes>      <normal-notes>2</normal-notes>      <normal-type>quarter</normal-type>     </time-modification>         <staff>1</staff>     <notations>      <tuplet type="stop" bracket="yes" number="1" default-y="-54" placement="above" />     </notations>    </note>   </measure>   <!--============== Part: P1, Measure: 20 ==============-->   <measure number="20" width="235">    <harmony color="#000000" default-y="25">     <root>      <root-step>A</root-step>     </root>     <kind>minor-seventh</kind>     <staff>1</staff>    </harmony>    <note color="#000000" default-x="15" default-y="-50">     <pitch>      <step>C</step>      <octave>5</octave>     </pitch>     <duration>384</duration>     <instrument id="P1-I1" />     <voice>1</voice>     <type>quarter</type>     <dot />     <accidental>natural</accidental>         <staff>1</staff>    </note>    <note color="#000000" default-x="94" default-y="-50">     <pitch>      <step>C</step>      <octave>5</octave>     </pitch>     <duration>128</duration>     <instrument id="P1-I1" />     <voice>1</voice>     <type>eighth</type>         <staff>1</staff>    </note>    <note color="#000000" default-x="136" default-y="-50">     <pitch>      <step>C</step>      <octave>5</octave>     </pitch>     <duration>512</duration>     <tie type="start" />     <instrument id="P1-I1" />     <voice>1</voice>     <type>half</type>         <staff>1</staff>     <notations>      <tied type="start" orientation="over" />     </notations>    </note>   </measure>   <!--============== Part: P1, Measure: 21 ==============-->   <measure number="21" width="213">    <note color="#000000" default-x="15" default-y="-50">     <pitch>      <step>C</step>      <octave>5</octave>     </pitch>     <duration>512</duration>     <tie type="stop" />     <instrument id="P1-I1" />     <voice>1</voice>     <type>half</type>         <staff>1</staff>     <notations>      <tied type="stop" orientation="over" />     </notations>    </note>    <note default-x="114">     <rest />     <duration>512</duration>     <instrument id="P1-I1" />     <voice>1</voice>     <type>half</type>     <staff>1</staff>    </note>   </measure>   <!--============== Part: P1, Measure: 22 ==============-->   <measure number="22" width="307">    <print new-system="yes">     <system-layout>      <system-margins>       <left-margin>22</left-margin>       <right-margin>0</right-margin>      </system-margins>      <system-distance>113</system-distance>     </system-layout>    </print>    <attributes>     <staff-details number="1" print-object="yes" />    </attributes>    <harmony color="#000000" default-y="25">     <root>      <root-step>F</root-step>     </root>     <kind>minor-seventh</kind>     <staff>1</staff>    </harmony>    <note color="#000000" default-x="87" default-y="-50">     <pitch>      <step>C</step>      <octave>5</octave>     </pitch>     <duration>512</duration>     <instrument id="P1-I1" />     <voice>1</voice>     <type>half</type>     <accidental>natural</accidental>         <staff>1</staff>    </note>    <note color="#000000" default-x="178" default-y="-55">     <pitch>      <step>B</step>      <alter>-1</alter>      <octave>4</octave>     </pitch>     <duration>170</duration>     <instrument id="P1-I1" />     <voice>1</voice>     <type>quarter</type>     <accidental>flat</accidental>     <time-modification>      <actual-notes>3</actual-notes>      <normal-notes>2</normal-notes>      <normal-type>quarter</normal-type>     </time-modification>         <staff>1</staff>     <notations>      <tuplet type="start" bracket="yes" number="1" default-y="12" placement="above" />     </notations>    </note>    <note color="#000000" default-x="221" default-y="10">     <pitch>      <step>A</step>      <alter>-1</alter>      <octave>4</octave>     </pitch>     <duration>171</duration>     <instrument id="P1-I1" />     <voice>1</voice>     <type>quarter</type>     <accidental>flat</accidental>     <time-modification>      <actual-notes>3</actual-notes>      <normal-notes>2</normal-notes>      <normal-type>quarter</normal-type>     </time-modification>         <staff>1</staff>    </note>    <note color="#000000" default-x="264" default-y="5">     <pitch>      <step>G</step>      <octave>4</octave>     </pitch>     <duration>171</duration>     <instrument id="P1-I1" />     <voice>1</voice>     <type>quarter</type>     <time-modification>      <actual-notes>3</actual-notes>      <normal-notes>2</normal-notes>      <normal-type>quarter</normal-type>     </time-modification>         <staff>1</staff>     <notations>      <tuplet type="stop" bracket="yes" number="1" default-y="12" placement="above" />     </notations>    </note>   </measure>   <!--============== Part: P1, Measure: 23 ==============-->   <measure number="23" width="235">    <harmony color="#000000" default-y="25">     <root>      <root-step>B</root-step>      <root-alter>-1</root-alter>     </root>     <kind>dominant</kind>     <staff>1</staff>    </harmony>    <note color="#000000" default-x="15">     <pitch>      <step>F</step>      <octave>4</octave>     </pitch>     <duration>512</duration>     <instrument id="P1-I1" />     <voice>1</voice>     <type>half</type>     <accidental>natural</accidental>         <staff>1</staff>    </note>    <note color="#000000" default-x="105" default-y="5">     <pitch>      <step>G</step>      <octave>4</octave>     </pitch>     <duration>170</duration>     <instrument id="P1-I1" />     <voice>1</voice>     <type>quarter</type>     <time-modification>      <actual-notes>3</actual-notes>      <normal-notes>2</normal-notes>      <normal-type>quarter</normal-type>     </time-modification>         <staff>1</staff>     <notations>      <tuplet type="start" bracket="yes" number="1" default-y="17" placement="above" />     </notations>    </note>    <note color="#000000" default-x="149" default-y="10">     <pitch>      <step>A</step>      <alter>-1</alter>      <octave>4</octave>     </pitch>     <duration>171</duration>     <instrument id="P1-I1" />     <voice>1</voice>     <type>quarter</type>     <accidental>flat</accidental>     <time-modification>      <actual-notes>3</actual-notes>      <normal-notes>2</normal-notes>      <normal-type>quarter</normal-type>     </time-modification>         <staff>1</staff>    </note>    <note color="#000000" default-x="191" default-y="-50">     <pitch>      <step>C</step>      <octave>5</octave>     </pitch>     <duration>171</duration>     <instrument id="P1-I1" />     <voice>1</voice>     <type>quarter</type>     <accidental>natural</accidental>     <time-modification>      <actual-notes>3</actual-notes>      <normal-notes>2</normal-notes>      <normal-type>quarter</normal-type>     </time-modification>         <staff>1</staff>     <notations>      <tuplet type="stop" bracket="yes" number="1" default-y="17" placement="above" />     </notations>    </note>   </measure>   <!--============== Part: P1, Measure: 24 ==============-->   <measure number="24" width="217">    <harmony color="#000000" default-y="25">     <root>      <root-step>G</root-step>     </root>     <kind>minor-seventh</kind>     <staff>1</staff>    </harmony>    <note color="#000000" default-x="15" default-y="-55">     <pitch>      <step>B</step>      <alter>-1</alter>      <octave>4</octave>     </pitch>     <duration>384</duration>     <instrument id="P1-I1" />     <voice>1</voice>     <type>quarter</type>     <dot />     <accidental>flat</accidental>         <staff>1</staff>    </note>    <note color="#000000" default-x="87" default-y="-55">     <pitch>      <step>B</step>      <alter>-1</alter>      <octave>4</octave>     </pitch>     <duration>128</duration>     <instrument id="P1-I1" />     <voice>1</voice>     <type>eighth</type>         <staff>1</staff>    </note>    <note color="#000000" default-x="126" default-y="-55">     <pitch>      <step>B</step>      <alter>-1</alter>      <octave>4</octave>     </pitch>     <duration>512</duration>     <tie type="start" />     <instrument id="P1-I1" />     <voice>1</voice>     <type>half</type>         <staff>1</staff>     <notations>      <tied type="start" orientation="over" />     </notations>    </note>   </measure>   <!--============== Part: P1, Measure: 25 ==============-->   <measure number="25" width="272">    <harmony color="#000000" default-y="25">     <root>      <root-step>A</root-step>     </root>     <kind>dominant</kind>     <staff>1</staff>    </harmony>    <note color="#000000" default-x="15" default-y="-55">     <pitch>      <step>B</step>      <alter>-1</alter>      <octave>4</octave>     </pitch>     <duration>512</duration>     <tie type="stop" />     <instrument id="P1-I1" />     <voice>1</voice>     <type>half</type>         <staff>1</staff>     <notations>      <tied type="stop" orientation="over" />     </notations>    </note>    <note default-x="105">     <rest />     <duration>128</duration>     <instrument id="P1-I1" />     <voice>1</voice>     <type>eighth</type>     <staff>1</staff>    </note>    <note color="#000000" default-x="144" default-y="-55">     <pitch>      <step>B</step>      <octave>4</octave>     </pitch>     <duration>128</duration>     <instrument id="P1-I1" />     <voice>1</voice>     <type>eighth</type>     <accidental>natural</accidental>         <staff>1</staff>    </note>    <note color="#000000" default-x="183" default-y="-49">     <pitch>      <step>D</step>      <octave>5</octave>     </pitch>     <duration>128</duration>     <instrument id="P1-I1" />     <voice>1</voice>     <type>eighth</type>         <staff>1</staff>     <beam number="1">begin</beam>    </note>    <note color="#000000" default-x="222" default-y="-49">     <pitch>      <step>C</step>      <alter>1</alter>      <octave>5</octave>     </pitch>     <duration>128</duration>     <instrument id="P1-I1" />     <voice>1</voice>     <type>eighth</type>         <staff>1</staff>     <beam number="1">end</beam>    </note>    <barline>     <bar-style>light-light</bar-style>    </barline>   </measure>   <!--============== Part: P1, Measure: 26 ==============-->   <measure number="26" width="281">    <print new-system="yes">     <system-layout>      <system-margins>       <left-margin>22</left-margin>       <right-margin>0</right-margin>      </system-margins>      <system-distance>113</system-distance>     </system-layout>    </print>    <attributes>     <staff-details number="1" print-object="yes" />    </attributes>    <harmony color="#000000" default-y="29">     <root>      <root-step>D</root-step>     </root>     <kind>major-seventh</kind>     <staff>1</staff>    </harmony>    <note color="#000000" default-x="87" default-y="10">     <pitch>      <step>A</step>      <octave>4</octave>     </pitch>     <duration>768</duration>     <tie type="start" />     <instrument id="P1-I1" />     <voice>1</voice>     <type>half</type>     <dot />         <staff>1</staff>     <notations>      <tied type="start" orientation="under" />     </notations>    </note>    <note color="#000000" default-x="200" default-y="4">     <pitch>      <step>A</step>      <octave>4</octave>     </pitch>     <duration>128</duration>     <tie type="stop" />     <instrument id="P1-I1" />     <voice>1</voice>     <type>eighth</type>         <staff>1</staff>     <beam number="1">begin</beam>     <notations>      <tied type="stop" orientation="under" />     </notations>    </note>    <note color="#000000" default-x="241" default-y="4">     <pitch>      <step>F</step>      <alter>1</alter>      <octave>4</octave>     </pitch>     <duration>128</duration>     <instrument id="P1-I1" />     <voice>1</voice>     <type>eighth</type>         <staff>1</staff>     <beam number="1">end</beam>    </note>   </measure>   <!--============== Part: P1, Measure: 27 ==============-->   <measure number="27" width="315">    <harmony color="#000000" default-y="29">     <root>      <root-step>B</root-step>      <root-alter>-1</root-alter>     </root>     <kind>diminished</kind>     <staff>1</staff>    </harmony>    <note color="#000000" default-x="15" default-y="-57">     <pitch>      <step>G</step>      <octave>4</octave>     </pitch>     <duration>128</duration>     <instrument id="P1-I1" />     <voice>1</voice>     <type>eighth</type>         <staff>1</staff>     <beam number="1">begin</beam>    </note>    <note color="#000000" default-x="55" default-y="-57">     <pitch>      <step>B</step>      <alter>-1</alter>      <octave>4</octave>     </pitch>     <duration>128</duration>     <instrument id="P1-I1" />     <voice>1</voice>     <type>eighth</type>     <accidental>flat</accidental>         <staff>1</staff>     <beam number="1">continue</beam>    </note>    <note color="#000000" default-x="96" default-y="-57">     <pitch>      <step>C</step>      <alter>1</alter>      <octave>5</octave>     </pitch>     <duration>128</duration>     <instrument id="P1-I1" />     <voice>1</voice>     <type>eighth</type>         <staff>1</staff>     <beam number="1">continue</beam>    </note>    <note color="#000000" default-x="136" default-y="-57">     <pitch>      <step>E</step>      <octave>5</octave>     </pitch>     <duration>128</duration>     <instrument id="P1-I1" />     <voice>1</voice>     <type>eighth</type>         <staff>1</staff>     <beam number="1">end</beam>    </note>    <note color="#000000" default-x="177" default-y="-30">     <pitch>      <step>G</step>      <octave>5</octave>     </pitch>     <duration>128</duration>     <instrument id="P1-I1" />     <voice>1</voice>     <type>eighth</type>         <staff>1</staff>    </note>    <note color="#000000" default-x="218" default-y="-35">     <pitch>      <step>F</step>      <alter>1</alter>      <octave>5</octave>     </pitch>     <duration>256</duration>     <instrument id="P1-I1" />     <voice>1</voice>     <type>quarter</type>         <staff>1</staff>    </note>    <note color="#000000" default-x="274" default-y="-25">     <pitch>      <step>A</step>      <octave>5</octave>     </pitch>     <duration>128</duration>     <tie type="start" />     <instrument id="P1-I1" />     <voice>1</voice>     <type>eighth</type>         <staff>1</staff>     <notations>      <tied type="start" orientation="over" />     </notations>    </note>   </measure>   <!--============== Part: P1, Measure: 28 ==============-->   <measure number="28" width="146">    <harmony color="#000000" default-y="29">     <root>      <root-step>A</root-step>     </root>     <kind>minor-seventh</kind>     <staff>1</staff>    </harmony>    <note color="#000000" default-x="15">     <pitch>      <step>A</step>      <octave>5</octave>     </pitch>     <duration>1024</duration>     <tie type="stop" />     <tie type="start" />     <instrument id="P1-I1" />     <voice>1</voice>     <type>whole</type>     <staff>1</staff>     <notations>      <tied type="stop" orientation="over" />      <tied type="start" orientation="over" />     </notations>    </note>   </measure>   <!--============== Part: P1, Measure: 29 ==============-->   <measure number="29" width="289">    <harmony color="#000000" default-y="29">     <root>      <root-step>D</root-step>     </root>     <kind>dominant</kind>     <staff>1</staff>    </harmony>    <note color="#000000" default-x="15" default-y="-25">     <pitch>      <step>A</step>      <octave>5</octave>     </pitch>     <duration>256</duration>     <tie type="stop" />     <instrument id="P1-I1" />     <voice>1</voice>     <type>quarter</type>         <staff>1</staff>     <notations>      <tied type="stop" orientation="over" />     </notations>    </note>    <note color="#000000" default-x="71" default-y="-22">     <pitch>      <step>A</step>      <octave>5</octave>     </pitch>     <duration>128</duration>     <instrument id="P1-I1" />     <voice>1</voice>     <type>eighth</type>         <staff>1</staff>     <beam number="1">begin</beam>    </note>    <note color="#000000" default-x="111" default-y="-22">     <pitch>      <step>A</step>      <octave>5</octave>     </pitch>     <duration>128</duration>     <tie type="start" />     <instrument id="P1-I1" />     <voice>1</voice>     <type>eighth</type>         <staff>1</staff>     <beam number="1">end</beam>     <notations>      <tied type="start" orientation="over" />     </notations>    </note>    <note color="#000000" default-x="152" default-y="-25">     <pitch>      <step>A</step>      <octave>5</octave>     </pitch>     <duration>128</duration>     <tie type="stop" />     <instrument id="P1-I1" />     <voice>1</voice>     <type>eighth</type>         <staff>1</staff>     <notations>      <tied type="stop" orientation="over" />     </notations>    </note>    <note color="#000000" default-x="192" default-y="-20">     <pitch>      <step>B</step>      <octave>5</octave>     </pitch>     <duration>256</duration>     <instrument id="P1-I1" />     <voice>1</voice>     <type>quarter</type>         <staff>1</staff>    </note>    <note color="#000000" default-x="249" default-y="-25">     <pitch>      <step>A</step>      <octave>5</octave>     </pitch>     <duration>128</duration>     <tie type="start" />     <instrument id="P1-I1" />     <voice>1</voice>     <type>eighth</type>         <staff>1</staff>     <notations>      <tied type="start" orientation="over" />     </notations>    </note>   </measure>   <!--============== Part: P1, Measure: 30 ==============-->   <measure number="30" width="322">    <print new-system="yes">     <system-layout>      <system-margins>       <left-margin>22</left-margin>       <right-margin>0</right-margin>      </system-margins>      <system-distance>112</system-distance>     </system-layout>    </print>    <attributes>     <staff-details number="1" print-object="yes" />    </attributes>    <harmony color="#000000" default-y="27">     <root>      <root-step>G</root-step>     </root>     <kind>major-seventh</kind>     <staff>1</staff>    </harmony>    <note color="#000000" default-x="87" default-y="-25">     <pitch>      <step>A</step>      <octave>5</octave>     </pitch>     <duration>128</duration>     <tie type="stop" />     <instrument id="P1-I1" />     <voice>1</voice>     <type>eighth</type>         <staff>1</staff>     <notations>      <tied type="stop" orientation="over" />     </notations>    </note>    <note color="#000000" default-x="125" default-y="-30">     <pitch>      <step>G</step>      <octave>5</octave>     </pitch>     <duration>256</duration>     <instrument id="P1-I1" />     <voice>1</voice>     <type>quarter</type>         <staff>1</staff>    </note>    <note color="#000000" default-x="178" default-y="-30">     <pitch>      <step>G</step>      <octave>5</octave>     </pitch>     <duration>128</duration>     <instrument id="P1-I1" />     <voice>1</voice>     <type>eighth</type>         <staff>1</staff>    </note>    <note color="#000000" default-x="216" default-y="-35">     <pitch>      <step>F</step>      <alter>1</alter>      <octave>5</octave>     </pitch>     <duration>256</duration>     <instrument id="P1-I1" />     <voice>1</voice>     <type>quarter</type>         <staff>1</staff>    </note>    <note color="#000000" default-x="269" default-y="-30">     <pitch>      <step>G</step>      <octave>5</octave>     </pitch>     <duration>256</duration>     <tie type="start" />     <instrument id="P1-I1" />     <voice>1</voice>     <type>quarter</type>         <staff>1</staff>     <notations>      <tied type="start" orientation="over" />     </notations>    </note>   </measure>   <!--============== Part: P1, Measure: 31 ==============-->   <measure number="31" width="273">    <harmony color="#000000" default-y="27">     <root>      <root-step>G</root-step>     </root>     <kind>minor-seventh</kind>     <staff>1</staff>    </harmony>    <note color="#000000" default-x="15" default-y="-30">     <pitch>      <step>G</step>      <octave>5</octave>     </pitch>     <duration>256</duration>     <tie type="stop" />     <instrument id="P1-I1" />     <voice>1</voice>     <type>quarter</type>         <staff>1</staff>     <notations>      <tied type="stop" orientation="over" />     </notations>    </note>    <note color="#000000" default-x="67" default-y="-32">     <pitch>      <step>F</step>      <alter>1</alter>      <octave>5</octave>     </pitch>     <duration>128</duration>     <instrument id="P1-I1" />     <voice>1</voice>     <type>eighth</type>         <staff>1</staff>     <beam number="1">begin</beam>    </note>    <note color="#000000" default-x="105" default-y="-32">     <pitch>      <step>G</step>      <octave>5</octave>     </pitch>     <duration>128</duration>     <tie type="start" />     <instrument id="P1-I1" />     <voice>1</voice>     <type>eighth</type>         <staff>1</staff>     <beam number="1">end</beam>     <notations>      <tied type="start" orientation="over" />     </notations>    </note>    <note color="#000000" default-x="144" default-y="-30">     <pitch>      <step>G</step>      <octave>5</octave>     </pitch>     <duration>128</duration>     <tie type="stop" />     <instrument id="P1-I1" />     <voice>1</voice>     <type>eighth</type>         <staff>1</staff>     <notations>      <tied type="stop" orientation="over" />     </notations>    </note>    <note color="#000000" default-x="182" default-y="-25">     <pitch>      <step>A</step>      <octave>5</octave>     </pitch>     <duration>256</duration>     <instrument id="P1-I1" />     <voice>1</voice>     <type>quarter</type>         <staff>1</staff>    </note>    <note color="#000000" default-x="235" default-y="-35">     <pitch>      <step>F</step>      <alter>1</alter>      <octave>5</octave>     </pitch>     <duration>128</duration>     <tie type="start" />     <instrument id="P1-I1" />     <voice>1</voice>     <type>eighth</type>         <staff>1</staff>     <notations>      <tied type="start" orientation="over" />     </notations>    </note>   </measure>   <!--============== Part: P1, Measure: 32 ==============-->   <measure number="32" width="138">    <harmony color="#000000" default-y="27">     <root>      <root-step>F</root-step>      <root-alter>1</root-alter>     </root>     <kind>dominant</kind>     <staff>1</staff>    </harmony>    <note color="#000000" default-x="15">     <pitch>      <step>F</step>      <alter>1</alter>      <octave>5</octave>     </pitch>     <duration>1024</duration>     <tie type="stop" />     <instrument id="P1-I1" />     <voice>1</voice>     <type>whole</type>     <staff>1</staff>     <notations>      <tied type="stop" orientation="over" />     </notations>    </note>   </measure>   <!--============== Part: P1, Measure: 33 ==============-->   <measure number="33" width="297">    <harmony color="#000000" default-y="27">     <root>      <root-step>B</root-step>     </root>     <kind>dominant</kind>     <staff>1</staff>    </harmony>    <note default-x="15">     <rest />     <duration>128</duration>     <instrument id="P1-I1" />     <voice>1</voice>     <type>eighth</type>     <staff>1</staff>    </note>    <note color="#000000" default-x="53" default-y="-35">     <pitch>      <step>F</step>      <alter>1</alter>      <octave>5</octave>     </pitch>     <duration>128</duration>     <instrument id="P1-I1" />     <voice>1</voice>     <type>eighth</type>         <staff>1</staff>    </note>    <note color="#000000" default-x="91" default-y="-29">     <pitch>      <step>A</step>      <octave>5</octave>     </pitch>     <duration>128</duration>     <instrument id="P1-I1" />     <voice>1</voice>     <type>eighth</type>         <staff>1</staff>     <beam number="1">begin</beam>    </note>    <note color="#000000" default-x="129" default-y="-29">     <pitch>      <step>G</step>      <alter>1</alter>      <octave>5</octave>     </pitch>     <duration>128</duration>     <instrument id="P1-I1" />     <voice>1</voice>     <type>eighth</type>     <accidental>sharp</accidental>         <staff>1</staff>     <beam number="1">end</beam>    </note>    <note color="#000000" default-x="168" default-y="-30">     <pitch>      <step>G</step>      <octave>5</octave>     </pitch>     <duration>128</duration>     <instrument id="P1-I1" />     <voice>1</voice>     <type>eighth</type>     <accidental>natural</accidental>         <staff>1</staff>    </note>    <note color="#000000" default-x="206" default-y="-35">     <pitch>      <step>F</step>      <alter>1</alter>      <octave>5</octave>     </pitch>     <duration>256</duration>     <instrument id="P1-I1" />     <voice>1</voice>     <type>quarter</type>         <staff>1</staff>    </note>    <note color="#000000" default-x="259" default-y="-35">     <pitch>      <step>F</step>      <alter>1</alter>      <octave>5</octave>     </pitch>     <duration>128</duration>     <tie type="start" />     <instrument id="P1-I1" />     <voice>1</voice>     <type>eighth</type>         <staff>1</staff>     <notations>      <tied type="start" orientation="over" />     </notations>    </note>   </measure>   <!--============== Part: P1, Measure: 34 ==============-->   <measure number="34" width="380">    <print new-system="yes">     <system-layout>      <system-margins>       <left-margin>22</left-margin>       <right-margin>0</right-margin>      </system-margins>      <system-distance>113</system-distance>     </system-layout>    </print>    <attributes>     <staff-details number="1" print-object="yes" />    </attributes>    <harmony color="#000000" default-y="25">     <root>      <root-step>E</root-step>     </root>     <kind>dominant</kind>     <staff>1</staff>    </harmony>    <note color="#000000" default-x="87" default-y="-42">     <pitch>      <step>F</step>      <alter>1</alter>      <octave>5</octave>     </pitch>     <duration>128</duration>     <tie type="stop" />     <instrument id="P1-I1" />     <voice>1</voice>     <type>eighth</type>         <staff>1</staff>     <beam number="1">begin</beam>     <notations>      <tied type="stop" orientation="over" />     </notations>    </note>    <note color="#000000" default-x="124" default-y="-42">     <pitch>      <step>D</step>      <octave>5</octave>     </pitch>     <duration>128</duration>     <instrument id="P1-I1" />     <voice>1</voice>     <type>eighth</type>         <staff>1</staff>     <beam number="1">continue</beam>    </note>    <note color="#000000" default-x="160" default-y="-42">     <pitch>      <step>D</step>      <octave>5</octave>     </pitch>     <duration>128</duration>     <instrument id="P1-I1" />     <voice>1</voice>     <type>eighth</type>         <staff>1</staff>     <beam number="1">continue</beam>    </note>    <note color="#000000" default-x="197" default-y="-42">     <pitch>      <step>D</step>      <octave>5</octave>     </pitch>     <duration>128</duration>     <tie type="start" />     <instrument id="P1-I1" />     <voice>1</voice>     <type>eighth</type>         <staff>1</staff>     <beam number="1">end</beam>     <notations>      <tied type="start" orientation="over" />     </notations>    </note>    <note color="#000000" default-x="234" default-y="-52">     <pitch>      <step>D</step>      <octave>5</octave>     </pitch>     <duration>128</duration>     <tie type="stop" />     <instrument id="P1-I1" />     <voice>1</voice>     <type>eighth</type>         <staff>1</staff>     <beam number="1">begin</beam>     <notations>      <tied type="stop" orientation="over" />     </notations>    </note>    <note color="#000000" default-x="270" default-y="-52">     <pitch>      <step>B</step>      <octave>4</octave>     </pitch>     <duration>128</duration>     <instrument id="P1-I1" />     <voice>1</voice>     <type>eighth</type>         <staff>1</staff>     <beam number="1">continue</beam>    </note>    <note color="#000000" default-x="307" default-y="-52">     <pitch>      <step>D</step>      <octave>5</octave>     </pitch>     <duration>128</duration>     <instrument id="P1-I1" />     <voice>1</voice>     <type>eighth</type>         <staff>1</staff>     <beam number="1">continue</beam>    </note>    <note color="#000000" default-x="344" default-y="-52">     <pitch>      <step>E</step>      <octave>5</octave>     </pitch>     <duration>128</duration>     <instrument id="P1-I1" />     <voice>1</voice>     <type>eighth</type>         <staff>1</staff>     <beam number="1">end</beam>    </note>   </measure>   <!--============== Part: P1, Measure: 35 ==============-->   <measure number="35" width="290">    <harmony color="#000000" default-y="25">     <root>      <root-step>B</root-step>      <root-alter>-1</root-alter>     </root>     <kind>dominant</kind>     <staff>1</staff>    </harmony>    <note color="#000000" default-x="15" default-y="-52">     <pitch>      <step>F</step>      <octave>5</octave>     </pitch>     <duration>128</duration>     <instrument id="P1-I1" />     <voice>1</voice>     <type>eighth</type>     <accidental>natural</accidental>         <staff>1</staff>     <beam number="1">begin</beam>    </note>    <note color="#000000" default-x="51" default-y="-52">     <pitch>      <step>D</step>      <octave>5</octave>     </pitch>     <duration>128</duration>     <instrument id="P1-I1" />     <voice>1</voice>     <type>eighth</type>         <staff>1</staff>     <beam number="1">continue</beam>    </note>    <note color="#000000" default-x="88" default-y="-52">     <pitch>      <step>C</step>      <octave>5</octave>     </pitch>     <duration>128</duration>     <instrument id="P1-I1" />     <voice>1</voice>     <type>eighth</type>     <accidental>natural</accidental>         <staff>1</staff>     <beam number="1">continue</beam>    </note>    <note color="#000000" default-x="125" default-y="-52">     <pitch>      <step>A</step>      <alter>-1</alter>      <octave>4</octave>     </pitch>     <duration>128</duration>     <instrument id="P1-I1" />     <voice>1</voice>     <type>eighth</type>     <accidental>flat</accidental>         <staff>1</staff>     <beam number="1">end</beam>    </note>    <harmony color="#000000" default-y="25">     <root>      <root-step>A</root-step>     </root>     <kind>dominant</kind>     <staff>1</staff>    </harmony>    <note color="#000000" default-x="161" default-y="5">     <pitch>      <step>G</step>      <octave>4</octave>     </pitch>     <duration>128</duration>     <instrument id="P1-I1" />     <voice>1</voice>     <type>eighth</type>         <staff>1</staff>    </note>    <note color="#000000" default-x="200">     <pitch>      <step>F</step>      <octave>4</octave>     </pitch>     <duration>256</duration>     <instrument id="P1-I1" />     <voice>1</voice>     <type>quarter</type>     <accidental>natural</accidental>         <staff>1</staff>    </note>    <note color="#000000" default-x="250">     <pitch>      <step>F</step>      <octave>4</octave>     </pitch>     <duration>128</duration>     <tie type="start" />     <instrument id="P1-I1" />     <voice>1</voice>     <type>eighth</type>         <staff>1</staff>     <notations>      <tied type="start" orientation="under" />     </notations>    </note>   </measure>   <!--============== Part: P1, Measure: 36 ==============-->   <measure number="36" width="206">    <harmony color="#000000" default-y="25">     <root>      <root-step>D</root-step>     </root>     <kind>minor-seventh</kind>     <staff>1</staff>    </harmony>    <note color="#000000" default-x="15">     <pitch>      <step>F</step>      <octave>4</octave>     </pitch>     <duration>128</duration>     <tie type="stop" />     <instrument id="P1-I1" />     <voice>1</voice>     <type>eighth</type>         <staff>1</staff>     <notations>      <tied type="stop" orientation="under" />     </notations>    </note>    <note color="#000000" default-x="51" default-y="-10">     <pitch>      <step>D</step>      <octave>4</octave>     </pitch>     <duration>384</duration>     <tie type="start" />     <instrument id="P1-I1" />     <voice>1</voice>     <type>quarter</type>     <dot />         <staff>1</staff>     <notations>      <tied type="start" orientation="under" />     </notations>    </note>    <harmony color="#000000" default-y="25">     <root>      <root-step>G</root-step>     </root>     <kind>dominant</kind>     <staff>1</staff>    </harmony>    <note color="#000000" default-x="120" default-y="-10">     <pitch>      <step>D</step>      <octave>4</octave>     </pitch>     <duration>512</duration>     <tie type="stop" />     <instrument id="P1-I1" />     <voice>1</voice>     <type>half</type>         <staff>1</staff>     <notations>      <tied type="stop" orientation="under" />     </notations>    </note>   </measure>   <!--============== Part: P1, Measure: 37 ==============-->   <measure number="37" width="155">    <harmony color="#000000" default-y="25">     <root>      <root-step>D</root-step>     </root>     <kind>minor-seventh</kind>     <staff>1</staff>    </harmony>    <note>     <rest />     <duration>1024</duration>     <instrument id="P1-I1" />     <voice>1</voice>     <type>whole</type>     <staff>1</staff>    </note>    <backup>     <duration>512</duration>    </backup>    <harmony color="#000000" default-y="25">     <root>      <root-step>G</root-step>     </root>     <kind>dominant</kind>     <staff>1</staff>    </harmony>    <forward>     <duration>512</duration>    </forward>    <barline>     <bar-style>light-heavy</bar-style>    </barline>   </measure>  </part> </score-partwise>  