<?xml version="1.0" encoding='UTF-8' standalone='no' ?> <!DOCTYPE score-partwise PUBLIC "-//Recordare//DTD MusicXML 3.0 Partwise//EN" "http://www.musicxml.org/dtds/partwise.dtd"> <score-partwise version="3.0">  <work>   <work-title>Whisper Not</work-title>  </work>  <identification>   <creator type="composer">1956 - Benny Golson / Leonard Feather</creator>   <rights>www.realbook.site</rights>   <encoding>    <encoding-date>2023-05-02</encoding-date>    <encoder>mosco</encoder>    <software>Sibelius 22.9.0</software>    <software>Direct export, not from Dolet</software>    <encoding-description>Sibelius / MusicXML 3.0</encoding-description>    <supports element="print" type="yes" value="yes" attribute="new-system" />    <supports element="print" type="yes" value="yes" attribute="new-page" />    <supports element="accidental" type="yes" />    <supports element="beam" type="yes" />    <supports element="stem" type="yes" />   </encoding>  </identification>  <defaults>   <scaling>    <millimeters>210</millimeters>    <tenths>1200</tenths>   </scaling>   <page-layout>    <page-height>1697</page-height>    <page-width>1200</page-width>    <page-margins type="both">     <left-margin>72</left-margin>     <right-margin>72</right-margin>     <top-margin>72</top-margin>     <bottom-margin>72</bottom-margin>    </page-margins>   </page-layout>   <system-layout>    <system-margins>     <left-margin>22</left-margin>     <right-margin>0</right-margin>    </system-margins>    <system-distance>92</system-distance>   </system-layout>   <appearance>    <line-width type="stem">0.9375</line-width>    <line-width type="beam">5</line-width>    <line-width type="staff">0.9375</line-width>    <line-width type="light barline">1.5625</line-width>    <line-width type="heavy barline">5</line-width>    <line-width type="leger">1.5625</line-width>    <line-width type="ending">1.5625</line-width>    <line-width type="wedge">1.25</line-width>    <line-width type="enclosure">0.9375</line-width>    <line-width type="tuplet bracket">1.25</line-width>    <line-width type="bracket">5</line-width>    <line-width type="dashes">1.5625</line-width>    <line-width type="extend">0.9375</line-width>    <line-width type="octave shift">1.5625</line-width>    <line-width type="pedal">1.5625</line-width>    <line-width type="slur middle">1.5625</line-width>    <line-width type="slur tip">0.625</line-width>    <line-width type="tie middle">1.5625</line-width>    <line-width type="tie tip">0.625</line-width>    <note-size type="cue">75</note-size>    <note-size type="grace">60</note-size>   </appearance>   <music-font font-family="Opus Std" font-size="19.8425" />   <word-font font-family="Plantin MT Std" font-size="11.9365" />   <lyric-font font-family="Plantin MT Std" font-size="11.4715" />   <lyric-language xml:lang="en" />  </defaults>  <credit page="1">   <credit-words default-x="600" default-y="155" font-family="Plantin MT Std" font-style="normal" font-size="22.0128" font-weight="normal" justify="center" valign="middle">Whisper Not</credit-words>  </credit>  <credit page="1">   <credit-words default-x="1127" default-y="84" font-family="Plantin MT Std" font-style="normal" font-size="11.0064" font-weight="normal" justify="right" valign="middle">1956 - Benny Golson / Leonard Feather</credit-words>  </credit>  <credit page="1">   <credit-words default-x="600" default-y="72" font-family="Plantin MT Std" font-style="normal" font-size="10.0763" font-weight="normal" justify="center" valign="middle">www.realbook.site</credit-words>  </credit>  <part-list>   <score-part id="P1">    <part-name> </part-name>    <part-name-display>     <display-text> </display-text>    </part-name-display>    <part-abbreviation> </part-abbreviation>    <part-abbreviation-display>     <display-text> </display-text>    </part-abbreviation-display>    <score-instrument id="P1-I1">     <instrument-name> </instrument-name>     <virtual-instrument>      <virtual-library>General MIDI</virtual-library>      <virtual-name>Bright Piano</virtual-name>     </virtual-instrument>    </score-instrument>   </score-part>  </part-list>  <part id="P1">   <!--============== Part: P1, Measure: 0 ==============-->   <measure number="0" width="155">    <print new-page="yes">     <system-layout>      <system-margins>       <left-margin>22</left-margin>       <right-margin>0</right-margin>      </system-margins>      <top-system-distance>218</top-system-distance>     </system-layout>    </print>    <attributes>     <divisions>256</divisions>     <key color="#000000">      <fifths>0</fifths>      <mode>major</mode>     </key>     <time symbol="common" color="#000000">      <beats>4</beats>      <beat-type>4</beat-type>     </time>     <staves>1</staves>     <clef number="1" color="#000000">      <sign>G</sign>      <line>2</line>     </clef>     <staff-details number="1" print-object="yes" />    </attributes>    <note color="#000000" default-x="75">     <pitch>      <step>C</step>      <octave>4</octave>     </pitch>     <duration>128</duration>     <instrument id="P1-I1" />     <voice>1</voice>     <type>eighth</type>         <staff>1</staff>     <beam number="1">begin</beam>    </note>    <note color="#000000" default-x="115">     <pitch>      <step>G</step>      <octave>4</octave>     </pitch>     <duration>128</duration>     <tie type="start" />     <instrument id="P1-I1" />     <voice>1</voice>     <type>eighth</type>         <staff>1</staff>     <beam number="1">end</beam>     <notations>      <tied type="start" orientation="under" />     </notations>    </note>   </measure>   <!--============== Part: P1, Measure: 1 ==============-->   <measure number="1" width="218">    <barline location="left">     <bar-style>heavy-light</bar-style>     <repeat direction="forward" />    </barline>    <harmony color="#000000" default-y="25">     <root>      <root-step>C</root-step>     </root>     <kind>minor-seventh</kind>     <staff>1</staff>    </harmony>    <note color="#000000" default-x="27" default-y="5">     <pitch>      <step>G</step>      <octave>4</octave>     </pitch>     <duration>768</duration>     <tie type="stop" />     <instrument id="P1-I1" />     <voice>1</voice>     <type>half</type>     <dot />         <staff>1</staff>     <notations>      <tied type="stop" orientation="under" />     </notations>    </note>    <backup>     <duration>256</duration>    </backup>    <harmony color="#000000" default-y="25">     <root>      <root-step>C</root-step>     </root>     <kind>minor</kind>     <bass>      <bass-step>B</bass-step>      <bass-alter>-1</bass-alter>     </bass>     <staff>1</staff>    </harmony>    <forward>     <duration>256</duration>    </forward>    <note color="#000000" default-x="139">     <pitch>      <step>C</step>      <octave>4</octave>     </pitch>     <duration>128</duration>     <instrument id="P1-I1" />     <voice>1</voice>     <type>eighth</type>         <staff>1</staff>     <beam number="1">begin</beam>    </note>    <note color="#000000" default-x="178">     <pitch>      <step>G</step>      <octave>4</octave>     </pitch>     <duration>128</duration>     <tie type="start" />     <instrument id="P1-I1" />     <voice>1</voice>     <type>eighth</type>         <staff>1</staff>     <beam number="1">end</beam>     <notations>      <tied type="start" orientation="under" />     </notations>    </note>   </measure>   <!--============== Part: P1, Measure: 2 ==============-->   <measure number="2" width="205">    <harmony color="#000000" default-y="25">     <root>      <root-step>A</root-step>     </root>     <kind>half-diminished</kind>     <staff>1</staff>    </harmony>    <note color="#000000" default-x="15" default-y="5">     <pitch>      <step>G</step>      <octave>4</octave>     </pitch>     <duration>768</duration>     <tie type="stop" />     <instrument id="P1-I1" />     <voice>1</voice>     <type>half</type>     <dot />         <staff>1</staff>     <notations>      <tied type="stop" orientation="under" />     </notations>    </note>    <backup>     <duration>256</duration>    </backup>    <harmony color="#000000" default-y="25">     <root>      <root-step>D</root-step>     </root>     <kind>dominant</kind>     <staff>1</staff>    </harmony>    <forward>     <duration>256</duration>    </forward>    <note color="#000000" default-x="125" default-y="9">     <pitch>      <step>A</step>      <octave>4</octave>     </pitch>     <duration>128</duration>     <instrument id="P1-I1" />     <voice>1</voice>     <type>eighth</type>         <staff>1</staff>     <beam number="1">begin</beam>    </note>    <note color="#000000" default-x="165" default-y="9">     <pitch>      <step>B</step>      <alter>-1</alter>      <octave>4</octave>     </pitch>     <duration>128</duration>     <tie type="start" />     <instrument id="P1-I1" />     <voice>1</voice>     <type>eighth</type>     <accidental>flat</accidental>         <staff>1</staff>     <beam number="1">end</beam>     <notations>      <tied type="start" orientation="under" />     </notations>    </note>   </measure>   <!--============== Part: P1, Measure: 3 ==============-->   <measure number="3" width="205">    <harmony color="#000000" default-y="25">     <root>      <root-step>G</root-step>     </root>     <kind>minor-seventh</kind>     <staff>1</staff>    </harmony>    <note color="#000000" default-x="15" default-y="-55">     <pitch>      <step>B</step>      <alter>-1</alter>      <octave>4</octave>     </pitch>     <duration>768</duration>     <tie type="stop" />     <instrument id="P1-I1" />     <voice>1</voice>     <type>half</type>     <dot />         <staff>1</staff>     <notations>      <tied type="stop" orientation="under" />     </notations>    </note>    <backup>     <duration>256</duration>    </backup>    <harmony color="#000000" default-y="25">     <root>      <root-step>G</root-step>     </root>     <kind>minor-seventh</kind>     <bass>      <bass-step>F</bass-step>     </bass>     <staff>1</staff>    </harmony>    <forward>     <duration>256</duration>    </forward>    <note color="#000000" default-x="126" default-y="4">     <pitch>      <step>A</step>      <octave>4</octave>     </pitch>     <duration>128</duration>     <instrument id="P1-I1" />     <voice>1</voice>     <type>eighth</type>         <staff>1</staff>     <beam number="1">begin</beam>    </note>    <note color="#000000" default-x="166" default-y="4">     <pitch>      <step>G</step>      <octave>4</octave>     </pitch>     <duration>128</duration>     <instrument id="P1-I1" />     <voice>1</voice>     <type>eighth</type>         <staff>1</staff>     <beam number="1">end</beam>    </note>   </measure>   <!--============== Part: P1, Measure: 4 ==============-->   <measure number="4" width="247">    <harmony color="#000000" default-y="25">     <root>      <root-step>E</root-step>     </root>     <kind>half-diminished</kind>     <staff>1</staff>    </harmony>    <note color="#000000" default-x="15" default-y="-55">     <pitch>      <step>B</step>      <alter>-1</alter>      <octave>4</octave>     </pitch>     <duration>768</duration>     <instrument id="P1-I1" />     <voice>1</voice>     <type>half</type>     <dot />     <accidental>flat</accidental>         <staff>1</staff>    </note>    <backup>     <duration>256</duration>    </backup>    <harmony color="#000000" default-y="25">     <root>      <root-step>A</root-step>     </root>     <kind>dominant</kind>     <staff>1</staff>    </harmony>    <forward>     <duration>256</duration>    </forward>    <note color="#000000" default-x="126" default-y="12">     <pitch>      <step>A</step>      <octave>4</octave>     </pitch>     <duration>42</duration>     <instrument id="P1-I1" />     <voice>1</voice>     <type>16th</type>     <time-modification>      <actual-notes>3</actual-notes>      <normal-notes>2</normal-notes>      <normal-type>16th</normal-type>     </time-modification>         <staff>1</staff>     <beam number="1">begin</beam>     <beam number="2">begin</beam>     <notations>      <tuplet type="start" bracket="yes" number="1" default-y="-20" placement="above" />     </notations>    </note>    <note color="#000000" default-x="153" default-y="12">     <pitch>      <step>B</step>      <alter>-1</alter>      <octave>4</octave>     </pitch>     <duration>43</duration>     <instrument id="P1-I1" />     <voice>1</voice>     <type>16th</type>     <time-modification>      <actual-notes>3</actual-notes>      <normal-notes>2</normal-notes>      <normal-type>16th</normal-type>     </time-modification>         <staff>1</staff>     <beam number="1">continue</beam>     <beam number="2">continue</beam>    </note>    <note color="#000000" default-x="180" default-y="12">     <pitch>      <step>A</step>      <octave>4</octave>     </pitch>     <duration>43</duration>     <instrument id="P1-I1" />     <voice>1</voice>     <type>16th</type>     <time-modification>      <actual-notes>3</actual-notes>      <normal-notes>2</normal-notes>      <normal-type>16th</normal-type>     </time-modification>         <staff>1</staff>     <beam number="1">continue</beam>     <beam number="2">end</beam>     <notations>      <tuplet type="stop" bracket="yes" number="1" default-y="-20" placement="above" />     </notations>    </note>    <note color="#000000" default-x="207" default-y="12">     <pitch>      <step>G</step>      <octave>4</octave>     </pitch>     <duration>128</duration>     <instrument id="P1-I1" />     <voice>1</voice>     <type>eighth</type>         <staff>1</staff>     <beam number="1">end</beam>    </note>   </measure>   <!--============== Part: P1, Measure: 5 ==============-->   <measure number="5" width="302">    <print new-system="yes">     <system-layout>      <system-margins>       <left-margin>22</left-margin>       <right-margin>0</right-margin>      </system-margins>      <system-distance>97</system-distance>     </system-layout>    </print>    <attributes>     <staff-details number="1" print-object="yes" />    </attributes>    <harmony color="#000000" default-y="25">     <root>      <root-step>D</root-step>     </root>     <kind>minor-seventh</kind>     <staff>1</staff>    </harmony>    <note color="#000000" default-x="57" default-y="10">     <pitch>      <step>A</step>      <octave>4</octave>     </pitch>     <duration>256</duration>     <instrument id="P1-I1" />     <voice>1</voice>     <type>quarter</type>         <staff>1</staff>    </note>    <note color="#000000" default-x="107" default-y="-52">     <pitch>      <step>D</step>      <octave>5</octave>     </pitch>     <duration>128</duration>     <instrument id="P1-I1" />     <voice>1</voice>     <type>eighth</type>         <staff>1</staff>     <beam number="1">begin</beam>    </note>    <note color="#000000" default-x="144" default-y="-52">     <pitch>      <step>A</step>      <alter>-1</alter>      <octave>4</octave>     </pitch>     <duration>128</duration>     <tie type="start" />     <instrument id="P1-I1" />     <voice>1</voice>     <type>eighth</type>     <accidental>flat</accidental>         <staff>1</staff>     <beam number="1">end</beam>     <notations>      <tied type="start" orientation="over" />     </notations>    </note>    <harmony color="#000000" default-y="25">     <root>      <root-step>B</root-step>     </root>     <kind>half-diminished</kind>     <staff>1</staff>    </harmony>    <note color="#000000" default-x="180" default-y="4">     <pitch>      <step>A</step>      <alter>-1</alter>      <octave>4</octave>     </pitch>     <duration>128</duration>     <tie type="stop" />     <instrument id="P1-I1" />     <voice>1</voice>     <type>eighth</type>         <staff>1</staff>     <beam number="1">begin</beam>     <notations>      <tied type="stop" orientation="over" />     </notations>    </note>    <note color="#000000" default-x="216" default-y="4">     <pitch>      <step>F</step>      <octave>4</octave>     </pitch>     <duration>128</duration>     <instrument id="P1-I1" />     <voice>1</voice>     <type>eighth</type>         <staff>1</staff>     <beam number="1">end</beam>    </note>    <note color="#000000" default-x="252" default-y="5">     <pitch>      <step>G</step>      <octave>4</octave>     </pitch>     <duration>256</duration>     <tie type="start" />     <instrument id="P1-I1" />     <voice>1</voice>     <type>quarter</type>         <staff>1</staff>     <notations>      <tied type="start" orientation="under" />     </notations>    </note>   </measure>   <!--============== Part: P1, Measure: 6 ==============-->   <measure number="6" width="189">    <harmony color="#000000" default-y="25">     <root>      <root-step>E</root-step>     </root>     <kind>minor-seventh</kind>     <staff>1</staff>    </harmony>    <note color="#000000" default-x="15" default-y="5">     <pitch>      <step>G</step>      <octave>4</octave>     </pitch>     <duration>768</duration>     <tie type="stop" />     <instrument id="P1-I1" />     <voice>1</voice>     <type>half</type>     <dot />         <staff>1</staff>     <notations>      <tied type="stop" orientation="under" />     </notations>    </note>    <backup>     <duration>256</duration>    </backup>    <harmony color="#000000" default-y="25">     <root>      <root-step>A</root-step>     </root>     <kind>dominant</kind>     <staff>1</staff>    </harmony>    <forward>     <duration>256</duration>    </forward>    <note color="#000000" default-x="116" default-y="-5">     <pitch>      <step>F</step>      <octave>4</octave>     </pitch>     <duration>128</duration>     <instrument id="P1-I1" />     <voice>1</voice>     <type>eighth</type>         <staff>1</staff>     <beam number="1">begin</beam>    </note>    <note color="#000000" default-x="152" default-y="-5">     <pitch>      <step>D</step>      <octave>4</octave>     </pitch>     <duration>128</duration>     <tie type="start" />     <instrument id="P1-I1" />     <voice>1</voice>     <type>eighth</type>         <staff>1</staff>     <beam number="1">end</beam>     <notations>      <tied type="start" orientation="under" />     </notations>    </note>   </measure>   <!--============== Part: P1, Measure: 7 ==============-->   <measure number="7" width="185">    <harmony color="#000000" default-y="25">     <root>      <root-step>D</root-step>     </root>     <kind>minor-seventh</kind>     <staff>1</staff>    </harmony>    <note color="#000000" default-x="15" default-y="-10">     <pitch>      <step>D</step>      <octave>4</octave>     </pitch>     <duration>512</duration>     <tie type="stop" />     <instrument id="P1-I1" />     <voice>1</voice>     <type>half</type>         <staff>1</staff>     <notations>      <tied type="stop" orientation="under" />     </notations>    </note>    <harmony color="#000000" default-y="25">     <root>      <root-step>E</root-step>     </root>     <kind>minor-seventh</kind>     <staff>1</staff>    </harmony>    <note color="#000000" default-x="100" default-y="-5">     <pitch>      <step>E</step>      <octave>4</octave>     </pitch>     <duration>512</duration>     <instrument id="P1-I1" />     <voice>1</voice>     <type>half</type>         <staff>1</staff>    </note>   </measure>   <!--============== Part: P1, Measure: 8 ==============-->   <measure number="8" width="211">    <barline location="left">     <ending number="1" type="start" />    </barline>    <harmony color="#000000" default-y="25">     <root>      <root-step>F</root-step>     </root>     <kind>minor-seventh</kind>     <staff>1</staff>    </harmony>    <note color="#000000" default-x="15">     <pitch>      <step>F</step>      <octave>4</octave>     </pitch>     <duration>768</duration>     <instrument id="P1-I1" />     <voice>1</voice>     <type>half</type>     <dot />         <staff>1</staff>    </note>    <backup>     <duration>256</duration>    </backup>    <harmony color="#000000" default-y="25">     <root>      <root-step>G</root-step>     </root>     <kind>dominant</kind>     <staff>1</staff>    </harmony>    <forward>     <duration>256</duration>    </forward>    <note color="#000000" default-x="116">     <pitch>      <step>C</step>      <octave>4</octave>     </pitch>     <duration>128</duration>     <instrument id="P1-I1" />     <voice>1</voice>     <type>eighth</type>         <staff>1</staff>     <beam number="1">begin</beam>    </note>    <note color="#000000" default-x="152">     <pitch>      <step>G</step>      <octave>4</octave>     </pitch>     <duration>128</duration>     <tie type="start" />     <instrument id="P1-I1" />     <voice>1</voice>     <type>eighth</type>         <staff>1</staff>     <beam number="1">end</beam>     <notations>      <tied type="start" orientation="under" />     </notations>    </note>    <barline location="right">     <bar-style>light-heavy</bar-style>     <ending number="1" type="stop" />     <repeat direction="backward" />    </barline>   </measure>   <!--============== Part: P1, Measure: 9 ==============-->   <measure number="9" width="144">    <barline location="left">     <ending number="2" type="start" />    </barline>    <harmony color="#000000" default-y="25">     <root>      <root-step>F</root-step>     </root>     <kind>minor-seventh</kind>     <staff>1</staff>    </harmony>    <note color="#000000" default-x="15">     <pitch>      <step>F</step>      <octave>4</octave>     </pitch>     <duration>1024</duration>     <instrument id="P1-I1" />     <voice>1</voice>     <type>whole</type>     <staff>1</staff>    </note>    <backup>     <duration>512</duration>    </backup>    <harmony color="#000000" default-y="25">     <root>      <root-step>B</root-step>      <root-alter>-1</root-alter>     </root>     <kind>dominant</kind>     <staff>1</staff>    </harmony>    <forward>     <duration>512</duration>    </forward>    <barline location="right">     <bar-style>light-light</bar-style>     <ending number="2" type="discontinue" />    </barline>   </measure>   <!--============== Part: P1, Measure: 10 ==============-->   <measure number="10" width="350">    <print new-system="yes">     <system-layout>      <system-margins>       <left-margin>22</left-margin>       <right-margin>0</right-margin>      </system-margins>      <system-distance>92</system-distance>     </system-layout>    </print>    <attributes>     <staff-details number="1" print-object="yes" />    </attributes>    <harmony color="#000000" default-y="25">     <root>      <root-step>A</root-step>     </root>     <kind>half-diminished</kind>     <staff>1</staff>    </harmony>    <note default-x="57">     <rest />     <duration>256</duration>     <instrument id="P1-I1" />     <voice>1</voice>     <type>quarter</type>     <staff>1</staff>    </note>    <note default-x="109">     <rest />     <duration>128</duration>     <instrument id="P1-I1" />     <voice>1</voice>     <type>eighth</type>     <staff>1</staff>    </note>    <note color="#000000" default-x="146" default-y="5">     <pitch>      <step>G</step>      <octave>4</octave>     </pitch>     <duration>128</duration>     <instrument id="P1-I1" />     <voice>1</voice>     <type>eighth</type>         <staff>1</staff>    </note>    <note color="#000000" default-x="183" default-y="12">     <pitch>      <step>C</step>      <octave>5</octave>     </pitch>     <duration>192</duration>     <instrument id="P1-I1" />     <voice>1</voice>     <type>eighth</type>     <dot />         <staff>1</staff>     <beam number="1">begin</beam>    </note>    <note color="#000000" default-x="228" default-y="12">     <pitch>      <step>G</step>      <octave>4</octave>     </pitch>     <duration>64</duration>     <instrument id="P1-I1" />     <voice>1</voice>     <type>16th</type>         <staff>1</staff>     <beam number="1">end</beam>     <beam number="2">backward hook</beam>    </note>    <note color="#000000" default-x="256">     <pitch>      <step>E</step>      <alter>-1</alter>      <octave>4</octave>     </pitch>     <duration>85</duration>     <instrument id="P1-I1" />     <voice>1</voice>     <type>eighth</type>     <accidental>flat</accidental>     <time-modification>      <actual-notes>3</actual-notes>      <normal-notes>2</normal-notes>      <normal-type>eighth</normal-type>     </time-modification>         <staff>1</staff>     <beam number="1">begin</beam>     <notations>      <tuplet type="start" bracket="no" number="1" default-y="-20" placement="above" />     </notations>    </note>    <note color="#000000" default-x="286">     <pitch>      <step>C</step>      <octave>4</octave>     </pitch>     <duration>85</duration>     <instrument id="P1-I1" />     <voice>1</voice>     <type>eighth</type>     <time-modification>      <actual-notes>3</actual-notes>      <normal-notes>2</normal-notes>      <normal-type>eighth</normal-type>     </time-modification>         <staff>1</staff>     <beam number="1">continue</beam>    </note>    <note color="#000000" default-x="319">     <pitch>      <step>F</step>      <alter>1</alter>      <octave>4</octave>     </pitch>     <duration>86</duration>     <tie type="start" />     <instrument id="P1-I1" />     <voice>1</voice>     <type>eighth</type>     <accidental>sharp</accidental>     <time-modification>      <actual-notes>3</actual-notes>      <normal-notes>2</normal-notes>      <normal-type>eighth</normal-type>     </time-modification>         <staff>1</staff>     <beam number="1">end</beam>     <notations>      <tuplet type="stop" bracket="no" number="1" default-y="-20" placement="above" />      <tied type="start" orientation="under" />     </notations>    </note>   </measure>   <!--============== Part: P1, Measure: 11 ==============-->   <measure number="11" width="228">    <harmony color="#000000" default-y="25">     <root>      <root-step>D</root-step>     </root>     <kind>dominant</kind>     <staff>1</staff>    </harmony>    <note color="#000000" default-x="15">     <pitch>      <step>F</step>      <alter>1</alter>      <octave>4</octave>     </pitch>     <duration>512</duration>     <tie type="stop" />     <instrument id="P1-I1" />     <voice>1</voice>     <type>half</type>         <staff>1</staff>     <notations>      <tied type="stop" orientation="under" />     </notations>    </note>    <note color="#000000" default-x="102" default-y="5">     <pitch>      <step>G</step>      <octave>4</octave>     </pitch>     <duration>256</duration>     <instrument id="P1-I1" />     <voice>1</voice>     <type>quarter</type>         <staff>1</staff>    </note>    <note color="#000000" default-x="154" default-y="9">     <pitch>      <step>A</step>      <octave>4</octave>     </pitch>     <duration>128</duration>     <instrument id="P1-I1" />     <voice>1</voice>     <type>eighth</type>         <staff>1</staff>     <beam number="1">begin</beam>    </note>    <note color="#000000" default-x="191" default-y="9">     <pitch>      <step>B</step>      <alter>-1</alter>      <octave>4</octave>     </pitch>     <duration>128</duration>     <tie type="start" />     <instrument id="P1-I1" />     <voice>1</voice>     <type>eighth</type>     <accidental>flat</accidental>         <staff>1</staff>     <beam number="1">end</beam>     <notations>      <tied type="start" orientation="under" />     </notations>    </note>   </measure>   <!--============== Part: P1, Measure: 12 ==============-->   <measure number="12" width="227">    <harmony color="#000000" default-y="25">     <root>      <root-step>G</root-step>     </root>     <kind>minor-seventh</kind>     <staff>1</staff>    </harmony>    <note color="#000000" default-x="15" default-y="-55">     <pitch>      <step>B</step>      <alter>-1</alter>      <octave>4</octave>     </pitch>     <duration>512</duration>     <tie type="stop" />     <tie type="start" />     <instrument id="P1-I1" />     <voice>1</voice>     <type>half</type>         <staff>1</staff>     <notations>      <tied type="stop" orientation="under" />      <tied type="start" orientation="over" />     </notations>    </note>    <note color="#000000" default-x="102" default-y="-55">     <pitch>      <step>B</step>      <alter>-1</alter>      <octave>4</octave>     </pitch>     <duration>170</duration>     <tie type="stop" />     <instrument id="P1-I1" />     <voice>1</voice>     <type>quarter</type>     <time-modification>      <actual-notes>3</actual-notes>      <normal-notes>2</normal-notes>      <normal-type>quarter</normal-type>     </time-modification>         <staff>1</staff>     <notations>      <tuplet type="start" bracket="yes" number="1" default-y="-67" placement="below" />      <tied type="stop" orientation="over" />     </notations>    </note>    <note color="#000000" default-x="144" default-y="-50">     <pitch>      <step>C</step>      <octave>5</octave>     </pitch>     <duration>171</duration>     <instrument id="P1-I1" />     <voice>1</voice>     <type>quarter</type>     <time-modification>      <actual-notes>3</actual-notes>      <normal-notes>2</normal-notes>      <normal-type>quarter</normal-type>     </time-modification>         <staff>1</staff>    </note>    <note color="#000000" default-x="185" default-y="10">     <pitch>      <step>A</step>      <octave>4</octave>     </pitch>     <duration>171</duration>     <instrument id="P1-I1" />     <voice>1</voice>     <type>quarter</type>     <time-modification>      <actual-notes>3</actual-notes>      <normal-notes>2</normal-notes>      <normal-type>quarter</normal-type>     </time-modification>         <staff>1</staff>     <notations>      <tuplet type="stop" bracket="yes" number="1" default-y="-67" placement="below" />     </notations>    </note>   </measure>   <!--============== Part: P1, Measure: 13 ==============-->   <measure number="13" width="226">    <harmony color="#000000" default-y="25">     <root>      <root-step>G</root-step>     </root>     <kind>minor-seventh</kind>     <bass>      <bass-step>F</bass-step>     </bass>     <staff>1</staff>    </harmony>    <note color="#000000" default-x="15" default-y="-55">     <pitch>      <step>B</step>      <alter>-1</alter>      <octave>4</octave>     </pitch>     <duration>512</duration>     <tie type="start" />     <instrument id="P1-I1" />     <voice>1</voice>     <type>half</type>     <accidental>flat</accidental>         <staff>1</staff>     <notations>      <tied type="start" orientation="over" />     </notations>    </note>    <note color="#000000" default-x="102" default-y="-55">     <pitch>      <step>B</step>      <alter>-1</alter>      <octave>4</octave>     </pitch>     <duration>170</duration>     <tie type="stop" />     <instrument id="P1-I1" />     <voice>1</voice>     <type>quarter</type>     <time-modification>      <actual-notes>3</actual-notes>      <normal-notes>2</normal-notes>      <normal-type>quarter</normal-type>     </time-modification>         <staff>1</staff>     <notations>      <tuplet type="start" bracket="yes" number="1" default-y="-67" placement="below" />      <tied type="stop" orientation="over" />     </notations>    </note>    <note color="#000000" default-x="144" default-y="-50">     <pitch>      <step>C</step>      <octave>5</octave>     </pitch>     <duration>171</duration>     <instrument id="P1-I1" />     <voice>1</voice>     <type>quarter</type>     <time-modification>      <actual-notes>3</actual-notes>      <normal-notes>2</normal-notes>      <normal-type>quarter</normal-type>     </time-modification>         <staff>1</staff>    </note>    <note color="#000000" default-x="185" default-y="10">     <pitch>      <step>A</step>      <octave>4</octave>     </pitch>     <duration>171</duration>     <instrument id="P1-I1" />     <voice>1</voice>     <type>quarter</type>     <time-modification>      <actual-notes>3</actual-notes>      <normal-notes>2</normal-notes>      <normal-type>quarter</normal-type>     </time-modification>         <staff>1</staff>     <notations>      <tuplet type="stop" bracket="yes" number="1" default-y="-67" placement="below" />     </notations>    </note>   </measure>   <!--============== Part: P1, Measure: 14 ==============-->   <measure number="14" width="326">    <print new-system="yes">     <system-layout>      <system-margins>       <left-margin>22</left-margin>       <right-margin>0</right-margin>      </system-margins>      <system-distance>92</system-distance>     </system-layout>    </print>    <attributes>     <staff-details number="1" print-object="yes" />    </attributes>    <harmony color="#000000" default-y="25">     <root>      <root-step>E</root-step>     </root>     <kind>half-diminished</kind>     <staff>1</staff>    </harmony>    <note color="#000000" default-x="57" default-y="-55">     <pitch>      <step>B</step>      <alter>-1</alter>      <octave>4</octave>     </pitch>     <duration>512</duration>     <instrument id="P1-I1" />     <voice>1</voice>     <type>half</type>     <accidental>flat</accidental>         <staff>1</staff>    </note>    <note default-x="156">     <rest />     <duration>128</duration>     <instrument id="P1-I1" />     <voice>1</voice>     <type>eighth</type>     <staff>1</staff>    </note>    <note color="#000000" default-x="199" default-y="-10">     <pitch>      <step>D</step>      <octave>4</octave>     </pitch>     <duration>128</duration>     <instrument id="P1-I1" />     <voice>1</voice>     <type>eighth</type>         <staff>1</staff>    </note>    <note color="#000000" default-x="241" default-y="9">     <pitch>      <step>G</step>      <octave>4</octave>     </pitch>     <duration>128</duration>     <instrument id="P1-I1" />     <voice>1</voice>     <type>eighth</type>         <staff>1</staff>     <beam number="1">begin</beam>    </note>    <note color="#000000" default-x="284" default-y="9">     <pitch>      <step>A</step>      <octave>4</octave>     </pitch>     <duration>128</duration>     <instrument id="P1-I1" />     <voice>1</voice>     <type>eighth</type>         <staff>1</staff>     <beam number="1">end</beam>    </note>   </measure>   <!--============== Part: P1, Measure: 15 ==============-->   <measure number="15" width="192">    <harmony color="#000000" default-y="25">     <root>      <root-step>A</root-step>     </root>     <kind>dominant</kind>     <staff>1</staff>    </harmony>    <note color="#000000" default-x="15" default-y="-55">     <pitch>      <step>B</step>      <alter>-1</alter>      <octave>4</octave>     </pitch>     <duration>768</duration>     <instrument id="P1-I1" />     <voice>1</voice>     <type>half</type>     <dot />     <accidental>flat</accidental>         <staff>1</staff>    </note>    <note color="#000000" default-x="133" default-y="10">     <pitch>      <step>A</step>      <octave>4</octave>     </pitch>     <duration>256</duration>     <instrument id="P1-I1" />     <voice>1</voice>     <type>quarter</type>         <staff>1</staff>    </note>   </measure>   <!--============== Part: P1, Measure: 16 ==============-->   <measure number="16" width="284">    <harmony color="#000000" default-y="25">     <root>      <root-step>D</root-step>     </root>     <kind>half-diminished</kind>     <staff>1</staff>    </harmony>    <note color="#000000" default-x="15" default-y="10">     <pitch>      <step>A</step>      <alter>-1</alter>      <octave>4</octave>     </pitch>     <duration>512</duration>     <instrument id="P1-I1" />     <voice>1</voice>     <type>half</type>     <accidental>flat</accidental>         <staff>1</staff>    </note>    <note default-x="114">     <rest />     <duration>128</duration>     <instrument id="P1-I1" />     <voice>1</voice>     <type>eighth</type>     <staff>1</staff>    </note>    <note color="#000000" default-x="156" default-y="-15">     <pitch>      <step>C</step>      <octave>4</octave>     </pitch>     <duration>128</duration>     <instrument id="P1-I1" />     <voice>1</voice>     <type>eighth</type>         <staff>1</staff>    </note>    <note color="#000000" default-x="199">     <pitch>      <step>F</step>      <octave>4</octave>     </pitch>     <duration>128</duration>     <instrument id="P1-I1" />     <voice>1</voice>     <type>eighth</type>         <staff>1</staff>     <beam number="1">begin</beam>    </note>    <note color="#000000" default-x="241">     <pitch>      <step>G</step>      <octave>4</octave>     </pitch>     <duration>128</duration>     <instrument id="P1-I1" />     <voice>1</voice>     <type>eighth</type>         <staff>1</staff>     <beam number="1">end</beam>    </note>   </measure>   <!--============== Part: P1, Measure: 17 ==============-->   <measure number="17" width="230">    <harmony color="#000000" default-y="25">     <root>      <root-step>G</root-step>     </root>     <kind>dominant</kind>     <staff>1</staff>    </harmony>    <note color="#000000" default-x="15" default-y="10">     <pitch>      <step>A</step>      <alter>-1</alter>      <octave>4</octave>     </pitch>     <duration>768</duration>     <instrument id="P1-I1" />     <voice>1</voice>     <type>half</type>     <dot />     <accidental>flat</accidental>         <staff>1</staff>    </note>    <note color="#000000" default-x="133">     <pitch>      <step>C</step>      <octave>4</octave>     </pitch>     <duration>128</duration>     <instrument id="P1-I1" />     <voice>1</voice>     <type>eighth</type>         <staff>1</staff>     <beam number="1">begin</beam>    </note>    <note color="#000000" default-x="175">     <pitch>      <step>G</step>      <octave>4</octave>     </pitch>     <duration>128</duration>     <tie type="start" />     <instrument id="P1-I1" />     <voice>1</voice>     <type>eighth</type>         <staff>1</staff>     <beam number="1">end</beam>     <notations>      <tied type="start" orientation="under" />     </notations>    </note>    <barline>     <bar-style>light-light</bar-style>    </barline>   </measure>   <!--============== Part: P1, Measure: 18 ==============-->   <measure number="18" width="278">    <print new-system="yes">     <system-layout>      <system-margins>       <left-margin>22</left-margin>       <right-margin>0</right-margin>      </system-margins>      <system-distance>92</system-distance>     </system-layout>    </print>    <attributes>     <staff-details number="1" print-object="yes" />    </attributes>    <harmony color="#000000" default-y="25">     <root>      <root-step>C</root-step>     </root>     <kind>minor-seventh</kind>     <staff>1</staff>    </harmony>    <note color="#000000" default-x="57" default-y="5">     <pitch>      <step>G</step>      <octave>4</octave>     </pitch>     <duration>768</duration>     <tie type="stop" />     <instrument id="P1-I1" />     <voice>1</voice>     <type>half</type>     <dot />         <staff>1</staff>     <notations>      <tied type="stop" orientation="under" />     </notations>    </note>    <harmony color="#000000" default-y="25">     <root>      <root-step>C</root-step>     </root>     <kind>minor-seventh</kind>     <bass>      <bass-step>B</bass-step>      <bass-alter>-1</bass-alter>     </bass>     <staff>1</staff>    </harmony>    <note color="#000000" default-x="185">     <pitch>      <step>C</step>      <octave>4</octave>     </pitch>     <duration>128</duration>     <instrument id="P1-I1" />     <voice>1</voice>     <type>eighth</type>         <staff>1</staff>     <beam number="1">begin</beam>    </note>    <note color="#000000" default-x="232">     <pitch>      <step>G</step>      <octave>4</octave>     </pitch>     <duration>128</duration>     <tie type="start" />     <instrument id="P1-I1" />     <voice>1</voice>     <type>eighth</type>         <staff>1</staff>     <beam number="1">end</beam>     <notations>      <tied type="start" orientation="under" />     </notations>    </note>   </measure>   <!--============== Part: P1, Measure: 19 ==============-->   <measure number="19" width="235">    <harmony color="#000000" default-y="25">     <root>      <root-step>A</root-step>     </root>     <kind>half-diminished</kind>     <staff>1</staff>    </harmony>    <note color="#000000" default-x="15" default-y="5">     <pitch>      <step>G</step>      <octave>4</octave>     </pitch>     <duration>768</duration>     <tie type="stop" />     <instrument id="P1-I1" />     <voice>1</voice>     <type>half</type>     <dot />         <staff>1</staff>     <notations>      <tied type="stop" orientation="under" />     </notations>    </note>    <backup>     <duration>256</duration>    </backup>    <harmony color="#000000" default-y="25">     <root>      <root-step>D</root-step>     </root>     <kind>dominant</kind>     <staff>1</staff>    </harmony>    <forward>     <duration>256</duration>    </forward>    <note color="#000000" default-x="143" default-y="9">     <pitch>      <step>A</step>      <octave>4</octave>     </pitch>     <duration>128</duration>     <instrument id="P1-I1" />     <voice>1</voice>     <type>eighth</type>         <staff>1</staff>     <beam number="1">begin</beam>    </note>    <note color="#000000" default-x="189" default-y="9">     <pitch>      <step>B</step>      <alter>-1</alter>      <octave>4</octave>     </pitch>     <duration>128</duration>     <tie type="start" />     <instrument id="P1-I1" />     <voice>1</voice>     <type>eighth</type>     <accidental>flat</accidental>         <staff>1</staff>     <beam number="1">end</beam>     <notations>      <tied type="start" orientation="under" />     </notations>    </note>   </measure>   <!--============== Part: P1, Measure: 20 ==============-->   <measure number="20" width="235">    <harmony color="#000000" default-y="25">     <root>      <root-step>G</root-step>     </root>     <kind>minor-seventh</kind>     <staff>1</staff>    </harmony>    <note color="#000000" default-x="15" default-y="-55">     <pitch>      <step>B</step>      <alter>-1</alter>      <octave>4</octave>     </pitch>     <duration>768</duration>     <tie type="stop" />     <instrument id="P1-I1" />     <voice>1</voice>     <type>half</type>     <dot />         <staff>1</staff>     <notations>      <tied type="stop" orientation="under" />     </notations>    </note>    <backup>     <duration>256</duration>    </backup>    <harmony color="#000000" default-y="25">     <root>      <root-step>G</root-step>     </root>     <kind>minor-seventh</kind>     <bass>      <bass-step>F</bass-step>     </bass>     <staff>1</staff>    </harmony>    <forward>     <duration>256</duration>    </forward>    <note color="#000000" default-x="143" default-y="4">     <pitch>      <step>A</step>      <octave>4</octave>     </pitch>     <duration>128</duration>     <instrument id="P1-I1" />     <voice>1</voice>     <type>eighth</type>         <staff>1</staff>     <beam number="1">begin</beam>    </note>    <note color="#000000" default-x="189" default-y="4">     <pitch>      <step>G</step>      <octave>4</octave>     </pitch>     <duration>128</duration>     <instrument id="P1-I1" />     <voice>1</voice>     <type>eighth</type>         <staff>1</staff>     <beam number="1">end</beam>    </note>   </measure>   <!--============== Part: P1, Measure: 21 ==============-->   <measure number="21" width="283">    <harmony color="#000000" default-y="25">     <root>      <root-step>E</root-step>     </root>     <kind>half-diminished</kind>     <staff>1</staff>    </harmony>    <note color="#000000" default-x="15" default-y="-55">     <pitch>      <step>B</step>      <alter>-1</alter>      <octave>4</octave>     </pitch>     <duration>768</duration>     <instrument id="P1-I1" />     <voice>1</voice>     <type>half</type>     <dot />     <accidental>flat</accidental>         <staff>1</staff>    </note>    <backup>     <duration>256</duration>    </backup>    <harmony color="#000000" default-y="25">     <root>      <root-step>A</root-step>     </root>     <kind>dominant</kind>     <staff>1</staff>    </harmony>    <forward>     <duration>256</duration>    </forward>    <note color="#000000" default-x="143" default-y="12">     <pitch>      <step>A</step>      <octave>4</octave>     </pitch>     <duration>42</duration>     <instrument id="P1-I1" />     <voice>1</voice>     <type>16th</type>     <time-modification>      <actual-notes>3</actual-notes>      <normal-notes>2</normal-notes>      <normal-type>16th</normal-type>     </time-modification>         <staff>1</staff>     <beam number="1">begin</beam>     <beam number="2">begin</beam>     <notations>      <tuplet type="start" bracket="yes" number="1" default-y="-20" placement="above" />     </notations>    </note>    <note color="#000000" default-x="174" default-y="12">     <pitch>      <step>B</step>      <alter>-1</alter>      <octave>4</octave>     </pitch>     <duration>43</duration>     <instrument id="P1-I1" />     <voice>1</voice>     <type>16th</type>     <time-modification>      <actual-notes>3</actual-notes>      <normal-notes>2</normal-notes>      <normal-type>16th</normal-type>     </time-modification>         <staff>1</staff>     <beam number="1">continue</beam>     <beam number="2">continue</beam>    </note>    <note color="#000000" default-x="206" default-y="12">     <pitch>      <step>A</step>      <octave>4</octave>     </pitch>     <duration>43</duration>     <instrument id="P1-I1" />     <voice>1</voice>     <type>16th</type>     <time-modification>      <actual-notes>3</actual-notes>      <normal-notes>2</normal-notes>      <normal-type>16th</normal-type>     </time-modification>         <staff>1</staff>     <beam number="1">continue</beam>     <beam number="2">end</beam>     <notations>      <tuplet type="stop" bracket="yes" number="1" default-y="-20" placement="above" />     </notations>    </note>    <note color="#000000" default-x="237" default-y="12">     <pitch>      <step>G</step>      <octave>4</octave>     </pitch>     <duration>128</duration>     <instrument id="P1-I1" />     <voice>1</voice>     <type>eighth</type>         <staff>1</staff>     <beam number="1">end</beam>    </note>   </measure>   <!--============== Part: P1, Measure: 22 ==============-->   <measure number="22" width="353">    <print new-system="yes">     <system-layout>      <system-margins>       <left-margin>22</left-margin>       <right-margin>0</right-margin>      </system-margins>      <system-distance>92</system-distance>     </system-layout>    </print>    <attributes>     <staff-details number="1" print-object="yes" />    </attributes>    <harmony color="#000000" default-y="25">     <root>      <root-step>D</root-step>     </root>     <kind>minor-seventh</kind>     <staff>1</staff>    </harmony>    <note color="#000000" default-x="57" default-y="10">     <pitch>      <step>A</step>      <octave>4</octave>     </pitch>     <duration>256</duration>     <instrument id="P1-I1" />     <voice>1</voice>     <type>quarter</type>         <staff>1</staff>    </note>    <note color="#000000" default-x="117" default-y="-52">     <pitch>      <step>D</step>      <octave>5</octave>     </pitch>     <duration>128</duration>     <instrument id="P1-I1" />     <voice>1</voice>     <type>eighth</type>         <staff>1</staff>     <beam number="1">begin</beam>    </note>    <note color="#000000" default-x="161" default-y="-52">     <pitch>      <step>A</step>      <alter>-1</alter>      <octave>4</octave>     </pitch>     <duration>128</duration>     <tie type="start" />     <instrument id="P1-I1" />     <voice>1</voice>     <type>eighth</type>     <accidental>flat</accidental>         <staff>1</staff>     <beam number="1">end</beam>     <notations>      <tied type="start" orientation="over" />     </notations>    </note>    <harmony color="#000000" default-y="25">     <root>      <root-step>B</root-step>     </root>     <kind>half-diminished</kind>     <staff>1</staff>    </harmony>    <note color="#000000" default-x="205" default-y="4">     <pitch>      <step>A</step>      <alter>-1</alter>      <octave>4</octave>     </pitch>     <duration>128</duration>     <tie type="stop" />     <instrument id="P1-I1" />     <voice>1</voice>     <type>eighth</type>         <staff>1</staff>     <beam number="1">begin</beam>     <notations>      <tied type="stop" orientation="over" />     </notations>    </note>    <note color="#000000" default-x="249" default-y="4">     <pitch>      <step>F</step>      <octave>4</octave>     </pitch>     <duration>128</duration>     <instrument id="P1-I1" />     <voice>1</voice>     <type>eighth</type>         <staff>1</staff>     <beam number="1">end</beam>    </note>    <note color="#000000" default-x="292" default-y="5">     <pitch>      <step>G</step>      <octave>4</octave>     </pitch>     <duration>256</duration>     <tie type="start" />     <instrument id="P1-I1" />     <voice>1</voice>     <type>quarter</type>         <staff>1</staff>     <notations>      <tied type="start" orientation="under" />     </notations>    </note>   </measure>   <!--============== Part: P1, Measure: 23 ==============-->   <measure number="23" width="224">    <harmony color="#000000" default-y="25">     <root>      <root-step>E</root-step>     </root>     <kind>minor-seventh</kind>     <staff>1</staff>    </harmony>    <note color="#000000" default-x="15" default-y="5">     <pitch>      <step>G</step>      <octave>4</octave>     </pitch>     <duration>768</duration>     <tie type="stop" />     <instrument id="P1-I1" />     <voice>1</voice>     <type>half</type>     <dot />         <staff>1</staff>     <notations>      <tied type="stop" orientation="under" />     </notations>    </note>    <backup>     <duration>256</duration>    </backup>    <harmony color="#000000" default-y="25">     <root>      <root-step>A</root-step>     </root>     <kind>dominant</kind>     <staff>1</staff>    </harmony>    <forward>     <duration>256</duration>    </forward>    <note color="#000000" default-x="136" default-y="-5">     <pitch>      <step>F</step>      <octave>4</octave>     </pitch>     <duration>128</duration>     <instrument id="P1-I1" />     <voice>1</voice>     <type>eighth</type>         <staff>1</staff>     <beam number="1">begin</beam>    </note>    <note color="#000000" default-x="180" default-y="-5">     <pitch>      <step>D</step>      <octave>4</octave>     </pitch>     <duration>128</duration>     <tie type="start" />     <instrument id="P1-I1" />     <voice>1</voice>     <type>eighth</type>         <staff>1</staff>     <beam number="1">end</beam>     <notations>      <tied type="start" orientation="under" />     </notations>    </note>   </measure>   <!--============== Part: P1, Measure: 24 ==============-->   <measure number="24" width="220">    <harmony color="#000000" default-y="25">     <root>      <root-step>D</root-step>     </root>     <kind>minor-seventh</kind>     <staff>1</staff>    </harmony>    <note color="#000000" default-x="15" default-y="-10">     <pitch>      <step>D</step>      <octave>4</octave>     </pitch>     <duration>512</duration>     <tie type="stop" />     <instrument id="P1-I1" />     <voice>1</voice>     <type>half</type>         <staff>1</staff>     <notations>      <tied type="stop" orientation="under" />     </notations>    </note>    <harmony color="#000000" default-y="25">     <root>      <root-step>D</root-step>     </root>     <kind>minor-seventh</kind>     <bass>      <bass-step>C</bass-step>     </bass>     <staff>1</staff>    </harmony>    <note color="#000000" default-x="117" default-y="-5">     <pitch>      <step>E</step>      <octave>4</octave>     </pitch>     <duration>512</duration>     <instrument id="P1-I1" />     <voice>1</voice>     <type>half</type>         <staff>1</staff>    </note>   </measure>   <!--============== Part: P1, Measure: 25 ==============-->   <measure number="25" width="235">    <harmony color="#000000" default-y="25">     <root>      <root-step>A</root-step>      <root-alter>-1</root-alter>     </root>     <kind>dominant</kind>     <staff>1</staff>    </harmony>    <note color="#000000" default-x="15">     <pitch>      <step>F</step>      <octave>4</octave>     </pitch>     <duration>512</duration>     <instrument id="P1-I1" />     <voice>1</voice>     <type>half</type>         <staff>1</staff>    </note>    <harmony color="#000000" default-y="25">     <root>      <root-step>G</root-step>     </root>     <kind>dominant</kind>     <staff>1</staff>    </harmony>    <note color="#000000" default-x="117" default-y="5">     <pitch>      <step>G</step>      <octave>4</octave>     </pitch>     <duration>512</duration>     <instrument id="P1-I1" />     <voice>1</voice>     <type>half</type>         <staff>1</staff>    </note>    <barline>     <bar-style>light-heavy</bar-style>    </barline>   </measure>  </part> </score-partwise>  